<?xml version="1.0" encoding="UTF-8" standalone="no"?>
<!DOCTYPE svg PUBLIC "-//W3C//DTD SVG 1.1//EN"
 "http://www.w3.org/Graphics/SVG/1.1/DTD/svg11.dtd">
<!-- Generated by graphviz version 10.0.1 (20240210.2158)
 -->
<!-- Pages: 1 -->
<svg width="866pt" height="1980pt"
 viewBox="0.00 0.00 866.33 1980.00" xmlns="http://www.w3.org/2000/svg" xmlns:xlink="http://www.w3.org/1999/xlink">
<g id="graph0" class="graph" transform="scale(1 1) rotate(0) translate(4 1976)">
<polygon fill="white" stroke="none" points="-4,4 -4,-1976 862.33,-1976 862.33,4 -4,4"/>
<!-- N0 -->
<g id="node1" class="node">
<title>N0</title>
<ellipse fill="none" stroke="blue" cx="626.33" cy="-1900" rx="72" ry="72"/>
<text text-anchor="middle" x="626.33" y="-1895.33" font-family="Times,serif" font-size="14.00">up:boot</text>
</g>
<!-- S1 -->
<g id="node2" class="node">
<title>S1</title>
<ellipse fill="none" stroke="green" cx="626.33" cy="-1720" rx="72" ry="72"/>
<text text-anchor="middle" x="626.33" y="-1715.33" font-family="Times,serif" font-size="14.00">up:standby</text>
</g>
<!-- N0&#45;&gt;S1 -->
<g id="edge1" class="edge">
<title>N0&#45;&gt;S1</title>
<path fill="none" stroke="green" stroke-width="2" d="M626.33,-1827.63C626.33,-1820.28 626.33,-1812.77 626.33,-1805.3"/>
<polygon fill="green" stroke="green" stroke-width="2" points="629.83,-1805.42 626.33,-1795.42 622.83,-1805.42 629.83,-1805.42"/>
</g>
<!-- S2 -->
<g id="node3" class="node">
<title>S2</title>
<ellipse fill="none" stroke="green" cx="574.33" cy="-1540" rx="72" ry="72"/>
<text text-anchor="middle" x="574.33" y="-1535.33" font-family="Times,serif" font-size="14.00">up:standby_replay</text>
</g>
<!-- S1&#45;&gt;S2 -->
<g id="edge2" class="edge">
<title>S1&#45;&gt;S2</title>
<path fill="none" stroke="green" stroke-width="2" d="M606.3,-1650.44C603.58,-1641.11 600.76,-1631.46 597.98,-1621.94"/>
<polygon fill="green" stroke="green" stroke-width="2" points="601.37,-1621.05 595.2,-1612.44 594.65,-1623.02 601.37,-1621.05"/>
</g>
<!-- N1 -->
<g id="node4" class="node">
<title>N1</title>
<ellipse fill="none" stroke="orange" cx="678.33" cy="-1356" rx="72" ry="72"/>
<ellipse fill="none" stroke="orange" cx="678.33" cy="-1356" rx="76" ry="76"/>
<text text-anchor="middle" x="678.33" y="-1351.33" font-family="Times,serif" font-size="14.00">up:creating</text>
</g>
<!-- S1&#45;&gt;N1 -->
<g id="edge3" class="edge">
<title>S1&#45;&gt;N1</title>
<path fill="none" stroke="orange" stroke-width="2" d="M646.77,-1650.62C650.03,-1637.87 653.08,-1624.6 655.33,-1612 665.19,-1556.97 670.92,-1494.47 674.19,-1445.12"/>
<polygon fill="orange" stroke="orange" stroke-width="2" points="677.67,-1445.44 674.82,-1435.24 670.69,-1445 677.67,-1445.44"/>
</g>
<!-- N2 -->
<g id="node5" class="node">
<title>N2</title>
<ellipse fill="none" stroke="orange" cx="782.33" cy="-604" rx="72" ry="72"/>
<ellipse fill="none" stroke="orange" cx="782.33" cy="-604" rx="76" ry="76"/>
<text text-anchor="middle" x="782.33" y="-599.33" font-family="Times,serif" font-size="14.00">up:starting</text>
</g>
<!-- S1&#45;&gt;N2 -->
<g id="edge4" class="edge">
<title>S1&#45;&gt;N2</title>
<path fill="none" stroke="orange" stroke-width="2" d="M668.55,-1661.45C714.75,-1592.66 782.33,-1472.31 782.33,-1357 782.33,-1357 782.33,-1357 782.33,-979 782.33,-881.1 782.33,-768.78 782.33,-692.99"/>
<polygon fill="orange" stroke="orange" stroke-width="2" points="785.83,-693.24 782.33,-683.24 778.83,-693.24 785.83,-693.24"/>
</g>
<!-- N3 -->
<g id="node6" class="node">
<title>N3</title>
<ellipse fill="none" stroke="orange" cx="242.33" cy="-1356" rx="72" ry="72"/>
<ellipse fill="none" stroke="orange" cx="242.33" cy="-1356" rx="76" ry="76"/>
<text text-anchor="middle" x="242.33" y="-1351.33" font-family="Times,serif" font-size="14.00">up:replay</text>
</g>
<!-- S1&#45;&gt;N3 -->
<g id="edge5" class="edge">
<title>S1&#45;&gt;N3</title>
<path fill="none" stroke="orange" stroke-width="2" d="M569.49,-1675.63C545.46,-1656.7 517.51,-1633.87 493.33,-1612 425.11,-1550.28 351.81,-1474.62 302.15,-1421.81"/>
<polygon fill="orange" stroke="orange" stroke-width="2" points="304.93,-1419.66 295.54,-1414.76 299.83,-1424.45 304.93,-1419.66"/>
</g>
<!-- S2&#45;&gt;N3 -->
<g id="edge6" class="edge">
<title>S2&#45;&gt;N3</title>
<path fill="none" stroke="orange" stroke-width="2" d="M511.5,-1504.55C457.21,-1474.8 378.55,-1431.67 320.27,-1399.72"/>
<polygon fill="orange" stroke="orange" stroke-width="2" points="322,-1396.68 311.55,-1394.95 318.64,-1402.82 322,-1396.68"/>
</g>
<!-- D1 -->
<g id="node14" class="node">
<title>D1</title>
<polygon fill="none" stroke="black" points="475.33,-98 439.33,-116 367.33,-116 331.33,-98 367.33,-80 439.33,-80 475.33,-98"/>
<text text-anchor="middle" x="403.33" y="-93.33" font-family="Times,serif" font-size="14.00">down:damaged</text>
</g>
<!-- S2&#45;&gt;D1 -->
<g id="edge26" class="edge">
<title>S2&#45;&gt;D1</title>
<path fill="none" stroke="black" stroke-width="2" d="M574.33,-1467.72C574.33,-1393.22 574.33,-1272.9 574.33,-1169 574.33,-1169 574.33,-1169 574.33,-791 574.33,-653.89 525.04,-626.49 498.33,-492 468.6,-342.25 512.84,-290.84 449.33,-152 444.99,-142.5 438.39,-133.41 431.53,-125.53"/>
<polygon fill="black" stroke="black" stroke-width="2" points="434.32,-123.38 424.93,-118.46 429.2,-128.16 434.32,-123.38"/>
</g>
<!-- S0 -->
<g id="node11" class="node">
<title>S0</title>
<ellipse fill="none" stroke="green" cx="583.33" cy="-416" rx="72" ry="72"/>
<ellipse fill="none" stroke="green" cx="583.33" cy="-416" rx="76" ry="76"/>
<text text-anchor="middle" x="583.33" y="-411.32" font-family="Times,serif" font-size="14.00">up:active</text>
</g>
<!-- N1&#45;&gt;S0 -->
<g id="edge13" class="edge">
<title>N1&#45;&gt;S0</title>
<path fill="none" stroke="green" stroke-width="2" d="M667.85,-1280.31C658.18,-1204.94 645.33,-1085.13 645.33,-981 645.33,-981 645.33,-981 645.33,-791 645.33,-690.78 623.4,-577.46 605.62,-502.08"/>
<polygon fill="green" stroke="green" stroke-width="2" points="609.13,-501.71 603.4,-492.8 602.32,-503.34 609.13,-501.71"/>
</g>
<!-- N2&#45;&gt;S0 -->
<g id="edge14" class="edge">
<title>N2&#45;&gt;S0</title>
<path fill="none" stroke="green" stroke-width="2" d="M727.17,-551.44C702.58,-528.46 673.45,-501.23 647.86,-477.31"/>
<polygon fill="green" stroke="green" stroke-width="2" points="650.52,-475 640.82,-470.73 645.74,-480.12 650.52,-475"/>
</g>
<!-- D0 -->
<g id="node13" class="node">
<title>D0</title>
<polygon fill="none" stroke="red" points="267.33,-22 231.33,-40 159.33,-40 123.33,-22 159.33,-4 231.33,-4 267.33,-22"/>
<polygon fill="none" stroke="red" points="276.28,-22 232.28,-44 158.39,-44 114.39,-22 158.39,0 232.28,0 276.28,-22"/>
<text text-anchor="middle" x="195.33" y="-17.32" font-family="Times,serif" font-size="14.00">down:failed</text>
</g>
<!-- N2&#45;&gt;D0 -->
<g id="edge17" class="edge">
<title>N2&#45;&gt;D0</title>
<path fill="none" stroke="red" stroke-width="2" d="M808.35,-532.38C844.38,-420.84 893.14,-203.85 780.33,-80 747.61,-44.07 439.59,-30.05 284.15,-25.23"/>
<polygon fill="red" stroke="red" stroke-width="2" points="284.54,-21.74 274.44,-24.93 284.33,-28.73 284.54,-21.74"/>
</g>
<!-- N4 -->
<g id="node7" class="node">
<title>N4</title>
<ellipse fill="none" stroke="orange" cx="138.33" cy="-1168" rx="72" ry="72"/>
<ellipse fill="none" stroke="orange" cx="138.33" cy="-1168" rx="76" ry="76"/>
<text text-anchor="middle" x="138.33" y="-1163.33" font-family="Times,serif" font-size="14.00">up:resolve</text>
</g>
<!-- N3&#45;&gt;N4 -->
<g id="edge7" class="edge">
<title>N3&#45;&gt;N4</title>
<path fill="none" stroke="orange" stroke-width="2" d="M205.52,-1289.16C197.73,-1275.23 189.44,-1260.4 181.44,-1246.09"/>
<polygon fill="orange" stroke="orange" stroke-width="2" points="184.51,-1244.41 176.57,-1237.39 178.4,-1247.83 184.51,-1244.41"/>
</g>
<!-- N5 -->
<g id="node8" class="node">
<title>N5</title>
<ellipse fill="none" stroke="orange" cx="242.33" cy="-980" rx="72" ry="72"/>
<ellipse fill="none" stroke="orange" cx="242.33" cy="-980" rx="76" ry="76"/>
<text text-anchor="middle" x="242.33" y="-975.33" font-family="Times,serif" font-size="14.00">up:reconnect</text>
</g>
<!-- N3&#45;&gt;N5 -->
<g id="edge8" class="edge">
<title>N3&#45;&gt;N5</title>
<path fill="none" stroke="orange" stroke-width="2" d="M242.33,-1279.77C242.33,-1219 242.33,-1133.36 242.33,-1069.34"/>
<polygon fill="orange" stroke="orange" stroke-width="2" points="245.83,-1069.46 242.33,-1059.46 238.83,-1069.46 245.83,-1069.46"/>
</g>
<!-- N3&#45;&gt;D0 -->
<g id="edge18" class="edge">
<title>N3&#45;&gt;D0</title>
<path fill="none" stroke="red" stroke-width="2" d="M169.49,-1333.58C125.87,-1316.23 73.51,-1287.43 44.33,-1244 -21.53,-1145.97 6.33,-1099.1 6.33,-981 6.33,-981 6.33,-981 6.33,-227 6.33,-152.19 33.6,-131 88.33,-80 102.86,-66.46 121.16,-54.74 138.56,-45.51"/>
<polygon fill="red" stroke="red" stroke-width="2" points="139.77,-48.82 147.11,-41.18 136.6,-42.57 139.77,-48.82"/>
</g>
<!-- N3&#45;&gt;D1 -->
<g id="edge27" class="edge">
<title>N3&#45;&gt;D1</title>
<path fill="none" stroke="black" stroke-width="2" d="M302.03,-1308.55C377.68,-1243.97 498.33,-1119.29 498.33,-981 498.33,-981 498.33,-981 498.33,-791 498.33,-788.77 427.92,-154.15 427.33,-152 425.11,-143.92 421.81,-135.5 418.36,-127.82"/>
<polygon fill="black" stroke="black" stroke-width="2" points="421.55,-126.38 414.07,-118.88 415.24,-129.41 421.55,-126.38"/>
</g>
<!-- N4&#45;&gt;N5 -->
<g id="edge9" class="edge">
<title>N4&#45;&gt;N5</title>
<path fill="none" stroke="orange" stroke-width="2" d="M175.15,-1101.16C182.94,-1087.23 191.23,-1072.4 199.23,-1058.09"/>
<polygon fill="orange" stroke="orange" stroke-width="2" points="202.27,-1059.83 204.09,-1049.39 196.16,-1056.41 202.27,-1059.83"/>
</g>
<!-- N4&#45;&gt;D0 -->
<g id="edge19" class="edge">
<title>N4&#45;&gt;D0</title>
<path fill="none" stroke="red" stroke-width="2" d="M114.91,-1095.48C92.58,-1020.85 62.33,-900.01 62.33,-793 62.33,-793 62.33,-793 62.33,-227 62.33,-155.02 83.98,-135.07 130.33,-80 138.44,-70.37 148.21,-60.93 157.69,-52.59"/>
<polygon fill="red" stroke="red" stroke-width="2" points="159.73,-55.45 165.07,-46.3 155.19,-50.13 159.73,-55.45"/>
</g>
<!-- N4&#45;&gt;D1 -->
<g id="edge28" class="edge">
<title>N4&#45;&gt;D1</title>
<path fill="none" stroke="black" stroke-width="2" d="M138.33,-1091.78C138.33,-1016.26 138.33,-896.56 138.33,-793 138.33,-793 138.33,-793 138.33,-415 138.33,-282.58 180.67,-241.42 278.33,-152 296.74,-135.15 321.31,-123.17 343.79,-114.91"/>
<polygon fill="black" stroke="black" stroke-width="2" points="344.84,-118.25 353.15,-111.69 342.56,-111.64 344.84,-118.25"/>
</g>
<!-- N6 -->
<g id="node9" class="node">
<title>N6</title>
<ellipse fill="none" stroke="orange" cx="356.33" cy="-792" rx="72" ry="72"/>
<ellipse fill="none" stroke="orange" cx="356.33" cy="-792" rx="76" ry="76"/>
<text text-anchor="middle" x="356.33" y="-787.33" font-family="Times,serif" font-size="14.00">up:rejoin</text>
</g>
<!-- N5&#45;&gt;N6 -->
<g id="edge10" class="edge">
<title>N5&#45;&gt;N6</title>
<path fill="none" stroke="orange" stroke-width="2" d="M281.73,-914.73C290.89,-899.77 300.73,-883.72 310.16,-868.33"/>
<polygon fill="orange" stroke="orange" stroke-width="2" points="313.12,-870.21 315.36,-859.85 307.15,-866.55 313.12,-870.21"/>
</g>
<!-- N5&#45;&gt;D0 -->
<g id="edge20" class="edge">
<title>N5&#45;&gt;D0</title>
<path fill="none" stroke="red" stroke-width="2" d="M201.83,-915.25C159.86,-842.95 100.33,-720.12 100.33,-605 100.33,-605 100.33,-605 100.33,-227 100.33,-160.76 142.01,-92.77 170.15,-54.41"/>
<polygon fill="red" stroke="red" stroke-width="2" points="172.65,-56.92 175.87,-46.82 167.06,-52.71 172.65,-56.92"/>
</g>
<!-- N5&#45;&gt;D1 -->
<g id="edge29" class="edge">
<title>N5&#45;&gt;D1</title>
<path fill="none" stroke="black" stroke-width="2" d="M239.44,-903.75C237.27,-843.29 234.48,-756.2 233.33,-680 232.32,-612.45 222.62,-594.7 233.33,-528 261.24,-354.26 270.41,-304.99 357.33,-152 362.58,-142.76 369.59,-133.67 376.55,-125.7"/>
<polygon fill="black" stroke="black" stroke-width="2" points="378.98,-128.23 383.16,-118.49 373.82,-123.5 378.98,-128.23"/>
</g>
<!-- N7 -->
<g id="node10" class="node">
<title>N7</title>
<ellipse fill="none" stroke="orange" cx="318.33" cy="-604" rx="72" ry="72"/>
<ellipse fill="none" stroke="orange" cx="318.33" cy="-604" rx="76" ry="76"/>
<text text-anchor="middle" x="318.33" y="-599.33" font-family="Times,serif" font-size="14.00">up:clientreplay</text>
</g>
<!-- N6&#45;&gt;N7 -->
<g id="edge11" class="edge">
<title>N6&#45;&gt;N7</title>
<path fill="none" stroke="orange" stroke-width="2" d="M341.26,-717.22C339.52,-708.7 337.73,-699.96 335.96,-691.29"/>
<polygon fill="orange" stroke="orange" stroke-width="2" points="339.43,-690.75 333.99,-681.66 332.57,-692.15 339.43,-690.75"/>
</g>
<!-- N6&#45;&gt;S0 -->
<g id="edge15" class="edge">
<title>N6&#45;&gt;S0</title>
<path fill="none" stroke="green" stroke-width="2" d="M401.84,-730.51C413.46,-714.36 425.68,-696.73 436.33,-680 447.5,-662.46 501.5,-565.26 540.82,-494.12"/>
<polygon fill="green" stroke="green" stroke-width="2" points="543.76,-496.03 545.53,-485.59 537.63,-492.65 543.76,-496.03"/>
</g>
<!-- N6&#45;&gt;D0 -->
<g id="edge21" class="edge">
<title>N6&#45;&gt;D0</title>
<path fill="none" stroke="red" stroke-width="2" d="M294.24,-747.98C271.88,-729.5 248.47,-706.13 233.33,-680 173.38,-576.51 176.33,-536.6 176.33,-417 176.33,-417 176.33,-417 176.33,-227 176.33,-167.05 184.57,-97.62 190.2,-57.17"/>
<polygon fill="red" stroke="red" stroke-width="2" points="193.65,-57.77 191.6,-47.38 186.72,-56.78 193.65,-57.77"/>
</g>
<!-- N6&#45;&gt;D1 -->
<g id="edge30" class="edge">
<title>N6&#45;&gt;D1</title>
<path fill="none" stroke="black" stroke-width="2" d="M389.98,-723.39C395.52,-709.37 400.4,-694.46 403.33,-680 445.34,-473.06 418.64,-216.04 407.52,-129.24"/>
<polygon fill="black" stroke="black" stroke-width="2" points="410.99,-128.82 406.22,-119.36 404.05,-129.73 410.99,-128.82"/>
</g>
<!-- D3 -->
<g id="node15" class="node">
<title>D3</title>
<polygon fill="none" stroke="purple" points="771.33,-98 735.33,-116 663.33,-116 627.33,-98 663.33,-80 735.33,-80 771.33,-98"/>
<text text-anchor="middle" x="699.33" y="-93.33" font-family="Times,serif" font-size="14.00">down:stopped</text>
</g>
<!-- N6&#45;&gt;D3 -->
<g id="edge36" class="edge">
<title>N6&#45;&gt;D3</title>
<path fill="none" stroke="purple" stroke-width="2" d="M417.85,-746.72C487.67,-693.52 600.6,-598.07 668.33,-492 716.84,-416.04 727.13,-392.47 744.33,-304 757.23,-237.69 767.62,-215.41 744.33,-152 740.86,-142.55 734.87,-133.62 728.38,-125.89"/>
<polygon fill="purple" stroke="purple" stroke-width="2" points="731.11,-123.69 721.76,-118.7 725.95,-128.43 731.11,-123.69"/>
</g>
<!-- N7&#45;&gt;S0 -->
<g id="edge12" class="edge">
<title>N7&#45;&gt;S0</title>
<path fill="none" stroke="green" stroke-width="2" d="M380.46,-559.39C419.59,-531.93 470.24,-496.38 511.15,-467.67"/>
<polygon fill="green" stroke="green" stroke-width="2" points="512.94,-470.68 519.11,-462.07 508.92,-464.95 512.94,-470.68"/>
</g>
<!-- N7&#45;&gt;D0 -->
<g id="edge22" class="edge">
<title>N7&#45;&gt;D0</title>
<path fill="none" stroke="red" stroke-width="2" d="M302.69,-529.25C275.83,-402.59 221.95,-148.51 202.52,-56.9"/>
<polygon fill="red" stroke="red" stroke-width="2" points="205.99,-56.38 200.49,-47.32 199.14,-57.83 205.99,-56.38"/>
</g>
<!-- N7&#45;&gt;D1 -->
<g id="edge31" class="edge">
<title>N7&#45;&gt;D1</title>
<path fill="none" stroke="black" stroke-width="2" d="M327.71,-528.36C339.53,-438.56 361.7,-283.48 389.33,-152 390.94,-144.34 392.97,-136.13 394.97,-128.51"/>
<polygon fill="black" stroke="black" stroke-width="2" points="398.31,-129.57 397.55,-119 391.55,-127.73 398.31,-129.57"/>
</g>
<!-- S3 -->
<g id="node12" class="node">
<title>S3</title>
<ellipse fill="none" stroke="purple" cx="659.33" cy="-228" rx="72" ry="72"/>
<ellipse fill="none" stroke="purple" cx="659.33" cy="-228" rx="76" ry="76"/>
<text text-anchor="middle" x="659.33" y="-223.32" font-family="Times,serif" font-size="14.00">up:stopping</text>
</g>
<!-- S0&#45;&gt;S3 -->
<g id="edge16" class="edge">
<title>S0&#45;&gt;S3</title>
<path fill="none" stroke="purple" stroke-width="2" d="M611.85,-345.21C616.44,-333.96 621.24,-322.23 625.94,-310.74"/>
<polygon fill="purple" stroke="purple" stroke-width="2" points="629.1,-312.25 629.64,-301.67 622.62,-309.61 629.1,-312.25"/>
</g>
<!-- S0&#45;&gt;D0 -->
<g id="edge23" class="edge">
<title>S0&#45;&gt;D0</title>
<path fill="none" stroke="red" stroke-width="2" d="M576.23,-339.97C569.3,-286.13 556.04,-212.67 531.33,-152 516.92,-116.61 516.01,-101.38 484.33,-80 450.69,-57.3 347.67,-40.84 274.24,-31.6"/>
<polygon fill="red" stroke="red" stroke-width="2" points="274.71,-28.13 264.36,-30.39 273.85,-35.08 274.71,-28.13"/>
</g>
<!-- S0&#45;&gt;D1 -->
<g id="edge32" class="edge">
<title>S0&#45;&gt;D1</title>
<path fill="none" stroke="black" stroke-width="2" d="M556.08,-344.75C551.04,-331.27 545.92,-317.24 541.33,-304 518.12,-237.07 537.45,-207.43 493.33,-152 483,-139.01 468.55,-128.54 454.25,-120.44"/>
<polygon fill="black" stroke="black" stroke-width="2" points="456.05,-117.43 445.57,-115.86 452.78,-123.62 456.05,-117.43"/>
</g>
<!-- S3&#45;&gt;D0 -->
<g id="edge24" class="edge">
<title>S3&#45;&gt;D0</title>
<path fill="none" stroke="red" stroke-width="2" d="M632.05,-156.63C617.6,-128.46 597,-98.38 569.33,-80 523.24,-49.38 375.79,-34.37 280.38,-27.69"/>
<polygon fill="red" stroke="red" stroke-width="2" points="280.8,-24.21 270.59,-27.03 280.33,-31.2 280.8,-24.21"/>
</g>
<!-- S3&#45;&gt;D1 -->
<g id="edge33" class="edge">
<title>S3&#45;&gt;D1</title>
<path fill="none" stroke="black" stroke-width="2" d="M594.84,-186.89C574.81,-175.06 552.44,-162.49 531.33,-152 507.03,-139.92 479.29,-128.19 455.85,-118.85"/>
<polygon fill="black" stroke="black" stroke-width="2" points="457.44,-115.72 446.85,-115.31 454.87,-122.23 457.44,-115.72"/>
</g>
<!-- S3&#45;&gt;D3 -->
<g id="edge35" class="edge">
<title>S3&#45;&gt;D3</title>
<path fill="none" stroke="purple" stroke-width="2" d="M681.79,-155.14C684.75,-145.68 687.63,-136.46 690.18,-128.3"/>
<polygon fill="purple" stroke="purple" stroke-width="2" points="693.44,-129.61 693.08,-119.02 686.75,-127.52 693.44,-129.61"/>
</g>
<!-- D0&#45;&gt;N3 -->
<g id="edge25" class="edge">
<title>D0&#45;&gt;N3</title>
<path fill="none" stroke="red" stroke-width="2" d="M157.91,-44.13C141.02,-53.56 121.6,-65.78 106.33,-80 51.6,-131 24.33,-152.19 24.33,-227 24.33,-981 24.33,-981 24.33,-981 24.33,-1099.1 -3.53,-1145.97 62.33,-1244 85.89,-1279.06 124.54,-1304.58 160.05,-1322.25"/>
<polygon fill="red" stroke="red" stroke-width="2" points="158.18,-1325.23 168.71,-1326.4 161.2,-1318.92 158.18,-1325.23"/>
</g>
<!-- D1&#45;&gt;D0 -->
<g id="edge34" class="edge">
<title>D1&#45;&gt;D0</title>
<path fill="none" stroke="red" stroke-width="2" d="M362.24,-82.38C331.21,-71.34 288.21,-56.04 253.63,-43.74"/>
<polygon fill="red" stroke="red" stroke-width="2" points="255.23,-40.59 244.63,-40.54 252.88,-47.19 255.23,-40.59"/>
</g>
</g>
</svg>
