<?xml version="1.0" encoding="UTF-8" standalone="no"?>
<!DOCTYPE svg PUBLIC "-//W3C//DTD SVG 1.1//EN"
 "http://www.w3.org/Graphics/SVG/1.1/DTD/svg11.dtd">
<!-- Generated by graphviz version 2.40.1 (20161225.0304)
 -->
<!-- Title: G Pages: 1 -->
<svg width="318pt" height="504pt"
 viewBox="0.00 0.00 317.82 504.00" xmlns="http://www.w3.org/2000/svg" xmlns:xlink="http://www.w3.org/1999/xlink">
<g id="graph0" class="graph" transform="scale(.0877 .0877) rotate(0) translate(4 5743)">
<title>G</title>
<polygon fill="#ffffff" stroke="transparent" points="-4,4 -4,-5743 3620,-5743 3620,4 -4,4"/>
<g id="clust1" class="cluster">
<title>cluster0</title>
<polygon fill="none" stroke="#0000ff" points="8,-8 8,-5731 3608,-5731 3608,-8 8,-8"/>
<text text-anchor="middle" x="1808" y="-5715.8" font-family="Times,serif" font-size="14.00" fill="#000000">RecoveryMachine</text>
</g>
<g id="clust2" class="cluster">
<title>cluster1</title>
<polygon fill="none" stroke="#0000ff" points="392,-16 392,-5700 3503,-5700 3503,-16 392,-16"/>
<text text-anchor="middle" x="1947.5" y="-5684.8" font-family="Times,serif" font-size="14.00" fill="#000000">Started</text>
</g>
<g id="clust3" class="cluster">
<title>cluster2</title>
<polygon fill="none" stroke="#0000ff" points="400,-24 400,-5412 1799,-5412 1799,-24 400,-24"/>
<text text-anchor="middle" x="1099.5" y="-5396.8" font-family="Times,serif" font-size="14.00" fill="#000000">Primary</text>
</g>
<g id="clust4" class="cluster">
<title>cluster3</title>
<polygon fill="none" stroke="#0000ff" points="608,-2999 608,-5381 944,-5381 944,-2999 608,-2999"/>
<text text-anchor="middle" x="776" y="-5365.8" font-family="Times,serif" font-size="14.00" fill="#000000">Peering</text>
</g>
<g id="clust5" class="cluster">
<title>cluster4</title>
<polygon fill="none" stroke="#0000ff" points="952,-32 952,-4944 1791,-4944 1791,-32 952,-32"/>
<text text-anchor="middle" x="1371.5" y="-4928.8" font-family="Times,serif" font-size="14.00" fill="#000000">Active</text>
</g>
<g id="clust6" class="cluster">
<title>cluster5</title>
<polygon fill="none" stroke="#0000ff" points="2200,-4668 2200,-5669 3495,-5669 3495,-4668 2200,-4668"/>
<text text-anchor="middle" x="2847.5" y="-5653.8" font-family="Times,serif" font-size="14.00" fill="#000000">ReplicaActive</text>
</g>
<g id="clust7" class="cluster">
<title>cluster6</title>
<polygon fill="none" stroke="#0000ff" points="1807,-4467 1807,-4944 2192,-4944 2192,-4467 1807,-4467"/>
<text text-anchor="middle" x="1999.5" y="-4928.8" font-family="Times,serif" font-size="14.00" fill="#000000">ToDelete</text>
</g>
<!-- Crashed -->
<g id="node1" class="node">
<title>Crashed</title>
<ellipse fill="none" stroke="#000000" cx="136" cy="-4243" rx="49.2915" ry="18"/>
<text text-anchor="middle" x="136" y="-4239.3" font-family="Times,serif" font-size="14.00" fill="#000000">Crashed</text>
</g>
<!-- Initial -->
<g id="node2" class="node">
<title>Initial</title>
<polygon fill="none" stroke="#000000" points="330,-5527 275.5385,-5509 330,-5491 384.4615,-5509 330,-5527"/>
<polyline fill="none" stroke="#000000" points="286.9323,-5512.7658 286.9323,-5505.2342 "/>
<polyline fill="none" stroke="#000000" points="318.6062,-5494.7658 341.3938,-5494.7658 "/>
<polyline fill="none" stroke="#000000" points="373.0677,-5505.2342 373.0677,-5512.7658 "/>
<polyline fill="none" stroke="#000000" points="341.3938,-5523.2342 318.6062,-5523.2342 "/>
<text text-anchor="middle" x="330" y="-5505.3" font-family="Times,serif" font-size="14.00" fill="#000000">Initial</text>
</g>
<!-- Initial&#45;&gt;Crashed -->
<g id="edge12" class="edge">
<title>Initial&#45;&gt;Crashed</title>
<path fill="none" stroke="#000000" d="M318.8708,-5494.4672C310.6926,-5482.3266 301,-5464.2035 301,-5446.5 301,-5446.5 301,-5446.5 301,-5004.5 301,-4946.0758 308.9934,-4919.59 269,-4877 250.4783,-4857.2758 169.1865,-4861.6817 153,-4840 114.1734,-4787.9919 150,-4758.9026 150,-4694 150,-4694 150,-4694 150,-4456.5 150,-4390.008 143.155,-4312.1167 139.0375,-4271.2776"/>
<polygon fill="#000000" stroke="#000000" points="142.5111,-4270.8406 138.0059,-4261.2514 135.5479,-4271.5572 142.5111,-4270.8406"/>
<text text-anchor="middle" x="258.5" y="-4828.8" font-family="Times,serif" font-size="14.00" fill="#000000">boost::statechart::event_base</text>
</g>
<!-- Reset -->
<g id="node3" class="node">
<title>Reset</title>
<ellipse fill="none" stroke="#000000" cx="347" cy="-4368" rx="37.0935" ry="18"/>
<text text-anchor="middle" x="347" y="-4364.3" font-family="Times,serif" font-size="14.00" fill="#000000">Reset</text>
</g>
<!-- Initial&#45;&gt;Reset -->
<g id="edge27" class="edge">
<title>Initial&#45;&gt;Reset</title>
<path fill="none" stroke="#000000" d="M326.2353,-5492.1174C323.7691,-5479.5942 321,-5462.0669 321,-5446.5 321,-5446.5 321,-5446.5 321,-4952.5 321,-4918.5232 317.9884,-4907.4807 333,-4877 349.9718,-4842.539 383,-4844.9136 383,-4806.5 383,-4806.5 383,-4806.5 383,-4430.5 383,-4416.7659 376.3919,-4403.3279 368.8381,-4392.4531"/>
<polygon fill="#000000" stroke="#000000" points="371.5114,-4390.1858 362.6854,-4384.3247 365.93,-4394.4105 371.5114,-4390.1858"/>
<text text-anchor="middle" x="364.5" y="-4891.3" font-family="Times,serif" font-size="14.00" fill="#000000">Initialize</text>
</g>
<!-- GetInfo -->
<g id="node6" class="node">
<title>GetInfo</title>
<polygon fill="none" stroke="#000000" points="758,-5350 693.8176,-5332 758,-5314 822.1824,-5332 758,-5350"/>
<polyline fill="none" stroke="#000000" points="705.3718,-5335.2404 705.3718,-5328.7596 "/>
<polyline fill="none" stroke="#000000" points="746.4458,-5317.2404 769.5542,-5317.2404 "/>
<polyline fill="none" stroke="#000000" points="810.6282,-5328.7596 810.6282,-5335.2404 "/>
<polyline fill="none" stroke="#000000" points="769.5542,-5346.7596 746.4458,-5346.7596 "/>
<text text-anchor="middle" x="758" y="-5328.3" font-family="Times,serif" font-size="14.00" fill="#000000">GetInfo</text>
</g>
<!-- Initial&#45;&gt;GetInfo -->
<g id="edge16" class="edge">
<title>Initial&#45;&gt;GetInfo</title>
<path fill="none" stroke="#000000" d="M334.593,-5492.4872C341.7635,-5470.5017 358.0091,-5432.8905 388,-5420 416.6107,-5407.7027 626.0038,-5423.8098 680.295,-5414.6307"/>
<polygon fill="#000000" stroke="#000000" points="681.264,-5417.9944 690,-5412 679.4326,-5411.2382 681.264,-5417.9944"/>
<text text-anchor="middle" x="404.5" y="-5442.8" font-family="Times,serif" font-size="14.00" fill="#000000">MNotifyRec</text>
</g>
<!-- Stray -->
<g id="node27" class="node">
<title>Stray</title>
<ellipse fill="none" stroke="#000000" cx="1884" cy="-5332" rx="36.2938" ry="18"/>
<text text-anchor="middle" x="1884" y="-5328.3" font-family="Times,serif" font-size="14.00" fill="#000000">Stray</text>
</g>
<!-- Initial&#45;&gt;Stray -->
<g id="edge19" class="edge">
<title>Initial&#45;&gt;Stray</title>
<path fill="none" stroke="#000000" d="M354.1701,-5498.9696C404.7841,-5478.6266 526.0921,-5433.3162 633,-5420 702.4856,-5411.345 878.0846,-5415.8722 948,-5412 1290.8098,-5393.0139 1702.7593,-5351.1557 1838.3224,-5336.8808"/>
<polygon fill="#000000" stroke="#000000" points="1838.7715,-5340.353 1848.3487,-5335.8222 1838.0364,-5333.3917 1838.7715,-5340.353"/>
<text text-anchor="middle" x="566.5" y="-5442.8" font-family="Times,serif" font-size="14.00" fill="#000000">MLogRec</text>
</g>
<!-- Initial&#45;&gt;Stray -->
<g id="edge45" class="edge">
<title>Initial&#45;&gt;Stray</title>
<path fill="none" stroke="#000000" d="M356.9422,-5499.832C366.6544,-5496.7421 377.7473,-5493.4578 388,-5491 482.7147,-5468.2945 508.8584,-5474.8445 604,-5454 629.1693,-5448.4857 634.8817,-5444.742 660,-5439 704.1019,-5428.9183 715.06,-5425.1976 760,-5420 843.0774,-5410.3916 864.5395,-5417.34 948,-5412 1290.6345,-5390.0775 1702.697,-5350.1122 1838.3058,-5336.6027"/>
<polygon fill="#000000" stroke="#000000" points="1838.7327,-5340.0776 1848.3355,-5335.6015 1838.0373,-5333.1122 1838.7327,-5340.0776"/>
<text text-anchor="middle" x="694.5" y="-5442.8" font-family="Times,serif" font-size="14.00" fill="#000000">MInfoRec</text>
</g>
<!-- Reset&#45;&gt;Crashed -->
<g id="edge13" class="edge">
<title>Reset&#45;&gt;Crashed</title>
<path fill="none" stroke="#000000" d="M323.2058,-4353.9039C285.9764,-4331.8486 213.7703,-4289.0725 170.7287,-4263.5739"/>
<polygon fill="#000000" stroke="#000000" points="172.3974,-4260.4944 162.0099,-4258.4087 168.8295,-4266.5169 172.3974,-4260.4944"/>
<text text-anchor="middle" x="357.5" y="-4301.8" font-family="Times,serif" font-size="14.00" fill="#000000">boost::statechart::event_base</text>
</g>
<!-- Start -->
<g id="node4" class="node">
<title>Start</title>
<polygon fill="none" stroke="#000000" points="643,-5638 594.0684,-5620 643,-5602 691.9316,-5620 643,-5638"/>
<polyline fill="none" stroke="#000000" points="605.3305,-5624.1429 605.3305,-5615.8571 "/>
<polyline fill="none" stroke="#000000" points="631.7378,-5606.1429 654.2622,-5606.1429 "/>
<polyline fill="none" stroke="#000000" points="680.6695,-5615.8571 680.6695,-5624.1429 "/>
<polyline fill="none" stroke="#000000" points="654.2622,-5633.8571 631.7378,-5633.8571 "/>
<text text-anchor="middle" x="643" y="-5616.3" font-family="Times,serif" font-size="14.00" fill="#000000">Start</text>
</g>
<!-- Reset&#45;&gt;Start -->
<g id="edge34" class="edge">
<title>Reset&#45;&gt;Start</title>
<path fill="none" stroke="#000000" d="M310.5117,-4372.1861C248.4524,-4381.5548 129,-4410.3258 129,-4493 129,-4657.5 129,-4657.5 129,-4657.5 129,-4725.3967 115.2985,-4813.3911 139,-4840 147.577,-4849.6291 241.4744,-4866.5287 249,-4877 266.3784,-4901.1807 254.1665,-4914.6739 249,-4944 244.0358,-4972.1775 227,-4975.8885 227,-5004.5 227,-5564.5 227,-5564.5 227,-5564.5 227,-5583.8171 298.3859,-5596.6539 382.0148,-5605.0645"/>
<polygon fill="#000000" stroke="#000000" points="381.7087,-5608.5512 392.0023,-5606.0428 382.3912,-5601.5845 381.7087,-5608.5512"/>
<text text-anchor="middle" x="264.5" y="-4974.8" font-family="Times,serif" font-size="14.00" fill="#000000">ActMap</text>
</g>
<!-- Start&#45;&gt;Crashed -->
<g id="edge14" class="edge">
<title>Start&#45;&gt;Crashed</title>
<path fill="none" stroke="#000000" d="M392.0046,-5608.2111C224.1938,-5598.5844 34,-5583.4859 34,-5564.5 34,-5564.5 34,-5564.5 34,-4305.5 34,-4279.5339 58.3293,-4264.0232 83.2237,-4254.9488"/>
<polygon fill="#000000" stroke="#000000" points="84.3616,-4258.2589 92.7428,-4251.7777 82.1492,-4251.6177 84.3616,-4258.2589"/>
<text text-anchor="middle" x="139.5" y="-4891.3" font-family="Times,serif" font-size="14.00" fill="#000000">boost::statechart::event_base</text>
</g>
<!-- Start&#45;&gt;Reset -->
<g id="edge60" class="edge">
<title>Start&#45;&gt;Reset</title>
<path fill="none" stroke="#000000" d="M392,-4368.2675C390.0204,-4368.2528 388.0409,-4368.2382 386.0613,-4368.2235"/>
<polygon fill="#000000" stroke="#000000" points="394.1076,-4364.7835 384.0818,-4368.2088 394.0554,-4371.7833 394.1076,-4364.7835"/>
<text text-anchor="middle" x="3572.5" y="-4974.8" font-family="Times,serif" font-size="14.00" fill="#000000">AdvMap</text>
</g>
<!-- Start&#45;&gt;GetInfo -->
<g id="edge11" class="edge">
<title>Start&#45;&gt;GetInfo</title>
<path fill="none" stroke="#000000" d="M671.427,-5612.3281C705.4818,-5602.2802 758,-5583.676 758,-5564.5 758,-5564.5 758,-5564.5 758,-5446.5 758,-5438.5678 758,-5430.3264 758,-5422.065"/>
<polygon fill="#000000" stroke="#000000" points="761.5001,-5421.9975 758,-5411.9975 754.5001,-5421.9975 761.5001,-5421.9975"/>
<text text-anchor="middle" x="806.5" y="-5505.3" font-family="Times,serif" font-size="14.00" fill="#000000">MakePrimary</text>
</g>
<!-- Start&#45;&gt;Stray -->
<g id="edge66" class="edge">
<title>Start&#45;&gt;Stray</title>
<path fill="none" stroke="#000000" d="M642.3258,-5601.7469C641.5668,-5569.9421 642.0251,-5506.289 657,-5491 741.4352,-5404.7933 1623.0002,-5347.4206 1837.2637,-5334.6823"/>
<polygon fill="#000000" stroke="#000000" points="1837.7614,-5338.1591 1847.5376,-5334.0754 1837.3485,-5331.1713 1837.7614,-5338.1591"/>
<text text-anchor="middle" x="696.5" y="-5505.3" font-family="Times,serif" font-size="14.00" fill="#000000">MakeStray</text>
</g>
<!-- WaitActingChange -->
<g id="node5" class="node">
<title>WaitActingChange</title>
<ellipse fill="none" stroke="#000000" cx="504" cy="-4895" rx="96.3833" ry="18"/>
<text text-anchor="middle" x="504" y="-4891.3" font-family="Times,serif" font-size="14.00" fill="#000000">WaitActingChange</text>
</g>
<!-- WaitActingChange&#45;&gt;Reset -->
<g id="edge63" class="edge">
<title>WaitActingChange&#45;&gt;Reset</title>
<path fill="none" stroke="#000000" d="M483.9841,-4877.3605C473.1665,-4865.834 462,-4849.7565 462,-4832.5 462,-4832.5 462,-4832.5 462,-4430.5 462,-4397.5907 425.1946,-4381.9138 393.2274,-4374.5042"/>
<polygon fill="#000000" stroke="#000000" points="393.5763,-4371.0014 383.0712,-4372.3776 392.1416,-4377.8528 393.5763,-4371.0014"/>
<text text-anchor="middle" x="491.5" y="-4627.8" font-family="Times,serif" font-size="14.00" fill="#000000">AdvMap</text>
</g>
<!-- GetInfo&#45;&gt;Reset -->
<g id="edge61" class="edge">
<title>GetInfo&#45;&gt;Reset</title>
<path fill="none" stroke="#000000" d="M608.0031,-4369.7551C512.3257,-4369.058 438.7999,-4368.5732 394.5288,-4368.2924"/>
<polygon fill="#000000" stroke="#000000" points="394.3198,-4364.7911 384.2979,-4368.2279 394.2756,-4371.791 394.3198,-4364.7911"/>
<text text-anchor="middle" x="3549.5" y="-4828.8" font-family="Times,serif" font-size="14.00" fill="#000000">AdvMap</text>
</g>
<!-- GetInfo&#45;&gt;WaitActingChange -->
<g id="edge1" class="edge">
<title>GetInfo&#45;&gt;WaitActingChange</title>
<path fill="none" stroke="#000000" d="M725.5823,-5323.0106C714.3493,-5320.0044 701.653,-5316.7274 690,-5314 649.3686,-5304.4902 506,-5318.2294 506,-5276.5 506,-5276.5 506,-5276.5 506,-4978.5 506,-4960.2382 505.516,-4939.7363 505.0242,-4923.6177"/>
<polygon fill="#000000" stroke="#000000" points="508.51,-4923.1219 504.6883,-4913.2404 501.5137,-4923.3485 508.51,-4923.1219"/>
<text text-anchor="middle" x="575" y="-5127.3" font-family="Times,serif" font-size="14.00" fill="#000000">NeedActingChange</text>
</g>
<!-- GetLog -->
<g id="node7" class="node">
<title>GetLog</title>
<ellipse fill="none" stroke="#000000" cx="668" cy="-4493" rx="44.393" ry="18"/>
<text text-anchor="middle" x="668" y="-4489.3" font-family="Times,serif" font-size="14.00" fill="#000000">GetLog</text>
</g>
<!-- GetInfo&#45;&gt;GetLog -->
<g id="edge59" class="edge">
<title>GetInfo&#45;&gt;GetLog</title>
<path fill="none" stroke="#000000" d="M720.6138,-5324.3711C695.8864,-5316.8921 668,-5302.6588 668,-5276.5 668,-5276.5 668,-5276.5 668,-4548.5 668,-4539.7318 668,-4530.1843 668,-4521.5196"/>
<polygon fill="#000000" stroke="#000000" points="671.5001,-4521.5 668,-4511.5 664.5001,-4521.5 671.5001,-4521.5"/>
<text text-anchor="middle" x="695" y="-4891.3" font-family="Times,serif" font-size="14.00" fill="#000000">GotInfo</text>
</g>
<!-- Down -->
<g id="node10" class="node">
<title>Down</title>
<ellipse fill="none" stroke="#000000" cx="807" cy="-4493" rx="37.0935" ry="18"/>
<text text-anchor="middle" x="807" y="-4489.3" font-family="Times,serif" font-size="14.00" fill="#000000">Down</text>
</g>
<!-- GetInfo&#45;&gt;Down -->
<g id="edge47" class="edge">
<title>GetInfo&#45;&gt;Down</title>
<path fill="none" stroke="#000000" d="M758,-5313.5C758,-5302.7083 758,-5288.8333 758,-5276.5 758,-5276.5 758,-5276.5 758,-4548.5 758,-4534.8774 766.3985,-4523.0218 776.2414,-4513.805"/>
<polygon fill="#000000" stroke="#000000" points="778.5683,-4516.4209 783.9348,-4507.2857 774.0429,-4511.0805 778.5683,-4516.4209"/>
<text text-anchor="middle" x="785" y="-4891.3" font-family="Times,serif" font-size="14.00" fill="#000000">IsDown</text>
</g>
<!-- Activating -->
<g id="node22" class="node">
<title>Activating</title>
<polygon fill="none" stroke="#000000" points="1164,-4913 1082.3895,-4895 1164,-4877 1245.6105,-4895 1164,-4913"/>
<polyline fill="none" stroke="#000000" points="1094.1079,-4897.5846 1094.1079,-4892.4154 "/>
<polyline fill="none" stroke="#000000" points="1152.2816,-4879.5846 1175.7184,-4879.5846 "/>
<polyline fill="none" stroke="#000000" points="1233.8921,-4892.4154 1233.8921,-4897.5846 "/>
<polyline fill="none" stroke="#000000" points="1175.7184,-4910.4154 1152.2816,-4910.4154 "/>
<text text-anchor="middle" x="1164" y="-4891.3" font-family="Times,serif" font-size="14.00" fill="#000000">Activating</text>
</g>
<!-- GetInfo&#45;&gt;Activating -->
<g id="edge57" class="edge">
<title>GetInfo&#45;&gt;Activating</title>
<path fill="none" stroke="#000000" d="M943.9967,-5312.0782C1009.6005,-5312.5654 1075,-5308.9724 1075,-5276.5 1075,-5276.5 1075,-5276.5 1075,-4978.5 1075,-4968.6681 1073.941,-4963.8784 1080.4817,-4952.5249"/>
<polygon fill="#000000" stroke="#000000" points="1083.5004,-4954.3015 1085.9648,-4943.9972 1077.6125,-4950.5156 1083.5004,-4954.3015"/>
<text text-anchor="middle" x="1104.5" y="-5127.3" font-family="Times,serif" font-size="14.00" fill="#000000">Activate</text>
</g>
<!-- GetLog&#45;&gt;Reset -->
<g id="edge62" class="edge">
<title>GetLog&#45;&gt;Reset</title>
<path fill="none" stroke="#000000" d="M641.1751,-4478.3582C616.871,-4465.0172 582.9447,-4446.1854 570,-4438 547.904,-4424.0278 545.9806,-4414.411 522,-4404 480.6956,-4386.0679 429.9617,-4376.8969 393.7749,-4372.317"/>
<polygon fill="#000000" stroke="#000000" points="393.8514,-4368.8014 383.5069,-4371.0909 393.0214,-4375.752 393.8514,-4368.8014"/>
<text text-anchor="middle" x="599.5" y="-4426.8" font-family="Times,serif" font-size="14.00" fill="#000000">AdvMap</text>
</g>
<!-- GetMissing -->
<g id="node8" class="node">
<title>GetMissing</title>
<ellipse fill="none" stroke="#000000" cx="680" cy="-3703" rx="63.8893" ry="18"/>
<text text-anchor="middle" x="680" y="-3699.3" font-family="Times,serif" font-size="14.00" fill="#000000">GetMissing</text>
</g>
<!-- GetLog&#45;&gt;GetMissing -->
<g id="edge15" class="edge">
<title>GetLog&#45;&gt;GetMissing</title>
<path fill="none" stroke="#000000" d="M652.79,-4476.0104C643.7373,-4464.1323 634,-4447.4227 634,-4430.5 634,-4430.5 634,-4430.5 634,-3758.5 634,-3746.4976 640.4561,-3735.6987 648.531,-3726.8862"/>
<polygon fill="#000000" stroke="#000000" points="651.2101,-3729.1621 655.9222,-3719.6728 646.321,-3724.1525 651.2101,-3729.1621"/>
<text text-anchor="middle" x="660" y="-4052.3" font-family="Times,serif" font-size="14.00" fill="#000000">GotLog</text>
</g>
<!-- Incomplete -->
<g id="node11" class="node">
<title>Incomplete</title>
<ellipse fill="none" stroke="#000000" cx="824" cy="-3703" rx="62.2891" ry="18"/>
<text text-anchor="middle" x="824" y="-3699.3" font-family="Times,serif" font-size="14.00" fill="#000000">Incomplete</text>
</g>
<!-- GetLog&#45;&gt;Incomplete -->
<g id="edge55" class="edge">
<title>GetLog&#45;&gt;Incomplete</title>
<path fill="none" stroke="#000000" d="M692.157,-4477.7754C706.5348,-4466.6636 722,-4450.1454 722,-4430.5 722,-4430.5 722,-4430.5 722,-3758.5 722,-3745.3928 748.3157,-3731.282 774.2139,-3720.5687"/>
<polygon fill="#000000" stroke="#000000" points="775.6994,-3723.7442 783.6869,-3716.7835 773.1021,-3717.2439 775.6994,-3723.7442"/>
<text text-anchor="middle" x="768.5" y="-4052.3" font-family="Times,serif" font-size="14.00" fill="#000000">IsIncomplete</text>
</g>
<!-- WaitUpThru -->
<g id="node9" class="node">
<title>WaitUpThru</title>
<ellipse fill="none" stroke="#000000" cx="683" cy="-3025" rx="66.8882" ry="18"/>
<text text-anchor="middle" x="683" y="-3021.3" font-family="Times,serif" font-size="14.00" fill="#000000">WaitUpThru</text>
</g>
<!-- GetMissing&#45;&gt;WaitUpThru -->
<g id="edge36" class="edge">
<title>GetMissing&#45;&gt;WaitUpThru</title>
<path fill="none" stroke="#000000" d="M680.5,-3684.5015C680.75,-3673.7103 681,-3659.8353 681,-3647.5 681,-3647.5 681,-3647.5 681,-3080.5 681,-3071.7261 681.2527,-3062.177 681.5785,-3053.5125"/>
<polygon fill="#000000" stroke="#000000" points="685.0764,-3053.6323 682,-3043.494 678.0826,-3053.338 685.0764,-3053.6323"/>
<text text-anchor="middle" x="727.5" y="-3360.3" font-family="Times,serif" font-size="14.00" fill="#000000">NeedUpThru</text>
</g>
<!-- Down&#45;&gt;GetInfo -->
<g id="edge17" class="edge">
<title>Down&#45;&gt;GetInfo</title>
<path fill="none" stroke="#000000" d="M826.5394,-4508.3196C837.0994,-4518.4255 848,-4532.6871 848,-4548.5 848,-5276.5 848,-5276.5 848,-5276.5 848,-5299.2868 826.8397,-5313.0244 805.0397,-5321.131"/>
<polygon fill="#000000" stroke="#000000" points="803.7528,-5317.871 795.3862,-5324.3711 805.9802,-5324.5072 803.7528,-5317.871"/>
<text text-anchor="middle" x="890.5" y="-4891.3" font-family="Times,serif" font-size="14.00" fill="#000000">MNotifyRec</text>
</g>
<!-- Incomplete&#45;&gt;Reset -->
<g id="edge64" class="edge">
<title>Incomplete&#45;&gt;Reset</title>
<path fill="none" stroke="#000000" d="M778.3383,-3715.379C769.9479,-3717.4244 761.2383,-3719.3972 753,-3721 692.6746,-3732.7365 479,-3697.0435 479,-3758.5 479,-4305.5 479,-4305.5 479,-4305.5 479,-4325.6335 428.2025,-4344.8394 389.6316,-4356.5205"/>
<polygon fill="#000000" stroke="#000000" points="388.2326,-4353.2839 379.6292,-4359.4671 390.2107,-4359.9986 388.2326,-4353.2839"/>
<text text-anchor="middle" x="508.5" y="-3989.8" font-family="Times,serif" font-size="14.00" fill="#000000">AdvMap</text>
</g>
<!-- Incomplete&#45;&gt;GetLog -->
<g id="edge18" class="edge">
<title>Incomplete&#45;&gt;GetLog</title>
<path fill="none" stroke="#000000" d="M837.8164,-3720.9556C844.4593,-3731.3432 851,-3744.9989 851,-3758.5 851,-4430.5 851,-4430.5 851,-4430.5 851,-4437.7298 768.1242,-4463.5334 713.9166,-4479.6379"/>
<polygon fill="#000000" stroke="#000000" points="712.7514,-4476.3326 704.1549,-4482.5254 714.737,-4483.0451 712.7514,-4476.3326"/>
<text text-anchor="middle" x="893.5" y="-4052.3" font-family="Times,serif" font-size="14.00" fill="#000000">MNotifyRec</text>
</g>
<!-- Clean -->
<g id="node12" class="node">
<title>Clean</title>
<ellipse fill="none" stroke="#000000" cx="1669" cy="-4895" rx="37.0935" ry="18"/>
<text text-anchor="middle" x="1669" y="-4891.3" font-family="Times,serif" font-size="14.00" fill="#000000">Clean</text>
</g>
<!-- WaitLocalRecoveryReserved -->
<g id="node21" class="node">
<title>WaitLocalRecoveryReserved</title>
<ellipse fill="none" stroke="#000000" cx="1350" cy="-4056" rx="141.8751" ry="18"/>
<text text-anchor="middle" x="1350" y="-4052.3" font-family="Times,serif" font-size="14.00" fill="#000000">WaitLocalRecoveryReserved</text>
</g>
<!-- Clean&#45;&gt;WaitLocalRecoveryReserved -->
<g id="edge6" class="edge">
<title>Clean&#45;&gt;WaitLocalRecoveryReserved</title>
<path fill="none" stroke="#000000" d="M1646.6455,-4880.3039C1632.5518,-4869.1007 1617,-4852.2613 1617,-4832.5 1617,-4832.5 1617,-4832.5 1617,-4111.5 1617,-4094.9106 1536.9677,-4079.8503 1464.537,-4069.6175"/>
<polygon fill="#000000" stroke="#000000" points="1464.7628,-4066.1153 1454.3763,-4068.206 1463.7996,-4073.0487 1464.7628,-4066.1153"/>
<text text-anchor="middle" x="1660" y="-4489.3" font-family="Times,serif" font-size="14.00" fill="#000000">DoRecovery</text>
</g>
<!-- Recovered -->
<g id="node13" class="node">
<title>Recovered</title>
<ellipse fill="none" stroke="#000000" cx="1723" cy="-58" rx="59.5901" ry="18"/>
<text text-anchor="middle" x="1723" y="-54.3" font-family="Times,serif" font-size="14.00" fill="#000000">Recovered</text>
</g>
<!-- Recovered&#45;&gt;Clean -->
<g id="edge10" class="edge">
<title>Recovered&#45;&gt;Clean</title>
<path fill="none" stroke="#000000" d="M1750.5227,-74.2244C1762.9958,-83.8127 1775,-97.2592 1775,-113.5 1775,-1335.5 1775,-1335.5 1775,-1335.5 1775,-1436.2174 1748,-1459.7826 1748,-1560.5 1748,-2141.5 1748,-2141.5 1748,-2141.5 1748,-2238.193 1722,-2260.807 1722,-2357.5 1722,-4832.5 1722,-4832.5 1722,-4832.5 1722,-4848.9553 1711.1809,-4863.2996 1699.319,-4874.0814"/>
<polygon fill="#000000" stroke="#000000" points="1696.9034,-4871.5389 1691.4768,-4880.6385 1701.3936,-4876.9091 1696.9034,-4871.5389"/>
<text text-anchor="middle" x="1752.5" y="-2353.8" font-family="Times,serif" font-size="14.00" fill="#000000">GoClean</text>
</g>
<!-- Recovered&#45;&gt;WaitLocalRecoveryReserved -->
<g id="edge7" class="edge">
<title>Recovered&#45;&gt;WaitLocalRecoveryReserved</title>
<path fill="none" stroke="#000000" d="M1719,-76.4044C1717,-87.1642 1715,-101.0392 1715,-113.5 1715,-789.5 1715,-789.5 1715,-789.5 1715,-1059.1889 1545,-1102.3111 1545,-1372 1545,-1522.5 1545,-1522.5 1545,-1522.5 1545,-1744.948 1476.4445,-1807.437 1329,-1974 1308.7332,-1996.8947 1293.423,-1990.2124 1271,-2011 1256.3331,-2024.5972 1260.8439,-2036.2166 1244,-2047 1143.3107,-2111.4611 981,-1983.9442 981,-2103.5 981,-2760.5 981,-2760.5 981,-2760.5 981,-2785.8372 982,-2792.1628 982,-2817.5 982,-2874.5 982,-2874.5 982,-2874.5 982,-2925.1745 984,-2937.8255 984,-2988.5 984,-3156.5 984,-3156.5 984,-3156.5 984,-3278.3467 1109,-3278.6533 1109,-3400.5 1109,-3993.5 1109,-3993.5 1109,-3993.5 1109,-4020.0594 1164.536,-4035.522 1222.2888,-4044.4214"/>
<polygon fill="#000000" stroke="#000000" points="1221.9204,-4047.9048 1232.324,-4045.9009 1222.9415,-4040.9797 1221.9204,-4047.9048"/>
<text text-anchor="middle" x="1314" y="-2025.3" font-family="Times,serif" font-size="14.00" fill="#000000">DoRecovery</text>
</g>
<!-- Backfilling -->
<g id="node14" class="node">
<title>Backfilling</title>
<ellipse fill="none" stroke="#000000" cx="1517" cy="-715" rx="59.5901" ry="18"/>
<text text-anchor="middle" x="1517" y="-711.3" font-family="Times,serif" font-size="14.00" fill="#000000">Backfilling</text>
</g>
<!-- Backfilling&#45;&gt;Recovered -->
<g id="edge41" class="edge">
<title>Backfilling&#45;&gt;Recovered</title>
<path fill="none" stroke="#000000" d="M1571.3164,-707.4038C1598.2105,-700.2499 1625,-686.3781 1625,-659.5 1625,-659.5 1625,-659.5 1625,-113.5 1625,-92.3898 1642.4305,-79.2142 1662.5894,-71.0352"/>
<polygon fill="#000000" stroke="#000000" points="1663.7878,-74.3237 1671.9907,-67.6183 1661.3966,-67.7447 1663.7878,-74.3237"/>
<text text-anchor="middle" x="1660.5" y="-382.8" font-family="Times,serif" font-size="14.00" fill="#000000">Backfilled</text>
</g>
<!-- WaitLocalBackfillReserved -->
<g id="node16" class="node">
<title>WaitLocalBackfillReserved</title>
<ellipse fill="none" stroke="#000000" cx="1101" cy="-2029" rx="133.7763" ry="18"/>
<text text-anchor="middle" x="1101" y="-2025.3" font-family="Times,serif" font-size="14.00" fill="#000000">WaitLocalBackfillReserved</text>
</g>
<!-- Backfilling&#45;&gt;WaitLocalBackfillReserved -->
<g id="edge68" class="edge">
<title>Backfilling&#45;&gt;WaitLocalBackfillReserved</title>
<path fill="none" stroke="#000000" d="M1494.7443,-731.7563C1484.252,-741.6744 1474,-755.2638 1474,-770.5 1474,-1017.5 1474,-1017.5 1474,-1017.5 1474,-1188.5795 1324,-1200.9205 1324,-1372 1324,-1973.5 1324,-1973.5 1324,-1973.5 1324,-1990.1548 1307.547,-1987.0272 1292,-1993 1266.6113,-2002.7537 1238.2759,-2009.9342 1211.3662,-2015.195"/>
<polygon fill="#000000" stroke="#000000" points="1210.7046,-2011.758 1201.5247,-2017.0475 1211.9996,-2018.6371 1210.7046,-2011.758"/>
<text text-anchor="middle" x="1425" y="-1368.3" font-family="Times,serif" font-size="14.00" fill="#000000">RemoteReservationRevoked</text>
</g>
<!-- NotBackfilling -->
<g id="node17" class="node">
<title>NotBackfilling</title>
<ellipse fill="none" stroke="#000000" cx="1046" cy="-58" rx="77.1866" ry="18"/>
<text text-anchor="middle" x="1046" y="-54.3" font-family="Times,serif" font-size="14.00" fill="#000000">NotBackfilling</text>
</g>
<!-- Backfilling&#45;&gt;NotBackfilling -->
<g id="edge28" class="edge">
<title>Backfilling&#45;&gt;NotBackfilling</title>
<path fill="none" stroke="#000000" d="M1472.2094,-703.0228C1462.6234,-700.764 1452.5169,-698.609 1443,-697 1400.294,-689.78 1055,-702.812 1055,-659.5 1055,-659.5 1055,-659.5 1055,-113.5 1055,-104.6172 1053.8628,-95.0367 1052.3968,-86.3768"/>
<polygon fill="#000000" stroke="#000000" points="1055.8028,-85.5515 1050.5,-76.3792 1048.9254,-86.8563 1055.8028,-85.5515"/>
<text text-anchor="middle" x="1181.5" y="-382.8" font-family="Times,serif" font-size="14.00" fill="#000000">RemoteReservationRevokedTooFull</text>
</g>
<!-- Backfilling&#45;&gt;NotBackfilling -->
<g id="edge29" class="edge">
<title>Backfilling&#45;&gt;NotBackfilling</title>
<path fill="none" stroke="#000000" d="M1494.7443,-698.2437C1484.252,-688.3256 1474,-674.7362 1474,-659.5 1474,-659.5 1474,-659.5 1474,-113.5 1474,-79.4747 1258.5216,-65.7926 1133.348,-60.7151"/>
<polygon fill="#000000" stroke="#000000" points="1133.1425,-57.2044 1123.0121,-60.307 1132.8662,-64.1989 1133.1425,-57.2044"/>
<text text-anchor="middle" x="1531.5" y="-382.8" font-family="Times,serif" font-size="14.00" fill="#000000">UnfoundBackfill</text>
</g>
<!-- Backfilling&#45;&gt;NotBackfilling -->
<g id="edge42" class="edge">
<title>Backfilling&#45;&gt;NotBackfilling</title>
<path fill="none" stroke="#000000" d="M1472.4482,-702.9372C1421.1895,-688.7404 1344,-666.2422 1344,-659.5 1344,-659.5 1344,-659.5 1344,-113.5 1344,-91.489 1216.7259,-74.5437 1128.5312,-65.4438"/>
<polygon fill="#000000" stroke="#000000" points="1128.8204,-61.9552 1118.5179,-64.4268 1128.1131,-68.9194 1128.8204,-61.9552"/>
<text text-anchor="middle" x="1391" y="-382.8" font-family="Times,serif" font-size="14.00" fill="#000000">DeferBackfill</text>
</g>
<!-- WaitRemoteBackfillReserved -->
<g id="node15" class="node">
<title>WaitRemoteBackfillReserved</title>
<ellipse fill="none" stroke="#000000" cx="1123" cy="-1372" rx="144.8743" ry="18"/>
<text text-anchor="middle" x="1123" y="-1368.3" font-family="Times,serif" font-size="14.00" fill="#000000">WaitRemoteBackfillReserved</text>
</g>
<!-- WaitRemoteBackfillReserved&#45;&gt;Backfilling -->
<g id="edge40" class="edge">
<title>WaitRemoteBackfillReserved&#45;&gt;Backfilling</title>
<path fill="none" stroke="#000000" d="M1142.7998,-1353.9129C1151.5969,-1343.895 1160,-1330.628 1160,-1316.5 1160,-1316.5 1160,-1316.5 1160,-770.5 1160,-711.4644 1364.7703,-742.7209 1423,-733 1433.9167,-731.1776 1445.5163,-729.0849 1456.7045,-726.986"/>
<polygon fill="#000000" stroke="#000000" points="1457.66,-730.3672 1466.8322,-725.0642 1456.355,-723.4899 1457.66,-730.3672"/>
<text text-anchor="middle" x="1233.5" y="-1039.8" font-family="Times,serif" font-size="14.00" fill="#000000">AllBackfillsReserved</text>
</g>
<!-- WaitRemoteBackfillReserved&#45;&gt;NotBackfilling -->
<g id="edge53" class="edge">
<title>WaitRemoteBackfillReserved&#45;&gt;NotBackfilling</title>
<path fill="none" stroke="#000000" d="M1123,-1353.5C1123,-1342.7083 1123,-1328.8333 1123,-1316.5 1123,-1316.5 1123,-1316.5 1123,-1069.5 1123,-995.3364 1140,-977.6636 1140,-903.5 1140,-903.5 1140,-903.5 1140,-789.5 1140,-769.0979 1151.9478,-766.6808 1165,-751 1172.4417,-742.0596 1179.4038,-743.6857 1184,-733 1190.3221,-718.302 1194.6088,-708.9772 1184,-697 1140.0647,-647.3975 1086.9791,-721.3302 1036,-679 1020.2505,-665.9225 1012,-689.1263 1012,-564.5 1012,-564.5 1012,-564.5 1012,-488.5 1012,-431.2718 998,-417.7282 998,-360.5 998,-360.5 998,-360.5 998,-113.5 998,-101.578 1004.4148,-90.9555 1012.5543,-82.2757"/>
<polygon fill="#000000" stroke="#000000" points="1015.1981,-84.5915 1020.0332,-75.1643 1010.3745,-79.5187 1015.1981,-84.5915"/>
<text text-anchor="middle" x="1291.5" y="-711.3" font-family="Times,serif" font-size="14.00" fill="#000000">RemoteReservationRejected</text>
</g>
<!-- WaitRemoteBackfillReserved&#45;&gt;NotBackfilling -->
<g id="edge69" class="edge">
<title>WaitRemoteBackfillReserved&#45;&gt;NotBackfilling</title>
<path fill="none" stroke="#000000" d="M1047.9516,-1356.5088C1012.5707,-1346.9737 978,-1333.3466 978,-1316.5 978,-1316.5 978,-1316.5 978,-113.5 978,-99.1377 987.217,-87.828 998.8644,-79.27"/>
<polygon fill="#000000" stroke="#000000" points="1000.7906,-82.1923 1007.2328,-73.7811 996.9513,-76.3391 1000.7906,-82.1923"/>
<text text-anchor="middle" x="1079" y="-711.3" font-family="Times,serif" font-size="14.00" fill="#000000">RemoteReservationRevoked</text>
</g>
<!-- WaitLocalBackfillReserved&#45;&gt;WaitRemoteBackfillReserved -->
<g id="edge56" class="edge">
<title>WaitLocalBackfillReserved&#45;&gt;WaitRemoteBackfillReserved</title>
<path fill="none" stroke="#000000" d="M1103.5,-2010.5375C1104.75,-1999.7583 1106,-1985.8833 1106,-1973.5 1106,-1973.5 1106,-1973.5 1106,-1427.5 1106,-1418.2289 1108.1956,-1408.4535 1111.0086,-1399.7337"/>
<polygon fill="#000000" stroke="#000000" points="1114.3918,-1400.6701 1114.5,-1390.0758 1107.8087,-1398.2902 1114.3918,-1400.6701"/>
<text text-anchor="middle" x="1185" y="-1696.8" font-family="Times,serif" font-size="14.00" fill="#000000">LocalBackfillReserved</text>
</g>
<!-- NotBackfilling&#45;&gt;WaitLocalBackfillReserved -->
<g id="edge31" class="edge">
<title>NotBackfilling&#45;&gt;WaitLocalBackfillReserved</title>
<path fill="none" stroke="#000000" d="M1031.6719,-75.8805C1024.783,-86.2446 1018,-99.9018 1018,-113.5 1018,-360.5 1018,-360.5 1018,-360.5 1018,-427.4583 1014.734,-603.7132 1051,-660 1059.9585,-673.9041 1067.1817,-674.1668 1083,-679 1116.4209,-689.2116 1373.0069,-671.5921 1397,-697 1424.4612,-726.0805 1287,-1368.5026 1287,-1408.5 1287,-1973.5 1287,-1973.5 1287,-1973.5 1287,-1992.8424 1249.5981,-2005.9978 1208.3383,-2014.6256"/>
<polygon fill="#000000" stroke="#000000" points="1207.4812,-2011.2275 1198.358,-2016.6141 1208.8491,-2018.0925 1207.4812,-2011.2275"/>
<text text-anchor="middle" x="1410" y="-1039.8" font-family="Times,serif" font-size="14.00" fill="#000000">RequestBackfill</text>
</g>
<!-- NotRecovering -->
<g id="node18" class="node">
<title>NotRecovering</title>
<ellipse fill="none" stroke="#000000" cx="1475" cy="-2029" rx="79.8859" ry="18"/>
<text text-anchor="middle" x="1475" y="-2025.3" font-family="Times,serif" font-size="14.00" fill="#000000">NotRecovering</text>
</g>
<!-- NotRecovering&#45;&gt;WaitLocalRecoveryReserved -->
<g id="edge8" class="edge">
<title>NotRecovering&#45;&gt;WaitLocalRecoveryReserved</title>
<path fill="none" stroke="#000000" d="M1485,-2046.9177C1490,-2057.5153 1495,-2071.3903 1495,-2084.5 1495,-3993.5 1495,-3993.5 1495,-3993.5 1495,-4010.5386 1460.8085,-4025.7672 1425.6321,-4036.9258"/>
<polygon fill="#000000" stroke="#000000" points="1424.249,-4033.6888 1415.712,-4039.9633 1426.2985,-4040.3821 1424.249,-4033.6888"/>
<text text-anchor="middle" x="1538" y="-3021.3" font-family="Times,serif" font-size="14.00" fill="#000000">DoRecovery</text>
</g>
<!-- Recovering -->
<g id="node19" class="node">
<title>Recovering</title>
<ellipse fill="none" stroke="#000000" cx="1157" cy="-2686" rx="63.0888" ry="18"/>
<text text-anchor="middle" x="1157" y="-2682.3" font-family="Times,serif" font-size="14.00" fill="#000000">Recovering</text>
</g>
<!-- Recovering&#45;&gt;Recovered -->
<g id="edge23" class="edge">
<title>Recovering&#45;&gt;Recovered</title>
<path fill="none" stroke="#000000" d="M1153,-2667.5956C1151,-2656.8358 1149,-2642.9608 1149,-2630.5 1149,-2630.5 1149,-2630.5 1149,-2357.5 1149,-2235.1153 1098.2726,-2174.1899 1181,-2084 1236.2075,-2023.8124 1292.8306,-2091.9817 1361,-2047 1377.259,-2036.2715 1374.0844,-2026.4102 1386,-2011 1460.7075,-1914.3823 1565,-1924.6319 1565,-1802.5 1565,-1802.5 1565,-1802.5 1565,-1560.5 1565,-1467.6938 1553.1146,-1436.3033 1596,-1354 1607.0408,-1332.8112 1620.9522,-1336.3267 1635,-1317 1695.6618,-1233.5427 1735,-1210.6745 1735,-1107.5 1735,-1107.5 1735,-1107.5 1735,-113.5 1735,-104.4306 1733.4502,-94.712 1731.4645,-85.9821"/>
<polygon fill="#000000" stroke="#000000" points="1734.8557,-85.1158 1729,-76.2863 1728.0714,-86.8403 1734.8557,-85.1158"/>
<text text-anchor="middle" x="1673" y="-1368.3" font-family="Times,serif" font-size="14.00" fill="#000000">AllReplicasRecovered</text>
</g>
<!-- Recovering&#45;&gt;WaitLocalBackfillReserved -->
<g id="edge33" class="edge">
<title>Recovering&#45;&gt;WaitLocalBackfillReserved</title>
<path fill="none" stroke="#000000" d="M1105.6365,-2675.454C1066.0405,-2665.7979 1018,-2650.0533 1018,-2630.5 1018,-2630.5 1018,-2630.5 1018,-2084.5 1018,-2069.9933 1026.8699,-2059.0401 1038.8105,-2050.8674"/>
<polygon fill="#000000" stroke="#000000" points="1040.7303,-2053.7971 1047.4964,-2045.6441 1037.1228,-2047.7982 1040.7303,-2053.7971"/>
<text text-anchor="middle" x="1074" y="-2353.8" font-family="Times,serif" font-size="14.00" fill="#000000">RequestBackfill</text>
</g>
<!-- Recovering&#45;&gt;NotRecovering -->
<g id="edge21" class="edge">
<title>Recovering&#45;&gt;NotRecovering</title>
<path fill="none" stroke="#000000" d="M1171.8398,-2668.1968C1178.9748,-2657.8569 1186,-2644.1981 1186,-2630.5 1186,-2630.5 1186,-2630.5 1186,-2084.5 1186,-2084.5 1318.5687,-2059.0413 1404.1325,-2042.6095"/>
<polygon fill="#000000" stroke="#000000" points="1404.9032,-2046.0255 1414.0637,-2040.7023 1403.583,-2039.1511 1404.9032,-2046.0255"/>
<text text-anchor="middle" x="1239" y="-2353.8" font-family="Times,serif" font-size="14.00" fill="#000000">DeferRecovery</text>
</g>
<!-- Recovering&#45;&gt;NotRecovering -->
<g id="edge24" class="edge">
<title>Recovering&#45;&gt;NotRecovering</title>
<path fill="none" stroke="#000000" d="M1214.4162,-2678.4335C1264.0935,-2670.2269 1328,-2654.9234 1328,-2630.5 1328,-2630.5 1328,-2630.5 1328,-2084.5 1328,-2066.7206 1366.1127,-2052.6577 1403.5252,-2043.1363"/>
<polygon fill="#000000" stroke="#000000" points="1404.6289,-2046.4695 1413.5105,-2040.6931 1402.9652,-2039.6701 1404.6289,-2046.4695"/>
<text text-anchor="middle" x="1392" y="-2353.8" font-family="Times,serif" font-size="14.00" fill="#000000">UnfoundRecovery</text>
</g>
<!-- WaitRemoteRecoveryReserved -->
<g id="node20" class="node">
<title>WaitRemoteRecoveryReserved</title>
<ellipse fill="none" stroke="#000000" cx="1281" cy="-3364" rx="153.2729" ry="18"/>
<text text-anchor="middle" x="1281" y="-3360.3" font-family="Times,serif" font-size="14.00" fill="#000000">WaitRemoteRecoveryReserved</text>
</g>
<!-- WaitRemoteRecoveryReserved&#45;&gt;Recovering -->
<g id="edge26" class="edge">
<title>WaitRemoteRecoveryReserved&#45;&gt;Recovering</title>
<path fill="none" stroke="#000000" d="M1218.6367,-3347.4526C1187.7583,-3337.3614 1157,-3323.5359 1157,-3308.5 1157,-3308.5 1157,-3308.5 1157,-2741.5 1157,-2732.7318 1157,-2723.1843 1157,-2714.5196"/>
<polygon fill="#000000" stroke="#000000" points="1160.5001,-2714.5 1157,-2704.5 1153.5001,-2714.5 1160.5001,-2714.5"/>
<text text-anchor="middle" x="1231" y="-3021.3" font-family="Times,serif" font-size="14.00" fill="#000000">AllRemotesReserved</text>
</g>
<!-- WaitLocalRecoveryReserved&#45;&gt;NotRecovering -->
<g id="edge58" class="edge">
<title>WaitLocalRecoveryReserved&#45;&gt;NotRecovering</title>
<path fill="none" stroke="#000000" d="M1414.0601,-4039.8736C1435.0061,-4030.4711 1453,-4015.8807 1453,-3993.5 1453,-3993.5 1453,-3993.5 1453,-3327.5 1453,-3193.7641 1379.3123,-3174.5074 1355,-3043 1338.3058,-2952.6997 1348,-2928.3305 1348,-2836.5 1348,-2836.5 1348,-2836.5 1348,-2649.5 1348,-2497.3123 1475,-2483.6877 1475,-2331.5 1475,-2331.5 1475,-2331.5 1475,-2084.5 1475,-2075.7318 1475,-2066.1843 1475,-2057.5196"/>
<polygon fill="#000000" stroke="#000000" points="1478.5001,-2057.5 1475,-2047.5 1471.5001,-2057.5 1478.5001,-2057.5"/>
<text text-anchor="middle" x="1414" y="-3021.3" font-family="Times,serif" font-size="14.00" fill="#000000">RecoveryTooFull</text>
</g>
<!-- WaitLocalRecoveryReserved&#45;&gt;WaitRemoteRecoveryReserved -->
<g id="edge38" class="edge">
<title>WaitLocalRecoveryReserved&#45;&gt;WaitRemoteRecoveryReserved</title>
<path fill="none" stroke="#000000" d="M1299.14,-4039.0839C1280.1014,-4029.285 1263,-4014.6084 1263,-3993.5 1263,-3993.5 1263,-3993.5 1263,-3419.5 1263,-3410.0796 1265.3755,-3400.1791 1268.4006,-3391.3907"/>
<polygon fill="#000000" stroke="#000000" points="1271.6794,-3392.6157 1272,-3382.0257 1265.1453,-3390.1043 1271.6794,-3392.6157"/>
<text text-anchor="middle" x="1348.5" y="-3699.3" font-family="Times,serif" font-size="14.00" fill="#000000">LocalRecoveryReserved</text>
</g>
<!-- Activating&#45;&gt;Recovered -->
<g id="edge22" class="edge">
<title>Activating&#45;&gt;Recovered</title>
<path fill="none" stroke="#000000" d="M1230.8376,-4891.7029C1348.4312,-4885 1580,-4867.3732 1580,-4832.5 1580,-4832.5 1580,-4832.5 1580,-4430.5 1580,-4224.549 1599,-4173.451 1599,-3967.5 1599,-3967.5 1599,-3967.5 1599,-3777.5 1599,-3744.3859 1600,-3736.1141 1600,-3703 1600,-3703 1600,-3703 1600,-3061.5 1600,-2924.4481 1533,-2897.5519 1533,-2760.5 1533,-2760.5 1533,-2760.5 1533,-2402.5 1533,-1918.1222 1755,-1819.8778 1755,-1335.5 1755,-1335.5 1755,-1335.5 1755,-113.5 1755,-102.9894 1750.6395,-92.6759 1745.1378,-83.8462"/>
<polygon fill="#000000" stroke="#000000" points="1747.9577,-81.7707 1739.375,-75.5587 1742.2106,-85.7671 1747.9577,-81.7707"/>
<text text-anchor="middle" x="1610" y="-2353.8" font-family="Times,serif" font-size="14.00" fill="#000000">AllReplicasRecovered</text>
</g>
<!-- Activating&#45;&gt;WaitLocalBackfillReserved -->
<g id="edge32" class="edge">
<title>Activating&#45;&gt;WaitLocalBackfillReserved</title>
<path fill="none" stroke="#000000" d="M1113.1747,-4888.0655C1058.1035,-4879.0896 978,-4861.1154 978,-4832.5 978,-4832.5 978,-4832.5 978,-3364 978,-3263.1128 963,-3238.3872 963,-3137.5 963,-3137.5 963,-3137.5 963,-2969.5 963,-2927.2684 961,-2916.7316 961,-2874.5 961,-2874.5 961,-2874.5 961,-2084.5 961,-2069.3947 989.521,-2056.6186 1020.8168,-2047.1463"/>
<polygon fill="#000000" stroke="#000000" points="1021.9594,-2050.4593 1030.5898,-2044.3138 1020.0108,-2043.7359 1021.9594,-2050.4593"/>
<text text-anchor="middle" x="1034" y="-3360.3" font-family="Times,serif" font-size="14.00" fill="#000000">RequestBackfill</text>
</g>
<!-- Activating&#45;&gt;WaitLocalRecoveryReserved -->
<g id="edge9" class="edge">
<title>Activating&#45;&gt;WaitLocalRecoveryReserved</title>
<path fill="none" stroke="#000000" d="M1201.5386,-4885.2381C1226.6055,-4876.1972 1255,-4859.9073 1255,-4832.5 1255,-4832.5 1255,-4832.5 1255,-4111.5 1255,-4096.2226 1264.2728,-4085.074 1277.0243,-4076.9655"/>
<polygon fill="#000000" stroke="#000000" points="1278.8037,-4079.9809 1285.8438,-4072.0632 1275.4028,-4073.8625 1278.8037,-4079.9809"/>
<text text-anchor="middle" x="1298" y="-4489.3" font-family="Times,serif" font-size="14.00" fill="#000000">DoRecovery</text>
</g>
<!-- RepRecovering -->
<g id="node23" class="node">
<title>RepRecovering</title>
<ellipse fill="none" stroke="#000000" cx="2725" cy="-5620" rx="81.4863" ry="18"/>
<text text-anchor="middle" x="2725" y="-5616.3" font-family="Times,serif" font-size="14.00" fill="#000000">RepRecovering</text>
</g>
<!-- RepNotRecovering -->
<g id="node26" class="node">
<title>RepNotRecovering</title>
<polygon fill="none" stroke="#000000" points="2347,-5149 2208.4142,-5131 2347,-5113 2485.5858,-5131 2347,-5149"/>
<polyline fill="none" stroke="#000000" points="2220.3142,-5132.5456 2220.3142,-5129.4544 "/>
<polyline fill="none" stroke="#000000" points="2335.1,-5114.5456 2358.9,-5114.5456 "/>
<polyline fill="none" stroke="#000000" points="2473.6858,-5129.4544 2473.6858,-5132.5456 "/>
<polyline fill="none" stroke="#000000" points="2358.9,-5147.4544 2335.1,-5147.4544 "/>
<text text-anchor="middle" x="2347" y="-5127.3" font-family="Times,serif" font-size="14.00" fill="#000000">RepNotRecovering</text>
</g>
<!-- RepRecovering&#45;&gt;RepNotRecovering -->
<g id="edge2" class="edge">
<title>RepRecovering&#45;&gt;RepNotRecovering</title>
<path fill="none" stroke="#000000" d="M2725,-5601.5C2725,-5590.7083 2725,-5576.8333 2725,-5564.5 2725,-5564.5 2725,-5564.5 2725,-5186.5 2725,-5159.2039 2568.7104,-5144.064 2457.1234,-5136.7331"/>
<polygon fill="#000000" stroke="#000000" points="2457.0137,-5133.2188 2446.8095,-5136.0692 2456.564,-5140.2044 2457.0137,-5133.2188"/>
<text text-anchor="middle" x="2828" y="-5328.3" font-family="Times,serif" font-size="14.00" fill="#000000">RemoteReservationCanceled</text>
</g>
<!-- RepRecovering&#45;&gt;RepNotRecovering -->
<g id="edge48" class="edge">
<title>RepRecovering&#45;&gt;RepNotRecovering</title>
<path fill="none" stroke="#000000" d="M2667.9884,-5607.1418C2658.6632,-5605.265 2649.0828,-5603.4723 2640,-5602 2607.6018,-5596.7482 2347,-5597.3211 2347,-5564.5 2347,-5564.5 2347,-5564.5 2347,-5186.5 2347,-5177.7318 2347,-5168.1843 2347,-5159.5196"/>
<polygon fill="#000000" stroke="#000000" points="2350.5001,-5159.5 2347,-5149.5 2343.5001,-5159.5 2350.5001,-5159.5"/>
<text text-anchor="middle" x="2398.5" y="-5328.3" font-family="Times,serif" font-size="14.00" fill="#000000">RecoveryDone</text>
</g>
<!-- RepRecovering&#45;&gt;RepNotRecovering -->
<g id="edge51" class="edge">
<title>RepRecovering&#45;&gt;RepNotRecovering</title>
<path fill="none" stroke="#000000" d="M2667.1448,-5607.2779C2596.412,-5591.6234 2486,-5566.8162 2486,-5564.5 2486,-5564.5 2486,-5564.5 2486,-5186.5 2486,-5168.9085 2447.1157,-5154.3998 2410.4794,-5144.634"/>
<polygon fill="#000000" stroke="#000000" points="2411.2976,-5141.2305 2400.741,-5142.1307 2409.5548,-5148.0101 2411.2976,-5141.2305"/>
<text text-anchor="middle" x="2587.5" y="-5328.3" font-family="Times,serif" font-size="14.00" fill="#000000">RemoteReservationRejected</text>
</g>
<!-- RepWaitBackfillReserved -->
<g id="node24" class="node">
<title>RepWaitBackfillReserved</title>
<ellipse fill="none" stroke="#000000" cx="2604" cy="-4694" rx="127.2775" ry="18"/>
<text text-anchor="middle" x="2604" y="-4690.3" font-family="Times,serif" font-size="14.00" fill="#000000">RepWaitBackfillReserved</text>
</g>
<!-- RepWaitBackfillReserved&#45;&gt;RepRecovering -->
<g id="edge65" class="edge">
<title>RepWaitBackfillReserved&#45;&gt;RepRecovering</title>
<path fill="none" stroke="#000000" d="M2726.3104,-4699.0508C2958.2397,-4709.0361 3439,-4731.8615 3439,-4749.5 3439,-4858.5 3439,-4858.5 3439,-4858.5 3439,-4897.0804 3445.3425,-4911.8606 3424,-4944 3364.0529,-5034.2738 3316.1898,-5028.0714 3219,-5076 3196.5571,-5087.0676 3189.8368,-5087.3856 3166,-5095 3137.8531,-5103.9912 3122.6549,-5091.8704 3102,-5113 3084.5183,-5130.8836 3088,-5142.4914 3088,-5167.5 3088,-5564.5 3088,-5564.5 3088,-5564.5 3088,-5592.0994 2921.9105,-5607.755 2814.4247,-5614.9968"/>
<polygon fill="#000000" stroke="#000000" points="2813.9608,-5611.5197 2804.2133,-5615.6715 2814.4224,-5618.5045 2813.9608,-5611.5197"/>
<text text-anchor="middle" x="3189.5" y="-5127.3" font-family="Times,serif" font-size="14.00" fill="#000000">RemoteBackfillReserved</text>
</g>
<!-- RepWaitBackfillReserved&#45;&gt;RepNotRecovering -->
<g id="edge5" class="edge">
<title>RepWaitBackfillReserved&#45;&gt;RepNotRecovering</title>
<path fill="none" stroke="#000000" d="M2695.0858,-4706.6238C2738.8798,-4715.3434 2782,-4729.1068 2782,-4749.5 2782,-5075.5 2782,-5075.5 2782,-5075.5 2782,-5107.2119 2597.7419,-5121.1544 2469.0677,-5127.0246"/>
<polygon fill="#000000" stroke="#000000" points="2468.5753,-5123.543 2458.7408,-5127.484 2468.8865,-5130.5361 2468.5753,-5123.543"/>
<text text-anchor="middle" x="2885" y="-4891.3" font-family="Times,serif" font-size="14.00" fill="#000000">RemoteReservationCanceled</text>
</g>
<!-- RepWaitBackfillReserved&#45;&gt;RepNotRecovering -->
<g id="edge50" class="edge">
<title>RepWaitBackfillReserved&#45;&gt;RepNotRecovering</title>
<path fill="none" stroke="#000000" d="M2484.6579,-4700.3499C2373.8871,-4707.8982 2226,-4722.9478 2226,-4749.5 2226,-5075.5 2226,-5075.5 2226,-5075.5 2226,-5091.0514 2259.4391,-5105.5899 2291.1597,-5115.8828"/>
<polygon fill="#000000" stroke="#000000" points="2290.3209,-5119.2877 2300.9099,-5118.9373 2292.4135,-5112.6078 2290.3209,-5119.2877"/>
<text text-anchor="middle" x="2277.5" y="-4891.3" font-family="Times,serif" font-size="14.00" fill="#000000">RecoveryDone</text>
</g>
<!-- RepWaitBackfillReserved&#45;&gt;RepNotRecovering -->
<g id="edge54" class="edge">
<title>RepWaitBackfillReserved&#45;&gt;RepNotRecovering</title>
<path fill="none" stroke="#000000" d="M2486.6005,-4701.058C2426.1586,-4708.0395 2365,-4721.9184 2365,-4749.5 2365,-5075.5 2365,-5075.5 2365,-5075.5 2365,-5085.2148 2362.4737,-5095.4401 2359.314,-5104.4299"/>
<polygon fill="#000000" stroke="#000000" points="2355.9686,-5103.374 2355.5783,-5113.9616 2362.486,-5105.9283 2355.9686,-5103.374"/>
<text text-anchor="middle" x="2466.5" y="-4891.3" font-family="Times,serif" font-size="14.00" fill="#000000">RemoteReservationRejected</text>
</g>
<!-- RepWaitRecoveryReserved -->
<g id="node25" class="node">
<title>RepWaitRecoveryReserved</title>
<ellipse fill="none" stroke="#000000" cx="3214" cy="-4694" rx="135.6761" ry="18"/>
<text text-anchor="middle" x="3214" y="-4690.3" font-family="Times,serif" font-size="14.00" fill="#000000">RepWaitRecoveryReserved</text>
</g>
<!-- RepWaitRecoveryReserved&#45;&gt;RepRecovering -->
<g id="edge37" class="edge">
<title>RepWaitRecoveryReserved&#45;&gt;RepRecovering</title>
<path fill="none" stroke="#000000" d="M3309.4249,-4706.8998C3378.2168,-4717.5517 3459,-4733.4724 3459,-4749.5 3459,-4858.5 3459,-4858.5 3459,-4858.5 3459,-4983.3163 3370.1529,-4986.9322 3306,-5094 3289.1341,-5122.1484 3299,-5134.6855 3299,-5167.5 3299,-5564.5 3299,-5564.5 3299,-5564.5 3299,-5588.5018 2976.8341,-5607.6906 2815.2202,-5615.8067"/>
<polygon fill="#000000" stroke="#000000" points="2814.6257,-5612.3319 2804.8122,-5616.3252 2814.974,-5619.3232 2814.6257,-5612.3319"/>
<text text-anchor="middle" x="3392" y="-5127.3" font-family="Times,serif" font-size="14.00" fill="#000000">RemoteRecoveryReserved</text>
</g>
<!-- RepWaitRecoveryReserved&#45;&gt;RepNotRecovering -->
<g id="edge4" class="edge">
<title>RepWaitRecoveryReserved&#45;&gt;RepNotRecovering</title>
<path fill="none" stroke="#000000" d="M3214,-4712.5C3214,-4723.2917 3214,-4737.1667 3214,-4749.5 3214,-5075.5 3214,-5075.5 3214,-5075.5 3214,-5111.6922 2726.4948,-5124.8133 2482.6055,-5129.113"/>
<polygon fill="#000000" stroke="#000000" points="2482.5436,-5125.6135 2472.606,-5129.2868 2482.6653,-5132.6124 2482.5436,-5125.6135"/>
<text text-anchor="middle" x="3317" y="-4891.3" font-family="Times,serif" font-size="14.00" fill="#000000">RemoteReservationCanceled</text>
</g>
<!-- RepNotRecovering&#45;&gt;RepWaitBackfillReserved -->
<g id="edge39" class="edge">
<title>RepNotRecovering&#45;&gt;RepWaitBackfillReserved</title>
<path fill="none" stroke="#000000" d="M2419.2728,-5122.3595C2495.287,-5112.2624 2604,-5094.5004 2604,-5075.5 2604,-5075.5 2604,-5075.5 2604,-4749.5 2604,-4740.7318 2604,-4731.1843 2604,-4722.5196"/>
<polygon fill="#000000" stroke="#000000" points="2607.5001,-4722.5 2604,-4712.5 2600.5001,-4722.5 2607.5001,-4722.5"/>
<text text-anchor="middle" x="2675" y="-4891.3" font-family="Times,serif" font-size="14.00" fill="#000000">RequestBackfillPrio</text>
</g>
<!-- RepNotRecovering&#45;&gt;RepWaitRecoveryReserved -->
<g id="edge25" class="edge">
<title>RepNotRecovering&#45;&gt;RepWaitRecoveryReserved</title>
<path fill="none" stroke="#000000" d="M2458.4135,-5127.4338C2650.5889,-5120.5358 3024,-5103.5266 3024,-5075.5 3024,-5075.5 3024,-5075.5 3024,-4749.5 3024,-4729.8532 3061.9049,-4716.6848 3103.8539,-4708.1272"/>
<polygon fill="#000000" stroke="#000000" points="3104.566,-4711.5543 3113.7143,-4706.2104 3103.2302,-4704.683 3104.566,-4711.5543"/>
<text text-anchor="middle" x="3101" y="-4891.3" font-family="Times,serif" font-size="14.00" fill="#000000">RequestRecoveryPrio</text>
</g>
<!-- RepNotRecovering&#45;&gt;RepNotRecovering -->
<g id="edge3" class="edge">
<title>RepNotRecovering&#45;&gt;RepNotRecovering</title>
<path fill="none" stroke="#000000" d="M2469.6007,-5133.0865C2489.849,-5132.7912 2503.7927,-5132.0957 2503.7927,-5131 2503.7927,-5130.1012 2494.4099,-5129.4717 2479.8608,-5129.1114"/>
<polygon fill="#000000" stroke="#000000" points="2479.6664,-5125.6071 2469.6007,-5128.9135 2479.5313,-5132.6058 2479.6664,-5125.6071"/>
<text text-anchor="middle" x="2606.7927" y="-5127.3" font-family="Times,serif" font-size="14.00" fill="#000000">RemoteReservationCanceled</text>
</g>
<!-- RepNotRecovering&#45;&gt;RepNotRecovering -->
<g id="edge49" class="edge">
<title>RepNotRecovering&#45;&gt;RepNotRecovering</title>
<path fill="none" stroke="#000000" d="M2456.0344,-5134.8539C2565.0365,-5136.4214 2709.7927,-5135.1367 2709.7927,-5131 2709.7927,-5126.9926 2573.9424,-5125.6617 2466.3526,-5127.0075"/>
<polygon fill="#000000" stroke="#000000" points="2465.9864,-5123.512 2456.0344,-5127.1461 2466.0805,-5130.5113 2465.9864,-5123.512"/>
<text text-anchor="middle" x="2761.2927" y="-5127.3" font-family="Times,serif" font-size="14.00" fill="#000000">RecoveryDone</text>
</g>
<!-- RepNotRecovering&#45;&gt;RepNotRecovering -->
<g id="edge52" class="edge">
<title>RepNotRecovering&#45;&gt;RepNotRecovering</title>
<path fill="none" stroke="#000000" d="M2446.8916,-5136.0625C2586.933,-5139.4375 2812.7927,-5137.75 2812.7927,-5131 2812.7927,-5124.4148 2597.8267,-5122.6479 2457.2975,-5125.6994"/>
<polygon fill="#000000" stroke="#000000" points="2456.8089,-5122.2095 2446.8916,-5125.9375 2456.9691,-5129.2077 2456.8089,-5122.2095"/>
<text text-anchor="middle" x="2914.2927" y="-5127.3" font-family="Times,serif" font-size="14.00" fill="#000000">RemoteReservationRejected</text>
</g>
<!-- WaitDeleteReserved -->
<g id="node28" class="node">
<title>WaitDeleteReserved</title>
<polygon fill="none" stroke="#000000" points="1963,-4913 1815.0314,-4895 1963,-4877 2110.9686,-4895 1963,-4913"/>
<polyline fill="none" stroke="#000000" points="1826.9435,-4896.4491 1826.9435,-4893.5509 "/>
<polyline fill="none" stroke="#000000" points="1951.0878,-4878.4491 1974.9122,-4878.4491 "/>
<polyline fill="none" stroke="#000000" points="2099.0565,-4893.5509 2099.0565,-4896.4491 "/>
<polyline fill="none" stroke="#000000" points="1974.9122,-4911.5509 1951.0878,-4911.5509 "/>
<text text-anchor="middle" x="1963" y="-4891.3" font-family="Times,serif" font-size="14.00" fill="#000000">WaitDeleteReserved</text>
</g>
<!-- RepNotRecovering&#45;&gt;WaitDeleteReserved -->
<g id="edge43" class="edge">
<title>RepNotRecovering&#45;&gt;WaitDeleteReserved</title>
<path fill="none" stroke="#000000" d="M2200.0003,-5110.6002C2106.149,-5097.0602 2002,-5080.8331 2002,-5075.5 2002,-5075.5 2002,-5075.5 2002,-4978.5 2002,-4970.0795 2000.3517,-4961.5921 1997.7328,-4953.4213"/>
<polygon fill="#000000" stroke="#000000" points="2001.0005,-4952.1664 1994.2533,-4943.9978 1994.4339,-4954.5911 2001.0005,-4952.1664"/>
<text text-anchor="middle" x="2044" y="-5026.8" font-family="Times,serif" font-size="14.00" fill="#000000">DeleteStart</text>
</g>
<!-- Stray&#45;&gt;RepNotRecovering -->
<g id="edge20" class="edge">
<title>Stray&#45;&gt;RepNotRecovering</title>
<path fill="none" stroke="#000000" d="M1920.1333,-5329.595C1989.1868,-5324.606 2137.739,-5311.8769 2190.7308,-5291.6146"/>
<polygon fill="#000000" stroke="#000000" points="2192.3073,-5294.7436 2200.0031,-5287.4618 2189.446,-5288.3551 2192.3073,-5294.7436"/>
<text text-anchor="middle" x="2243.5" y="-5227.8" font-family="Times,serif" font-size="14.00" fill="#000000">MLogRec</text>
</g>
<!-- Stray&#45;&gt;RepNotRecovering -->
<g id="edge46" class="edge">
<title>Stray&#45;&gt;RepNotRecovering</title>
<path fill="none" stroke="#000000" d="M1919.8457,-5327.8507C1970.5185,-5320.9702 2057,-5305.0459 2057,-5276.5 2057,-5276.5 2057,-5276.5 2057,-5186.5 2057,-5178.7545 2121.6574,-5165.9495 2189.912,-5154.59"/>
<polygon fill="#000000" stroke="#000000" points="2190.7044,-5158.0066 2200.0012,-5152.9252 2189.5648,-5151.1 2190.7044,-5158.0066"/>
<text text-anchor="middle" x="2091.5" y="-5227.8" font-family="Times,serif" font-size="14.00" fill="#000000">MInfoRec</text>
</g>
<!-- Stray&#45;&gt;WaitDeleteReserved -->
<g id="edge44" class="edge">
<title>Stray&#45;&gt;WaitDeleteReserved</title>
<path fill="none" stroke="#000000" d="M1903.0628,-5316.5853C1913.3652,-5306.4436 1924,-5292.1778 1924,-5276.5 1924,-5276.5 1924,-5276.5 1924,-4978.5 1924,-4970.0795 1925.6483,-4961.5921 1928.2672,-4953.4213"/>
<polygon fill="#000000" stroke="#000000" points="1931.5661,-4954.5911 1931.7467,-4943.9978 1924.9995,-4952.1664 1931.5661,-4954.5911"/>
<text text-anchor="middle" x="1966" y="-5127.3" font-family="Times,serif" font-size="14.00" fill="#000000">DeleteStart</text>
</g>
<!-- WaitDeleteReserved&#45;&gt;WaitDeleteReserved -->
<g id="edge35" class="edge">
<title>WaitDeleteReserved&#45;&gt;WaitDeleteReserved</title>
<path fill="none" stroke="#000000" d="M2056.4308,-4901.6856C2095.6533,-4902.168 2128.9843,-4899.9395 2128.9843,-4895 2128.9843,-4890.5043 2101.3734,-4888.2543 2066.8399,-4888.25"/>
<polygon fill="#000000" stroke="#000000" points="2066.4089,-4884.7525 2056.4308,-4888.3144 2066.4523,-4891.7524 2066.4089,-4884.7525"/>
<text text-anchor="middle" x="2156.4843" y="-4891.3" font-family="Times,serif" font-size="14.00" fill="#000000">ActMap</text>
</g>
<!-- Deleting -->
<g id="node29" class="node">
<title>Deleting</title>
<ellipse fill="none" stroke="#000000" cx="1943" cy="-4493" rx="50.0912" ry="18"/>
<text text-anchor="middle" x="1943" y="-4489.3" font-family="Times,serif" font-size="14.00" fill="#000000">Deleting</text>
</g>
<!-- WaitDeleteReserved&#45;&gt;Deleting -->
<g id="edge67" class="edge">
<title>WaitDeleteReserved&#45;&gt;Deleting</title>
<path fill="none" stroke="#000000" d="M1915.5,-4882.7026C1891.75,-4873.3951 1868,-4857.7701 1868,-4832.5 1868,-4832.5 1868,-4832.5 1868,-4548.5 1868,-4531.1679 1881.1023,-4518.6286 1896.3543,-4509.9035"/>
<polygon fill="#000000" stroke="#000000" points="1898.2081,-4512.8859 1905.5,-4505.1997 1895.0064,-4506.661 1898.2081,-4512.8859"/>
<text text-anchor="middle" x="1925" y="-4690.3" font-family="Times,serif" font-size="14.00" fill="#000000">DeleteReserved</text>
</g>
<!-- Deleting&#45;&gt;WaitDeleteReserved -->
<g id="edge30" class="edge">
<title>Deleting&#45;&gt;WaitDeleteReserved</title>
<path fill="none" stroke="#000000" d="M1980.5,-4505.1997C1999.25,-4513.8912 2018,-4527.7662 2018,-4548.5 2018,-4832.5 2018,-4832.5 2018,-4832.5 2018,-4848.7436 2007.4006,-4862.7703 1995.5079,-4873.3961"/>
<polygon fill="#000000" stroke="#000000" points="1993.118,-4870.8296 1987.6044,-4879.8767 1997.5564,-4876.2425 1993.118,-4870.8296"/>
<text text-anchor="middle" x="2083" y="-4690.3" font-family="Times,serif" font-size="14.00" fill="#000000">DeleteInterrupted</text>
</g>
</g>
</svg>
