<?xml version="1.0" encoding="UTF-8" standalone="no"?>
<!DOCTYPE svg PUBLIC "-//W3C//DTD SVG 1.1//EN"
 "http://www.w3.org/Graphics/SVG/1.1/DTD/svg11.dtd">
<!-- Generated by graphviz version 2.49.0 (20210828.1703)
 -->
<!-- Pages: 1 -->
<svg width="758pt" height="1980pt"
 viewBox="0.00 0.00 757.65 1980.00" xmlns="http://www.w3.org/2000/svg" xmlns:xlink="http://www.w3.org/1999/xlink">
<g id="graph0" class="graph" transform="scale(1 1) rotate(0) translate(4 1976)">
<polygon fill="white" stroke="transparent" points="-4,4 -4,-1976 753.65,-1976 753.65,4 -4,4"/>
<!-- N0 -->
<g id="node1" class="node">
<title>N0</title>
<ellipse fill="none" stroke="blue" cx="530.65" cy="-1900" rx="72" ry="72"/>
<text text-anchor="middle" x="530.65" y="-1896.3" font-family="Times,serif" font-size="14.00">up:boot</text>
</g>
<!-- S1 -->
<g id="node2" class="node">
<title>S1</title>
<ellipse fill="none" stroke="green" cx="530.65" cy="-1720" rx="72" ry="72"/>
<text text-anchor="middle" x="530.65" y="-1716.3" font-family="Times,serif" font-size="14.00">up:standby</text>
</g>
<!-- N0&#45;&gt;S1 -->
<g id="edge1" class="edge">
<title>N0&#45;&gt;S1</title>
<path fill="none" stroke="green" stroke-width="2" d="M530.65,-1827.88C530.65,-1819.39 530.65,-1810.67 530.65,-1802.06"/>
<polygon fill="green" stroke="green" stroke-width="2" points="534.15,-1802 530.65,-1792 527.15,-1802 534.15,-1802"/>
</g>
<!-- S2 -->
<g id="node3" class="node">
<title>S2</title>
<ellipse fill="none" stroke="green" cx="403.65" cy="-1540" rx="72" ry="72"/>
<text text-anchor="middle" x="403.65" y="-1536.3" font-family="Times,serif" font-size="14.00">up:standby_replay</text>
</g>
<!-- S1&#45;&gt;S2 -->
<g id="edge2" class="edge">
<title>S1&#45;&gt;S2</title>
<path fill="none" stroke="green" stroke-width="2" d="M489.07,-1660.72C476.94,-1643.73 463.61,-1625.03 451.15,-1607.57"/>
<polygon fill="green" stroke="green" stroke-width="2" points="453.77,-1605.22 445.11,-1599.11 448.07,-1609.28 453.77,-1605.22"/>
</g>
<!-- N1 -->
<g id="node4" class="node">
<title>N1</title>
<ellipse fill="none" stroke="orange" cx="569.65" cy="-1356" rx="72" ry="72"/>
<ellipse fill="none" stroke="orange" cx="569.65" cy="-1356" rx="76" ry="76"/>
<text text-anchor="middle" x="569.65" y="-1352.3" font-family="Times,serif" font-size="14.00">up:creating</text>
</g>
<!-- S1&#45;&gt;N1 -->
<g id="edge3" class="edge">
<title>S1&#45;&gt;N1</title>
<path fill="none" stroke="orange" stroke-width="2" d="M538.26,-1648.34C544.63,-1589.29 553.72,-1504.89 560.48,-1442.11"/>
<polygon fill="orange" stroke="orange" stroke-width="2" points="564,-1442.16 561.59,-1431.84 557.04,-1441.41 564,-1442.16"/>
</g>
<!-- N2 -->
<g id="node5" class="node">
<title>N2</title>
<ellipse fill="none" stroke="orange" cx="673.65" cy="-604" rx="72" ry="72"/>
<ellipse fill="none" stroke="orange" cx="673.65" cy="-604" rx="76" ry="76"/>
<text text-anchor="middle" x="673.65" y="-600.3" font-family="Times,serif" font-size="14.00">up:starting</text>
</g>
<!-- S1&#45;&gt;N2 -->
<g id="edge4" class="edge">
<title>S1&#45;&gt;N2</title>
<path fill="none" stroke="orange" stroke-width="2" d="M570.11,-1659.7C612.43,-1590.23 673.65,-1470.18 673.65,-1357 673.65,-1357 673.65,-1357 673.65,-979 673.65,-880.09 673.65,-766.46 673.65,-690.66"/>
<polygon fill="orange" stroke="orange" stroke-width="2" points="677.15,-690.22 673.65,-680.22 670.15,-690.22 677.15,-690.22"/>
</g>
<!-- N3 -->
<g id="node6" class="node">
<title>N3</title>
<ellipse fill="none" stroke="orange" cx="399.65" cy="-1356" rx="72" ry="72"/>
<ellipse fill="none" stroke="orange" cx="399.65" cy="-1356" rx="76" ry="76"/>
<text text-anchor="middle" x="399.65" y="-1352.3" font-family="Times,serif" font-size="14.00">up:replay</text>
</g>
<!-- S1&#45;&gt;N3 -->
<g id="edge5" class="edge">
<title>S1&#45;&gt;N3</title>
<path fill="none" stroke="orange" stroke-width="2" d="M526.55,-1647.95C521.48,-1596.2 510.11,-1525.41 484.65,-1468 477.39,-1451.62 467.24,-1435.45 456.49,-1420.74"/>
<polygon fill="orange" stroke="orange" stroke-width="2" points="459.27,-1418.62 450.46,-1412.73 453.67,-1422.82 459.27,-1418.62"/>
</g>
<!-- S2&#45;&gt;N3 -->
<g id="edge6" class="edge">
<title>S2&#45;&gt;N3</title>
<path fill="none" stroke="orange" stroke-width="2" d="M402.09,-1467.85C401.9,-1459.4 401.71,-1450.7 401.52,-1442.08"/>
<polygon fill="orange" stroke="orange" stroke-width="2" points="405.02,-1441.92 401.3,-1432 398.02,-1442.08 405.02,-1441.92"/>
</g>
<!-- S0 -->
<g id="node11" class="node">
<title>S0</title>
<ellipse fill="none" stroke="green" cx="475.65" cy="-416" rx="72" ry="72"/>
<ellipse fill="none" stroke="green" cx="475.65" cy="-416" rx="76" ry="76"/>
<text text-anchor="middle" x="475.65" y="-412.3" font-family="Times,serif" font-size="14.00">up:active</text>
</g>
<!-- N1&#45;&gt;S0 -->
<g id="edge13" class="edge">
<title>N1&#45;&gt;S0</title>
<path fill="none" stroke="green" stroke-width="2" d="M569.65,-1279.78C569.65,-1204.26 569.65,-1084.56 569.65,-981 569.65,-981 569.65,-981 569.65,-791 569.65,-686.88 534.96,-571.24 507.73,-496.5"/>
<polygon fill="green" stroke="green" stroke-width="2" points="510.85,-494.86 504.11,-486.69 504.29,-497.28 510.85,-494.86"/>
</g>
<!-- N2&#45;&gt;S0 -->
<g id="edge14" class="edge">
<title>N2&#45;&gt;S0</title>
<path fill="none" stroke="green" stroke-width="2" d="M618.76,-551.44C593.76,-527.95 564.04,-500.04 538.19,-475.74"/>
<polygon fill="green" stroke="green" stroke-width="2" points="540.33,-472.96 530.65,-468.66 535.54,-478.06 540.33,-472.96"/>
</g>
<!-- D0 -->
<g id="node13" class="node">
<title>D0</title>
<polygon fill="none" stroke="red" points="401.6,-22 365.63,-40 293.68,-40 257.7,-22 293.68,-4 365.63,-4 401.6,-22"/>
<polygon fill="none" stroke="red" points="410.54,-22 366.57,-44 292.73,-44 248.76,-22 292.73,0 366.57,0 410.54,-22"/>
<text text-anchor="middle" x="329.65" y="-18.3" font-family="Times,serif" font-size="14.00">down:failed</text>
</g>
<!-- N2&#45;&gt;D0 -->
<g id="edge17" class="edge">
<title>N2&#45;&gt;D0</title>
<path fill="none" stroke="red" stroke-width="2" d="M695.44,-531.09C724.29,-419.73 759.66,-205.37 649.65,-80 619.25,-45.35 497.35,-31.71 413.1,-26.38"/>
<polygon fill="red" stroke="red" stroke-width="2" points="413.21,-22.88 403.02,-25.77 412.79,-29.87 413.21,-22.88"/>
</g>
<!-- N4 -->
<g id="node7" class="node">
<title>N4</title>
<ellipse fill="none" stroke="orange" cx="212.65" cy="-1168" rx="72" ry="72"/>
<ellipse fill="none" stroke="orange" cx="212.65" cy="-1168" rx="76" ry="76"/>
<text text-anchor="middle" x="212.65" y="-1164.3" font-family="Times,serif" font-size="14.00">up:resolve</text>
</g>
<!-- N3&#45;&gt;N4 -->
<g id="edge7" class="edge">
<title>N3&#45;&gt;N4</title>
<path fill="none" stroke="orange" stroke-width="2" d="M346.07,-1301.7C323.37,-1279.13 296.82,-1252.72 273.41,-1229.43"/>
<polygon fill="orange" stroke="orange" stroke-width="2" points="275.8,-1226.88 266.25,-1222.31 270.87,-1231.84 275.8,-1226.88"/>
</g>
<!-- N5 -->
<g id="node8" class="node">
<title>N5</title>
<ellipse fill="none" stroke="orange" cx="304.65" cy="-980" rx="72" ry="72"/>
<ellipse fill="none" stroke="orange" cx="304.65" cy="-980" rx="76" ry="76"/>
<text text-anchor="middle" x="304.65" y="-976.3" font-family="Times,serif" font-size="14.00">up:reconnect</text>
</g>
<!-- N3&#45;&gt;N5 -->
<g id="edge8" class="edge">
<title>N3&#45;&gt;N5</title>
<path fill="none" stroke="orange" stroke-width="2" d="M381.11,-1282C365.19,-1219.32 342.25,-1129 325.65,-1063.67"/>
<polygon fill="orange" stroke="orange" stroke-width="2" points="329,-1062.65 323.15,-1053.81 322.22,-1064.37 329,-1062.65"/>
</g>
<!-- N3&#45;&gt;D0 -->
<g id="edge18" class="edge">
<title>N3&#45;&gt;D0</title>
<path fill="none" stroke="red" stroke-width="2" d="M430.19,-1286.22C464.09,-1212.83 513.65,-1092.07 513.65,-981 513.65,-981 513.65,-981 513.65,-791 513.65,-473.76 785.22,-319.04 576.65,-80 554.13,-54.19 469.66,-39.03 405.66,-30.92"/>
<polygon fill="red" stroke="red" stroke-width="2" points="405.93,-27.42 395.58,-29.67 405.08,-34.37 405.93,-27.42"/>
</g>
<!-- D1 -->
<g id="node14" class="node">
<title>D1</title>
<polygon fill="none" stroke="black" points="351.65,-98 315.65,-116 243.65,-116 207.65,-98 243.65,-80 315.65,-80 351.65,-98"/>
<text text-anchor="middle" x="279.65" y="-94.3" font-family="Times,serif" font-size="14.00">down:damaged</text>
</g>
<!-- N3&#45;&gt;D1 -->
<g id="edge26" class="edge">
<title>N3&#45;&gt;D1</title>
<path fill="none" stroke="black" stroke-width="2" d="M324.13,-1347.01C259.83,-1335.77 171.18,-1308.77 127.65,-1244 59.95,-1143.25 -159.68,-795.99 205.65,-152 212.62,-139.72 223.73,-129.56 235.25,-121.53"/>
<polygon fill="black" stroke="black" stroke-width="2" points="237.18,-124.45 243.65,-116.06 233.36,-118.58 237.18,-124.45"/>
</g>
<!-- N4&#45;&gt;N5 -->
<g id="edge9" class="edge">
<title>N4&#45;&gt;N5</title>
<path fill="none" stroke="orange" stroke-width="2" d="M246,-1099.59C252.75,-1085.94 259.89,-1071.5 266.78,-1057.57"/>
<polygon fill="orange" stroke="orange" stroke-width="2" points="269.97,-1059.01 271.27,-1048.5 263.7,-1055.91 269.97,-1059.01"/>
</g>
<!-- N4&#45;&gt;D0 -->
<g id="edge19" class="edge">
<title>N4&#45;&gt;D0</title>
<path fill="none" stroke="red" stroke-width="2" d="M183.86,-1097.55C132.32,-966.78 29.65,-674 29.65,-417 29.65,-417 29.65,-417 29.65,-227 29.65,-153.65 44.17,-121.49 104.65,-80 147.68,-50.48 204.75,-36.24 250.65,-29.37"/>
<polygon fill="red" stroke="red" stroke-width="2" points="251.15,-32.84 260.56,-27.98 250.17,-25.91 251.15,-32.84"/>
</g>
<!-- N4&#45;&gt;D1 -->
<g id="edge27" class="edge">
<title>N4&#45;&gt;D1</title>
<path fill="none" stroke="black" stroke-width="2" d="M210.52,-1091.98C206.87,-946.74 200.88,-617.03 212.65,-340 216.21,-256.22 194.04,-228.38 228.65,-152 233.5,-141.31 241.43,-131.47 249.62,-123.24"/>
<polygon fill="black" stroke="black" stroke-width="2" points="252.25,-125.57 257.12,-116.16 247.44,-120.48 252.25,-125.57"/>
</g>
<!-- N6 -->
<g id="node9" class="node">
<title>N6</title>
<ellipse fill="none" stroke="orange" cx="304.65" cy="-792" rx="72" ry="72"/>
<ellipse fill="none" stroke="orange" cx="304.65" cy="-792" rx="76" ry="76"/>
<text text-anchor="middle" x="304.65" y="-788.3" font-family="Times,serif" font-size="14.00">up:rejoin</text>
</g>
<!-- N5&#45;&gt;N6 -->
<g id="edge10" class="edge">
<title>N5&#45;&gt;N6</title>
<path fill="none" stroke="orange" stroke-width="2" d="M304.65,-903.88C304.65,-895.4 304.65,-886.72 304.65,-878.13"/>
<polygon fill="orange" stroke="orange" stroke-width="2" points="308.15,-878.1 304.65,-868.1 301.15,-878.1 308.15,-878.1"/>
</g>
<!-- N5&#45;&gt;D0 -->
<g id="edge20" class="edge">
<title>N5&#45;&gt;D0</title>
<path fill="none" stroke="red" stroke-width="2" d="M255.57,-921.62C242.81,-905.01 229.81,-886.37 219.65,-868 117.32,-682.88 67.65,-628.52 67.65,-417 67.65,-417 67.65,-417 67.65,-227 67.65,-151.97 88.57,-122.13 150.65,-80 183.32,-57.83 225.11,-43.88 260.1,-35.34"/>
<polygon fill="red" stroke="red" stroke-width="2" points="261.31,-38.65 270.25,-32.96 259.72,-31.83 261.31,-38.65"/>
</g>
<!-- N5&#45;&gt;D1 -->
<g id="edge28" class="edge">
<title>N5&#45;&gt;D1</title>
<path fill="none" stroke="black" stroke-width="2" d="M356.26,-923.99C369.28,-907.18 381.79,-887.86 389.65,-868 420.58,-789.92 404.42,-763.87 408.65,-680 412.05,-612.53 424.17,-593.75 408.65,-528 404.54,-510.59 396.86,-508.78 390.65,-492 336.61,-345.91 359.14,-298.29 305.65,-152 302.38,-143.05 298.05,-133.61 293.87,-125.21"/>
<polygon fill="black" stroke="black" stroke-width="2" points="296.96,-123.56 289.27,-116.26 290.73,-126.75 296.96,-123.56"/>
</g>
<!-- N7 -->
<g id="node10" class="node">
<title>N7</title>
<ellipse fill="none" stroke="orange" cx="323.65" cy="-604" rx="72" ry="72"/>
<ellipse fill="none" stroke="orange" cx="323.65" cy="-604" rx="76" ry="76"/>
<text text-anchor="middle" x="323.65" y="-600.3" font-family="Times,serif" font-size="14.00">up:clientreplay</text>
</g>
<!-- N6&#45;&gt;N7 -->
<g id="edge11" class="edge">
<title>N6&#45;&gt;N7</title>
<path fill="none" stroke="orange" stroke-width="2" d="M312.3,-716.15C313.18,-707.52 314.08,-698.67 314.98,-689.91"/>
<polygon fill="orange" stroke="orange" stroke-width="2" points="318.49,-690 316.02,-679.7 311.52,-689.29 318.49,-690"/>
</g>
<!-- N6&#45;&gt;S0 -->
<g id="edge15" class="edge">
<title>N6&#45;&gt;S0</title>
<path fill="none" stroke="green" stroke-width="2" d="M361.47,-741.18C378.8,-723.4 396.47,-702.23 408.65,-680 438.96,-624.68 455.89,-555.3 465.15,-501.69"/>
<polygon fill="green" stroke="green" stroke-width="2" points="468.65,-501.96 466.84,-491.53 461.74,-500.81 468.65,-501.96"/>
</g>
<!-- N6&#45;&gt;D0 -->
<g id="edge21" class="edge">
<title>N6&#45;&gt;D0</title>
<path fill="none" stroke="red" stroke-width="2" d="M250.35,-738.39C235.89,-721.21 221.98,-701.09 213.65,-680 115.52,-431.5 24.24,-299.43 176.65,-80 194.45,-54.38 225.22,-40.25 254.53,-32.47"/>
<polygon fill="red" stroke="red" stroke-width="2" points="255.5,-35.84 264.39,-30.07 253.84,-29.04 255.5,-35.84"/>
</g>
<!-- N6&#45;&gt;D1 -->
<g id="edge29" class="edge">
<title>N6&#45;&gt;D1</title>
<path fill="none" stroke="black" stroke-width="2" d="M260.53,-729.97C251.53,-714.4 243.38,-697.19 238.65,-680 181.73,-472.89 247.5,-209.47 271.54,-125.78"/>
<polygon fill="black" stroke="black" stroke-width="2" points="274.94,-126.62 274.38,-116.04 268.22,-124.66 274.94,-126.62"/>
</g>
<!-- N7&#45;&gt;S0 -->
<g id="edge12" class="edge">
<title>N7&#45;&gt;S0</title>
<path fill="none" stroke="green" stroke-width="2" d="M371.33,-544.66C387.24,-525.19 405.08,-503.36 421.45,-483.33"/>
<polygon fill="green" stroke="green" stroke-width="2" points="424.27,-485.41 427.88,-475.45 418.85,-480.98 424.27,-485.41"/>
</g>
<!-- N7&#45;&gt;D0 -->
<g id="edge22" class="edge">
<title>N7&#45;&gt;D0</title>
<path fill="none" stroke="red" stroke-width="2" d="M280.45,-541.32C213.76,-437.77 102.95,-226.01 198.65,-80 212.94,-58.21 237.56,-44.7 261.63,-36.35"/>
<polygon fill="red" stroke="red" stroke-width="2" points="262.71,-39.68 271.16,-33.29 260.57,-33.02 262.71,-39.68"/>
</g>
<!-- N7&#45;&gt;D1 -->
<g id="edge30" class="edge">
<title>N7&#45;&gt;D1</title>
<path fill="none" stroke="black" stroke-width="2" d="M317.11,-528.09C307.14,-413.87 288.6,-201.52 282.03,-126.29"/>
<polygon fill="black" stroke="black" stroke-width="2" points="285.51,-125.87 281.15,-116.21 278.54,-126.48 285.51,-125.87"/>
</g>
<!-- S3 -->
<g id="node12" class="node">
<title>S3</title>
<ellipse fill="none" stroke="purple" cx="475.65" cy="-228" rx="72" ry="72"/>
<ellipse fill="none" stroke="purple" cx="475.65" cy="-228" rx="76" ry="76"/>
<text text-anchor="middle" x="475.65" y="-224.3" font-family="Times,serif" font-size="14.00">up:stopping</text>
</g>
<!-- S0&#45;&gt;S3 -->
<g id="edge16" class="edge">
<title>S0&#45;&gt;S3</title>
<path fill="none" stroke="purple" stroke-width="2" d="M475.65,-339.88C475.65,-331.4 475.65,-322.72 475.65,-314.13"/>
<polygon fill="purple" stroke="purple" stroke-width="2" points="479.15,-314.1 475.65,-304.1 472.15,-314.1 479.15,-314.1"/>
</g>
<!-- S0&#45;&gt;D0 -->
<g id="edge23" class="edge">
<title>S0&#45;&gt;D0</title>
<path fill="none" stroke="red" stroke-width="2" d="M528.35,-360.75C541.47,-343.89 553.76,-324.34 560.65,-304 592.61,-209.71 622.04,-158.38 560.65,-80 541.42,-55.45 464.49,-40.03 404.63,-31.51"/>
<polygon fill="red" stroke="red" stroke-width="2" points="404.82,-28 394.43,-30.1 403.86,-34.93 404.82,-28"/>
</g>
<!-- S0&#45;&gt;D1 -->
<g id="edge31" class="edge">
<title>S0&#45;&gt;D1</title>
<path fill="none" stroke="black" stroke-width="2" d="M425.8,-358.43C412.96,-341.75 400.11,-322.88 390.65,-304 359.19,-241.24 386.84,-210.25 347.65,-152 339.86,-140.42 328.73,-130.25 317.72,-121.99"/>
<polygon fill="black" stroke="black" stroke-width="2" points="319.56,-119 309.38,-116.06 315.5,-124.71 319.56,-119"/>
</g>
<!-- S3&#45;&gt;D0 -->
<g id="edge24" class="edge">
<title>S3&#45;&gt;D0</title>
<path fill="none" stroke="red" stroke-width="2" d="M431.85,-165.79C404.94,-128.19 371.69,-81.74 350.57,-52.23"/>
<polygon fill="red" stroke="red" stroke-width="2" points="353.36,-50.11 344.69,-44.02 347.67,-54.18 353.36,-50.11"/>
</g>
<!-- S3&#45;&gt;D1 -->
<g id="edge32" class="edge">
<title>S3&#45;&gt;D1</title>
<path fill="none" stroke="black" stroke-width="2" d="M419.08,-176.53C408.31,-167.89 396.89,-159.35 385.65,-152 367.24,-139.96 345.71,-128.73 326.89,-119.73"/>
<polygon fill="black" stroke="black" stroke-width="2" points="328.15,-116.46 317.61,-115.37 325.17,-122.79 328.15,-116.46"/>
</g>
<!-- D3 -->
<g id="node15" class="node">
<title>D3</title>
<polygon fill="none" stroke="purple" points="551.65,-98 515.65,-116 443.65,-116 407.65,-98 443.65,-80 515.65,-80 551.65,-98"/>
<text text-anchor="middle" x="479.65" y="-94.3" font-family="Times,serif" font-size="14.00">down:stopped</text>
</g>
<!-- S3&#45;&gt;D3 -->
<g id="edge34" class="edge">
<title>S3&#45;&gt;D3</title>
<path fill="none" stroke="purple" stroke-width="2" d="M478,-151.8C478.28,-142.78 478.56,-134.06 478.8,-126.39"/>
<polygon fill="purple" stroke="purple" stroke-width="2" points="482.3,-126.45 479.11,-116.34 475.3,-126.23 482.3,-126.45"/>
</g>
<!-- D0&#45;&gt;N3 -->
<g id="edge25" class="edge">
<title>D0&#45;&gt;N3</title>
<path fill="none" stroke="red" stroke-width="2" d="M397.77,-28.42C467.72,-35.73 569.58,-51.27 594.65,-80 803.22,-319.04 531.65,-473.76 531.65,-791 531.65,-981 531.65,-981 531.65,-981 531.65,-1090.3 483.66,-1208.98 445.44,-1282.68"/>
<polygon fill="red" stroke="red" stroke-width="2" points="442.15,-1281.4 440.59,-1291.88 448.35,-1284.66 442.15,-1281.4"/>
</g>
<!-- D1&#45;&gt;D0 -->
<g id="edge33" class="edge">
<title>D1&#45;&gt;D0</title>
<path fill="none" stroke="red" stroke-width="2" d="M291.25,-79.84C296.77,-71.66 303.53,-61.66 309.83,-52.33"/>
<polygon fill="red" stroke="red" stroke-width="2" points="312.74,-54.28 315.44,-44.03 306.94,-50.36 312.74,-54.28"/>
</g>
</g>
</svg>
