<?xml version="1.0" encoding="UTF-8" standalone="no"?>
<!DOCTYPE svg PUBLIC "-//W3C//DTD SVG 1.1//EN"
 "http://www.w3.org/Graphics/SVG/1.1/DTD/svg11.dtd">
<!-- Generated by graphviz version 2.40.1 (20161225.0304)
 -->
<!-- Title: G Pages: 1 -->
<svg width="318pt" height="504pt"
 viewBox="0.00 0.00 317.82 504.00" xmlns="http://www.w3.org/2000/svg" xmlns:xlink="http://www.w3.org/1999/xlink">
<g id="graph0" class="graph" transform="scale(.0877 .0877) rotate(0) translate(4 5743)">
<title>G</title>
<polygon fill="#ffffff" stroke="transparent" points="-4,4 -4,-5743 3620,-5743 3620,4 -4,4"/>
<g id="clust1" class="cluster">
<title>cluster0</title>
<polygon fill="none" stroke="#0000ff" points="8,-8 8,-5731 3608,-5731 3608,-8 8,-8"/>
<text text-anchor="middle" x="1808" y="-5715.8" font-family="Times,serif" font-size="14.00" fill="#000000">RecoveryMachine</text>
</g>
<g id="clust2" class="cluster">
<title>cluster1</title>
<polygon fill="none" stroke="#0000ff" points="392,-16 392,-5700 3503,-5700 3503,-16 392,-16"/>
<text text-anchor="middle" x="1947.5" y="-5684.8" font-family="Times,serif" font-size="14.00" fill="#000000">Started</text>
</g>
<g id="clust3" class="cluster">
<title>cluster2</title>
<polygon fill="none" stroke="#0000ff" points="400,-24 400,-5412 1799,-5412 1799,-24 400,-24"/>
<text text-anchor="middle" x="1099.5" y="-5396.8" font-family="Times,serif" font-size="14.00" fill="#000000">Primary</text>
</g>
<g id="clust4" class="cluster">
<title>cluster3</title>
<polygon fill="none" stroke="#0000ff" points="608,-2999 608,-5381 944,-5381 944,-2999 608,-2999"/>
<text text-anchor="middle" x="776" y="-5365.8" font-family="Times,serif" font-size="14.00" fill="#000000">Peering</text>
</g>
<g id="clust5" class="cluster">
<title>cluster4</title>
<polygon fill="none" stroke="#0000ff" points="952,-32 952,-4944 1791,-4944 1791,-32 952,-32"/>
<text text-anchor="middle" x="1371.5" y="-4928.8" font-family="Times,serif" font-size="14.00" fill="#000000">Active</text>
</g>
<g id="clust6" class="cluster">
<title>cluster5</title>
<polygon fill="none" stroke="#0000ff" points="2200,-4668 2200,-5669 3495,-5669 3495,-4668 2200,-4668"/>
<text text-anchor="middle" x="2847.5" y="-5653.8" font-family="Times,serif" font-size="14.00" fill="#000000">ReplicaActive</text>
</g>
<g id="clust7" class="cluster">
<title>cluster6</title>
<polygon fill="none" stroke="#0000ff" points="1807,-4467 1807,-4944 2192,-4944 2192,-4467 1807,-4467"/>
<text text-anchor="middle" x="1999.5" y="-4928.8" font-family="Times,serif" font-size="14.00" fill="#000000">ToDelete</text>
</g>
<!-- Crashed -->
<g id="node1" class="node">
<title>Crashed</title>
<ellipse fill="none" stroke="#000000" cx="136" cy="-4243" rx="49.2915" ry="18"/>
<text text-anchor="middle" x="136" y="-4239.3" font-family="Times,serif" font-size="14.00" fill="#000000">Crashed</text>
</g>
<!-- Initial -->
<g id="node2" class="node">
<title>Initial</title>
<polygon fill="none" stroke="#000000" points="330,-5527 275.5385,-5509 330,-5491 384.4615,-5509 330,-5527"/>
<polyline fill="none" stroke="#000000" points="286.9323,-5512.7658 286.9323,-5505.2342 "/>
<polyline fill="none" stroke="#000000" points="318.6062,-5494.7658 341.3938,-5494.7658 "/>
<polyline fill="none" stroke="#000000" points="373.0677,-5505.2342 373.0677,-5512.7658 "/>
<polyline fill="none" stroke="#000000" points="341.3938,-5523.2342 318.6062,-5523.2342 "/>
<text text-anchor="middle" x="330" y="-5505.3" font-family="Times,serif" font-size="14.00" fill="#000000">Initial</text>
</g>
<!-- Initial&#45;&gt;Crashed -->
<g id="edge12" class="edge">
<title>Initial&#45;&gt;Crashed</title>
<path fill="none" stroke="#000000" d="M318.8708,-5494.4672C310.6926,-5482.3266 301,-5464.2035 301,-5446.5 301,-5446.5 301,-5446.5 301,-5004.5 301,-4946.0758 308.9934,-4919.59 269,-4877 250.4783,-4857.2758 169.8631,-4861.1597 153,-4840 133.1253,-4815.0614 147,-4800.3895 147,-4768.5 147,-4768.5 147,-4768.5 147,-4456.5 147,-4390.0625 141.6218,-4312.1495 138.3866,-4271.2924"/>
<polygon fill="#000000" stroke="#000000" points="141.8702,-4270.9471 137.576,-4261.2615 134.893,-4271.511 141.8702,-4270.9471"/>
<text text-anchor="middle" x="258.5" y="-4828.8" font-family="Times,serif" font-size="14.00" fill="#000000">boost::statechart::event_base</text>
</g>
<!-- Reset -->
<g id="node3" class="node">
<title>Reset</title>
<ellipse fill="none" stroke="#000000" cx="347" cy="-4368" rx="37.0935" ry="18"/>
<text text-anchor="middle" x="347" y="-4364.3" font-family="Times,serif" font-size="14.00" fill="#000000">Reset</text>
</g>
<!-- Initial&#45;&gt;Reset -->
<g id="edge27" class="edge">
<title>Initial&#45;&gt;Reset</title>
<path fill="none" stroke="#000000" d="M326.2353,-5492.1174C323.7691,-5479.5942 321,-5462.0669 321,-5446.5 321,-5446.5 321,-5446.5 321,-4952.5 321,-4918.5232 317.9884,-4907.4807 333,-4877 349.9718,-4842.539 383,-4844.9136 383,-4806.5 383,-4806.5 383,-4806.5 383,-4430.5 383,-4416.7659 376.3919,-4403.3279 368.8381,-4392.4531"/>
<polygon fill="#000000" stroke="#000000" points="371.5114,-4390.1858 362.6854,-4384.3247 365.93,-4394.4105 371.5114,-4390.1858"/>
<text text-anchor="middle" x="364.5" y="-4891.3" font-family="Times,serif" font-size="14.00" fill="#000000">Initialize</text>
</g>
<!-- GetInfo -->
<g id="node6" class="node">
<title>GetInfo</title>
<polygon fill="none" stroke="#000000" points="758,-5350 693.8176,-5332 758,-5314 822.1824,-5332 758,-5350"/>
<polyline fill="none" stroke="#000000" points="705.3718,-5335.2404 705.3718,-5328.7596 "/>
<polyline fill="none" stroke="#000000" points="746.4458,-5317.2404 769.5542,-5317.2404 "/>
<polyline fill="none" stroke="#000000" points="810.6282,-5328.7596 810.6282,-5335.2404 "/>
<polyline fill="none" stroke="#000000" points="769.5542,-5346.7596 746.4458,-5346.7596 "/>
<text text-anchor="middle" x="758" y="-5328.3" font-family="Times,serif" font-size="14.00" fill="#000000">GetInfo</text>
</g>
<!-- Initial&#45;&gt;GetInfo -->
<g id="edge16" class="edge">
<title>Initial&#45;&gt;GetInfo</title>
<path fill="none" stroke="#000000" d="M335.2846,-5492.6392C343.0702,-5471.5578 359.83,-5435.752 388,-5420 415.1807,-5404.8012 625.7971,-5423.3905 680.2726,-5414.5852"/>
<polygon fill="#000000" stroke="#000000" points="681.2345,-5417.9512 690,-5412 679.4365,-5411.186 681.2345,-5417.9512"/>
<text text-anchor="middle" x="407.5" y="-5442.8" font-family="Times,serif" font-size="14.00" fill="#000000">MNotifyRec</text>
</g>
<!-- Stray -->
<g id="node27" class="node">
<title>Stray</title>
<ellipse fill="none" stroke="#000000" cx="1879" cy="-5332" rx="36.2938" ry="18"/>
<text text-anchor="middle" x="1879" y="-5328.3" font-family="Times,serif" font-size="14.00" fill="#000000">Stray</text>
</g>
<!-- Initial&#45;&gt;Stray -->
<g id="edge19" class="edge">
<title>Initial&#45;&gt;Stray</title>
<path fill="none" stroke="#000000" d="M355.6096,-5499.2843C409.834,-5479.3201 540.6504,-5434.3538 655,-5420 784.2564,-5403.7751 817.9372,-5419.3574 948,-5412 1288.5747,-5392.7344 1697.7758,-5351.1448 1833.0963,-5336.9016"/>
<polygon fill="#000000" stroke="#000000" points="1833.5313,-5340.3753 1843.1087,-5335.845 1832.7966,-5333.4139 1833.5313,-5340.3753"/>
<text text-anchor="middle" x="582.5" y="-5442.8" font-family="Times,serif" font-size="14.00" fill="#000000">MLogRec</text>
</g>
<!-- Initial&#45;&gt;Stray -->
<g id="edge45" class="edge">
<title>Initial&#45;&gt;Stray</title>
<path fill="none" stroke="#000000" d="M356.2805,-5499.6559C366.121,-5496.4734 377.468,-5493.1742 388,-5491 675.3663,-5431.6764 1612.824,-5353.5363 1832.5961,-5335.7219"/>
<polygon fill="#000000" stroke="#000000" points="1833.1252,-5339.1906 1842.8103,-5334.8955 1832.5606,-5332.2134 1833.1252,-5339.1906"/>
<text text-anchor="middle" x="777.5" y="-5442.8" font-family="Times,serif" font-size="14.00" fill="#000000">MInfoRec</text>
</g>
<!-- Reset&#45;&gt;Crashed -->
<g id="edge13" class="edge">
<title>Reset&#45;&gt;Crashed</title>
<path fill="none" stroke="#000000" d="M323.2058,-4353.9039C285.9764,-4331.8486 213.7703,-4289.0725 170.7287,-4263.5739"/>
<polygon fill="#000000" stroke="#000000" points="172.3974,-4260.4944 162.0099,-4258.4087 168.8295,-4266.5169 172.3974,-4260.4944"/>
<text text-anchor="middle" x="357.5" y="-4301.8" font-family="Times,serif" font-size="14.00" fill="#000000">boost::statechart::event_base</text>
</g>
<!-- Start -->
<g id="node4" class="node">
<title>Start</title>
<polygon fill="none" stroke="#000000" points="758,-5638 709.0684,-5620 758,-5602 806.9316,-5620 758,-5638"/>
<polyline fill="none" stroke="#000000" points="720.3305,-5624.1429 720.3305,-5615.8571 "/>
<polyline fill="none" stroke="#000000" points="746.7378,-5606.1429 769.2622,-5606.1429 "/>
<polyline fill="none" stroke="#000000" points="795.6695,-5615.8571 795.6695,-5624.1429 "/>
<polyline fill="none" stroke="#000000" points="769.2622,-5633.8571 746.7378,-5633.8571 "/>
<text text-anchor="middle" x="758" y="-5616.3" font-family="Times,serif" font-size="14.00" fill="#000000">Start</text>
</g>
<!-- Reset&#45;&gt;Start -->
<g id="edge34" class="edge">
<title>Reset&#45;&gt;Start</title>
<path fill="none" stroke="#000000" d="M312.1403,-4374.516C250.1063,-4387.1141 127,-4417.0807 127,-4456.5 127,-4631.5 127,-4631.5 127,-4631.5 127,-4724.3466 83.5956,-4766.2502 140,-4840 155.5397,-4860.3184 234.1004,-4856.2077 249,-4877 266.3449,-4901.2047 254.1665,-4914.6739 249,-4944 244.0358,-4972.1775 227,-4975.8885 227,-5004.5 227,-5564.5 227,-5564.5 227,-5564.5 227,-5575.0947 294.7502,-5585.2019 381.8503,-5593.818"/>
<polygon fill="#000000" stroke="#000000" points="381.7118,-5597.321 392.0042,-5594.8075 382.3908,-5590.354 381.7118,-5597.321"/>
<text text-anchor="middle" x="265.5" y="-4974.8" font-family="Times,serif" font-size="14.00" fill="#000000">ActMap</text>
</g>
<!-- Start&#45;&gt;Crashed -->
<g id="edge14" class="edge">
<title>Start&#45;&gt;Crashed</title>
<path fill="none" stroke="#000000" d="M392.0023,-5607.1817C212.3447,-5598.3405 34,-5584.5216 34,-5564.5 34,-5564.5 34,-5564.5 34,-4305.5 34,-4279.5339 58.3293,-4264.0232 83.2237,-4254.9488"/>
<polygon fill="#000000" stroke="#000000" points="84.3616,-4258.2589 92.7428,-4251.7777 82.1492,-4251.6177 84.3616,-4258.2589"/>
<text text-anchor="middle" x="139.5" y="-4891.3" font-family="Times,serif" font-size="14.00" fill="#000000">boost::statechart::event_base</text>
</g>
<!-- Start&#45;&gt;Reset -->
<g id="edge59" class="edge">
<title>Start&#45;&gt;Reset</title>
<path fill="none" stroke="#000000" d="M392,-4368.2675C390.0204,-4368.2528 388.0409,-4368.2382 386.0613,-4368.2235"/>
<polygon fill="#000000" stroke="#000000" points="394.1076,-4364.7835 384.0818,-4368.2088 394.0554,-4371.7833 394.1076,-4364.7835"/>
<text text-anchor="middle" x="3572.5" y="-4974.8" font-family="Times,serif" font-size="14.00" fill="#000000">AdvMap</text>
</g>
<!-- Start&#45;&gt;GetInfo -->
<g id="edge11" class="edge">
<title>Start&#45;&gt;GetInfo</title>
<path fill="none" stroke="#000000" d="M758,-5601.5C758,-5590.7083 758,-5576.8333 758,-5564.5 758,-5564.5 758,-5564.5 758,-5446.5 758,-5438.5678 758,-5430.3264 758,-5422.065"/>
<polygon fill="#000000" stroke="#000000" points="761.5001,-5421.9975 758,-5411.9975 754.5001,-5421.9975 761.5001,-5421.9975"/>
<text text-anchor="middle" x="806.5" y="-5505.3" font-family="Times,serif" font-size="14.00" fill="#000000">MakePrimary</text>
</g>
<!-- Start&#45;&gt;Stray -->
<g id="edge65" class="edge">
<title>Start&#45;&gt;Stray</title>
<path fill="none" stroke="#000000" d="M803.2101,-5618.5329C951.2455,-5613.4342 1412,-5595.1062 1412,-5564.5 1412,-5564.5 1412,-5564.5 1412,-5446.5 1412,-5360.606 1713.7738,-5338.8166 1832.1515,-5333.5735"/>
<polygon fill="#000000" stroke="#000000" points="1832.5119,-5337.0615 1842.3553,-5333.1427 1832.2165,-5330.0677 1832.5119,-5337.0615"/>
<text text-anchor="middle" x="1451.5" y="-5505.3" font-family="Times,serif" font-size="14.00" fill="#000000">MakeStray</text>
</g>
<!-- WaitActingChange -->
<g id="node5" class="node">
<title>WaitActingChange</title>
<ellipse fill="none" stroke="#000000" cx="504" cy="-4895" rx="96.3833" ry="18"/>
<text text-anchor="middle" x="504" y="-4891.3" font-family="Times,serif" font-size="14.00" fill="#000000">WaitActingChange</text>
</g>
<!-- WaitActingChange&#45;&gt;Reset -->
<g id="edge62" class="edge">
<title>WaitActingChange&#45;&gt;Reset</title>
<path fill="none" stroke="#000000" d="M483.9841,-4877.3605C473.1665,-4865.834 462,-4849.7565 462,-4832.5 462,-4832.5 462,-4832.5 462,-4430.5 462,-4397.5907 425.1946,-4381.9138 393.2274,-4374.5042"/>
<polygon fill="#000000" stroke="#000000" points="393.5763,-4371.0014 383.0712,-4372.3776 392.1416,-4377.8528 393.5763,-4371.0014"/>
<text text-anchor="middle" x="491.5" y="-4627.8" font-family="Times,serif" font-size="14.00" fill="#000000">AdvMap</text>
</g>
<!-- GetInfo&#45;&gt;Reset -->
<g id="edge60" class="edge">
<title>GetInfo&#45;&gt;Reset</title>
<path fill="none" stroke="#000000" d="M608.0031,-4369.7551C512.3257,-4369.058 438.7999,-4368.5732 394.5288,-4368.2924"/>
<polygon fill="#000000" stroke="#000000" points="394.3198,-4364.7911 384.2979,-4368.2279 394.2756,-4371.791 394.3198,-4364.7911"/>
<text text-anchor="middle" x="3549.5" y="-4828.8" font-family="Times,serif" font-size="14.00" fill="#000000">AdvMap</text>
</g>
<!-- GetInfo&#45;&gt;WaitActingChange -->
<g id="edge1" class="edge">
<title>GetInfo&#45;&gt;WaitActingChange</title>
<path fill="none" stroke="#000000" d="M725.5823,-5323.0106C714.3493,-5320.0044 701.653,-5316.7274 690,-5314 649.3686,-5304.4902 506,-5318.2294 506,-5276.5 506,-5276.5 506,-5276.5 506,-4978.5 506,-4960.2382 505.516,-4939.7363 505.0242,-4923.6177"/>
<polygon fill="#000000" stroke="#000000" points="508.51,-4923.1219 504.6883,-4913.2404 501.5137,-4923.3485 508.51,-4923.1219"/>
<text text-anchor="middle" x="575" y="-5127.3" font-family="Times,serif" font-size="14.00" fill="#000000">NeedActingChange</text>
</g>
<!-- GetLog -->
<g id="node7" class="node">
<title>GetLog</title>
<ellipse fill="none" stroke="#000000" cx="668" cy="-4493" rx="44.393" ry="18"/>
<text text-anchor="middle" x="668" y="-4489.3" font-family="Times,serif" font-size="14.00" fill="#000000">GetLog</text>
</g>
<!-- GetInfo&#45;&gt;GetLog -->
<g id="edge58" class="edge">
<title>GetInfo&#45;&gt;GetLog</title>
<path fill="none" stroke="#000000" d="M720.6138,-5324.3711C695.8864,-5316.8921 668,-5302.6588 668,-5276.5 668,-5276.5 668,-5276.5 668,-4548.5 668,-4539.7318 668,-4530.1843 668,-4521.5196"/>
<polygon fill="#000000" stroke="#000000" points="671.5001,-4521.5 668,-4511.5 664.5001,-4521.5 671.5001,-4521.5"/>
<text text-anchor="middle" x="695" y="-4891.3" font-family="Times,serif" font-size="14.00" fill="#000000">GotInfo</text>
</g>
<!-- Down -->
<g id="node10" class="node">
<title>Down</title>
<ellipse fill="none" stroke="#000000" cx="823" cy="-4493" rx="37.0935" ry="18"/>
<text text-anchor="middle" x="823" y="-4489.3" font-family="Times,serif" font-size="14.00" fill="#000000">Down</text>
</g>
<!-- GetInfo&#45;&gt;Down -->
<g id="edge47" class="edge">
<title>GetInfo&#45;&gt;Down</title>
<path fill="none" stroke="#000000" d="M792.0272,-5323.4474C827.816,-5313.43 879,-5295.7402 879,-5276.5 879,-5276.5 879,-5276.5 879,-4548.5 879,-4533.4859 868.7193,-4521.149 856.9678,-4511.9514"/>
<polygon fill="#000000" stroke="#000000" points="858.8869,-4509.0217 848.7054,-4506.0911 854.8372,-4514.7313 858.8869,-4509.0217"/>
<text text-anchor="middle" x="906" y="-4891.3" font-family="Times,serif" font-size="14.00" fill="#000000">IsDown</text>
</g>
<!-- Activating -->
<g id="node22" class="node">
<title>Activating</title>
<polygon fill="none" stroke="#000000" points="1085,-4913 1003.3895,-4895 1085,-4877 1166.6105,-4895 1085,-4913"/>
<polyline fill="none" stroke="#000000" points="1015.1079,-4897.5846 1015.1079,-4892.4154 "/>
<polyline fill="none" stroke="#000000" points="1073.2816,-4879.5846 1096.7184,-4879.5846 "/>
<polyline fill="none" stroke="#000000" points="1154.8921,-4892.4154 1154.8921,-4897.5846 "/>
<polyline fill="none" stroke="#000000" points="1096.7184,-4910.4154 1073.2816,-4910.4154 "/>
<text text-anchor="middle" x="1085" y="-4891.3" font-family="Times,serif" font-size="14.00" fill="#000000">Activating</text>
</g>
<!-- GetInfo&#45;&gt;Activating -->
<g id="edge56" class="edge">
<title>GetInfo&#45;&gt;Activating</title>
<path fill="none" stroke="#000000" d="M943.9959,-5308.5995C988.8064,-5306.1693 1028,-5299.2785 1028,-5276.5 1028,-5276.5 1028,-5276.5 1028,-4978.5 1028,-4968.7617 1027.7667,-4964.4332 1032.9707,-4953.1086"/>
<polygon fill="#000000" stroke="#000000" points="1036.1831,-4954.5095 1037.5118,-4943.9983 1029.9182,-4951.3867 1036.1831,-4954.5095"/>
<text text-anchor="middle" x="1057.5" y="-5127.3" font-family="Times,serif" font-size="14.00" fill="#000000">Activate</text>
</g>
<!-- GetLog&#45;&gt;Reset -->
<g id="edge61" class="edge">
<title>GetLog&#45;&gt;Reset</title>
<path fill="none" stroke="#000000" d="M641.1751,-4478.3582C616.871,-4465.0172 582.9447,-4446.1854 570,-4438 547.904,-4424.0278 545.9806,-4414.411 522,-4404 480.6956,-4386.0679 429.9617,-4376.8969 393.7749,-4372.317"/>
<polygon fill="#000000" stroke="#000000" points="393.8514,-4368.8014 383.5069,-4371.0909 393.0214,-4375.752 393.8514,-4368.8014"/>
<text text-anchor="middle" x="599.5" y="-4426.8" font-family="Times,serif" font-size="14.00" fill="#000000">AdvMap</text>
</g>
<!-- GetMissing -->
<g id="node8" class="node">
<title>GetMissing</title>
<ellipse fill="none" stroke="#000000" cx="857" cy="-3703" rx="63.8893" ry="18"/>
<text text-anchor="middle" x="857" y="-3699.3" font-family="Times,serif" font-size="14.00" fill="#000000">GetMissing</text>
</g>
<!-- GetLog&#45;&gt;GetMissing -->
<g id="edge15" class="edge">
<title>GetLog&#45;&gt;GetMissing</title>
<path fill="none" stroke="#000000" d="M706.6165,-4483.815C768.7457,-4468.7681 884,-4439.6252 884,-4430.5 884,-4430.5 884,-4430.5 884,-3758.5 884,-3748.5852 880.4726,-3738.5869 875.9676,-3729.8609"/>
<polygon fill="#000000" stroke="#000000" points="878.8532,-3727.8592 870.8164,-3720.9556 872.794,-3731.3643 878.8532,-3727.8592"/>
<text text-anchor="middle" x="910" y="-4052.3" font-family="Times,serif" font-size="14.00" fill="#000000">GotLog</text>
</g>
<!-- Incomplete -->
<g id="node11" class="node">
<title>Incomplete</title>
<ellipse fill="none" stroke="#000000" cx="678" cy="-3703" rx="62.2891" ry="18"/>
<text text-anchor="middle" x="678" y="-3699.3" font-family="Times,serif" font-size="14.00" fill="#000000">Incomplete</text>
</g>
<!-- GetLog&#45;&gt;Incomplete -->
<g id="edge54" class="edge">
<title>GetLog&#45;&gt;Incomplete</title>
<path fill="none" stroke="#000000" d="M652.79,-4476.0104C643.7373,-4464.1323 634,-4447.4227 634,-4430.5 634,-4430.5 634,-4430.5 634,-3758.5 634,-3746.7073 640.1754,-3735.961 647.8992,-3727.1322"/>
<polygon fill="#000000" stroke="#000000" points="650.4888,-3729.49 654.9691,-3719.8891 645.4794,-3724.6005 650.4888,-3729.49"/>
<text text-anchor="middle" x="680.5" y="-4052.3" font-family="Times,serif" font-size="14.00" fill="#000000">IsIncomplete</text>
</g>
<!-- WaitUpThru -->
<g id="node9" class="node">
<title>WaitUpThru</title>
<ellipse fill="none" stroke="#000000" cx="843" cy="-3025" rx="66.8882" ry="18"/>
<text text-anchor="middle" x="843" y="-3021.3" font-family="Times,serif" font-size="14.00" fill="#000000">WaitUpThru</text>
</g>
<!-- GetMissing&#45;&gt;WaitUpThru -->
<g id="edge36" class="edge">
<title>GetMissing&#45;&gt;WaitUpThru</title>
<path fill="none" stroke="#000000" d="M850,-3684.7898C846.5,-3674.0947 843,-3660.2197 843,-3647.5 843,-3647.5 843,-3647.5 843,-3080.5 843,-3071.7318 843,-3062.1843 843,-3053.5196"/>
<polygon fill="#000000" stroke="#000000" points="846.5001,-3053.5 843,-3043.5 839.5001,-3053.5 846.5001,-3053.5"/>
<text text-anchor="middle" x="889.5" y="-3360.3" font-family="Times,serif" font-size="14.00" fill="#000000">NeedUpThru</text>
</g>
<!-- Down&#45;&gt;GetInfo -->
<g id="edge17" class="edge">
<title>Down&#45;&gt;GetInfo</title>
<path fill="none" stroke="#000000" d="M794.3008,-4504.4526C776.8882,-4513.4948 758,-4528.0226 758,-4548.5 758,-5276.5 758,-5276.5 758,-5276.5 758,-5285.2682 758,-5294.8157 758,-5303.4804"/>
<polygon fill="#000000" stroke="#000000" points="754.5001,-5303.5 758,-5313.5 761.5001,-5303.5 754.5001,-5303.5"/>
<text text-anchor="middle" x="800.5" y="-4891.3" font-family="Times,serif" font-size="14.00" fill="#000000">MNotifyRec</text>
</g>
<!-- Incomplete&#45;&gt;Reset -->
<g id="edge63" class="edge">
<title>Incomplete&#45;&gt;Reset</title>
<path fill="none" stroke="#000000" d="M618.0236,-3708.1092C559.4295,-3714.8056 479,-3729.3132 479,-3758.5 479,-4305.5 479,-4305.5 479,-4305.5 479,-4325.6335 428.2025,-4344.8394 389.6316,-4356.5205"/>
<polygon fill="#000000" stroke="#000000" points="388.2326,-4353.2839 379.6292,-4359.4671 390.2107,-4359.9986 388.2326,-4353.2839"/>
<text text-anchor="middle" x="508.5" y="-3989.8" font-family="Times,serif" font-size="14.00" fill="#000000">AdvMap</text>
</g>
<!-- Incomplete&#45;&gt;GetLog -->
<g id="edge18" class="edge">
<title>Incomplete&#45;&gt;GetLog</title>
<path fill="none" stroke="#000000" d="M723.9829,-3715.2331C744.0107,-3723.6097 763,-3737.1748 763,-3758.5 763,-4430.5 763,-4430.5 763,-4430.5 763,-4455.5731 739.6189,-4471.1509 716.0555,-4480.4837"/>
<polygon fill="#000000" stroke="#000000" points="714.576,-4477.2971 706.3663,-4483.9942 716.9605,-4483.8784 714.576,-4477.2971"/>
<text text-anchor="middle" x="805.5" y="-4052.3" font-family="Times,serif" font-size="14.00" fill="#000000">MNotifyRec</text>
</g>
<!-- Clean -->
<g id="node12" class="node">
<title>Clean</title>
<ellipse fill="none" stroke="#000000" cx="1675" cy="-4895" rx="37.0935" ry="18"/>
<text text-anchor="middle" x="1675" y="-4891.3" font-family="Times,serif" font-size="14.00" fill="#000000">Clean</text>
</g>
<!-- WaitLocalRecoveryReserved -->
<g id="node21" class="node">
<title>WaitLocalRecoveryReserved</title>
<ellipse fill="none" stroke="#000000" cx="1211" cy="-4056" rx="141.8751" ry="18"/>
<text text-anchor="middle" x="1211" y="-4052.3" font-family="Times,serif" font-size="14.00" fill="#000000">WaitLocalRecoveryReserved</text>
</g>
<!-- Clean&#45;&gt;WaitLocalRecoveryReserved -->
<g id="edge6" class="edge">
<title>Clean&#45;&gt;WaitLocalRecoveryReserved</title>
<path fill="none" stroke="#000000" d="M1639.6368,-4889.5831C1608.1394,-4882.5134 1567,-4866.7281 1567,-4832.5 1567,-4832.5 1567,-4832.5 1567,-4567.5 1567,-4510.9926 1505,-4513.0074 1505,-4456.5 1505,-4456.5 1505,-4456.5 1505,-4111.5 1505,-4093.0382 1414.3266,-4077.965 1333.6906,-4068.2105"/>
<polygon fill="#000000" stroke="#000000" points="1333.7505,-4064.693 1323.4072,-4066.9882 1332.9242,-4071.6441 1333.7505,-4064.693"/>
<text text-anchor="middle" x="1577" y="-4489.3" font-family="Times,serif" font-size="14.00" fill="#000000">DoRecovery</text>
</g>
<!-- Recovered -->
<g id="node13" class="node">
<title>Recovered</title>
<ellipse fill="none" stroke="#000000" cx="1723" cy="-58" rx="59.5901" ry="18"/>
<text text-anchor="middle" x="1723" y="-54.3" font-family="Times,serif" font-size="14.00" fill="#000000">Recovered</text>
</g>
<!-- Recovered&#45;&gt;Clean -->
<g id="edge10" class="edge">
<title>Recovered&#45;&gt;Clean</title>
<path fill="none" stroke="#000000" d="M1743.9372,-75.3035C1753.6152,-85.2907 1763,-98.7723 1763,-113.5 1763,-1335.5 1763,-1335.5 1763,-1335.5 1763,-1452.5544 1749,-1481.4456 1749,-1598.5 1749,-2065.5 1749,-2065.5 1749,-2065.5 1749,-2195.8314 1722,-2227.1686 1722,-2357.5 1722,-4832.5 1722,-4832.5 1722,-4832.5 1722,-4847.9432 1712.7206,-4862.0021 1702.4081,-4872.8579"/>
<polygon fill="#000000" stroke="#000000" points="1699.9498,-4870.3663 1695.205,-4879.8393 1704.8216,-4875.3928 1699.9498,-4870.3663"/>
<text text-anchor="middle" x="1752.5" y="-2353.8" font-family="Times,serif" font-size="14.00" fill="#000000">GoClean</text>
</g>
<!-- Recovered&#45;&gt;WaitLocalRecoveryReserved -->
<g id="edge7" class="edge">
<title>Recovered&#45;&gt;WaitLocalRecoveryReserved</title>
<path fill="none" stroke="#000000" d="M1713,-75.9177C1708,-86.5153 1703,-100.3903 1703,-113.5 1703,-469.5 1703,-469.5 1703,-469.5 1703,-575.0312 1660.1972,-594.521 1635,-697 1592.6792,-869.1217 1559,-911.2518 1559,-1088.5 1559,-1297.5 1559,-1297.5 1559,-1297.5 1559,-1506.0297 1369,-1517.9703 1369,-1726.5 1369,-1840.5 1369,-1840.5 1369,-1840.5 1369,-1904.1755 1356.3609,-1923.9472 1317,-1974 1299.242,-1996.5818 1284.6564,-1991.0351 1264,-2011 1249.6192,-2024.8994 1253.6245,-2035.8812 1237,-2047 1210.2984,-2064.8586 1197.4882,-2054.8822 1167,-2065 1103.6282,-2086.0306 1089.7255,-2096.5394 1028,-2122 1007.0933,-2130.6236 981,-2118.8846 981,-2141.5 981,-2331.5 981,-2331.5 981,-2331.5 981,-2505.442 998,-2548.558 998,-2722.5 998,-2950.5 998,-2950.5 998,-2950.5 998,-3156.4946 1109,-3194.5054 1109,-3400.5 1109,-3993.5 1109,-3993.5 1109,-3993.5 1109,-4012.5119 1122.0428,-4025.9188 1138.8004,-4035.2982"/>
<polygon fill="#000000" stroke="#000000" points="1137.3456,-4038.4841 1147.8528,-4039.8443 1140.4871,-4032.2286 1137.3456,-4038.4841"/>
<text text-anchor="middle" x="1307" y="-2025.3" font-family="Times,serif" font-size="14.00" fill="#000000">DoRecovery</text>
</g>
<!-- Backfilling -->
<g id="node14" class="node">
<title>Backfilling</title>
<ellipse fill="none" stroke="#000000" cx="1517" cy="-715" rx="59.5901" ry="18"/>
<text text-anchor="middle" x="1517" y="-711.3" font-family="Times,serif" font-size="14.00" fill="#000000">Backfilling</text>
</g>
<!-- Backfilling&#45;&gt;Recovered -->
<g id="edge41" class="edge">
<title>Backfilling&#45;&gt;Recovered</title>
<path fill="none" stroke="#000000" d="M1566.9683,-705.0847C1590.2946,-697.25 1613,-683.4681 1613,-659.5 1613,-659.5 1613,-659.5 1613,-113.5 1613,-89.329 1634.4323,-75.6828 1658.3763,-67.9795"/>
<polygon fill="#000000" stroke="#000000" points="1659.3549,-71.3401 1668,-65.2153 1657.4224,-64.6121 1659.3549,-71.3401"/>
<text text-anchor="middle" x="1648.5" y="-382.8" font-family="Times,serif" font-size="14.00" fill="#000000">Backfilled</text>
</g>
<!-- WaitLocalBackfillReserved -->
<g id="node16" class="node">
<title>WaitLocalBackfillReserved</title>
<ellipse fill="none" stroke="#000000" cx="1094" cy="-2029" rx="133.7763" ry="18"/>
<text text-anchor="middle" x="1094" y="-2025.3" font-family="Times,serif" font-size="14.00" fill="#000000">WaitLocalBackfillReserved</text>
</g>
<!-- Backfilling&#45;&gt;WaitLocalBackfillReserved -->
<g id="edge67" class="edge">
<title>Backfilling&#45;&gt;WaitLocalBackfillReserved</title>
<path fill="none" stroke="#000000" d="M1471.5139,-727.0264C1451.3045,-735.386 1432,-748.9986 1432,-770.5 1432,-1017.5 1432,-1017.5 1432,-1017.5 1432,-1183.8376 1312,-1205.6624 1312,-1372 1312,-1973.5 1312,-1973.5 1312,-1973.5 1312,-1987.0215 1248.2027,-2002.1555 1189.6328,-2013.2004"/>
<polygon fill="#000000" stroke="#000000" points="1188.7269,-2009.8087 1179.5337,-2015.0751 1190.0045,-2016.6911 1188.7269,-2009.8087"/>
<text text-anchor="middle" x="1413" y="-1368.3" font-family="Times,serif" font-size="14.00" fill="#000000">RemoteReservationRevoked</text>
</g>
<!-- NotBackfilling -->
<g id="node17" class="node">
<title>NotBackfilling</title>
<ellipse fill="none" stroke="#000000" cx="1040" cy="-58" rx="77.1866" ry="18"/>
<text text-anchor="middle" x="1040" y="-54.3" font-family="Times,serif" font-size="14.00" fill="#000000">NotBackfilling</text>
</g>
<!-- Backfilling&#45;&gt;NotBackfilling -->
<g id="edge28" class="edge">
<title>Backfilling&#45;&gt;NotBackfilling</title>
<path fill="none" stroke="#000000" d="M1471.3502,-703.2217C1462.0053,-701.0008 1452.2113,-698.8102 1443,-697 1388.0929,-686.2098 1194,-715.4573 1194,-659.5 1194,-659.5 1194,-659.5 1194,-113.5 1194,-94.531 1152.1246,-80.2536 1112.0463,-70.9329"/>
<polygon fill="#000000" stroke="#000000" points="1112.7167,-67.4964 1102.1938,-68.7286 1111.1883,-74.3276 1112.7167,-67.4964"/>
<text text-anchor="middle" x="1320.5" y="-382.8" font-family="Times,serif" font-size="14.00" fill="#000000">RemoteReservationRevokedTooFull</text>
</g>
<!-- Backfilling&#45;&gt;NotBackfilling -->
<g id="edge29" class="edge">
<title>Backfilling&#45;&gt;NotBackfilling</title>
<path fill="none" stroke="#000000" d="M1472.2362,-702.8591C1462.6483,-700.6114 1452.5343,-698.5022 1443,-697 1398.9046,-690.0524 1043,-704.1393 1043,-659.5 1043,-659.5 1043,-659.5 1043,-113.5 1043,-104.719 1042.6209,-95.1678 1042.1323,-86.5036"/>
<polygon fill="#000000" stroke="#000000" points="1045.6231,-86.2461 1041.5,-76.4865 1038.637,-86.6871 1045.6231,-86.2461"/>
<text text-anchor="middle" x="1100.5" y="-382.8" font-family="Times,serif" font-size="14.00" fill="#000000">UnfoundBackfill</text>
</g>
<!-- Backfilling&#45;&gt;NotBackfilling -->
<g id="edge42" class="edge">
<title>Backfilling&#45;&gt;NotBackfilling</title>
<path fill="none" stroke="#000000" d="M1499.6016,-697.6142C1491.2365,-687.4049 1483,-673.7377 1483,-659.5 1483,-659.5 1483,-659.5 1483,-113.5 1483,-78.0068 1256.2187,-64.8918 1127.1743,-60.3021"/>
<polygon fill="#000000" stroke="#000000" points="1127.0266,-56.795 1116.9117,-59.9477 1126.7849,-63.7909 1127.0266,-56.795"/>
<text text-anchor="middle" x="1530" y="-382.8" font-family="Times,serif" font-size="14.00" fill="#000000">DeferBackfill</text>
</g>
<!-- WaitRemoteBackfillReserved -->
<g id="node15" class="node">
<title>WaitRemoteBackfillReserved</title>
<ellipse fill="none" stroke="#000000" cx="1131" cy="-1372" rx="144.8743" ry="18"/>
<text text-anchor="middle" x="1131" y="-1368.3" font-family="Times,serif" font-size="14.00" fill="#000000">WaitRemoteBackfillReserved</text>
</g>
<!-- WaitRemoteBackfillReserved&#45;&gt;Backfilling -->
<g id="edge40" class="edge">
<title>WaitRemoteBackfillReserved&#45;&gt;Backfilling</title>
<path fill="none" stroke="#000000" d="M1199.6865,-1356.0667C1233.0364,-1346.2676 1266,-1332.5281 1266,-1316.5 1266,-1316.5 1266,-1316.5 1266,-770.5 1266,-730.2936 1403.7953,-741.9191 1443,-733 1448.6988,-731.7035 1454.6359,-730.3181 1460.5591,-728.9131"/>
<polygon fill="#000000" stroke="#000000" points="1461.5583,-732.2729 1470.4696,-726.5424 1459.9297,-725.465 1461.5583,-732.2729"/>
<text text-anchor="middle" x="1339.5" y="-1039.8" font-family="Times,serif" font-size="14.00" fill="#000000">AllBackfillsReserved</text>
</g>
<!-- WaitRemoteBackfillReserved&#45;&gt;NotBackfilling -->
<g id="edge52" class="edge">
<title>WaitRemoteBackfillReserved&#45;&gt;NotBackfilling</title>
<path fill="none" stroke="#000000" d="M1119.8711,-1353.9522C1114.4144,-1343.4252 1109,-1329.6633 1109,-1316.5 1109,-1316.5 1109,-1316.5 1109,-1069.5 1109,-913.8548 1039.9875,-886.1082 1012,-733 986.302,-592.417 986,-555.4124 986,-412.5 986,-412.5 986,-412.5 986,-113.5 986,-100.7705 993.3875,-89.8649 1002.6977,-81.1754"/>
<polygon fill="#000000" stroke="#000000" points="1005.0357,-83.783 1010.472,-74.6892 1000.5513,-78.408 1005.0357,-83.783"/>
<text text-anchor="middle" x="1113.5" y="-711.3" font-family="Times,serif" font-size="14.00" fill="#000000">RemoteReservationRejected</text>
</g>
<!-- WaitRemoteBackfillReserved&#45;&gt;NotBackfilling -->
<g id="edge68" class="edge">
<title>WaitRemoteBackfillReserved&#45;&gt;NotBackfilling</title>
<path fill="none" stroke="#000000" d="M1198.2611,-1355.9276C1215.3619,-1347.6377 1229,-1335.173 1229,-1316.5 1229,-1316.5 1229,-1316.5 1229,-941.5 1229,-915.9184 1237,-910.0816 1237,-884.5 1237,-884.5 1237,-884.5 1237,-751.5 1237,-725.3787 1235.717,-712.9099 1215,-697 1151.6051,-648.315 1081.6721,-727.5887 1039,-660 973.6364,-556.47 1006,-508.9372 1006,-386.5 1006,-386.5 1006,-386.5 1006,-113.5 1006,-102.9912 1010.4871,-92.7932 1016.2011,-84.0671"/>
<polygon fill="#000000" stroke="#000000" points="1019.1166,-86.0098 1022.2034,-75.8745 1013.4699,-81.8727 1019.1166,-86.0098"/>
<text text-anchor="middle" x="1337" y="-711.3" font-family="Times,serif" font-size="14.00" fill="#000000">RemoteReservationRevoked</text>
</g>
<!-- WaitLocalBackfillReserved&#45;&gt;WaitRemoteBackfillReserved -->
<g id="edge55" class="edge">
<title>WaitLocalBackfillReserved&#45;&gt;WaitRemoteBackfillReserved</title>
<path fill="none" stroke="#000000" d="M1103.5,-2011.027C1108.25,-2000.411 1113,-1986.536 1113,-1973.5 1113,-1973.5 1113,-1973.5 1113,-1427.5 1113,-1418.0796 1115.3755,-1408.1791 1118.4006,-1399.3907"/>
<polygon fill="#000000" stroke="#000000" points="1121.6794,-1400.6157 1122,-1390.0257 1115.1453,-1398.1043 1121.6794,-1400.6157"/>
<text text-anchor="middle" x="1192" y="-1696.8" font-family="Times,serif" font-size="14.00" fill="#000000">LocalBackfillReserved</text>
</g>
<!-- NotBackfilling&#45;&gt;WaitLocalBackfillReserved -->
<g id="edge31" class="edge">
<title>NotBackfilling&#45;&gt;WaitLocalBackfillReserved</title>
<path fill="none" stroke="#000000" d="M994.0454,-72.6471C976.666,-81.296 961,-94.3918 961,-113.5 961,-678.5 961,-678.5 961,-678.5 961,-736.5659 974,-750.4341 974,-808.5 974,-922.5 974,-922.5 974,-922.5 974,-987.8575 978,-1004.1425 978,-1069.5 978,-1164.5 978,-1164.5 978,-1164.5 978,-1256.8517 967,-1279.6483 967,-1372 967,-1973.5 967,-1973.5 967,-1973.5 967,-1987.4438 993.0303,-2000.1375 1021.5216,-2009.8551"/>
<polygon fill="#000000" stroke="#000000" points="1020.6515,-2013.2529 1031.2441,-2013.034 1022.827,-2006.5995 1020.6515,-2013.2529"/>
<text text-anchor="middle" x="1033" y="-1039.8" font-family="Times,serif" font-size="14.00" fill="#000000">RequestBackfill</text>
</g>
<!-- NotRecovering -->
<g id="node18" class="node">
<title>NotRecovering</title>
<ellipse fill="none" stroke="#000000" cx="1468" cy="-2029" rx="79.8859" ry="18"/>
<text text-anchor="middle" x="1468" y="-2025.3" font-family="Times,serif" font-size="14.00" fill="#000000">NotRecovering</text>
</g>
<!-- NotRecovering&#45;&gt;WaitLocalRecoveryReserved -->
<g id="edge8" class="edge">
<title>NotRecovering&#45;&gt;WaitLocalRecoveryReserved</title>
<path fill="none" stroke="#000000" d="M1405.6448,-2040.4305C1288.4712,-2062.1713 1045.9603,-2108.5147 1033,-2122 979.2716,-2177.9049 1001,-2215.9623 1001,-2293.5 1001,-2357.5 1001,-2357.5 1001,-2357.5 1001,-2574.9242 1129,-3110.0758 1129,-3327.5 1129,-3993.5 1129,-3993.5 1129,-3993.5 1129,-4010.8573 1140.7652,-4024.0325 1155.3825,-4033.7036"/>
<polygon fill="#000000" stroke="#000000" points="1153.8708,-4036.8774 1164.2513,-4038.998 1157.4589,-4030.8669 1153.8708,-4036.8774"/>
<text text-anchor="middle" x="1141" y="-3021.3" font-family="Times,serif" font-size="14.00" fill="#000000">DoRecovery</text>
</g>
<!-- Recovering -->
<g id="node19" class="node">
<title>Recovering</title>
<ellipse fill="none" stroke="#000000" cx="1206" cy="-2686" rx="63.0888" ry="18"/>
<text text-anchor="middle" x="1206" y="-2682.3" font-family="Times,serif" font-size="14.00" fill="#000000">Recovering</text>
</g>
<!-- Recovering&#45;&gt;Recovered -->
<g id="edge23" class="edge">
<title>Recovering&#45;&gt;Recovered</title>
<path fill="none" stroke="#000000" d="M1186.6331,-2668.403C1177.6809,-2658.3297 1169,-2644.8596 1169,-2630.5 1169,-2630.5 1169,-2630.5 1169,-2084.5 1169,-2000.6056 1291.6797,-2103.1645 1354,-2047 1370.0024,-2032.5783 1383,-1976.0421 1383,-1954.5 1383,-1954.5 1383,-1954.5 1383,-1897.5 1383,-1744.1626 1468.3584,-1725.0795 1518,-1580 1523.6538,-1563.4766 1523.9602,-1558.9902 1528,-1542 1553.6996,-1433.9162 1580,-1408.5971 1580,-1297.5 1580,-1297.5 1580,-1297.5 1580,-1183.5 1580,-1083.1057 1616,-1060.8943 1616,-960.5 1616,-960.5 1616,-960.5 1616,-865.5 1616,-683.1884 1723,-651.8116 1723,-469.5 1723,-469.5 1723,-469.5 1723,-113.5 1723,-104.7318 1723,-95.1843 1723,-86.5196"/>
<polygon fill="#000000" stroke="#000000" points="1726.5001,-86.5 1723,-76.5 1719.5001,-86.5 1726.5001,-86.5"/>
<text text-anchor="middle" x="1654" y="-1368.3" font-family="Times,serif" font-size="14.00" fill="#000000">AllReplicasRecovered</text>
</g>
<!-- Recovering&#45;&gt;WaitLocalBackfillReserved -->
<g id="edge33" class="edge">
<title>Recovering&#45;&gt;WaitLocalBackfillReserved</title>
<path fill="none" stroke="#000000" d="M1149.1229,-2678.1779C1100.3848,-2669.8274 1038,-2654.4593 1038,-2630.5 1038,-2630.5 1038,-2630.5 1038,-2084.5 1038,-2072.2021 1044.8974,-2061.7004 1053.8508,-2053.2488"/>
<polygon fill="#000000" stroke="#000000" points="1056.3276,-2055.7399 1061.749,-2046.6372 1051.8344,-2050.3723 1056.3276,-2055.7399"/>
<text text-anchor="middle" x="1094" y="-2353.8" font-family="Times,serif" font-size="14.00" fill="#000000">RequestBackfill</text>
</g>
<!-- Recovering&#45;&gt;NotRecovering -->
<g id="edge21" class="edge">
<title>Recovering&#45;&gt;NotRecovering</title>
<path fill="none" stroke="#000000" d="M1262.4395,-2677.7781C1309.8788,-2669.2273 1370,-2653.7953 1370,-2630.5 1370,-2630.5 1370,-2630.5 1370,-2084.5 1370,-2066.1875 1383.1166,-2053.8459 1399.7524,-2045.5572"/>
<polygon fill="#000000" stroke="#000000" points="1401.5527,-2048.5889 1409.2957,-2041.3572 1398.733,-2042.1819 1401.5527,-2048.5889"/>
<text text-anchor="middle" x="1423" y="-2353.8" font-family="Times,serif" font-size="14.00" fill="#000000">DeferRecovery</text>
</g>
<!-- Recovering&#45;&gt;NotRecovering -->
<g id="edge24" class="edge">
<title>Recovering&#45;&gt;NotRecovering</title>
<path fill="none" stroke="#000000" d="M1206,-2667.5C1206,-2656.7083 1206,-2642.8333 1206,-2630.5 1206,-2630.5 1206,-2630.5 1206,-2084.5 1206,-2082.0457 1320.0678,-2058.667 1397.6731,-2043.0455"/>
<polygon fill="#000000" stroke="#000000" points="1398.778,-2046.3934 1407.8919,-2040.9909 1397.3982,-2039.5308 1398.778,-2046.3934"/>
<text text-anchor="middle" x="1270" y="-2353.8" font-family="Times,serif" font-size="14.00" fill="#000000">UnfoundRecovery</text>
</g>
<!-- WaitRemoteRecoveryReserved -->
<g id="node20" class="node">
<title>WaitRemoteRecoveryReserved</title>
<ellipse fill="none" stroke="#000000" cx="1301" cy="-3364" rx="153.2729" ry="18"/>
<text text-anchor="middle" x="1301" y="-3360.3" font-family="Times,serif" font-size="14.00" fill="#000000">WaitRemoteRecoveryReserved</text>
</g>
<!-- WaitRemoteRecoveryReserved&#45;&gt;Recovering -->
<g id="edge26" class="edge">
<title>WaitRemoteRecoveryReserved&#45;&gt;Recovering</title>
<path fill="none" stroke="#000000" d="M1241.6357,-3347.3218C1225.3101,-3338.9119 1212,-3326.5274 1212,-3308.5 1212,-3308.5 1212,-3308.5 1212,-2741.5 1212,-2732.6807 1211.2419,-2723.1185 1210.2646,-2714.4559"/>
<polygon fill="#000000" stroke="#000000" points="1213.7258,-2713.9285 1209,-2704.4461 1206.781,-2714.806 1213.7258,-2713.9285"/>
<text text-anchor="middle" x="1286" y="-3021.3" font-family="Times,serif" font-size="14.00" fill="#000000">AllRemotesReserved</text>
</g>
<!-- WaitLocalRecoveryReserved&#45;&gt;NotRecovering -->
<g id="edge57" class="edge">
<title>WaitLocalRecoveryReserved&#45;&gt;NotRecovering</title>
<path fill="none" stroke="#000000" d="M1337.3954,-4047.7563C1404.3937,-4039.7775 1473,-4024.1294 1473,-3993.5 1473,-3993.5 1473,-3993.5 1473,-2969.5 1473,-2810.1154 1494,-2770.8846 1494,-2611.5 1494,-2611.5 1494,-2611.5 1494,-2535.5 1494,-2510.1628 1495,-2503.8372 1495,-2478.5 1495,-2478.5 1495,-2478.5 1495,-2084.5 1495,-2074.5852 1491.4726,-2064.5869 1486.9676,-2055.8609"/>
<polygon fill="#000000" stroke="#000000" points="1489.8532,-2053.8592 1481.8164,-2046.9556 1483.794,-2057.3643 1489.8532,-2053.8592"/>
<text text-anchor="middle" x="1532" y="-3021.3" font-family="Times,serif" font-size="14.00" fill="#000000">RecoveryTooFull</text>
</g>
<!-- WaitLocalRecoveryReserved&#45;&gt;WaitRemoteRecoveryReserved -->
<g id="edge38" class="edge">
<title>WaitLocalRecoveryReserved&#45;&gt;WaitRemoteRecoveryReserved</title>
<path fill="none" stroke="#000000" d="M1227.9458,-4038.114C1237.2831,-4026.3732 1247,-4010.1542 1247,-3993.5 1247,-3993.5 1247,-3993.5 1247,-3419.5 1247,-3407.3167 1253.7672,-3396.8041 1262.5104,-3388.3061"/>
<polygon fill="#000000" stroke="#000000" points="1264.9361,-3390.8357 1270.2142,-3381.6491 1260.3594,-3385.5391 1264.9361,-3390.8357"/>
<text text-anchor="middle" x="1332.5" y="-3699.3" font-family="Times,serif" font-size="14.00" fill="#000000">LocalRecoveryReserved</text>
</g>
<!-- Activating&#45;&gt;Recovered -->
<g id="edge22" class="edge">
<title>Activating&#45;&gt;Recovered</title>
<path fill="none" stroke="#000000" d="M1155.6708,-4892.5821C1285.0908,-4887.2041 1547,-4871.5025 1547,-4832.5 1547,-4832.5 1547,-4832.5 1547,-4567.5 1547,-4531.513 1589.5094,-4543.4823 1605,-4511 1615.4703,-4489.0449 1610,-4480.8239 1610,-4456.5 1610,-4456.5 1610,-4456.5 1610,-3025 1610,-2870.3966 1532,-2840.6034 1532,-2686 1532,-2686 1532,-2686 1532,-2357.5 1532,-2143.6737 1577,-2092.3263 1577,-1878.5 1577,-1878.5 1577,-1878.5 1577,-1522.5 1577,-1430.8536 1690.3123,-1470.0129 1735,-1390 1746.9376,-1368.6259 1743,-1359.9818 1743,-1335.5 1743,-1335.5 1743,-1335.5 1743,-113.5 1743,-103.975 1740.3605,-94.046 1736.9993,-85.2635"/>
<polygon fill="#000000" stroke="#000000" points="1740.152,-83.7343 1733,-75.9177 1733.7165,-86.4883 1740.152,-83.7343"/>
<text text-anchor="middle" x="1609" y="-2353.8" font-family="Times,serif" font-size="14.00" fill="#000000">AllReplicasRecovered</text>
</g>
<!-- Activating&#45;&gt;WaitLocalBackfillReserved -->
<g id="edge32" class="edge">
<title>Activating&#45;&gt;WaitLocalBackfillReserved</title>
<path fill="none" stroke="#000000" d="M1039.6224,-4886.8582C1010.4595,-4878.7129 978,-4862.8337 978,-4832.5 978,-4832.5 978,-4832.5 978,-2722.5 978,-2673.0687 971,-2660.9313 971,-2611.5 971,-2611.5 971,-2611.5 971,-2535.5 971,-2444.7245 961,-2422.2755 961,-2331.5 961,-2331.5 961,-2331.5 961,-2084.5 961,-2070.0509 988.073,-2057.3425 1017.7898,-2047.7453"/>
<polygon fill="#000000" stroke="#000000" points="1018.9817,-2051.0403 1027.5,-2044.7404 1016.9122,-2044.3532 1018.9817,-2051.0403"/>
<text text-anchor="middle" x="1034" y="-3360.3" font-family="Times,serif" font-size="14.00" fill="#000000">RequestBackfill</text>
</g>
<!-- Activating&#45;&gt;WaitLocalRecoveryReserved -->
<g id="edge9" class="edge">
<title>Activating&#45;&gt;WaitLocalRecoveryReserved</title>
<path fill="none" stroke="#000000" d="M1119.651,-4884.4117C1142.7897,-4874.949 1169,-4858.4934 1169,-4832.5 1169,-4832.5 1169,-4832.5 1169,-4111.5 1169,-4100.5116 1174.2997,-4090.3267 1181.134,-4081.7609"/>
<polygon fill="#000000" stroke="#000000" points="1183.9604,-4083.8517 1188.0338,-4074.0712 1178.7503,-4079.1768 1183.9604,-4083.8517"/>
<text text-anchor="middle" x="1212" y="-4489.3" font-family="Times,serif" font-size="14.00" fill="#000000">DoRecovery</text>
</g>
<!-- RepRecovering -->
<g id="node23" class="node">
<title>RepRecovering</title>
<ellipse fill="none" stroke="#000000" cx="2558" cy="-5620" rx="81.4863" ry="18"/>
<text text-anchor="middle" x="2558" y="-5616.3" font-family="Times,serif" font-size="14.00" fill="#000000">RepRecovering</text>
</g>
<!-- RepNotRecovering -->
<g id="node26" class="node">
<title>RepNotRecovering</title>
<polygon fill="none" stroke="#000000" points="2558,-5149 2419.4142,-5131 2558,-5113 2696.5858,-5131 2558,-5149"/>
<polyline fill="none" stroke="#000000" points="2431.3142,-5132.5456 2431.3142,-5129.4544 "/>
<polyline fill="none" stroke="#000000" points="2546.1,-5114.5456 2569.9,-5114.5456 "/>
<polyline fill="none" stroke="#000000" points="2684.6858,-5129.4544 2684.6858,-5132.5456 "/>
<polyline fill="none" stroke="#000000" points="2569.9,-5147.4544 2546.1,-5147.4544 "/>
<text text-anchor="middle" x="2558" y="-5127.3" font-family="Times,serif" font-size="14.00" fill="#000000">RepNotRecovering</text>
</g>
<!-- RepRecovering&#45;&gt;RepNotRecovering -->
<g id="edge2" class="edge">
<title>RepRecovering&#45;&gt;RepNotRecovering</title>
<path fill="none" stroke="#000000" d="M2558,-5601.5C2558,-5590.7083 2558,-5576.8333 2558,-5564.5 2558,-5564.5 2558,-5564.5 2558,-5186.5 2558,-5177.7318 2558,-5168.1843 2558,-5159.5196"/>
<polygon fill="#000000" stroke="#000000" points="2561.5001,-5159.5 2558,-5149.5 2554.5001,-5159.5 2561.5001,-5159.5"/>
<text text-anchor="middle" x="2661" y="-5328.3" font-family="Times,serif" font-size="14.00" fill="#000000">RemoteReservationCanceled</text>
</g>
<!-- RepRecovering&#45;&gt;RepNotRecovering -->
<g id="edge48" class="edge">
<title>RepRecovering&#45;&gt;RepNotRecovering</title>
<path fill="none" stroke="#000000" d="M2637.9105,-5616.7495C2708.3998,-5611.6291 2800,-5598.4449 2800,-5564.5 2800,-5564.5 2800,-5564.5 2800,-5186.5 2800,-5157.3476 2732.4387,-5143.5075 2668.7114,-5136.9372"/>
<polygon fill="#000000" stroke="#000000" points="2668.82,-5133.4312 2658.5274,-5135.9439 2668.1404,-5140.3982 2668.82,-5133.4312"/>
<text text-anchor="middle" x="2851.5" y="-5328.3" font-family="Times,serif" font-size="14.00" fill="#000000">RecoveryDone</text>
</g>
<!-- RepRecovering&#45;&gt;RepNotRecovering -->
<g id="edge50" class="edge">
<title>RepRecovering&#45;&gt;RepNotRecovering</title>
<path fill="none" stroke="#000000" d="M2500.1448,-5607.2779C2429.412,-5591.6234 2319,-5566.8162 2319,-5564.5 2319,-5564.5 2319,-5564.5 2319,-5186.5 2319,-5169.6508 2410.2922,-5152.429 2480.0318,-5141.7311"/>
<polygon fill="#000000" stroke="#000000" points="2480.7872,-5145.1568 2490.1515,-5140.2009 2479.7406,-5138.2354 2480.7872,-5145.1568"/>
<text text-anchor="middle" x="2420.5" y="-5328.3" font-family="Times,serif" font-size="14.00" fill="#000000">RemoteReservationRejected</text>
</g>
<!-- RepWaitBackfillReserved -->
<g id="node24" class="node">
<title>RepWaitBackfillReserved</title>
<ellipse fill="none" stroke="#000000" cx="2410" cy="-4694" rx="127.2775" ry="18"/>
<text text-anchor="middle" x="2410" y="-4690.3" font-family="Times,serif" font-size="14.00" fill="#000000">RepWaitBackfillReserved</text>
</g>
<!-- RepWaitBackfillReserved&#45;&gt;RepRecovering -->
<g id="edge64" class="edge">
<title>RepWaitBackfillReserved&#45;&gt;RepRecovering</title>
<path fill="none" stroke="#000000" d="M2307.4391,-4704.708C2257.8854,-4712.8371 2209,-4726.6477 2209,-4749.5 2209,-4858.5 2209,-4858.5 2209,-4858.5 2209,-4996.041 2226,-5029.959 2226,-5167.5 2226,-5564.5 2226,-5564.5 2226,-5564.5 2226,-5620.0179 2418.3759,-5592.0783 2473,-5602 2478.4728,-5602.994 2484.1325,-5604.0752 2489.8118,-5605.1977"/>
<polygon fill="#000000" stroke="#000000" points="2489.5254,-5608.7102 2500.0195,-5607.2531 2490.9072,-5601.848 2489.5254,-5608.7102"/>
<text text-anchor="middle" x="2312.5" y="-5127.3" font-family="Times,serif" font-size="14.00" fill="#000000">RemoteBackfillReserved</text>
</g>
<!-- RepWaitBackfillReserved&#45;&gt;RepNotRecovering -->
<g id="edge5" class="edge">
<title>RepWaitBackfillReserved&#45;&gt;RepNotRecovering</title>
<path fill="none" stroke="#000000" d="M2504.9277,-4706.0978C2576.7174,-4716.5886 2663,-4732.6932 2663,-4749.5 2663,-5075.5 2663,-5075.5 2663,-5075.5 2663,-5096.059 2647.0714,-5109.0224 2627.6222,-5117.1883"/>
<polygon fill="#000000" stroke="#000000" points="2626.3106,-5113.9419 2618.166,-5120.7181 2628.7586,-5120.4999 2626.3106,-5113.9419"/>
<text text-anchor="middle" x="2766" y="-4891.3" font-family="Times,serif" font-size="14.00" fill="#000000">RemoteReservationCanceled</text>
</g>
<!-- RepWaitBackfillReserved&#45;&gt;RepNotRecovering -->
<g id="edge53" class="edge">
<title>RepWaitBackfillReserved&#45;&gt;RepNotRecovering</title>
<path fill="none" stroke="#000000" d="M2326.5587,-4707.6427C2286.0447,-4716.7135 2246,-4730.488 2246,-4749.5 2246,-5075.5 2246,-5075.5 2246,-5075.5 2246,-5087.2824 2385.7424,-5108.1521 2478.1827,-5120.6686"/>
<polygon fill="#000000" stroke="#000000" points="2477.9918,-5124.1744 2488.3694,-5122.0401 2478.9259,-5117.237 2477.9918,-5124.1744"/>
<text text-anchor="middle" x="2347.5" y="-4891.3" font-family="Times,serif" font-size="14.00" fill="#000000">RemoteReservationRejected</text>
</g>
<!-- RepWaitRecoveryReserved -->
<g id="node25" class="node">
<title>RepWaitRecoveryReserved</title>
<ellipse fill="none" stroke="#000000" cx="3147" cy="-4694" rx="135.6761" ry="18"/>
<text text-anchor="middle" x="3147" y="-4690.3" font-family="Times,serif" font-size="14.00" fill="#000000">RepWaitRecoveryReserved</text>
</g>
<!-- RepWaitRecoveryReserved&#45;&gt;RepRecovering -->
<g id="edge37" class="edge">
<title>RepWaitRecoveryReserved&#45;&gt;RepRecovering</title>
<path fill="none" stroke="#000000" d="M3237.5534,-4707.4521C3279.4109,-4716.3112 3320,-4729.9437 3320,-4749.5 3320,-4858.5 3320,-4858.5 3320,-4858.5 3320,-4971.9955 3303.6706,-4999.6006 3299,-5113 3298.6708,-5120.9932 3299,-5123 3299,-5131 3299,-5564.5 3299,-5564.5 3299,-5564.5 3299,-5596.7353 2847.1846,-5612.4687 2649.1601,-5617.8164"/>
<polygon fill="#000000" stroke="#000000" points="2648.9678,-5614.3202 2639.0648,-5618.086 2649.1547,-5621.3177 2648.9678,-5614.3202"/>
<text text-anchor="middle" x="3393" y="-5127.3" font-family="Times,serif" font-size="14.00" fill="#000000">RemoteRecoveryReserved</text>
</g>
<!-- RepWaitRecoveryReserved&#45;&gt;RepNotRecovering -->
<g id="edge4" class="edge">
<title>RepWaitRecoveryReserved&#45;&gt;RepNotRecovering</title>
<path fill="none" stroke="#000000" d="M3022.8099,-4701.4342C2963.3917,-4708.5301 2905,-4722.398 2905,-4749.5 2905,-5075.5 2905,-5075.5 2905,-5075.5 2905,-5100.4455 2763.3651,-5116.17 2661.0711,-5124.2737"/>
<polygon fill="#000000" stroke="#000000" points="2660.688,-5120.7929 2650.9896,-5125.058 2661.231,-5127.7718 2660.688,-5120.7929"/>
<text text-anchor="middle" x="3008" y="-4891.3" font-family="Times,serif" font-size="14.00" fill="#000000">RemoteReservationCanceled</text>
</g>
<!-- RepNotRecovering&#45;&gt;RepWaitBackfillReserved -->
<g id="edge39" class="edge">
<title>RepNotRecovering&#45;&gt;RepWaitBackfillReserved</title>
<path fill="none" stroke="#000000" d="M2519.7896,-5117.6955C2502.1272,-5108.8797 2485,-5095.2414 2485,-5075.5 2485,-5075.5 2485,-5075.5 2485,-4749.5 2485,-4735.5531 2476.5159,-4724.7096 2465.2548,-4716.4597"/>
<polygon fill="#000000" stroke="#000000" points="2466.9458,-4713.3854 2456.6457,-4710.9035 2463.1499,-4719.2669 2466.9458,-4713.3854"/>
<text text-anchor="middle" x="2556" y="-4891.3" font-family="Times,serif" font-size="14.00" fill="#000000">RequestBackfillPrio</text>
</g>
<!-- RepNotRecovering&#45;&gt;RepWaitRecoveryReserved -->
<g id="edge25" class="edge">
<title>RepNotRecovering&#45;&gt;RepWaitRecoveryReserved</title>
<path fill="none" stroke="#000000" d="M2661.27,-5126.409C2830.1926,-5118.2047 3147,-5099.6047 3147,-5075.5 3147,-5075.5 3147,-5075.5 3147,-4749.5 3147,-4740.7318 3147,-4731.1843 3147,-4722.5196"/>
<polygon fill="#000000" stroke="#000000" points="3150.5001,-4722.5 3147,-4712.5 3143.5001,-4722.5 3150.5001,-4722.5"/>
<text text-anchor="middle" x="3224" y="-4891.3" font-family="Times,serif" font-size="14.00" fill="#000000">RequestRecoveryPrio</text>
</g>
<!-- RepNotRecovering&#45;&gt;RepNotRecovering -->
<g id="edge3" class="edge">
<title>RepNotRecovering&#45;&gt;RepNotRecovering</title>
<path fill="none" stroke="#000000" d="M2680.6007,-5133.0865C2700.849,-5132.7912 2714.7927,-5132.0957 2714.7927,-5131 2714.7927,-5130.1012 2705.4099,-5129.4717 2690.8608,-5129.1114"/>
<polygon fill="#000000" stroke="#000000" points="2690.6664,-5125.6071 2680.6007,-5128.9135 2690.5313,-5132.6058 2690.6664,-5125.6071"/>
<text text-anchor="middle" x="2817.7927" y="-5127.3" font-family="Times,serif" font-size="14.00" fill="#000000">RemoteReservationCanceled</text>
</g>
<!-- RepNotRecovering&#45;&gt;RepNotRecovering -->
<g id="edge49" class="edge">
<title>RepNotRecovering&#45;&gt;RepNotRecovering</title>
<path fill="none" stroke="#000000" d="M2667.0344,-5134.8539C2776.0365,-5136.4214 2920.7927,-5135.1367 2920.7927,-5131 2920.7927,-5126.9926 2784.9424,-5125.6617 2677.3526,-5127.0075"/>
<polygon fill="#000000" stroke="#000000" points="2676.9864,-5123.512 2667.0344,-5127.1461 2677.0805,-5130.5113 2676.9864,-5123.512"/>
<text text-anchor="middle" x="2972.2927" y="-5127.3" font-family="Times,serif" font-size="14.00" fill="#000000">RecoveryDone</text>
</g>
<!-- RepNotRecovering&#45;&gt;RepNotRecovering -->
<g id="edge51" class="edge">
<title>RepNotRecovering&#45;&gt;RepNotRecovering</title>
<path fill="none" stroke="#000000" d="M2657.8916,-5136.0625C2797.933,-5139.4375 3023.7927,-5137.75 3023.7927,-5131 3023.7927,-5124.4148 2808.8267,-5122.6479 2668.2975,-5125.6994"/>
<polygon fill="#000000" stroke="#000000" points="2667.8089,-5122.2095 2657.8916,-5125.9375 2667.9691,-5129.2077 2667.8089,-5122.2095"/>
<text text-anchor="middle" x="3125.2927" y="-5127.3" font-family="Times,serif" font-size="14.00" fill="#000000">RemoteReservationRejected</text>
</g>
<!-- WaitDeleteReserved -->
<g id="node28" class="node">
<title>WaitDeleteReserved</title>
<polygon fill="none" stroke="#000000" points="1963,-4913 1815.0314,-4895 1963,-4877 2110.9686,-4895 1963,-4913"/>
<polyline fill="none" stroke="#000000" points="1826.9435,-4896.4491 1826.9435,-4893.5509 "/>
<polyline fill="none" stroke="#000000" points="1951.0878,-4878.4491 1974.9122,-4878.4491 "/>
<polyline fill="none" stroke="#000000" points="2099.0565,-4893.5509 2099.0565,-4896.4491 "/>
<polyline fill="none" stroke="#000000" points="1974.9122,-4911.5509 1951.0878,-4911.5509 "/>
<text text-anchor="middle" x="1963" y="-4891.3" font-family="Times,serif" font-size="14.00" fill="#000000">WaitDeleteReserved</text>
</g>
<!-- RepNotRecovering&#45;&gt;WaitDeleteReserved -->
<g id="edge43" class="edge">
<title>RepNotRecovering&#45;&gt;WaitDeleteReserved</title>
<path fill="none" stroke="#000000" d="M2200.0038,-5110.2549C2095.8635,-5107.7022 1992,-5100.0069 1992,-5075.5 1992,-5075.5 1992,-5075.5 1992,-4978.5 1992,-4970.3324 1990.7465,-4961.9517 1988.7607,-4953.7996"/>
<polygon fill="#000000" stroke="#000000" points="1992.0822,-4952.6813 1986.0104,-4943.9989 1985.3425,-4954.5726 1992.0822,-4952.6813"/>
<text text-anchor="middle" x="2034" y="-5026.8" font-family="Times,serif" font-size="14.00" fill="#000000">DeleteStart</text>
</g>
<!-- Stray&#45;&gt;RepNotRecovering -->
<g id="edge20" class="edge">
<title>Stray&#45;&gt;RepNotRecovering</title>
<path fill="none" stroke="#000000" d="M1915.3479,-5330.7396C1980.4007,-5327.4868 2110,-5316.0441 2110,-5276.5 2110,-5276.5 2110,-5276.5 2110,-5186.5 2110,-5185.6557 2142.4936,-5181.2408 2189.9789,-5175.2396"/>
<polygon fill="#000000" stroke="#000000" points="2190.5167,-5178.6996 2200.0009,-5173.9774 2189.6419,-5171.7545 2190.5167,-5178.6996"/>
<text text-anchor="middle" x="2143.5" y="-5227.8" font-family="Times,serif" font-size="14.00" fill="#000000">MLogRec</text>
</g>
<!-- Stray&#45;&gt;RepNotRecovering -->
<g id="edge46" class="edge">
<title>Stray&#45;&gt;RepNotRecovering</title>
<path fill="none" stroke="#000000" d="M1914.9624,-5328.3684C1946.3797,-5322.9728 1987,-5309.597 1987,-5276.5 1987,-5276.5 1987,-5276.5 1987,-5186.5 1987,-5162.3098 2087.0064,-5154.4196 2189.7359,-5151.7565"/>
<polygon fill="#000000" stroke="#000000" points="2190.0918,-5155.2489 2200.0039,-5151.5074 2189.9219,-5148.251 2190.0918,-5155.2489"/>
<text text-anchor="middle" x="2021.5" y="-5227.8" font-family="Times,serif" font-size="14.00" fill="#000000">MInfoRec</text>
</g>
<!-- Stray&#45;&gt;WaitDeleteReserved -->
<g id="edge44" class="edge">
<title>Stray&#45;&gt;WaitDeleteReserved</title>
<path fill="none" stroke="#000000" d="M1896.0899,-5315.6626C1904.9744,-5305.3894 1914,-5291.3088 1914,-5276.5 1914,-5276.5 1914,-5276.5 1914,-4978.5 1914,-4969.8957 1915.9593,-4961.3938 1919.0943,-4953.2972"/>
<polygon fill="#000000" stroke="#000000" points="1922.3668,-4954.5534 1923.2676,-4943.997 1915.9803,-4951.6876 1922.3668,-4954.5534"/>
<text text-anchor="middle" x="1956" y="-5127.3" font-family="Times,serif" font-size="14.00" fill="#000000">DeleteStart</text>
</g>
<!-- WaitDeleteReserved&#45;&gt;WaitDeleteReserved -->
<g id="edge35" class="edge">
<title>WaitDeleteReserved&#45;&gt;WaitDeleteReserved</title>
<path fill="none" stroke="#000000" d="M2056.4308,-4901.6856C2095.6533,-4902.168 2128.9843,-4899.9395 2128.9843,-4895 2128.9843,-4890.5043 2101.3734,-4888.2543 2066.8399,-4888.25"/>
<polygon fill="#000000" stroke="#000000" points="2066.4089,-4884.7525 2056.4308,-4888.3144 2066.4523,-4891.7524 2066.4089,-4884.7525"/>
<text text-anchor="middle" x="2156.4843" y="-4891.3" font-family="Times,serif" font-size="14.00" fill="#000000">ActMap</text>
</g>
<!-- Deleting -->
<g id="node29" class="node">
<title>Deleting</title>
<ellipse fill="none" stroke="#000000" cx="1932" cy="-4493" rx="50.0912" ry="18"/>
<text text-anchor="middle" x="1932" y="-4489.3" font-family="Times,serif" font-size="14.00" fill="#000000">Deleting</text>
</g>
<!-- WaitDeleteReserved&#45;&gt;Deleting -->
<g id="edge66" class="edge">
<title>WaitDeleteReserved&#45;&gt;Deleting</title>
<path fill="none" stroke="#000000" d="M1902.3284,-4884.2945C1875.1034,-4875.6485 1849,-4860.1494 1849,-4832.5 1849,-4832.5 1849,-4832.5 1849,-4548.5 1849,-4529.3103 1864.5209,-4516.3387 1882.1392,-4507.7958"/>
<polygon fill="#000000" stroke="#000000" points="1883.7073,-4510.9303 1891.4726,-4503.7227 1880.9074,-4504.5147 1883.7073,-4510.9303"/>
<text text-anchor="middle" x="1906" y="-4690.3" font-family="Times,serif" font-size="14.00" fill="#000000">DeleteReserved</text>
</g>
<!-- Deleting&#45;&gt;WaitDeleteReserved -->
<g id="edge30" class="edge">
<title>Deleting&#45;&gt;WaitDeleteReserved</title>
<path fill="none" stroke="#000000" d="M1965.8926,-4506.4626C1982.5107,-4515.5085 1999,-4529.3174 1999,-4548.5 1999,-4832.5 1999,-4832.5 1999,-4832.5 1999,-4846.2341 1992.3919,-4859.6721 1984.8381,-4870.5469"/>
<polygon fill="#000000" stroke="#000000" points="1981.93,-4868.5895 1978.6854,-4878.6753 1987.5114,-4872.8142 1981.93,-4868.5895"/>
<text text-anchor="middle" x="2064" y="-4690.3" font-family="Times,serif" font-size="14.00" fill="#000000">DeleteInterrupted</text>
</g>
</g>
</svg>
