<?xml version="1.0" encoding="UTF-8" standalone="no"?>
<!DOCTYPE svg PUBLIC "-//W3C//DTD SVG 1.1//EN"
 "http://www.w3.org/Graphics/SVG/1.1/DTD/svg11.dtd">
<!-- Generated by graphviz version 12.2.0 (20241103.1931)
 -->
<!-- Title: G Pages: 1 -->
<svg width="443pt" height="206pt"
 viewBox="0.00 0.00 443.25 205.89" xmlns="http://www.w3.org/2000/svg" xmlns:xlink="http://www.w3.org/1999/xlink">
<g id="graph0" class="graph" transform="scale(1 1) rotate(0) translate(4 201.89)">
<title>G</title>
<polygon fill="white" stroke="none" points="-4,4 -4,-201.89 439.25,-201.89 439.25,4 -4,4"/>
<!-- mgr -->
<g id="node1" class="node">
<title>mgr</title>
<polygon fill="none" stroke="black" points="7,-0.5 7,-36.5 124.25,-36.5 124.25,-0.5 7,-0.5"/>
<text text-anchor="middle" x="65.62" y="-14.2" font-family="Times,serif" font-size="14.00">ceph manager</text>
</g>
<!-- dashboard -->
<g id="node2" class="node">
<title>dashboard</title>
<polygon fill="none" stroke="black" points="0,-126.07 0,-162.07 129.25,-162.07 129.25,-126.07 0,-126.07"/>
<text text-anchor="middle" x="64.62" y="-139.4" font-family="Times,serif" font-size="14.00">ceph dashboard</text>
</g>
<!-- dashboard&#45;&gt;mgr -->
<g id="edge3" class="edge">
<title>dashboard:dashboard&#45;&gt;mgr</title>
<path fill="none" stroke="lightgreen" d="M64.77,-125.69C64.94,-105.29 65.2,-72.1 65.39,-48.25"/>
<polygon fill="lightgreen" stroke="lightgreen" points="68.89,-48.29 65.47,-38.27 61.89,-48.24 68.89,-48.29"/>
<text text-anchor="middle" x="74.32" y="-58.95" font-family="Times,serif" font-size="14.00"> 3.</text>
</g>
<!-- agent -->
<g id="node3" class="node">
<title>agent</title>
<polygon fill="none" stroke="black" points="147.38,-126.07 147.38,-162.07 203.88,-162.07 203.88,-126.07 147.38,-126.07"/>
<text text-anchor="middle" x="175.62" y="-139.4" font-family="Times,serif" font-size="14.00">agent</text>
</g>
<!-- agent&#45;&gt;mgr -->
<g id="edge2" class="edge">
<title>agent&#45;&gt;mgr</title>
<path fill="none" stroke="orange" d="M164.74,-125.81C157.75,-115.19 148.21,-101.5 138.62,-90.25 124.87,-74.12 107.96,-57.56 93.88,-44.52"/>
<polygon fill="orange" stroke="orange" points="96.39,-42.07 86.65,-37.91 91.67,-47.24 96.39,-42.07"/>
<text text-anchor="middle" x="130.74" y="-58.95" font-family="Times,serif" font-size="14.00"> 2.</text>
</g>
<!-- redfish -->
<g id="node4" class="node">
<title>redfish</title>
<polygon fill="none" stroke="black" points="142.5,-0.5 142.5,-36.5 208.75,-36.5 208.75,-0.5 142.5,-0.5"/>
<text text-anchor="middle" x="175.62" y="-13.82" font-family="Times,serif" font-size="14.00">redfish</text>
</g>
<!-- agent&#45;&gt;redfish -->
<g id="edge1" class="edge">
<title>agent&#45;&gt;redfish</title>
<path fill="none" stroke="green" d="M175.62,-125.63C175.62,-105.48 175.62,-72.04 175.62,-48.08"/>
<polygon fill="green" stroke="green" points="179.13,-48.37 175.63,-38.37 172.13,-48.37 179.13,-48.37"/>
<text text-anchor="middle" x="184.62" y="-58.95" font-family="Times,serif" font-size="14.00"> 1.</text>
</g>
<!-- legend -->
<g id="node5" class="node">
<title>legend</title>
<polygon fill="lightgrey" stroke="none" points="230,-169.14 230,-193.89 427.25,-193.89 427.25,-169.14 230,-169.14"/>
<polygon fill="none" stroke="black" points="230,-169.14 230,-193.89 427.25,-193.89 427.25,-169.14 230,-169.14"/>
<text text-anchor="start" x="314.38" y="-177.59" font-family="Times,serif" font-size="14.00">图例</text>
<polygon fill="none" stroke="black" points="230,-144.18 230,-169.14 427.25,-169.14 427.25,-144.18 230,-144.18"/>
<text text-anchor="start" x="233" y="-152.84" font-family="Times,serif" font-size="14.00">1. 通过 redfish API 收集数据</text>
<polygon fill="none" stroke="black" points="230,-119.21 230,-144.18 427.25,-144.18 427.25,-119.21 230,-119.21"/>
<text text-anchor="start" x="233" y="-127.88" font-family="Times,serif" font-size="14.00">2. 把数据推送到 ceph mgr</text>
<polygon fill="none" stroke="black" points="230,-94.25 230,-119.21 427.25,-119.21 427.25,-94.25 230,-94.25"/>
<text text-anchor="start" x="233" y="-102.91" font-family="Times,serif" font-size="14.00">3. 查询 ceph mgr</text>
</g>
</g>
</svg>
