<?xml version="1.0" encoding="UTF-8" standalone="no"?>
<!DOCTYPE svg PUBLIC "-//W3C//DTD SVG 1.1//EN"
 "http://www.w3.org/Graphics/SVG/1.1/DTD/svg11.dtd">
<!-- Generated by graphviz version 2.49.0 (20210828.1703)
 -->
<!-- Pages: 1 -->
<svg width="343pt" height="188pt"
 viewBox="0.00 0.00 342.80 188.00" xmlns="http://www.w3.org/2000/svg" xmlns:xlink="http://www.w3.org/1999/xlink">
<g id="graph0" class="graph" transform="scale(1 1) rotate(0) translate(4 184)">
<polygon fill="white" stroke="transparent" points="-4,4 -4,-184 338.8,-184 338.8,4 -4,4"/>
<!-- libboost -->
<g id="node1" class="node">
<title>libboost</title>
<path fill="none" stroke="black" d="M184.8,-32.73C184.8,-34.53 168.21,-36 147.8,-36 127.38,-36 110.8,-34.53 110.8,-32.73 110.8,-32.73 110.8,-3.27 110.8,-3.27 110.8,-1.47 127.38,0 147.8,0 168.21,0 184.8,-1.47 184.8,-3.27 184.8,-3.27 184.8,-32.73 184.8,-32.73"/>
<path fill="none" stroke="black" d="M184.8,-32.73C184.8,-30.92 168.21,-29.45 147.8,-29.45 127.38,-29.45 110.8,-30.92 110.8,-32.73"/>
<text text-anchor="middle" x="147.8" y="-14.3" font-family="Times,serif" font-size="14.00">libboost</text>
</g>
<!-- libzbd -->
<g id="node2" class="node">
<title>libzbd</title>
<path fill="none" stroke="black" d="M262.8,-32.73C262.8,-34.53 249.35,-36 232.8,-36 216.24,-36 202.8,-34.53 202.8,-32.73 202.8,-32.73 202.8,-3.27 202.8,-3.27 202.8,-1.47 216.24,0 232.8,0 249.35,0 262.8,-1.47 262.8,-3.27 262.8,-3.27 262.8,-32.73 262.8,-32.73"/>
<path fill="none" stroke="black" d="M262.8,-32.73C262.8,-30.92 249.35,-29.45 232.8,-29.45 216.24,-29.45 202.8,-30.92 202.8,-32.73"/>
<text text-anchor="middle" x="232.8" y="-14.3" font-family="Times,serif" font-size="14.00">libzbd</text>
</g>
<!-- other_repos -->
<g id="node3" class="node">
<title>other_repos</title>
<path fill="none" stroke="black" d="M334.8,-32.73C334.8,-34.53 322.69,-36 307.8,-36 292.9,-36 280.8,-34.53 280.8,-32.73 280.8,-32.73 280.8,-3.27 280.8,-3.27 280.8,-1.47 292.9,0 307.8,0 322.69,0 334.8,-1.47 334.8,-3.27 334.8,-3.27 334.8,-32.73 334.8,-32.73"/>
<path fill="none" stroke="black" d="M334.8,-32.73C334.8,-30.92 322.69,-29.45 307.8,-29.45 292.9,-29.45 280.8,-30.92 280.8,-32.73"/>
<text text-anchor="middle" x="307.8" y="-14.3" font-family="Times,serif" font-size="14.00">...</text>
</g>
<!-- postgresql -->
<g id="node4" class="node">
<title>postgresql</title>
<path fill="lightgrey" stroke="black" d="M92.8,-32.73C92.8,-34.53 72.18,-36 46.8,-36 21.41,-36 0.8,-34.53 0.8,-32.73 0.8,-32.73 0.8,-3.27 0.8,-3.27 0.8,-1.47 21.41,0 46.8,0 72.18,0 92.8,-1.47 92.8,-3.27 92.8,-3.27 92.8,-32.73 92.8,-32.73"/>
<path fill="none" stroke="black" d="M92.8,-32.73C92.8,-30.92 72.18,-29.45 46.8,-29.45 21.41,-29.45 0.8,-30.92 0.8,-32.73"/>
<text text-anchor="middle" x="46.8" y="-14.3" font-family="Times,serif" font-size="14.00">postgresql</text>
</g>
<!-- shaman -->
<g id="node5" class="node">
<title>shaman</title>
<ellipse fill="none" stroke="black" cx="46.8" cy="-90" rx="46.59" ry="18"/>
<text text-anchor="middle" x="46.8" y="-86.3" font-family="Times,serif" font-size="14.00">shaman</text>
</g>
<!-- shaman&#45;&gt;postgresql -->
<g id="edge1" class="edge">
<title>shaman&#45;&gt;postgresql</title>
<path fill="none" stroke="black" d="M46.8,-71.7C46.8,-63.98 46.8,-54.71 46.8,-46.11"/>
<polygon fill="black" stroke="black" points="50.3,-46.1 46.8,-36.1 43.3,-46.1 50.3,-46.1"/>
</g>
<!-- chacra -->
<g id="node6" class="node">
<title>chacra</title>
<ellipse fill="none" stroke="black" cx="192.8" cy="-90" rx="41.69" ry="18"/>
<text text-anchor="middle" x="192.8" y="-86.3" font-family="Times,serif" font-size="14.00">chacra</text>
</g>
<!-- chacra&#45;&gt;libboost -->
<g id="edge4" class="edge">
<title>chacra&#45;&gt;libboost</title>
<path fill="none" stroke="black" d="M182.13,-72.41C176.85,-64.2 170.36,-54.1 164.45,-44.9"/>
<polygon fill="black" stroke="black" points="167.36,-42.97 159.01,-36.45 161.48,-46.75 167.36,-42.97"/>
</g>
<!-- chacra&#45;&gt;libzbd -->
<g id="edge5" class="edge">
<title>chacra&#45;&gt;libzbd</title>
<path fill="none" stroke="black" d="M202.28,-72.41C206.92,-64.28 212.62,-54.31 217.83,-45.18"/>
<polygon fill="black" stroke="black" points="220.9,-46.87 222.83,-36.45 214.83,-43.39 220.9,-46.87"/>
</g>
<!-- chacra&#45;&gt;other_repos -->
<g id="edge6" class="edge">
<title>chacra&#45;&gt;other_repos</title>
<path fill="none" stroke="black" d="M216.07,-74.83C232.42,-64.88 254.59,-51.39 273.04,-40.16"/>
<polygon fill="black" stroke="black" points="275.03,-43.04 281.75,-34.85 271.39,-37.06 275.03,-43.04"/>
</g>
<!-- chacra&#45;&gt;postgresql -->
<g id="edge2" class="edge">
<title>chacra&#45;&gt;postgresql</title>
<path fill="none" stroke="black" d="M166.02,-76.16C144.85,-66.01 114.87,-51.64 90.27,-39.84"/>
<polygon fill="black" stroke="black" points="91.67,-36.63 81.14,-35.46 88.64,-42.94 91.67,-36.63"/>
</g>
<!-- chacractl -->
<g id="node7" class="node">
<title>chacractl</title>
<ellipse fill="none" stroke="black" cx="192.8" cy="-162" rx="53.09" ry="18"/>
<text text-anchor="middle" x="192.8" y="-158.3" font-family="Times,serif" font-size="14.00">chacractl</text>
</g>
<!-- chacractl&#45;&gt;chacra -->
<g id="edge3" class="edge">
<title>chacractl&#45;&gt;chacra</title>
<path fill="none" stroke="black" d="M192.8,-143.7C192.8,-135.98 192.8,-126.71 192.8,-118.11"/>
<polygon fill="black" stroke="black" points="196.3,-118.1 192.8,-108.1 189.3,-118.1 196.3,-118.1"/>
</g>
</g>
</svg>
