<?xml version="1.0" encoding="UTF-8" standalone="no"?>
<!DOCTYPE svg PUBLIC "-//W3C//DTD SVG 1.1//EN"
 "http://www.w3.org/Graphics/SVG/1.1/DTD/svg11.dtd">
<!-- Generated by graphviz version 2.42.1 (20190717.1914)
 -->
<!-- Title: G Pages: 1 -->
<svg width="593pt" height="299pt"
 viewBox="0.00 0.00 593.00 299.00" xmlns="http://www.w3.org/2000/svg" xmlns:xlink="http://www.w3.org/1999/xlink">
<g id="graph0" class="graph" transform="scale(1 1) rotate(0) translate(4 295)">
<title>G</title>
<polygon fill="white" stroke="transparent" points="-4,4 -4,-295 589,-295 589,4 -4,4"/>
<g id="clust1" class="cluster">
<title>cluster_1</title>
<polygon fill="none" stroke="black" points="8,-64 8,-283 577,-283 577,-64 8,-64"/>
<text text-anchor="middle" x="292.5" y="-267.8" font-family="Times,serif" font-size="14.00">ceph&#45;mgr</text>
</g>
<!-- volumes -->
<g id="node1" class="node">
<title>volumes</title>
<ellipse fill="none" stroke="black" cx="498" cy="-234" rx="71.49" ry="18"/>
<text text-anchor="middle" x="498" y="-230.3" font-family="Times,serif" font-size="14.00">mgr/volumes</text>
</g>
<!-- orchestrator -->
<g id="node5" class="node">
<title>orchestrator</title>
<ellipse fill="none" stroke="black" cx="327" cy="-162" rx="115.88" ry="18"/>
<text text-anchor="middle" x="327" y="-158.3" font-family="Times,serif" font-size="14.00">Orchestrator Interface</text>
</g>
<!-- volumes&#45;&gt;orchestrator -->
<g id="edge1" class="edge">
<title>volumes&#45;&gt;orchestrator</title>
<path fill="none" stroke="black" d="M462.15,-218.33C437.01,-208.03 403.1,-194.15 375.54,-182.87"/>
<polygon fill="black" stroke="black" points="376.66,-179.55 366.08,-179 374.01,-186.02 376.66,-179.55"/>
</g>
<!-- rook -->
<g id="node2" class="node">
<title>rook</title>
<ellipse fill="none" stroke="black" cx="81" cy="-90" rx="53.09" ry="18"/>
<text text-anchor="middle" x="81" y="-86.3" font-family="Times,serif" font-size="14.00">mgr/rook</text>
</g>
<!-- rook_io -->
<g id="node9" class="node">
<title>rook_io</title>
<ellipse fill="none" stroke="black" cx="81" cy="-18" rx="33.6" ry="18"/>
<text text-anchor="middle" x="81" y="-14.3" font-family="Times,serif" font-size="14.00">Rook</text>
</g>
<!-- rook&#45;&gt;rook_io -->
<g id="edge5" class="edge">
<title>rook&#45;&gt;rook_io</title>
<path fill="none" stroke="black" d="M81,-71.7C81,-63.98 81,-54.71 81,-46.11"/>
<polygon fill="black" stroke="black" points="84.5,-46.1 81,-36.1 77.5,-46.1 84.5,-46.1"/>
</g>
<!-- dashboard -->
<g id="node3" class="node">
<title>dashboard</title>
<ellipse fill="none" stroke="black" cx="327" cy="-234" rx="81.49" ry="18"/>
<text text-anchor="middle" x="327" y="-230.3" font-family="Times,serif" font-size="14.00">mgr/dashboard</text>
</g>
<!-- dashboard&#45;&gt;orchestrator -->
<g id="edge2" class="edge">
<title>dashboard&#45;&gt;orchestrator</title>
<path fill="none" stroke="black" d="M327,-215.7C327,-207.98 327,-198.71 327,-190.11"/>
<polygon fill="black" stroke="black" points="330.5,-190.1 327,-180.1 323.5,-190.1 330.5,-190.1"/>
</g>
<!-- orchestrator_cli -->
<g id="node4" class="node">
<title>orchestrator_cli</title>
<ellipse fill="none" stroke="black" cx="122" cy="-234" rx="105.88" ry="18"/>
<text text-anchor="middle" x="122" y="-230.3" font-family="Times,serif" font-size="14.00">mgr/orchestrator_cli</text>
</g>
<!-- orchestrator_cli&#45;&gt;orchestrator -->
<g id="edge3" class="edge">
<title>orchestrator_cli&#45;&gt;orchestrator</title>
<path fill="none" stroke="black" d="M166.99,-217.64C197.88,-207.09 239.08,-193.02 271.94,-181.8"/>
<polygon fill="black" stroke="black" points="273.08,-185.11 281.41,-178.57 270.81,-178.49 273.08,-185.11"/>
</g>
<!-- orchestrator&#45;&gt;rook -->
<g id="edge4" class="edge">
<title>orchestrator&#45;&gt;rook</title>
<path fill="none" stroke="black" d="M273.92,-145.9C231.17,-133.73 171.52,-116.76 129.91,-104.92"/>
<polygon fill="black" stroke="black" points="130.85,-101.55 120.27,-102.17 128.93,-108.28 130.85,-101.55"/>
</g>
<!-- ansible -->
<g id="node6" class="node">
<title>ansible</title>
<ellipse fill="none" stroke="black" cx="218" cy="-90" rx="65.79" ry="18"/>
<text text-anchor="middle" x="218" y="-86.3" font-family="Times,serif" font-size="14.00">mgr/ansible</text>
</g>
<!-- orchestrator&#45;&gt;ansible -->
<g id="edge6" class="edge">
<title>orchestrator&#45;&gt;ansible</title>
<path fill="none" stroke="black" d="M301.17,-144.41C286.19,-134.79 267.17,-122.58 251.1,-112.26"/>
<polygon fill="black" stroke="black" points="252.83,-109.21 242.52,-106.75 249.05,-115.1 252.83,-109.21"/>
</g>
<!-- ssh -->
<g id="node7" class="node">
<title>ssh</title>
<ellipse fill="none" stroke="black" cx="350" cy="-90" rx="48.19" ry="18"/>
<text text-anchor="middle" x="350" y="-86.3" font-family="Times,serif" font-size="14.00">mgr/ssh</text>
</g>
<!-- orchestrator&#45;&gt;ssh -->
<g id="edge10" class="edge">
<title>orchestrator&#45;&gt;ssh</title>
<path fill="none" stroke="black" d="M332.69,-143.7C335.25,-135.9 338.33,-126.51 341.18,-117.83"/>
<polygon fill="black" stroke="black" points="344.58,-118.7 344.38,-108.1 337.93,-116.51 344.58,-118.7"/>
</g>
<!-- deepsea -->
<g id="node8" class="node">
<title>deepsea</title>
<ellipse fill="none" stroke="black" cx="487" cy="-90" rx="70.69" ry="18"/>
<text text-anchor="middle" x="487" y="-86.3" font-family="Times,serif" font-size="14.00">mgr/deepsea</text>
</g>
<!-- orchestrator&#45;&gt;deepsea -->
<g id="edge8" class="edge">
<title>orchestrator&#45;&gt;deepsea</title>
<path fill="none" stroke="black" d="M364.11,-144.76C387.93,-134.34 418.95,-120.77 443.87,-109.87"/>
<polygon fill="black" stroke="black" points="445.33,-113.05 453.09,-105.83 442.53,-106.64 445.33,-113.05"/>
</g>
<!-- ceph_ansible -->
<g id="node10" class="node">
<title>ceph_ansible</title>
<ellipse fill="none" stroke="black" cx="218" cy="-18" rx="68.79" ry="18"/>
<text text-anchor="middle" x="218" y="-14.3" font-family="Times,serif" font-size="14.00">ceph&#45;ansible</text>
</g>
<!-- ansible&#45;&gt;ceph_ansible -->
<g id="edge7" class="edge">
<title>ansible&#45;&gt;ceph_ansible</title>
<path fill="none" stroke="black" d="M218,-71.7C218,-63.98 218,-54.71 218,-46.11"/>
<polygon fill="black" stroke="black" points="221.5,-46.1 218,-36.1 214.5,-46.1 221.5,-46.1"/>
</g>
<!-- suse_deepsea -->
<g id="node11" class="node">
<title>suse_deepsea</title>
<ellipse fill="none" stroke="black" cx="487" cy="-18" rx="51.99" ry="18"/>
<text text-anchor="middle" x="487" y="-14.3" font-family="Times,serif" font-size="14.00">DeepSea</text>
</g>
<!-- deepsea&#45;&gt;suse_deepsea -->
<g id="edge9" class="edge">
<title>deepsea&#45;&gt;suse_deepsea</title>
<path fill="none" stroke="black" d="M487,-71.7C487,-63.98 487,-54.71 487,-46.11"/>
<polygon fill="black" stroke="black" points="490.5,-46.1 487,-36.1 483.5,-46.1 490.5,-46.1"/>
</g>
</g>
</svg>
