<?xml version="1.0" encoding="UTF-8" standalone="no"?>
<!DOCTYPE svg PUBLIC "-//W3C//DTD SVG 1.1//EN"
 "http://www.w3.org/Graphics/SVG/1.1/DTD/svg11.dtd">
<!-- Generated by graphviz version 2.49.0 (20210828.1703)
 -->
<!-- Title: lossy_server Pages: 1 -->
<svg width="938pt" height="726pt"
 viewBox="0.00 0.00 937.54 725.78" xmlns="http://www.w3.org/2000/svg" xmlns:xlink="http://www.w3.org/1999/xlink">
<g id="graph0" class="graph" transform="scale(1 1) rotate(0) translate(4 721.78)">
<title>lossy_server</title>
<polygon fill="white" stroke="transparent" points="-4,4 -4,-721.78 933.54,-721.78 933.54,4 -4,4"/>
<!-- start_accept -->
<g id="node1" class="node">
<title>start_accept</title>
<ellipse fill="none" stroke="black" cx="165.54" cy="-646.19" rx="67.68" ry="67.68"/>
<ellipse fill="none" stroke="black" cx="165.54" cy="-646.19" rx="71.69" ry="71.69"/>
<text text-anchor="middle" x="165.54" y="-642.49" font-family="Times,serif" font-size="14.00">start_accept</text>
</g>
<!-- banner_accepting -->
<g id="node3" class="node">
<title>banner_accepting</title>
<ellipse fill="none" stroke="black" cx="165.54" cy="-505.59" rx="92.88" ry="18"/>
<text text-anchor="middle" x="165.54" y="-501.89" font-family="Times,serif" font-size="14.00">banner_accepting</text>
</g>
<!-- start_accept&#45;&gt;banner_accepting -->
<g id="edge1" class="edge">
<title>start_accept&#45;&gt;banner_accepting</title>
<path fill="none" stroke="black" d="M165.54,-574.27C165.54,-559.93 165.54,-545.69 165.54,-534"/>
<polygon fill="black" stroke="black" points="169.04,-533.65 165.54,-523.65 162.04,-533.65 169.04,-533.65"/>
<text text-anchor="middle" x="209.54" y="-545.39" font-family="Times,serif" font-size="14.00">&lt;accepted&gt;</text>
</g>
<!-- closed -->
<g id="node2" class="node">
<title>closed</title>
<ellipse fill="none" stroke="black" cx="110.54" cy="-44.3" rx="40.11" ry="40.11"/>
<ellipse fill="none" stroke="black" cx="110.54" cy="-44.3" rx="44.09" ry="44.09"/>
<text text-anchor="middle" x="110.54" y="-40.6" font-family="Times,serif" font-size="14.00">closed</text>
</g>
<!-- hello_accepting -->
<g id="node4" class="node">
<title>hello_accepting</title>
<ellipse fill="none" stroke="black" cx="82.54" cy="-418.59" rx="82.59" ry="18"/>
<text text-anchor="middle" x="82.54" y="-414.89" font-family="Times,serif" font-size="14.00">hello_accepting</text>
</g>
<!-- banner_accepting&#45;&gt;hello_accepting -->
<g id="edge2" class="edge">
<title>banner_accepting&#45;&gt;hello_accepting</title>
<path fill="none" stroke="black" d="M160.95,-487.32C157.5,-476.91 151.91,-463.9 143.54,-454.59 138.66,-449.16 132.73,-444.36 126.51,-440.18"/>
<polygon fill="black" stroke="black" points="128.26,-437.15 117.91,-434.88 124.59,-443.11 128.26,-437.15"/>
<text text-anchor="middle" x="215.04" y="-458.39" font-family="Times,serif" font-size="14.00">banner exchange</text>
</g>
<!-- auth_accepting -->
<g id="node5" class="node">
<title>auth_accepting</title>
<ellipse fill="none" stroke="black" cx="311.54" cy="-418.59" rx="81.49" ry="18"/>
<text text-anchor="middle" x="311.54" y="-414.89" font-family="Times,serif" font-size="14.00">auth_accepting</text>
</g>
<!-- banner_accepting&#45;&gt;auth_accepting -->
<g id="edge4" class="edge">
<title>banner_accepting&#45;&gt;auth_accepting</title>
<path fill="none" stroke="black" d="M232.41,-492.99C249.28,-487.81 266.56,-480.34 280.54,-469.59 288.63,-463.37 295.12,-454.4 300.04,-445.76"/>
<polygon fill="black" stroke="black" points="303.26,-447.16 304.75,-436.67 297.04,-443.94 303.26,-447.16"/>
<text text-anchor="middle" x="360.04" y="-458.39" font-family="Times,serif" font-size="14.00">&lt;exchange done&gt;</text>
</g>
<!-- hello_accepting&#45;&gt;banner_accepting -->
<g id="edge3" class="edge">
<title>hello_accepting&#45;&gt;banner_accepting</title>
<path fill="none" stroke="black" d="M50.35,-435.26C35.45,-444.65 22.95,-457.15 32.54,-469.59 39.72,-478.9 61.04,-486.22 84.57,-491.72"/>
<polygon fill="black" stroke="black" points="83.87,-495.14 94.39,-493.88 85.38,-488.31 83.87,-495.14"/>
<text text-anchor="middle" x="86.04" y="-458.39" font-family="Times,serif" font-size="14.00">hello exchange</text>
</g>
<!-- auth_accepting&#45;&gt;auth_accepting -->
<g id="edge12" class="edge">
<title>auth_accepting&#45;&gt;auth_accepting</title>
<path fill="none" stroke="black" d="M385.55,-426.14C400.28,-425.29 410.79,-422.78 410.79,-418.59 410.79,-415.46 404.88,-413.26 395.71,-411.99"/>
<polygon fill="black" stroke="black" points="395.84,-408.49 385.55,-411.04 395.18,-415.46 395.84,-408.49"/>
<text text-anchor="middle" x="502.79" y="-414.89" font-family="Times,serif" font-size="14.00">send &lt;auth bad method&gt;</text>
</g>
<!-- auth_accepting_more -->
<g id="node6" class="node">
<title>auth_accepting_more</title>
<ellipse fill="none" stroke="black" cx="311.54" cy="-331.59" rx="109.38" ry="18"/>
<text text-anchor="middle" x="311.54" y="-327.89" font-family="Times,serif" font-size="14.00">auth_accepting_more</text>
</g>
<!-- auth_accepting&#45;&gt;auth_accepting_more -->
<g id="edge5" class="edge">
<title>auth_accepting&#45;&gt;auth_accepting_more</title>
<path fill="none" stroke="black" d="M311.54,-400.39C311.54,-388.76 311.54,-373.14 311.54,-359.83"/>
<polygon fill="black" stroke="black" points="315.04,-359.77 311.54,-349.77 308.04,-359.77 315.04,-359.77"/>
<text text-anchor="middle" x="379.54" y="-371.39" font-family="Times,serif" font-size="14.00">auth_request =&gt; 0</text>
</g>
<!-- auth_accepting_sign -->
<g id="node7" class="node">
<title>auth_accepting_sign</title>
<ellipse fill="none" stroke="black" cx="202.54" cy="-244.59" rx="104.78" ry="18"/>
<text text-anchor="middle" x="202.54" y="-240.89" font-family="Times,serif" font-size="14.00">auth_accepting_sign</text>
</g>
<!-- auth_accepting&#45;&gt;auth_accepting_sign -->
<g id="edge6" class="edge">
<title>auth_accepting&#45;&gt;auth_accepting_sign</title>
<path fill="none" stroke="black" d="M243.37,-408.73C176.09,-398.43 80.09,-378.97 57.54,-349.59 28.16,-311.3 88.25,-281.1 139.79,-263.32"/>
<polygon fill="black" stroke="black" points="140.91,-266.63 149.29,-260.15 138.69,-260 140.91,-266.63"/>
<text text-anchor="middle" x="125.54" y="-327.89" font-family="Times,serif" font-size="14.00">auth_request =&gt; 1</text>
</g>
<!-- standby -->
<g id="node8" class="node">
<title>standby</title>
<ellipse fill="none" stroke="black" cx="419.54" cy="-244.59" rx="48.19" ry="18"/>
<text text-anchor="middle" x="419.54" y="-240.89" font-family="Times,serif" font-size="14.00">standby</text>
</g>
<!-- auth_accepting&#45;&gt;standby -->
<g id="edge11" class="edge">
<title>auth_accepting&#45;&gt;standby</title>
<path fill="none" stroke="black" d="M392.72,-416.59C503.27,-413.31 692.38,-400.23 735.54,-349.59 808.41,-264.11 588.2,-248.49 478.15,-245.91"/>
<polygon fill="black" stroke="black" points="477.93,-242.41 467.86,-245.7 477.78,-249.41 477.93,-242.41"/>
<text text-anchor="middle" x="840.04" y="-327.89" font-family="Times,serif" font-size="14.00">auth_request =&gt; EBUSY</text>
</g>
<!-- auth_accepting_more&#45;&gt;auth_accepting_more -->
<g id="edge7" class="edge">
<title>auth_accepting_more&#45;&gt;auth_accepting_more</title>
<path fill="none" stroke="black" d="M419.18,-334.91C431.06,-334.28 438.73,-333.17 438.73,-331.59 438.73,-330.53 435.27,-329.69 429.39,-329.05"/>
<polygon fill="black" stroke="black" points="429.42,-325.54 419.18,-328.28 428.89,-332.52 429.42,-325.54"/>
<text text-anchor="middle" x="506.73" y="-327.89" font-family="Times,serif" font-size="14.00">auth_request =&gt; 0</text>
</g>
<!-- auth_accepting_more&#45;&gt;auth_accepting_more -->
<g id="edge10" class="edge">
<title>auth_accepting_more&#45;&gt;auth_accepting_more</title>
<path fill="none" stroke="black" d="M411.54,-338.87C487.39,-340.71 574.73,-338.29 574.73,-331.59 574.73,-325.2 495.06,-322.7 421.82,-324.09"/>
<polygon fill="black" stroke="black" points="421.47,-320.6 411.54,-324.32 421.62,-327.6 421.47,-320.6"/>
<text text-anchor="middle" x="641.73" y="-327.89" font-family="Times,serif" font-size="14.00">auth_request =&gt; *</text>
</g>
<!-- auth_accepting_more&#45;&gt;auth_accepting_sign -->
<g id="edge8" class="edge">
<title>auth_accepting_more&#45;&gt;auth_accepting_sign</title>
<path fill="none" stroke="black" d="M249.44,-316.73C237.61,-311.7 226.23,-304.87 217.54,-295.59 211.7,-289.36 208.13,-280.94 205.95,-272.79"/>
<polygon fill="black" stroke="black" points="209.33,-271.87 203.86,-262.8 202.48,-273.3 209.33,-271.87"/>
<text text-anchor="middle" x="285.54" y="-284.39" font-family="Times,serif" font-size="14.00">auth_request =&gt; 1</text>
</g>
<!-- auth_accepting_more&#45;&gt;standby -->
<g id="edge9" class="edge">
<title>auth_accepting_more&#45;&gt;standby</title>
<path fill="none" stroke="black" d="M334.1,-313.63C341.59,-307.94 349.96,-301.53 357.54,-295.59 369.08,-286.55 381.69,-276.43 392.51,-267.67"/>
<polygon fill="black" stroke="black" points="394.83,-270.29 400.38,-261.27 390.42,-264.86 394.83,-270.29"/>
<text text-anchor="middle" x="466.04" y="-284.39" font-family="Times,serif" font-size="14.00">auth_request =&gt; EBUSY</text>
</g>
<!-- session_accepting -->
<g id="node9" class="node">
<title>session_accepting</title>
<ellipse fill="none" stroke="black" cx="202.54" cy="-157.59" rx="94.48" ry="18"/>
<text text-anchor="middle" x="202.54" y="-153.89" font-family="Times,serif" font-size="14.00">session_accepting</text>
</g>
<!-- auth_accepting_sign&#45;&gt;session_accepting -->
<g id="edge13" class="edge">
<title>auth_accepting_sign&#45;&gt;session_accepting</title>
<path fill="none" stroke="black" d="M202.54,-226.39C202.54,-214.76 202.54,-199.14 202.54,-185.83"/>
<polygon fill="black" stroke="black" points="206.04,-185.77 202.54,-175.77 199.04,-185.77 206.04,-185.77"/>
<text text-anchor="middle" x="255.54" y="-197.39" font-family="Times,serif" font-size="14.00">auth signature</text>
</g>
<!-- session_accepting&#45;&gt;closed -->
<g id="edge15" class="edge">
<title>session_accepting&#45;&gt;closed</title>
<path fill="none" stroke="black" d="M140.35,-144.05C129.04,-138.94 118.6,-131.73 111.54,-121.59 106.75,-114.71 104.27,-106.58 103.24,-98.22"/>
<polygon fill="black" stroke="black" points="106.72,-97.77 102.66,-87.99 99.74,-98.17 106.72,-97.77"/>
<text text-anchor="middle" x="192.04" y="-110.39" font-family="Times,serif" font-size="14.00">ident missing features</text>
</g>
<!-- session_accepting&#45;&gt;session_accepting -->
<g id="edge14" class="edge">
<title>session_accepting&#45;&gt;session_accepting</title>
<path fill="none" stroke="black" d="M288.66,-165.01C304.04,-164.04 314.78,-161.57 314.78,-157.59 314.78,-154.55 308.49,-152.38 298.63,-151.11"/>
<polygon fill="black" stroke="black" points="298.94,-147.62 288.66,-150.18 298.29,-154.59 298.94,-147.62"/>
<text text-anchor="middle" x="350.28" y="-153.89" font-family="Times,serif" font-size="14.00">reconnect</text>
</g>
<!-- ready -->
<g id="node10" class="node">
<title>ready</title>
<ellipse fill="none" stroke="black" cx="294.54" cy="-44.3" rx="37.09" ry="18"/>
<text text-anchor="middle" x="294.54" y="-40.6" font-family="Times,serif" font-size="14.00">ready</text>
</g>
<!-- session_accepting&#45;&gt;ready -->
<g id="edge16" class="edge">
<title>session_accepting&#45;&gt;ready</title>
<g id="a_edge16"><a xlink:title="set connection features">
<path fill="none" stroke="black" d="M246.45,-141.56C256.15,-136.5 265.59,-129.95 272.54,-121.59 283.93,-107.9 289.43,-88.6 292.08,-72.84"/>
<polygon fill="black" stroke="black" points="295.59,-72.99 293.5,-62.6 288.66,-72.02 295.59,-72.99"/>
</a>
</g>
<text text-anchor="middle" x="323.54" y="-110.39" font-family="Times,serif" font-size="14.00">client ident</text>
</g>
<!-- ready&#45;&gt;ready -->
<g id="edge17" class="edge">
<title>ready&#45;&gt;ready</title>
<path fill="none" stroke="black" d="M322.02,-56.56C336.48,-58.54 349.59,-54.46 349.59,-44.3 349.59,-36.6 342.06,-32.38 332.12,-31.66"/>
<polygon fill="black" stroke="black" points="331.88,-28.17 322.02,-32.03 332.14,-35.16 331.88,-28.17"/>
<text text-anchor="middle" x="386.09" y="-40.6" font-family="Times,serif" font-size="14.00">keep alive</text>
</g>
</g>
</svg>
