<?xml version="1.0" encoding="UTF-8" standalone="no"?>
<!DOCTYPE svg PUBLIC "-//W3C//DTD SVG 1.1//EN"
 "http://www.w3.org/Graphics/SVG/1.1/DTD/svg11.dtd">
<!-- Generated by graphviz version 2.40.1 (20161225.0304)
 -->
<!-- Title: G Pages: 1 -->
<svg width="593pt" height="299pt"
 viewBox="0.00 0.00 593.00 299.00" xmlns="http://www.w3.org/2000/svg" xmlns:xlink="http://www.w3.org/1999/xlink">
<g id="graph0" class="graph" transform="scale(1 1) rotate(0) translate(4 295)">
<title>G</title>
<polygon fill="#ffffff" stroke="transparent" points="-4,4 -4,-295 589,-295 589,4 -4,4"/>
<g id="clust1" class="cluster">
<title>cluster_1</title>
<polygon fill="none" stroke="#000000" points="8,-64 8,-283 577,-283 577,-64 8,-64"/>
<text text-anchor="middle" x="292.5" y="-267.8" font-family="Times,serif" font-size="14.00" fill="#000000">ceph&#45;mgr</text>
</g>
<!-- volumes -->
<g id="node1" class="node">
<title>volumes</title>
<ellipse fill="none" stroke="#000000" cx="498" cy="-234" rx="71.4873" ry="18"/>
<text text-anchor="middle" x="498" y="-230.3" font-family="Times,serif" font-size="14.00" fill="#000000">mgr/volumes</text>
</g>
<!-- orchestrator -->
<g id="node5" class="node">
<title>orchestrator</title>
<ellipse fill="none" stroke="#000000" cx="327" cy="-162" rx="115.8798" ry="18"/>
<text text-anchor="middle" x="327" y="-158.3" font-family="Times,serif" font-size="14.00" fill="#000000">Orchestrator Interface</text>
</g>
<!-- volumes&#45;&gt;orchestrator -->
<g id="edge1" class="edge">
<title>volumes&#45;&gt;orchestrator</title>
<path fill="none" stroke="#000000" d="M460.8955,-218.3771C436.2048,-207.981 403.4853,-194.2043 376.5715,-182.8722"/>
<polygon fill="#000000" stroke="#000000" points="377.8911,-179.6303 367.3165,-178.9754 375.1747,-186.0817 377.8911,-179.6303"/>
</g>
<!-- rook -->
<g id="node2" class="node">
<title>rook</title>
<ellipse fill="none" stroke="#000000" cx="81" cy="-90" rx="53.0913" ry="18"/>
<text text-anchor="middle" x="81" y="-86.3" font-family="Times,serif" font-size="14.00" fill="#000000">mgr/rook</text>
</g>
<!-- rook_io -->
<g id="node9" class="node">
<title>rook_io</title>
<ellipse fill="none" stroke="#000000" cx="81" cy="-18" rx="33.5952" ry="18"/>
<text text-anchor="middle" x="81" y="-14.3" font-family="Times,serif" font-size="14.00" fill="#000000">Rook</text>
</g>
<!-- rook&#45;&gt;rook_io -->
<g id="edge5" class="edge">
<title>rook&#45;&gt;rook_io</title>
<path fill="none" stroke="#000000" d="M81,-71.8314C81,-64.131 81,-54.9743 81,-46.4166"/>
<polygon fill="#000000" stroke="#000000" points="84.5001,-46.4132 81,-36.4133 77.5001,-46.4133 84.5001,-46.4132"/>
</g>
<!-- dashboard -->
<g id="node3" class="node">
<title>dashboard</title>
<ellipse fill="none" stroke="#000000" cx="327" cy="-234" rx="81.4863" ry="18"/>
<text text-anchor="middle" x="327" y="-230.3" font-family="Times,serif" font-size="14.00" fill="#000000">mgr/dashboard</text>
</g>
<!-- dashboard&#45;&gt;orchestrator -->
<g id="edge2" class="edge">
<title>dashboard&#45;&gt;orchestrator</title>
<path fill="none" stroke="#000000" d="M327,-215.8314C327,-208.131 327,-198.9743 327,-190.4166"/>
<polygon fill="#000000" stroke="#000000" points="330.5001,-190.4132 327,-180.4133 323.5001,-190.4133 330.5001,-190.4132"/>
</g>
<!-- orchestrator_cli -->
<g id="node4" class="node">
<title>orchestrator_cli</title>
<ellipse fill="none" stroke="#000000" cx="122" cy="-234" rx="105.8812" ry="18"/>
<text text-anchor="middle" x="122" y="-230.3" font-family="Times,serif" font-size="14.00" fill="#000000">mgr/orchestrator_cli</text>
</g>
<!-- orchestrator_cli&#45;&gt;orchestrator -->
<g id="edge3" class="edge">
<title>orchestrator_cli&#45;&gt;orchestrator</title>
<path fill="none" stroke="#000000" d="M168.2616,-217.752C198.4413,-207.1523 238.0419,-193.2438 270.1395,-181.9705"/>
<polygon fill="#000000" stroke="#000000" points="271.5661,-185.1792 279.8412,-178.5631 269.2464,-178.5747 271.5661,-185.1792"/>
</g>
<!-- orchestrator&#45;&gt;rook -->
<g id="edge4" class="edge">
<title>orchestrator&#45;&gt;rook</title>
<path fill="none" stroke="#000000" d="M272.4046,-146.0209C230.1666,-133.6585 172.1487,-116.6777 131.0909,-104.6607"/>
<polygon fill="#000000" stroke="#000000" points="131.8797,-101.2449 121.2992,-101.7949 129.9134,-107.963 131.8797,-101.2449"/>
</g>
<!-- ansible -->
<g id="node6" class="node">
<title>ansible</title>
<ellipse fill="none" stroke="#000000" cx="218" cy="-90" rx="65.7887" ry="18"/>
<text text-anchor="middle" x="218" y="-86.3" font-family="Times,serif" font-size="14.00" fill="#000000">mgr/ansible</text>
</g>
<!-- orchestrator&#45;&gt;ansible -->
<g id="edge6" class="edge">
<title>orchestrator&#45;&gt;ansible</title>
<path fill="none" stroke="#000000" d="M300.3356,-144.3868C285.6584,-134.6918 267.2995,-122.5648 251.6444,-112.2238"/>
<polygon fill="#000000" stroke="#000000" points="253.5388,-109.2806 243.2658,-106.6893 249.6807,-115.1214 253.5388,-109.2806"/>
</g>
<!-- ssh -->
<g id="node7" class="node">
<title>ssh</title>
<ellipse fill="none" stroke="#000000" cx="350" cy="-90" rx="48.1917" ry="18"/>
<text text-anchor="middle" x="350" y="-86.3" font-family="Times,serif" font-size="14.00" fill="#000000">mgr/ssh</text>
</g>
<!-- orchestrator&#45;&gt;ssh -->
<g id="edge10" class="edge">
<title>orchestrator&#45;&gt;ssh</title>
<path fill="none" stroke="#000000" d="M332.8039,-143.8314C335.3565,-135.8406 338.41,-126.2819 341.2308,-117.4514"/>
<polygon fill="#000000" stroke="#000000" points="344.5687,-118.5043 344.2777,-107.9134 337.9006,-116.3741 344.5687,-118.5043"/>
</g>
<!-- deepsea -->
<g id="node8" class="node">
<title>deepsea</title>
<ellipse fill="none" stroke="#000000" cx="487" cy="-90" rx="70.6878" ry="18"/>
<text text-anchor="middle" x="487" y="-86.3" font-family="Times,serif" font-size="14.00" fill="#000000">mgr/deepsea</text>
</g>
<!-- orchestrator&#45;&gt;deepsea -->
<g id="edge8" class="edge">
<title>orchestrator&#45;&gt;deepsea</title>
<path fill="none" stroke="#000000" d="M364.9178,-144.937C388.25,-134.4375 418.2584,-120.9337 442.6846,-109.9419"/>
<polygon fill="#000000" stroke="#000000" points="444.4052,-113.0058 452.0881,-105.7103 441.5326,-106.6223 444.4052,-113.0058"/>
</g>
<!-- ceph_ansible -->
<g id="node10" class="node">
<title>ceph_ansible</title>
<ellipse fill="none" stroke="#000000" cx="218" cy="-18" rx="68.7879" ry="18"/>
<text text-anchor="middle" x="218" y="-14.3" font-family="Times,serif" font-size="14.00" fill="#000000">ceph&#45;ansible</text>
</g>
<!-- ansible&#45;&gt;ceph_ansible -->
<g id="edge7" class="edge">
<title>ansible&#45;&gt;ceph_ansible</title>
<path fill="none" stroke="#000000" d="M218,-71.8314C218,-64.131 218,-54.9743 218,-46.4166"/>
<polygon fill="#000000" stroke="#000000" points="221.5001,-46.4132 218,-36.4133 214.5001,-46.4133 221.5001,-46.4132"/>
</g>
<!-- suse_deepsea -->
<g id="node11" class="node">
<title>suse_deepsea</title>
<ellipse fill="none" stroke="#000000" cx="487" cy="-18" rx="51.9908" ry="18"/>
<text text-anchor="middle" x="487" y="-14.3" font-family="Times,serif" font-size="14.00" fill="#000000">DeepSea</text>
</g>
<!-- deepsea&#45;&gt;suse_deepsea -->
<g id="edge9" class="edge">
<title>deepsea&#45;&gt;suse_deepsea</title>
<path fill="none" stroke="#000000" d="M487,-71.8314C487,-64.131 487,-54.9743 487,-46.4166"/>
<polygon fill="#000000" stroke="#000000" points="490.5001,-46.4132 487,-36.4133 483.5001,-46.4133 490.5001,-46.4132"/>
</g>
</g>
</svg>
