<?xml version="1.0" encoding="UTF-8" standalone="no"?>
<!DOCTYPE svg PUBLIC "-//W3C//DTD SVG 1.1//EN"
 "http://www.w3.org/Graphics/SVG/1.1/DTD/svg11.dtd">
<!-- Generated by graphviz version 2.42.3 (20191010.1750)
 -->
<!-- Title: G Pages: 1 -->
<svg width="504pt" height="138pt"
 viewBox="0.00 0.00 504.00 137.61" xmlns="http://www.w3.org/2000/svg" xmlns:xlink="http://www.w3.org/1999/xlink">
<g id="graph0" class="graph" transform="scale(7.49 7.49) rotate(0) translate(4 1027)">
<title>G</title>
<polygon fill="white" stroke="transparent" points="-4,4 -4,-1027 3772,-1027 3772,4 -4,4"/>
<g id="clust1" class="cluster">
<title>cluster0</title>
<polygon fill="none" stroke="blue" points="8,-8 8,-1015 3760,-1015 3760,-8 8,-8"/>
<text text-anchor="middle" x="1884" y="-999.8" font-family="Times,serif" font-size="14.00">PeeringMachine</text>
</g>
<g id="clust2" class="cluster">
<title>cluster1</title>
<polygon fill="none" stroke="blue" points="132,-16 132,-984 3244,-984 3244,-16 132,-16"/>
<text text-anchor="middle" x="1688" y="-968.8" font-family="Times,serif" font-size="14.00">Started</text>
</g>
<g id="clust3" class="cluster">
<title>cluster2</title>
<polygon fill="none" stroke="blue" points="1888,-24 1888,-876 3236,-876 3236,-24 1888,-24"/>
<text text-anchor="middle" x="2562" y="-860.8" font-family="Times,serif" font-size="14.00">Primary</text>
</g>
<g id="clust4" class="cluster">
<title>cluster3</title>
<polygon fill="none" stroke="blue" points="2718,-467 2718,-845 3028,-845 3028,-467 2718,-467"/>
<text text-anchor="middle" x="2873" y="-829.8" font-family="Times,serif" font-size="14.00">Peering</text>
</g>
<g id="clust5" class="cluster">
<title>cluster4</title>
<polygon fill="none" stroke="blue" points="1896,-32 1896,-737 2710,-737 2710,-32 1896,-32"/>
<text text-anchor="middle" x="2303" y="-721.8" font-family="Times,serif" font-size="14.00">Active</text>
</g>
<g id="clust6" class="cluster">
<title>cluster5</title>
<polygon fill="none" stroke="blue" points="140,-554 140,-845 1487,-845 1487,-554 140,-554"/>
<text text-anchor="middle" x="813.5" y="-829.8" font-family="Times,serif" font-size="14.00">ReplicaActive</text>
</g>
<g id="clust7" class="cluster">
<title>cluster6</title>
<polygon fill="none" stroke="blue" points="1495,-467 1495,-629 1880,-629 1880,-467 1495,-467"/>
<text text-anchor="middle" x="1687.5" y="-613.8" font-family="Times,serif" font-size="14.00">ToDelete</text>
</g>
<!-- Crashed -->
<g id="node1" class="node">
<title>Crashed</title>
<ellipse fill="none" stroke="black" cx="3487" cy="-406" rx="49.29" ry="18"/>
<text text-anchor="middle" x="3487" y="-402.3" font-family="Times,serif" font-size="14.00">Crashed</text>
</g>
<!-- Initial -->
<g id="node2" class="node">
<title>Initial</title>
<polygon fill="none" stroke="black" points="70,-953 15.54,-935 70,-917 124.46,-935 70,-953"/>
<polyline fill="none" stroke="black" points="26.93,-938.77 26.93,-931.23 "/>
<polyline fill="none" stroke="black" points="58.61,-920.77 81.39,-920.77 "/>
<polyline fill="none" stroke="black" points="113.07,-931.23 113.07,-938.77 "/>
<polyline fill="none" stroke="black" points="81.39,-949.23 58.61,-949.23 "/>
<text text-anchor="middle" x="70" y="-931.3" font-family="Times,serif" font-size="14.00">Initial</text>
</g>
<!-- Initial&#45;&gt;Crashed -->
<g id="edge12" class="edge">
<title>Initial&#45;&gt;Crashed</title>
<path fill="none" stroke="black" d="M94.78,-925.08C104.94,-921.86 116.89,-918.63 128,-917 170.88,-910.72 3211.55,-922.44 3248,-899 3314.73,-856.09 3305.93,-814.48 3323,-737 3329.41,-707.92 3336.82,-696.38 3323,-670 3316.48,-657.55 3303.52,-664.45 3297,-652 3293.91,-646.09 3292.59,-642 3297,-637 3306.33,-626.41 3347.9,-636.26 3360,-629 3440.38,-580.81 3449.13,-544.77 3482,-457 3484.66,-449.89 3486.09,-441.84 3486.82,-434.31"/>
<polygon fill="black" stroke="black" points="3490.32,-434.35 3487.44,-424.16 3483.34,-433.93 3490.32,-434.35"/>
<text text-anchor="middle" x="3402.5" y="-640.8" font-family="Times,serif" font-size="14.00">boost::statechart::event_base</text>
</g>
<!-- Reset -->
<g id="node3" class="node">
<title>Reset</title>
<ellipse fill="none" stroke="black" cx="3289" cy="-493" rx="37.09" ry="18"/>
<text text-anchor="middle" x="3289" y="-489.3" font-family="Times,serif" font-size="14.00">Reset</text>
</g>
<!-- Initial&#45;&gt;Reset -->
<g id="edge27" class="edge">
<title>Initial&#45;&gt;Reset</title>
<path fill="none" stroke="black" d="M68.22,-917.57C65.6,-891.88 61,-840.62 61,-797 61,-797 61,-797 61,-579 61,-543.86 101.37,-559.95 136,-554 231.2,-537.65 2964,-513.64 3032,-511 3105.78,-508.13 3191.31,-501.89 3242.73,-497.82"/>
<polygon fill="black" stroke="black" points="3243.17,-501.3 3252.86,-497.01 3242.61,-494.32 3243.17,-501.3"/>
<text text-anchor="middle" x="92.5" y="-684.3" font-family="Times,serif" font-size="14.00">Initialize</text>
</g>
<!-- GetInfo -->
<g id="node6" class="node">
<title>GetInfo</title>
<polygon fill="none" stroke="black" points="2858,-814 2793.82,-796 2858,-778 2922.18,-796 2858,-814"/>
<polyline fill="none" stroke="black" points="2805.37,-799.24 2805.37,-792.76 "/>
<polyline fill="none" stroke="black" points="2846.45,-781.24 2869.55,-781.24 "/>
<polyline fill="none" stroke="black" points="2910.63,-792.76 2910.63,-799.24 "/>
<polyline fill="none" stroke="black" points="2869.55,-810.76 2846.45,-810.76 "/>
<text text-anchor="middle" x="2858" y="-792.3" font-family="Times,serif" font-size="14.00">GetInfo</text>
</g>
<!-- Initial&#45;&gt;GetInfo -->
<g id="edge16" class="edge">
<title>Initial&#45;&gt;GetInfo</title>
<path fill="none" stroke="black" d="M94.79,-925.1C104.94,-921.89 116.89,-918.65 128,-917 233.57,-901.34 1947.16,-930.94 2049,-899 2060.29,-895.46 2059.71,-887.55 2071,-884 2107.21,-872.61 2691.07,-890.86 2780.21,-878.25"/>
<polygon fill="black" stroke="black" points="2781.04,-881.65 2790,-876 2779.47,-874.83 2781.04,-881.65"/>
<text text-anchor="middle" x="2113.5" y="-887.8" font-family="Times,serif" font-size="14.00">MNotifyRec</text>
</g>
<!-- Stray -->
<g id="node27" class="node">
<title>Stray</title>
<ellipse fill="none" stroke="black" cx="1531" cy="-796" rx="36.29" ry="18"/>
<text text-anchor="middle" x="1531" y="-792.3" font-family="Times,serif" font-size="14.00">Stray</text>
</g>
<!-- Initial&#45;&gt;Stray -->
<g id="edge19" class="edge">
<title>Initial&#45;&gt;Stray</title>
<path fill="none" stroke="black" d="M95.09,-925.13C105.18,-921.96 117.02,-918.75 128,-917 202.82,-905.11 1427.06,-916.63 1491,-876 1509.2,-864.44 1519.46,-841.83 1525.02,-823.75"/>
<polygon fill="black" stroke="black" points="1528.43,-824.58 1527.71,-814.01 1521.68,-822.72 1528.43,-824.58"/>
<text text-anchor="middle" x="1487.5" y="-887.8" font-family="Times,serif" font-size="14.00">MLogRec</text>
</g>
<!-- Initial&#45;&gt;Stray -->
<g id="edge45" class="edge">
<title>Initial&#45;&gt;Stray</title>
<path fill="none" stroke="black" d="M95.09,-925.14C105.18,-921.97 117.02,-918.75 128,-917 586.86,-843.73 708.51,-897.18 1173,-884 1190.67,-883.5 1476.06,-885.44 1491,-876 1509.23,-864.48 1519.49,-841.87 1525.04,-823.78"/>
<polygon fill="black" stroke="black" points="1528.44,-824.6 1527.73,-814.03 1521.7,-822.74 1528.44,-824.6"/>
<text text-anchor="middle" x="1207.5" y="-887.8" font-family="Times,serif" font-size="14.00">MInfoRec</text>
</g>
<!-- Reset&#45;&gt;Crashed -->
<g id="edge13" class="edge">
<title>Reset&#45;&gt;Crashed</title>
<path fill="none" stroke="black" d="M3275.79,-476.1C3268.62,-465.47 3262.75,-451.7 3271,-442 3290.76,-418.78 3370.65,-410.92 3427.51,-408.28"/>
<polygon fill="black" stroke="black" points="3427.99,-411.77 3437.84,-407.85 3427.7,-404.77 3427.99,-411.77"/>
<text text-anchor="middle" x="3376.5" y="-445.8" font-family="Times,serif" font-size="14.00">boost::statechart::event_base</text>
</g>
<!-- Start -->
<g id="node4" class="node">
<title>Start</title>
<polygon fill="none" stroke="black" points="3187,-953 3138.07,-935 3187,-917 3235.93,-935 3187,-953"/>
<polyline fill="none" stroke="black" points="3149.33,-939.14 3149.33,-930.86 "/>
<polyline fill="none" stroke="black" points="3175.74,-921.14 3198.26,-921.14 "/>
<polyline fill="none" stroke="black" points="3224.67,-930.86 3224.67,-939.14 "/>
<polyline fill="none" stroke="black" points="3198.26,-948.86 3175.74,-948.86 "/>
<text text-anchor="middle" x="3187" y="-931.3" font-family="Times,serif" font-size="14.00">Start</text>
</g>
<!-- Reset&#45;&gt;Start -->
<g id="edge34" class="edge">
<title>Reset&#45;&gt;Start</title>
<path fill="none" stroke="black" d="M3309.54,-508.36C3317.12,-514.24 3325.44,-521.43 3332,-529 3361.43,-562.96 3376.81,-595.36 3347,-629 3327.4,-651.11 3303.65,-618.02 3281,-637 3271.93,-644.6 3259.35,-681.54 3246.77,-725.55"/>
<polygon fill="black" stroke="black" points="3243.35,-724.77 3244,-735.34 3250.09,-726.67 3243.35,-724.77"/>
<text text-anchor="middle" x="3291.5" y="-684.3" font-family="Times,serif" font-size="14.00">ActMap</text>
</g>
<!-- Start&#45;&gt;Crashed -->
<g id="edge14" class="edge">
<title>Start&#45;&gt;Crashed</title>
<path fill="none" stroke="black" d="M3244,-924.14C3344.1,-905.18 3541,-859.91 3541,-797 3541,-797 3541,-797 3541,-492 3541,-468.63 3526.27,-446.48 3512.2,-430.66"/>
<polygon fill="black" stroke="black" points="3514.38,-427.87 3504.98,-422.99 3509.28,-432.67 3514.38,-427.87"/>
<text text-anchor="middle" x="3646.5" y="-640.8" font-family="Times,serif" font-size="14.00">boost::statechart::event_base</text>
</g>
<!-- Start&#45;&gt;Reset -->
<g id="edge59" class="edge">
<title>Start&#45;&gt;Reset</title>
<path fill="none" stroke="black" d="M3244,-931.84C3275.16,-928.16 3313.01,-919.37 3341,-899 3436.71,-829.34 3390.79,-751.12 3477,-670 3489.74,-658.01 3502.89,-666.93 3512,-652 3559.6,-573.99 3409.35,-523.93 3332.01,-503.92"/>
<polygon fill="black" stroke="black" points="3332.61,-500.46 3322.06,-501.4 3330.9,-507.25 3332.61,-500.46"/>
<text text-anchor="middle" x="3506.5" y="-684.3" font-family="Times,serif" font-size="14.00">AdvMap</text>
</g>
<!-- Start&#45;&gt;GetInfo -->
<g id="edge11" class="edge">
<title>Start&#45;&gt;GetInfo</title>
<path fill="none" stroke="black" d="M3165.29,-924.85C3131.41,-910.58 3069.55,-884.59 3067,-884 3039.4,-877.66 2969.72,-887.56 2935.7,-879.35"/>
<polygon fill="black" stroke="black" points="2936.59,-875.95 2926,-876 2934.31,-882.57 2936.59,-875.95"/>
<text text-anchor="middle" x="3148.5" y="-887.8" font-family="Times,serif" font-size="14.00">MakePrimary</text>
</g>
<!-- Start&#45;&gt;Stray -->
<g id="edge65" class="edge">
<title>Start&#45;&gt;Stray</title>
<path fill="none" stroke="black" d="M3163.78,-925.49C3154.61,-922.41 3143.91,-919.16 3134,-917 3068.4,-902.68 3046.87,-922.59 2984,-899 2972.92,-894.84 2973.25,-887.67 2962,-884 2935.79,-875.45 2741.54,-877.36 2714,-876 2270.86,-854.06 1735.28,-813.06 1577.09,-800.65"/>
<polygon fill="black" stroke="black" points="1577.03,-797.14 1566.79,-799.84 1576.48,-804.11 1577.03,-797.14"/>
<text text-anchor="middle" x="3023.5" y="-887.8" font-family="Times,serif" font-size="14.00">MakeStray</text>
</g>
<!-- WaitActingChange -->
<g id="node5" class="node">
<title>WaitActingChange</title>
<ellipse fill="none" stroke="black" cx="3132" cy="-580" rx="96.38" ry="18"/>
<text text-anchor="middle" x="3132" y="-576.3" font-family="Times,serif" font-size="14.00">WaitActingChange</text>
</g>
<!-- WaitActingChange&#45;&gt;Reset -->
<g id="edge62" class="edge">
<title>WaitActingChange&#45;&gt;Reset</title>
<path fill="none" stroke="black" d="M3151.9,-562.22C3164.98,-551.74 3182.81,-538.49 3200,-529 3215.53,-520.43 3233.6,-512.92 3249.38,-507.07"/>
<polygon fill="black" stroke="black" points="3250.64,-510.34 3258.87,-503.65 3248.27,-503.75 3250.64,-510.34"/>
<text text-anchor="middle" x="3229.5" y="-532.8" font-family="Times,serif" font-size="14.00">AdvMap</text>
</g>
<!-- GetInfo&#45;&gt;Reset -->
<g id="edge60" class="edge">
<title>GetInfo&#45;&gt;Reset</title>
<path fill="none" stroke="black" d="M3028,-752.15C3098.34,-721.74 3116.07,-697.64 3189,-652 3199.35,-645.53 3200.42,-640.85 3212,-637 3225.1,-632.64 3326.56,-639.07 3336,-629 3358.8,-604.68 3346.87,-585.51 3336,-554 3331.25,-540.24 3321.91,-527.24 3312.8,-516.87"/>
<polygon fill="black" stroke="black" points="3315.32,-514.44 3305.96,-509.49 3310.19,-519.2 3315.32,-514.44"/>
<text text-anchor="middle" x="3241.5" y="-640.8" font-family="Times,serif" font-size="14.00">AdvMap</text>
</g>
<!-- GetLog -->
<g id="node7" class="node">
<title>GetLog</title>
<ellipse fill="none" stroke="black" cx="2823" cy="-688" rx="44.39" ry="18"/>
<text text-anchor="middle" x="2823" y="-684.3" font-family="Times,serif" font-size="14.00">GetLog</text>
</g>
<!-- GetInfo&#45;&gt;GetLog -->
<g id="edge58" class="edge">
<title>GetInfo&#45;&gt;GetLog</title>
<path fill="none" stroke="black" d="M2822.83,-787.78C2807.54,-782.71 2791.09,-774.19 2782,-760 2771.9,-744.22 2783.02,-725.9 2796.22,-711.82"/>
<polygon fill="black" stroke="black" points="2798.99,-714 2803.64,-704.48 2794.07,-709.02 2798.99,-714"/>
<text text-anchor="middle" x="2809" y="-748.8" font-family="Times,serif" font-size="14.00">GotInfo</text>
</g>
<!-- Down -->
<g id="node10" class="node">
<title>Down</title>
<ellipse fill="none" stroke="black" cx="2930" cy="-688" rx="37.09" ry="18"/>
<text text-anchor="middle" x="2930" y="-684.3" font-family="Times,serif" font-size="14.00">Down</text>
</g>
<!-- GetInfo&#45;&gt;Down -->
<g id="edge47" class="edge">
<title>GetInfo&#45;&gt;Down</title>
<path fill="none" stroke="black" d="M2852.33,-779.22C2849.59,-768.64 2848.19,-754.88 2855,-745 2860.67,-736.78 2867.46,-742.18 2876,-737 2887.39,-730.09 2898.63,-720.64 2907.88,-711.96"/>
<polygon fill="black" stroke="black" points="2910.4,-714.39 2915.14,-704.92 2905.53,-709.37 2910.4,-714.39"/>
<text text-anchor="middle" x="2882" y="-748.8" font-family="Times,serif" font-size="14.00">IsDown</text>
</g>
<!-- Activating -->
<g id="node22" class="node">
<title>Activating</title>
<polygon fill="none" stroke="black" points="2300,-706 2218.39,-688 2300,-670 2381.61,-688 2300,-706"/>
<polyline fill="none" stroke="black" points="2230.11,-690.58 2230.11,-685.42 "/>
<polyline fill="none" stroke="black" points="2288.28,-672.58 2311.72,-672.58 "/>
<polyline fill="none" stroke="black" points="2369.89,-685.42 2369.89,-690.58 "/>
<polyline fill="none" stroke="black" points="2311.72,-703.42 2288.28,-703.42 "/>
<text text-anchor="middle" x="2300" y="-684.3" font-family="Times,serif" font-size="14.00">Activating</text>
</g>
<!-- GetInfo&#45;&gt;Activating -->
<g id="edge56" class="edge">
<title>GetInfo&#45;&gt;Activating</title>
<path fill="none" stroke="black" d="M2718,-767.18C2621,-756.04 2569.95,-764.69 2452.07,-739.22"/>
<polygon fill="black" stroke="black" points="2452.52,-735.74 2442,-737 2451.01,-742.57 2452.52,-735.74"/>
<text text-anchor="middle" x="2644.5" y="-748.8" font-family="Times,serif" font-size="14.00">Activate</text>
</g>
<!-- GetLog&#45;&gt;Reset -->
<g id="edge61" class="edge">
<title>GetLog&#45;&gt;Reset</title>
<path fill="none" stroke="black" d="M2856.59,-676.27C2865.42,-673.83 2875,-671.51 2884,-670 2949.43,-659.03 3124.48,-685.05 3182,-652 3188.95,-648.01 3185.27,-641.35 3192,-637 3210.16,-625.26 3223.37,-642.83 3240,-629 3256.89,-614.95 3273.75,-556.24 3282.62,-521.04"/>
<polygon fill="black" stroke="black" points="3286.11,-521.49 3285.1,-510.95 3279.31,-519.82 3286.11,-521.49"/>
<text text-anchor="middle" x="3302.5" y="-576.3" font-family="Times,serif" font-size="14.00">AdvMap</text>
</g>
<!-- GetLog&#45;&gt;WaitActingChange -->
<g id="edge5" class="edge">
<title>GetLog&#45;&gt;WaitActingChange</title>
<path fill="none" stroke="black" d="M2857.32,-676.58C2865.98,-674.19 2875.28,-671.82 2884,-670 2940.24,-658.26 2957.78,-671 3012,-652 3029.55,-645.85 3069.24,-621.52 3098.19,-603.04"/>
<polygon fill="black" stroke="black" points="3100.26,-605.86 3106.79,-597.52 3096.48,-599.97 3100.26,-605.86"/>
<text text-anchor="middle" x="3110" y="-640.8" font-family="Times,serif" font-size="14.00">NeedActingChange</text>
</g>
<!-- GetMissing -->
<g id="node8" class="node">
<title>GetMissing</title>
<ellipse fill="none" stroke="black" cx="2791" cy="-580" rx="63.89" ry="18"/>
<text text-anchor="middle" x="2791" y="-576.3" font-family="Times,serif" font-size="14.00">GetMissing</text>
</g>
<!-- GetLog&#45;&gt;GetMissing -->
<g id="edge15" class="edge">
<title>GetLog&#45;&gt;GetMissing</title>
<path fill="none" stroke="black" d="M2784.08,-679.07C2769.24,-673.94 2753.79,-665.58 2745,-652 2734.6,-635.94 2746.7,-617.83 2761.09,-603.93"/>
<polygon fill="black" stroke="black" points="2763.62,-606.36 2768.72,-597.07 2758.95,-601.15 2763.62,-606.36"/>
<text text-anchor="middle" x="2771" y="-640.8" font-family="Times,serif" font-size="14.00">GotLog</text>
</g>
<!-- Incomplete -->
<g id="node11" class="node">
<title>Incomplete</title>
<ellipse fill="none" stroke="black" cx="2935" cy="-580" rx="62.29" ry="18"/>
<text text-anchor="middle" x="2935" y="-576.3" font-family="Times,serif" font-size="14.00">Incomplete</text>
</g>
<!-- GetLog&#45;&gt;Incomplete -->
<g id="edge54" class="edge">
<title>GetLog&#45;&gt;Incomplete</title>
<path fill="none" stroke="black" d="M2814.57,-669.86C2810.68,-659.24 2808.41,-645.96 2816,-637 2829.98,-620.5 2843.91,-637.02 2864,-629 2879.49,-622.81 2895.04,-612.84 2907.61,-603.58"/>
<polygon fill="black" stroke="black" points="2909.97,-606.18 2915.81,-597.34 2905.73,-600.61 2909.97,-606.18"/>
<text text-anchor="middle" x="2862.5" y="-640.8" font-family="Times,serif" font-size="14.00">IsIncomplete</text>
</g>
<!-- WaitUpThru -->
<g id="node9" class="node">
<title>WaitUpThru</title>
<ellipse fill="none" stroke="black" cx="2793" cy="-493" rx="66.89" ry="18"/>
<text text-anchor="middle" x="2793" y="-489.3" font-family="Times,serif" font-size="14.00">WaitUpThru</text>
</g>
<!-- GetMissing&#45;&gt;WaitUpThru -->
<g id="edge36" class="edge">
<title>GetMissing&#45;&gt;WaitUpThru</title>
<path fill="none" stroke="black" d="M2791.31,-561.87C2791.49,-552.22 2791.73,-539.94 2792,-529 2792.06,-526.45 2792.13,-523.79 2792.2,-521.13"/>
<polygon fill="black" stroke="black" points="2795.7,-521.18 2792.48,-511.09 2788.7,-520.99 2795.7,-521.18"/>
<text text-anchor="middle" x="2838.5" y="-532.8" font-family="Times,serif" font-size="14.00">NeedUpThru</text>
</g>
<!-- Down&#45;&gt;GetInfo -->
<g id="edge17" class="edge">
<title>Down&#45;&gt;GetInfo</title>
<path fill="none" stroke="black" d="M2929.45,-706.26C2928.18,-721.64 2924.33,-744.11 2913,-760 2907.35,-767.92 2899.3,-774.46 2891.09,-779.67"/>
<polygon fill="black" stroke="black" points="2889.14,-776.75 2882.24,-784.78 2892.65,-782.81 2889.14,-776.75"/>
<text text-anchor="middle" x="2962.5" y="-748.8" font-family="Times,serif" font-size="14.00">MNotifyRec</text>
</g>
<!-- Incomplete&#45;&gt;Reset -->
<g id="edge63" class="edge">
<title>Incomplete&#45;&gt;Reset</title>
<path fill="none" stroke="black" d="M2932.89,-561.75C2932.59,-550.8 2934.31,-537.21 2943,-529 2953.74,-518.86 3150.27,-503.77 3242.25,-497.22"/>
<polygon fill="black" stroke="black" points="3242.68,-500.7 3252.4,-496.5 3242.18,-493.72 3242.68,-500.7"/>
<text text-anchor="middle" x="2972.5" y="-532.8" font-family="Times,serif" font-size="14.00">AdvMap</text>
</g>
<!-- Incomplete&#45;&gt;GetLog -->
<g id="edge18" class="edge">
<title>Incomplete&#45;&gt;GetLog</title>
<path fill="none" stroke="black" d="M2933.83,-598.3C2931.89,-614.13 2926.72,-637.27 2913,-652 2906.3,-659.19 2886.87,-667.13 2867.78,-673.63"/>
<polygon fill="black" stroke="black" points="2866.59,-670.33 2858.19,-676.79 2868.78,-676.98 2866.59,-670.33"/>
<text text-anchor="middle" x="2965.5" y="-640.8" font-family="Times,serif" font-size="14.00">MNotifyRec</text>
</g>
<!-- Clean -->
<g id="node12" class="node">
<title>Clean</title>
<ellipse fill="none" stroke="black" cx="2488" cy="-688" rx="37.09" ry="18"/>
<text text-anchor="middle" x="2488" y="-684.3" font-family="Times,serif" font-size="14.00">Clean</text>
</g>
<!-- WaitLocalRecoveryReserved -->
<g id="node21" class="node">
<title>WaitLocalRecoveryReserved</title>
<ellipse fill="none" stroke="black" cx="2394" cy="-580" rx="141.88" ry="18"/>
<text text-anchor="middle" x="2394" y="-576.3" font-family="Times,serif" font-size="14.00">WaitLocalRecoveryReserved</text>
</g>
<!-- Clean&#45;&gt;WaitLocalRecoveryReserved -->
<g id="edge6" class="edge">
<title>Clean&#45;&gt;WaitLocalRecoveryReserved</title>
<path fill="none" stroke="black" d="M2473.72,-670.9C2458.31,-653.52 2433.57,-625.62 2415.73,-605.51"/>
<polygon fill="black" stroke="black" points="2418.29,-603.11 2409.03,-597.95 2413.05,-607.76 2418.29,-603.11"/>
<text text-anchor="middle" x="2497" y="-640.8" font-family="Times,serif" font-size="14.00">DoRecovery</text>
</g>
<!-- Recovered -->
<g id="node13" class="node">
<title>Recovered</title>
<ellipse fill="none" stroke="black" cx="2612" cy="-58" rx="59.59" ry="18"/>
<text text-anchor="middle" x="2612" y="-54.3" font-family="Times,serif" font-size="14.00">Recovered</text>
</g>
<!-- Recovered&#45;&gt;Clean -->
<g id="edge10" class="edge">
<title>Recovered&#45;&gt;Clean</title>
<path fill="none" stroke="black" d="M2624.91,-75.93C2644.82,-103.22 2682.16,-159.41 2696,-214 2715.13,-289.45 2681.6,-310.36 2676,-388 2674.85,-403.96 2671.99,-408.51 2676,-424 2678.3,-432.86 2683.7,-433.14 2686,-442 2687.67,-448.45 2688.06,-450.66 2686,-457 2652.81,-558.95 2622.45,-578.92 2544,-652 2537.23,-658.3 2529.17,-664.11 2521.31,-669.1"/>
<polygon fill="black" stroke="black" points="2519.33,-666.21 2512.58,-674.38 2522.95,-672.2 2519.33,-666.21"/>
<text text-anchor="middle" x="2710.5" y="-358.8" font-family="Times,serif" font-size="14.00">GoClean</text>
</g>
<!-- Recovered&#45;&gt;WaitLocalRecoveryReserved -->
<g id="edge7" class="edge">
<title>Recovered&#45;&gt;WaitLocalRecoveryReserved</title>
<path fill="none" stroke="black" d="M2614.18,-76.32C2616.02,-98.61 2615.88,-137.48 2597,-163 2582.4,-182.74 2517.11,-197.43 2499,-214 2484.99,-226.82 2491.06,-238.44 2476,-250 2416.45,-295.69 2384.31,-272.2 2315,-301 2283.06,-314.27 2278.04,-323.97 2246,-337 2220.21,-347.49 2205.96,-335.59 2186,-355 2173.56,-367.1 2134.01,-491.29 2149,-511 2167.22,-534.97 2235.58,-552.7 2295.48,-564.04"/>
<polygon fill="black" stroke="black" points="2294.92,-567.49 2305.39,-565.87 2296.2,-560.61 2294.92,-567.49"/>
<text text-anchor="middle" x="2358" y="-315.3" font-family="Times,serif" font-size="14.00">DoRecovery</text>
</g>
<!-- Backfilling -->
<g id="node14" class="node">
<title>Backfilling</title>
<ellipse fill="none" stroke="black" cx="2513" cy="-145" rx="59.59" ry="18"/>
<text text-anchor="middle" x="2513" y="-141.3" font-family="Times,serif" font-size="14.00">Backfilling</text>
</g>
<!-- Backfilling&#45;&gt;Recovered -->
<g id="edge41" class="edge">
<title>Backfilling&#45;&gt;Recovered</title>
<path fill="none" stroke="black" d="M2514.82,-126.9C2516.76,-116.29 2520.76,-103.01 2529,-94 2536.84,-85.43 2547.11,-78.89 2557.74,-73.92"/>
<polygon fill="black" stroke="black" points="2559.29,-77.06 2567.13,-69.94 2556.56,-70.62 2559.29,-77.06"/>
<text text-anchor="middle" x="2564.5" y="-97.8" font-family="Times,serif" font-size="14.00">Backfilled</text>
</g>
<!-- WaitLocalBackfillReserved -->
<g id="node16" class="node">
<title>WaitLocalBackfillReserved</title>
<ellipse fill="none" stroke="black" cx="2069" cy="-319" rx="133.78" ry="18"/>
<text text-anchor="middle" x="2069" y="-315.3" font-family="Times,serif" font-size="14.00">WaitLocalBackfillReserved</text>
</g>
<!-- Backfilling&#45;&gt;WaitLocalBackfillReserved -->
<g id="edge67" class="edge">
<title>Backfilling&#45;&gt;WaitLocalBackfillReserved</title>
<path fill="none" stroke="black" d="M2462.48,-154.67C2398.8,-166.45 2294.01,-188.94 2264,-214 2237.91,-235.79 2257.67,-261.92 2231,-283 2220.44,-291.34 2195.98,-298.26 2169.18,-303.68"/>
<polygon fill="black" stroke="black" points="2168.38,-300.27 2159.23,-305.61 2169.71,-307.14 2168.38,-300.27"/>
<text text-anchor="middle" x="2365" y="-228.3" font-family="Times,serif" font-size="14.00">RemoteReservationRevoked</text>
</g>
<!-- NotBackfilling -->
<g id="node17" class="node">
<title>NotBackfilling</title>
<ellipse fill="none" stroke="black" cx="1989" cy="-58" rx="77.19" ry="18"/>
<text text-anchor="middle" x="1989" y="-54.3" font-family="Times,serif" font-size="14.00">NotBackfilling</text>
</g>
<!-- Backfilling&#45;&gt;NotBackfilling -->
<g id="edge28" class="edge">
<title>Backfilling&#45;&gt;NotBackfilling</title>
<path fill="none" stroke="black" d="M2468.57,-132.85C2458.87,-130.68 2448.62,-128.59 2439,-127 2361.42,-114.17 2338.9,-129.54 2263,-109 2247.45,-104.79 2245.46,-98.54 2230,-94 2178.6,-78.92 2119.04,-70.19 2071.99,-65.22"/>
<polygon fill="black" stroke="black" points="2072.15,-61.72 2061.85,-64.19 2071.44,-68.69 2072.15,-61.72"/>
<text text-anchor="middle" x="2389.5" y="-97.8" font-family="Times,serif" font-size="14.00">RemoteReservationRevokedTooFull</text>
</g>
<!-- Backfilling&#45;&gt;NotBackfilling -->
<g id="edge29" class="edge">
<title>Backfilling&#45;&gt;NotBackfilling</title>
<path fill="none" stroke="black" d="M2469.42,-132.58C2459.49,-130.37 2448.93,-128.33 2439,-127 2414.7,-123.74 2016.49,-125.11 1998,-109 1991.57,-103.4 1988.71,-94.89 1987.65,-86.48"/>
<polygon fill="black" stroke="black" points="1991.14,-86.27 1987.12,-76.46 1984.15,-86.64 1991.14,-86.27"/>
<text text-anchor="middle" x="2055.5" y="-97.8" font-family="Times,serif" font-size="14.00">UnfoundBackfill</text>
</g>
<!-- Backfilling&#45;&gt;NotBackfilling -->
<g id="edge42" class="edge">
<title>Backfilling&#45;&gt;NotBackfilling</title>
<path fill="none" stroke="black" d="M2469.01,-132.62C2459.19,-130.44 2448.79,-128.4 2439,-127 2371.35,-117.32 2195.88,-133.29 2132,-109 2121.94,-105.18 2122.58,-98.89 2113,-94 2095.35,-85 2075.08,-78.04 2056.1,-72.78"/>
<polygon fill="black" stroke="black" points="2056.88,-69.37 2046.32,-70.18 2055.08,-76.13 2056.88,-69.37"/>
<text text-anchor="middle" x="2179" y="-97.8" font-family="Times,serif" font-size="14.00">DeferBackfill</text>
</g>
<!-- WaitRemoteBackfillReserved -->
<g id="node15" class="node">
<title>WaitRemoteBackfillReserved</title>
<ellipse fill="none" stroke="black" cx="2069" cy="-232" rx="144.87" ry="18"/>
<text text-anchor="middle" x="2069" y="-228.3" font-family="Times,serif" font-size="14.00">WaitRemoteBackfillReserved</text>
</g>
<!-- WaitRemoteBackfillReserved&#45;&gt;Backfilling -->
<g id="edge40" class="edge">
<title>WaitRemoteBackfillReserved&#45;&gt;Backfilling</title>
<path fill="none" stroke="black" d="M2097.66,-214.33C2107.35,-208.61 2118.19,-202.1 2128,-196 2138.36,-189.55 2139.42,-184.84 2151,-181 2211.87,-160.82 2375.54,-172.21 2439,-163 2445.57,-162.05 2452.43,-160.81 2459.19,-159.44"/>
<polygon fill="black" stroke="black" points="2459.95,-162.85 2469.01,-157.35 2458.5,-156.01 2459.95,-162.85"/>
<text text-anchor="middle" x="2224.5" y="-184.8" font-family="Times,serif" font-size="14.00">AllBackfillsReserved</text>
</g>
<!-- WaitRemoteBackfillReserved&#45;&gt;NotBackfilling -->
<g id="edge52" class="edge">
<title>WaitRemoteBackfillReserved&#45;&gt;NotBackfilling</title>
<path fill="none" stroke="black" d="M2090.67,-213.9C2112.97,-196.07 2144.89,-169.79 2148,-163 2154.67,-148.46 2158.67,-138.92 2148,-127 2123.69,-99.85 2009.31,-136.15 1985,-109 1979.53,-102.89 1978.62,-94.5 1979.67,-86.34"/>
<polygon fill="black" stroke="black" points="1983.14,-86.83 1981.84,-76.32 1976.3,-85.36 1983.14,-86.83"/>
<text text-anchor="middle" x="2281.5" y="-141.3" font-family="Times,serif" font-size="14.00">RemoteReservationRejectedTooFull</text>
</g>
<!-- WaitRemoteBackfillReserved&#45;&gt;NotBackfilling -->
<g id="edge68" class="edge">
<title>WaitRemoteBackfillReserved&#45;&gt;NotBackfilling</title>
<path fill="none" stroke="black" d="M2061.7,-214C2056.03,-202.87 2047.1,-188.97 2035,-181 1999.84,-157.84 1968.79,-195.47 1942,-163 1922.26,-139.07 1944.24,-105.52 1964.29,-83.06"/>
<polygon fill="black" stroke="black" points="1966.98,-85.32 1971.23,-75.61 1961.86,-80.54 1966.98,-85.32"/>
<text text-anchor="middle" x="2043" y="-141.3" font-family="Times,serif" font-size="14.00">RemoteReservationRevoked</text>
</g>
<!-- WaitLocalBackfillReserved&#45;&gt;WaitRemoteBackfillReserved -->
<g id="edge55" class="edge">
<title>WaitLocalBackfillReserved&#45;&gt;WaitRemoteBackfillReserved</title>
<path fill="none" stroke="black" d="M2069,-300.8C2069,-289.16 2069,-273.55 2069,-260.24"/>
<polygon fill="black" stroke="black" points="2072.5,-260.18 2069,-250.18 2065.5,-260.18 2072.5,-260.18"/>
<text text-anchor="middle" x="2148" y="-271.8" font-family="Times,serif" font-size="14.00">LocalBackfillReserved</text>
</g>
<!-- NotBackfilling&#45;&gt;WaitLocalBackfillReserved -->
<g id="edge31" class="edge">
<title>NotBackfilling&#45;&gt;WaitLocalBackfillReserved</title>
<path fill="none" stroke="black" d="M1961.04,-74.97C1953.7,-80.25 1946.36,-86.67 1941,-94 1899.52,-150.74 1876.63,-191.11 1915,-250 1931.13,-274.75 1958.53,-290.56 1985.79,-300.63"/>
<polygon fill="black" stroke="black" points="1984.81,-303.99 1995.4,-303.95 1987.1,-297.38 1984.81,-303.99"/>
<text text-anchor="middle" x="1952" y="-184.8" font-family="Times,serif" font-size="14.00">RequestBackfill</text>
</g>
<!-- NotRecovering -->
<g id="node18" class="node">
<title>NotRecovering</title>
<ellipse fill="none" stroke="black" cx="2552" cy="-319" rx="79.89" ry="18"/>
<text text-anchor="middle" x="2552" y="-315.3" font-family="Times,serif" font-size="14.00">NotRecovering</text>
</g>
<!-- NotRecovering&#45;&gt;WaitLocalRecoveryReserved -->
<g id="edge8" class="edge">
<title>NotRecovering&#45;&gt;WaitLocalRecoveryReserved</title>
<path fill="none" stroke="black" d="M2590.96,-334.83C2599.34,-339.92 2607.13,-346.53 2612,-355 2635.25,-395.47 2611.98,-417.57 2587,-457 2555.65,-506.48 2538.28,-513.95 2488,-544 2478.17,-549.87 2467.19,-555.04 2456.3,-559.47"/>
<polygon fill="black" stroke="black" points="2454.83,-556.29 2446.79,-563.18 2457.37,-562.81 2454.83,-556.29"/>
<text text-anchor="middle" x="2639" y="-445.8" font-family="Times,serif" font-size="14.00">DoRecovery</text>
</g>
<!-- Recovering -->
<g id="node19" class="node">
<title>Recovering</title>
<ellipse fill="none" stroke="black" cx="2323" cy="-406" rx="63.09" ry="18"/>
<text text-anchor="middle" x="2323" y="-402.3" font-family="Times,serif" font-size="14.00">Recovering</text>
</g>
<!-- Recovering&#45;&gt;Recovered -->
<g id="edge23" class="edge">
<title>Recovering&#45;&gt;Recovered</title>
<path fill="none" stroke="black" d="M2321.28,-387.65C2321.19,-376.95 2323.01,-363.66 2331,-355 2353.96,-330.13 2375.06,-352.78 2405,-337 2477.39,-298.84 2477.58,-264.45 2542,-214 2573.74,-189.15 2598.14,-198.63 2617,-163 2629.63,-139.14 2625.82,-107.72 2620.46,-85.69"/>
<polygon fill="black" stroke="black" points="2623.83,-84.74 2617.85,-75.99 2617.07,-86.56 2623.83,-84.74"/>
<text text-anchor="middle" x="2619" y="-228.3" font-family="Times,serif" font-size="14.00">AllReplicasRecovered</text>
</g>
<!-- Recovering&#45;&gt;WaitLocalBackfillReserved -->
<g id="edge33" class="edge">
<title>Recovering&#45;&gt;WaitLocalBackfillReserved</title>
<path fill="none" stroke="black" d="M2276.91,-393.69C2255.04,-387.7 2228.76,-379.59 2206,-370 2193.35,-364.67 2191.6,-360.44 2179,-355 2164.89,-348.91 2149.36,-343.32 2134.53,-338.49"/>
<polygon fill="black" stroke="black" points="2135.49,-335.13 2124.9,-335.43 2133.37,-341.8 2135.49,-335.13"/>
<text text-anchor="middle" x="2262" y="-358.8" font-family="Times,serif" font-size="14.00">RequestBackfill</text>
</g>
<!-- Recovering&#45;&gt;NotRecovering -->
<g id="edge21" class="edge">
<title>Recovering&#45;&gt;NotRecovering</title>
<path fill="none" stroke="black" d="M2327.18,-388.01C2330.82,-376.89 2337.25,-362.98 2348,-355 2350.73,-352.98 2421.37,-341.14 2478.77,-331.78"/>
<polygon fill="black" stroke="black" points="2479.64,-335.19 2488.95,-330.13 2478.51,-328.28 2479.64,-335.19"/>
<text text-anchor="middle" x="2401" y="-358.8" font-family="Times,serif" font-size="14.00">DeferRecovery</text>
</g>
<!-- Recovering&#45;&gt;NotRecovering -->
<g id="edge24" class="edge">
<title>Recovering&#45;&gt;NotRecovering</title>
<path fill="none" stroke="black" d="M2374.04,-395.32C2398.82,-389.63 2428.63,-381.31 2454,-370 2465.15,-365.03 2466.33,-360.93 2477,-355 2486.71,-349.6 2497.4,-344.27 2507.59,-339.46"/>
<polygon fill="black" stroke="black" points="2509.17,-342.59 2516.76,-335.2 2506.22,-336.24 2509.17,-342.59"/>
<text text-anchor="middle" x="2541" y="-358.8" font-family="Times,serif" font-size="14.00">UnfoundRecovery</text>
</g>
<!-- WaitRemoteRecoveryReserved -->
<g id="node20" class="node">
<title>WaitRemoteRecoveryReserved</title>
<ellipse fill="none" stroke="black" cx="2311" cy="-493" rx="153.27" ry="18"/>
<text text-anchor="middle" x="2311" y="-489.3" font-family="Times,serif" font-size="14.00">WaitRemoteRecoveryReserved</text>
</g>
<!-- WaitRemoteRecoveryReserved&#45;&gt;Recovering -->
<g id="edge26" class="edge">
<title>WaitRemoteRecoveryReserved&#45;&gt;Recovering</title>
<path fill="none" stroke="black" d="M2301.68,-474.74C2297.65,-465.04 2294.55,-452.76 2298,-442 2299.08,-438.63 2300.62,-435.3 2302.41,-432.12"/>
<polygon fill="black" stroke="black" points="2305.42,-433.92 2307.95,-423.63 2299.55,-430.1 2305.42,-433.92"/>
<text text-anchor="middle" x="2372" y="-445.8" font-family="Times,serif" font-size="14.00">AllRemotesReserved</text>
</g>
<!-- WaitLocalRecoveryReserved&#45;&gt;NotRecovering -->
<g id="edge57" class="edge">
<title>WaitLocalRecoveryReserved&#45;&gt;NotRecovering</title>
<path fill="none" stroke="black" d="M2455.41,-563.67C2464.34,-558.81 2472.39,-552.41 2478,-544 2485.58,-532.63 2497.24,-528.1 2473,-467 2470.9,-461.71 2466.88,-462.37 2465,-457 2462.79,-450.71 2461.53,-447.69 2465,-442 2501.45,-382.27 2568.55,-429.73 2605,-370 2611.51,-359.33 2605.1,-349.45 2594.77,-341.33"/>
<polygon fill="black" stroke="black" points="2596.48,-338.27 2586.26,-335.49 2592.52,-344.04 2596.48,-338.27"/>
<text text-anchor="middle" x="2524" y="-445.8" font-family="Times,serif" font-size="14.00">RecoveryTooFull</text>
</g>
<!-- WaitLocalRecoveryReserved&#45;&gt;WaitRemoteRecoveryReserved -->
<g id="edge38" class="edge">
<title>WaitLocalRecoveryReserved&#45;&gt;WaitRemoteRecoveryReserved</title>
<path fill="none" stroke="black" d="M2330,-563.81C2320.93,-558.93 2312.74,-552.5 2307,-544 2302.53,-537.38 2301.77,-529.08 2302.65,-521.15"/>
<polygon fill="black" stroke="black" points="2306.13,-521.6 2304.56,-511.12 2299.25,-520.29 2306.13,-521.6"/>
<text text-anchor="middle" x="2392.5" y="-532.8" font-family="Times,serif" font-size="14.00">LocalRecoveryReserved</text>
</g>
<!-- Activating&#45;&gt;Recovered -->
<g id="edge22" class="edge">
<title>Activating&#45;&gt;Recovered</title>
<path fill="none" stroke="black" d="M2282.53,-673.54C2213.05,-619.29 1962.8,-416.68 2019,-355 2048.01,-323.16 2173.28,-355.87 2212,-337 2231.78,-327.36 2226.93,-311.99 2246,-301 2301.39,-269.08 2323.7,-282.35 2386,-268 2421.51,-259.82 2439.6,-275.12 2466,-250 2478.03,-238.55 2466.05,-227.3 2476,-214 2492.63,-191.78 2503.92,-192.87 2529,-181 2551.48,-170.36 2564.46,-180.64 2582,-163 2599.84,-145.06 2593.04,-133.32 2600,-109 2602.1,-101.65 2604.14,-93.62 2605.92,-86.19"/>
<polygon fill="black" stroke="black" points="2609.39,-86.75 2608.25,-76.22 2602.57,-85.16 2609.39,-86.75"/>
<text text-anchor="middle" x="2096" y="-358.8" font-family="Times,serif" font-size="14.00">AllReplicasRecovered</text>
</g>
<!-- Activating&#45;&gt;WaitLocalBackfillReserved -->
<g id="edge32" class="edge">
<title>Activating&#45;&gt;WaitLocalBackfillReserved</title>
<path fill="none" stroke="black" d="M2260.74,-678.49C2246.12,-675.52 2229.35,-672.34 2214,-670 2079.88,-649.51 1922,-716.67 1922,-581 1922,-581 1922,-581 1922,-405 1922,-370.66 1952.44,-349.97 1985.62,-337.62"/>
<polygon fill="black" stroke="black" points="1987.19,-340.78 1995.5,-334.2 1984.91,-334.16 1987.19,-340.78"/>
<text text-anchor="middle" x="1978" y="-489.3" font-family="Times,serif" font-size="14.00">RequestBackfill</text>
</g>
<!-- Activating&#45;&gt;WaitLocalRecoveryReserved -->
<g id="edge9" class="edge">
<title>Activating&#45;&gt;WaitLocalRecoveryReserved</title>
<path fill="none" stroke="black" d="M2312.68,-672.7C2327.87,-655.57 2353.6,-626.56 2372.05,-605.75"/>
<polygon fill="black" stroke="black" points="2374.71,-608.03 2378.73,-598.22 2369.47,-603.38 2374.71,-608.03"/>
<text text-anchor="middle" x="2387" y="-640.8" font-family="Times,serif" font-size="14.00">DoRecovery</text>
</g>
<!-- RepRecovering -->
<g id="node23" class="node">
<title>RepRecovering</title>
<ellipse fill="none" stroke="black" cx="414" cy="-796" rx="81.49" ry="18"/>
<text text-anchor="middle" x="414" y="-792.3" font-family="Times,serif" font-size="14.00">RepRecovering</text>
</g>
<!-- RepNotRecovering -->
<g id="node26" class="node">
<title>RepNotRecovering</title>
<polygon fill="none" stroke="black" points="722,-706 583.41,-688 722,-670 860.59,-688 722,-706"/>
<polyline fill="none" stroke="black" points="595.31,-689.55 595.31,-686.45 "/>
<polyline fill="none" stroke="black" points="710.1,-671.55 733.9,-671.55 "/>
<polyline fill="none" stroke="black" points="848.69,-686.45 848.69,-689.55 "/>
<polyline fill="none" stroke="black" points="733.9,-704.45 710.1,-704.45 "/>
<text text-anchor="middle" x="722" y="-684.3" font-family="Times,serif" font-size="14.00">RepNotRecovering</text>
</g>
<!-- RepRecovering&#45;&gt;RepNotRecovering -->
<g id="edge1" class="edge">
<title>RepRecovering&#45;&gt;RepNotRecovering</title>
<path fill="none" stroke="black" d="M470.57,-782.93C480.03,-781.13 489.78,-779.4 499,-778 536.77,-772.25 636.87,-779.04 670,-760 687.88,-749.72 701.36,-730.54 710.11,-714.71"/>
<polygon fill="black" stroke="black" points="713.45,-715.88 714.95,-705.39 707.23,-712.65 713.45,-715.88"/>
<text text-anchor="middle" x="791" y="-748.8" font-family="Times,serif" font-size="14.00">RemoteReservationCanceled</text>
</g>
<!-- RepRecovering&#45;&gt;RepNotRecovering -->
<g id="edge48" class="edge">
<title>RepRecovering&#45;&gt;RepNotRecovering</title>
<path fill="none" stroke="black" d="M469.13,-782.71C479.03,-780.86 489.29,-779.18 499,-778 521.03,-775.32 882.67,-776.04 898,-760 925.06,-731.69 875.78,-740.11 865,-737 831.58,-727.36 794.34,-714.8 766.24,-704.94"/>
<polygon fill="black" stroke="black" points="767.3,-701.61 756.7,-701.58 764.97,-708.21 767.3,-701.61"/>
<text text-anchor="middle" x="956.5" y="-748.8" font-family="Times,serif" font-size="14.00">RecoveryDone</text>
</g>
<!-- RepRecovering&#45;&gt;RepNotRecovering -->
<g id="edge50" class="edge">
<title>RepRecovering&#45;&gt;RepNotRecovering</title>
<path fill="none" stroke="black" d="M407.27,-777.99C404.21,-767.15 402.85,-753.57 411,-745 423.11,-732.26 551.7,-740.1 569,-737 607.45,-730.11 649.71,-716.35 680.06,-705.33"/>
<polygon fill="black" stroke="black" points="681.3,-708.6 689.48,-701.85 678.88,-702.03 681.3,-708.6"/>
<text text-anchor="middle" x="538.5" y="-748.8" font-family="Times,serif" font-size="14.00">RemoteReservationRejectedTooFull</text>
</g>
<!-- RepWaitBackfillReserved -->
<g id="node24" class="node">
<title>RepWaitBackfillReserved</title>
<ellipse fill="none" stroke="black" cx="782" cy="-580" rx="127.28" ry="18"/>
<text text-anchor="middle" x="782" y="-576.3" font-family="Times,serif" font-size="14.00">RepWaitBackfillReserved</text>
</g>
<!-- RepWaitBackfillReserved&#45;&gt;RepRecovering -->
<g id="edge64" class="edge">
<title>RepWaitBackfillReserved&#45;&gt;RepRecovering</title>
<path fill="none" stroke="black" d="M691.26,-592.65C578.41,-607.35 399.85,-631.39 395,-637 363.26,-673.66 383.97,-734.31 400.13,-768.83"/>
<polygon fill="black" stroke="black" points="396.99,-770.38 404.52,-777.83 403.28,-767.31 396.99,-770.38"/>
<text text-anchor="middle" x="474.5" y="-684.3" font-family="Times,serif" font-size="14.00">RemoteBackfillReserved</text>
</g>
<!-- RepWaitBackfillReserved&#45;&gt;RepNotRecovering -->
<g id="edge4" class="edge">
<title>RepWaitBackfillReserved&#45;&gt;RepNotRecovering</title>
<path fill="none" stroke="black" d="M883.58,-590.99C975.01,-602.03 1091.16,-622.28 1064,-652 1049.03,-668.39 887.08,-667.69 865,-670 843.53,-672.25 820.28,-674.91 798.89,-677.46"/>
<polygon fill="black" stroke="black" points="798.4,-673.99 788.89,-678.65 799.23,-680.94 798.4,-673.99"/>
<text text-anchor="middle" x="1171" y="-640.8" font-family="Times,serif" font-size="14.00">RemoteReservationCanceled</text>
</g>
<!-- RepWaitBackfillReserved&#45;&gt;RepNotRecovering -->
<g id="edge53" class="edge">
<title>RepWaitBackfillReserved&#45;&gt;RepNotRecovering</title>
<path fill="none" stroke="black" d="M702.82,-594.25C678.6,-602.43 654.54,-615.64 640,-637 629.22,-652.84 644.64,-664.53 664.91,-672.61"/>
<polygon fill="black" stroke="black" points="663.89,-675.96 674.48,-676.07 666.27,-669.38 663.89,-675.96"/>
<text text-anchor="middle" x="767.5" y="-640.8" font-family="Times,serif" font-size="14.00">RemoteReservationRejectedTooFull</text>
</g>
<!-- RepWaitRecoveryReserved -->
<g id="node25" class="node">
<title>RepWaitRecoveryReserved</title>
<ellipse fill="none" stroke="black" cx="284" cy="-580" rx="135.68" ry="18"/>
<text text-anchor="middle" x="284" y="-576.3" font-family="Times,serif" font-size="14.00">RepWaitRecoveryReserved</text>
</g>
<!-- RepWaitRecoveryReserved&#45;&gt;RepRecovering -->
<g id="edge37" class="edge">
<title>RepWaitRecoveryReserved&#45;&gt;RepRecovering</title>
<path fill="none" stroke="black" d="M252.44,-597.79C227.61,-612.96 194.81,-637.84 180,-670 167.55,-697.05 161.65,-713.55 180,-737 185.3,-743.78 280.47,-765.81 347.79,-780.68"/>
<polygon fill="black" stroke="black" points="347.4,-784.18 357.92,-782.91 348.9,-777.34 347.4,-784.18"/>
<text text-anchor="middle" x="274" y="-684.3" font-family="Times,serif" font-size="14.00">RemoteRecoveryReserved</text>
</g>
<!-- RepWaitRecoveryReserved&#45;&gt;RepNotRecovering -->
<g id="edge3" class="edge">
<title>RepWaitRecoveryReserved&#45;&gt;RepNotRecovering</title>
<path fill="none" stroke="black" d="M314.32,-597.71C348.95,-616.52 403.69,-645.33 426,-652 431.19,-653.55 556.12,-668.04 642,-677.88"/>
<polygon fill="black" stroke="black" points="641.67,-681.36 652.01,-679.02 642.47,-674.41 641.67,-681.36"/>
<text text-anchor="middle" x="529" y="-640.8" font-family="Times,serif" font-size="14.00">RemoteReservationCanceled</text>
</g>
<!-- RepNotRecovering&#45;&gt;RepWaitBackfillReserved -->
<g id="edge39" class="edge">
<title>RepNotRecovering&#45;&gt;RepWaitBackfillReserved</title>
<path fill="none" stroke="black" d="M804.81,-680.65C844.76,-675.69 886.67,-667.01 899,-652 918.3,-628.51 889.07,-610.76 855.01,-598.88"/>
<polygon fill="black" stroke="black" points="855.9,-595.49 845.3,-595.69 853.71,-602.14 855.9,-595.49"/>
<text text-anchor="middle" x="976" y="-640.8" font-family="Times,serif" font-size="14.00">RequestBackfillPrio</text>
</g>
<!-- RepNotRecovering&#45;&gt;RepWaitRecoveryReserved -->
<g id="edge25" class="edge">
<title>RepNotRecovering&#45;&gt;RepWaitRecoveryReserved</title>
<path fill="none" stroke="black" d="M654.67,-678.68C628.03,-675.61 597.1,-672.31 569,-670 550.37,-668.47 245.86,-665.57 233,-652 219.06,-637.29 233.54,-618.61 250.59,-604.1"/>
<polygon fill="black" stroke="black" points="252.89,-606.74 258.51,-597.75 248.51,-601.27 252.89,-606.74"/>
<text text-anchor="middle" x="310" y="-640.8" font-family="Times,serif" font-size="14.00">RequestRecoveryPrio</text>
</g>
<!-- RepNotRecovering&#45;&gt;RepNotRecovering -->
<g id="edge2" class="edge">
<title>RepNotRecovering&#45;&gt;RepNotRecovering</title>
<path fill="none" stroke="black" d="M841.63,-690.48C863.47,-690.17 878.79,-689.34 878.79,-688 878.79,-686.88 868.09,-686.12 851.82,-685.72"/>
<polygon fill="black" stroke="black" points="851.7,-682.21 841.63,-685.52 851.56,-689.21 851.7,-682.21"/>
<text text-anchor="middle" x="981.79" y="-684.3" font-family="Times,serif" font-size="14.00">RemoteReservationCanceled</text>
</g>
<!-- RepNotRecovering&#45;&gt;RepNotRecovering -->
<g id="edge49" class="edge">
<title>RepNotRecovering&#45;&gt;RepNotRecovering</title>
<path fill="none" stroke="black" d="M826.88,-692.42C936.32,-694.36 1084.79,-692.89 1084.79,-688 1084.79,-683.26 945.18,-681.73 836.92,-683.41"/>
<polygon fill="black" stroke="black" points="836.82,-679.91 826.88,-683.58 836.94,-686.91 836.82,-679.91"/>
<text text-anchor="middle" x="1136.29" y="-684.3" font-family="Times,serif" font-size="14.00">RecoveryDone</text>
</g>
<!-- RepNotRecovering&#45;&gt;RepNotRecovering -->
<g id="edge51" class="edge">
<title>RepNotRecovering&#45;&gt;RepNotRecovering</title>
<path fill="none" stroke="black" d="M816.47,-693.75C956.01,-697.89 1187.79,-695.98 1187.79,-688 1187.79,-680.22 967.19,-678.2 826.85,-681.96"/>
<polygon fill="black" stroke="black" points="826.36,-678.47 816.47,-682.25 826.56,-685.47 826.36,-678.47"/>
<text text-anchor="middle" x="1315.29" y="-684.3" font-family="Times,serif" font-size="14.00">RemoteReservationRejectedTooFull</text>
</g>
<!-- WaitDeleteReserved -->
<g id="node28" class="node">
<title>WaitDeleteReserved</title>
<polygon fill="none" stroke="black" points="1651,-598 1503.03,-580 1651,-562 1798.97,-580 1651,-598"/>
<polyline fill="none" stroke="black" points="1514.94,-581.45 1514.94,-578.55 "/>
<polyline fill="none" stroke="black" points="1639.09,-563.45 1662.91,-563.45 "/>
<polyline fill="none" stroke="black" points="1787.06,-578.55 1787.06,-581.45 "/>
<polyline fill="none" stroke="black" points="1662.91,-596.55 1639.09,-596.55 "/>
<text text-anchor="middle" x="1651" y="-576.3" font-family="Times,serif" font-size="14.00">WaitDeleteReserved</text>
</g>
<!-- RepNotRecovering&#45;&gt;WaitDeleteReserved -->
<g id="edge43" class="edge">
<title>RepNotRecovering&#45;&gt;WaitDeleteReserved</title>
<path fill="none" stroke="black" d="M1487,-629.62C1489,-629.29 1491,-628.96 1493,-628.63"/>
<polygon fill="black" stroke="black" points="1485.71,-633.38 1495,-628.3 1484.57,-626.48 1485.71,-633.38"/>
<text text-anchor="middle" x="1346" y="-640.8" font-family="Times,serif" font-size="14.00">DeleteStart</text>
</g>
<!-- Stray&#45;&gt;RepNotRecovering -->
<g id="edge20" class="edge">
<title>Stray&#45;&gt;RepNotRecovering</title>
<path fill="none" stroke="black" d="M1506.04,-782.9C1503.29,-781.81 1500.45,-780.77 1496.9,-779.71"/>
<polygon fill="black" stroke="black" points="1497.55,-776.27 1487,-777.15 1495.8,-783.04 1497.55,-776.27"/>
<text text-anchor="middle" x="1310.5" y="-748.8" font-family="Times,serif" font-size="14.00">MLogRec</text>
</g>
<!-- Stray&#45;&gt;RepNotRecovering -->
<g id="edge46" class="edge">
<title>Stray&#45;&gt;RepNotRecovering</title>
<path fill="none" stroke="black" d="M1505,-783.18C1502.48,-782.15 1499.9,-781.15 1496.68,-779.99"/>
<polygon fill="black" stroke="black" points="1497.59,-776.6 1487,-776.7 1495.34,-783.23 1497.59,-776.6"/>
<text text-anchor="middle" x="1466.5" y="-748.8" font-family="Times,serif" font-size="14.00">MInfoRec</text>
</g>
<!-- Stray&#45;&gt;WaitDeleteReserved -->
<g id="edge44" class="edge">
<title>Stray&#45;&gt;WaitDeleteReserved</title>
<path fill="none" stroke="black" d="M1540.22,-778.56C1556.87,-748.87 1592.68,-685.01 1619.1,-637.89"/>
<polygon fill="black" stroke="black" points="1622.25,-639.43 1624.08,-629 1616.14,-636.01 1622.25,-639.43"/>
<text text-anchor="middle" x="1642" y="-684.3" font-family="Times,serif" font-size="14.00">DeleteStart</text>
</g>
<!-- WaitDeleteReserved&#45;&gt;WaitDeleteReserved -->
<g id="edge35" class="edge">
<title>WaitDeleteReserved&#45;&gt;WaitDeleteReserved</title>
<path fill="none" stroke="black" d="M1736.4,-587.64C1778.99,-588.7 1816.98,-586.15 1816.98,-580 1816.98,-574.35 1784.97,-571.74 1746.77,-572.17"/>
<polygon fill="black" stroke="black" points="1746.34,-568.68 1736.4,-572.36 1746.46,-575.68 1746.34,-568.68"/>
<text text-anchor="middle" x="1844.48" y="-576.3" font-family="Times,serif" font-size="14.00">ActMap</text>
</g>
<!-- Deleting -->
<g id="node29" class="node">
<title>Deleting</title>
<ellipse fill="none" stroke="black" cx="1613" cy="-493" rx="50.09" ry="18"/>
<text text-anchor="middle" x="1613" y="-489.3" font-family="Times,serif" font-size="14.00">Deleting</text>
</g>
<!-- WaitDeleteReserved&#45;&gt;Deleting -->
<g id="edge66" class="edge">
<title>WaitDeleteReserved&#45;&gt;Deleting</title>
<path fill="none" stroke="black" d="M1574.9,-571.21C1558.97,-565.91 1544,-557.43 1534,-544 1521.83,-527.65 1540.6,-515.31 1562.89,-506.98"/>
<polygon fill="black" stroke="black" points="1564.26,-510.21 1572.58,-503.66 1561.99,-503.59 1564.26,-510.21"/>
<text text-anchor="middle" x="1591" y="-532.8" font-family="Times,serif" font-size="14.00">DeleteReserved</text>
</g>
<!-- Deleting&#45;&gt;WaitDeleteReserved -->
<g id="edge30" class="edge">
<title>Deleting&#45;&gt;WaitDeleteReserved</title>
<path fill="none" stroke="black" d="M1636.31,-509.28C1642.59,-514.69 1648.59,-521.36 1652,-529 1655.16,-536.09 1655.99,-544.32 1655.74,-552.03"/>
<polygon fill="black" stroke="black" points="1652.24,-551.8 1654.83,-562.08 1659.22,-552.43 1652.24,-551.8"/>
<text text-anchor="middle" x="1720" y="-532.8" font-family="Times,serif" font-size="14.00">DeleteInterrupted</text>
</g>
</g>
</svg>
