<?xml version="1.0" encoding="UTF-8" standalone="no"?>
<!DOCTYPE svg PUBLIC "-//W3C//DTD SVG 1.1//EN"
 "http://www.w3.org/Graphics/SVG/1.1/DTD/svg11.dtd">
<!-- Generated by graphviz version 12.2.1 (20241206.2353)
 -->
<!-- Title: object_store Pages: 1 -->
<svg width="504pt" height="179pt"
 viewBox="0.00 0.00 504.00 179.34" xmlns="http://www.w3.org/2000/svg" xmlns:xlink="http://www.w3.org/1999/xlink">
<g id="graph0" class="graph" transform="scale(0.376773 0.376773) rotate(0) translate(4 472)">
<title>object_store</title>
<polygon fill="white" stroke="none" points="-4,4 -4,-472 1333.68,-472 1333.68,4 -4,4"/>
<!-- testrados -->
<g id="node1" class="node">
<title>testrados</title>
<ellipse fill="#b2dfee" stroke="#b2dfee" cx="925.26" cy="-378" rx="53.84" ry="18"/>
<text text-anchor="middle" x="925.26" y="-373.32" font-family="Serif" font-size="14.00">testrados</text>
</g>
<!-- librados -->
<g id="node2" class="node">
<title>librados</title>
<ellipse fill="#b2dfee" stroke="#b2dfee" cx="925.26" cy="-306" rx="49.1" ry="18"/>
<text text-anchor="middle" x="925.26" y="-301.32" font-family="Serif" font-size="14.00">librados</text>
</g>
<!-- testrados&#45;&gt;librados -->
<g id="edge1" class="edge">
<title>testrados&#45;&gt;librados</title>
<path fill="none" stroke="black" d="M925.26,-359.7C925.26,-352.41 925.26,-343.73 925.26,-335.54"/>
<polygon fill="black" stroke="black" points="928.76,-335.62 925.26,-325.62 921.76,-335.62 928.76,-335.62"/>
</g>
<!-- objecter -->
<g id="node9" class="node">
<title>objecter</title>
<ellipse fill="#b2dfee" stroke="#b2dfee" cx="383.26" cy="-234" rx="49.63" ry="18"/>
<text text-anchor="middle" x="383.26" y="-229.32" font-family="Serif" font-size="14.00">objecter</text>
</g>
<!-- librados&#45;&gt;objecter -->
<g id="edge8" class="edge">
<title>librados&#45;&gt;objecter</title>
<path fill="none" stroke="black" d="M876.74,-302.52C789.08,-297.41 598.76,-283.45 441.26,-252 437.71,-251.29 434.06,-250.46 430.41,-249.56"/>
<polygon fill="black" stroke="black" points="431.55,-246.25 420.99,-247.08 429.76,-253.01 431.55,-246.25"/>
</g>
<!-- testradospp -->
<g id="node3" class="node">
<title>testradospp</title>
<ellipse fill="#b2dfee" stroke="#b2dfee" cx="1062.26" cy="-378" rx="65.41" ry="18"/>
<text text-anchor="middle" x="1062.26" y="-373.32" font-family="Serif" font-size="14.00">testradospp</text>
</g>
<!-- testradospp&#45;&gt;librados -->
<g id="edge2" class="edge">
<title>testradospp&#45;&gt;librados</title>
<path fill="none" stroke="black" d="M1032.2,-361.64C1011.89,-351.26 984.92,-337.48 963.14,-326.36"/>
<polygon fill="black" stroke="black" points="964.77,-323.26 954.27,-321.82 961.59,-329.49 964.77,-323.26"/>
</g>
<!-- rbd -->
<g id="node4" class="node">
<title>rbd</title>
<ellipse fill="#b2dfee" stroke="#b2dfee" cx="1173.26" cy="-378" rx="27.53" ry="18"/>
<text text-anchor="middle" x="1173.26" y="-373.32" font-family="Serif" font-size="14.00">rbd</text>
</g>
<!-- rbd&#45;&gt;librados -->
<g id="edge3" class="edge">
<title>rbd&#45;&gt;librados</title>
<path fill="none" stroke="black" d="M1151.62,-366.25C1146.65,-364.01 1141.33,-361.78 1136.26,-360 1083.93,-341.58 1022.19,-326.85 979.07,-317.64"/>
<polygon fill="black" stroke="black" points="979.96,-314.25 969.45,-315.62 978.52,-321.1 979.96,-314.25"/>
</g>
<!-- radostool -->
<g id="node5" class="node">
<title>radostool</title>
<ellipse fill="#b2dfee" stroke="#b2dfee" cx="1274.26" cy="-378" rx="55.42" ry="18"/>
<text text-anchor="middle" x="1274.26" y="-373.32" font-family="Serif" font-size="14.00">radostool</text>
</g>
<!-- radostool&#45;&gt;librados -->
<g id="edge4" class="edge">
<title>radostool&#45;&gt;librados</title>
<path fill="none" stroke="black" d="M1233.06,-365.56C1225.5,-363.61 1217.66,-361.67 1210.26,-360 1130.86,-342.1 1038.05,-325.66 980.45,-315.99"/>
<polygon fill="black" stroke="black" points="981.35,-312.59 970.91,-314.39 980.19,-319.49 981.35,-312.59"/>
</g>
<!-- radosgw&#45;admin -->
<g id="node6" class="node">
<title>radosgw&#45;admin</title>
<ellipse fill="#b2dfee" stroke="#b2dfee" cx="695.26" cy="-450" rx="84.35" ry="18"/>
<text text-anchor="middle" x="695.26" y="-445.32" font-family="Serif" font-size="14.00">radosgw&#45;admin</text>
</g>
<!-- radosgw -->
<g id="node7" class="node">
<title>radosgw</title>
<ellipse fill="#b2dfee" stroke="#b2dfee" cx="683.26" cy="-378" rx="50.68" ry="18"/>
<text text-anchor="middle" x="683.26" y="-373.32" font-family="Serif" font-size="14.00">radosgw</text>
</g>
<!-- radosgw&#45;admin&#45;&gt;radosgw -->
<g id="edge5" class="edge">
<title>radosgw&#45;admin&#45;&gt;radosgw</title>
<path fill="none" stroke="black" d="M692.29,-431.7C691.03,-424.32 689.52,-415.52 688.1,-407.25"/>
<polygon fill="black" stroke="black" points="691.59,-406.86 686.45,-397.6 684.69,-408.04 691.59,-406.86"/>
</g>
<!-- radosgw&#45;&gt;librados -->
<g id="edge6" class="edge">
<title>radosgw&#45;&gt;librados</title>
<path fill="none" stroke="black" d="M721.61,-365.91C763.59,-353.76 831.01,-334.26 876.67,-321.06"/>
<polygon fill="black" stroke="black" points="877.4,-324.49 886.04,-318.35 875.46,-317.76 877.4,-324.49"/>
</g>
<!-- radosacl -->
<g id="node8" class="node">
<title>radosacl</title>
<ellipse fill="#b2dfee" stroke="#b2dfee" cx="802.26" cy="-378" rx="50.68" ry="18"/>
<text text-anchor="middle" x="802.26" y="-373.32" font-family="Serif" font-size="14.00">radosacl</text>
</g>
<!-- radosacl&#45;&gt;librados -->
<g id="edge7" class="edge">
<title>radosacl&#45;&gt;librados</title>
<path fill="none" stroke="black" d="M828.35,-362.15C846.24,-351.97 870.2,-338.33 889.83,-327.17"/>
<polygon fill="black" stroke="black" points="891.36,-330.32 898.32,-322.33 887.9,-324.24 891.36,-330.32"/>
</g>
<!-- OSDMap -->
<g id="node15" class="node">
<title>OSDMap</title>
<ellipse fill="#b2dfee" stroke="#b2dfee" cx="344.26" cy="-162" rx="52.26" ry="18"/>
<text text-anchor="middle" x="344.26" y="-157.32" font-family="Serif" font-size="14.00">OSDMap</text>
</g>
<!-- objecter&#45;&gt;OSDMap -->
<g id="edge15" class="edge">
<title>objecter&#45;&gt;OSDMap</title>
<path fill="none" stroke="black" d="M373.82,-216.05C369.41,-208.14 364.06,-198.54 359.13,-189.69"/>
<polygon fill="black" stroke="black" points="362.28,-188.14 354.35,-181.11 356.16,-191.55 362.28,-188.14"/>
</g>
<!-- ObjectCacher -->
<g id="node10" class="node">
<title>ObjectCacher</title>
<ellipse fill="#b2dfee" stroke="#b2dfee" cx="383.26" cy="-378" rx="73.83" ry="18"/>
<text text-anchor="middle" x="383.26" y="-373.32" font-family="Serif" font-size="14.00">ObjectCacher</text>
</g>
<!-- Filer -->
<g id="node11" class="node">
<title>Filer</title>
<ellipse fill="#b2dfee" stroke="#b2dfee" cx="383.26" cy="-306" rx="33.32" ry="18"/>
<text text-anchor="middle" x="383.26" y="-301.32" font-family="Serif" font-size="14.00">Filer</text>
</g>
<!-- ObjectCacher&#45;&gt;Filer -->
<g id="edge9" class="edge">
<title>ObjectCacher&#45;&gt;Filer</title>
<path fill="none" stroke="black" d="M383.26,-359.7C383.26,-352.41 383.26,-343.73 383.26,-335.54"/>
<polygon fill="black" stroke="black" points="386.76,-335.62 383.26,-325.62 379.76,-335.62 386.76,-335.62"/>
</g>
<!-- Filer&#45;&gt;objecter -->
<g id="edge14" class="edge">
<title>Filer&#45;&gt;objecter</title>
<path fill="none" stroke="black" d="M383.26,-287.7C383.26,-280.41 383.26,-271.73 383.26,-263.54"/>
<polygon fill="black" stroke="black" points="386.76,-263.62 383.26,-253.62 379.76,-263.62 386.76,-263.62"/>
</g>
<!-- dumpjournal -->
<g id="node12" class="node">
<title>dumpjournal</title>
<ellipse fill="#b2dfee" stroke="#b2dfee" cx="519.26" cy="-450" rx="73.83" ry="18"/>
<text text-anchor="middle" x="519.26" y="-445.32" font-family="Serif" font-size="14.00">dumpjournal</text>
</g>
<!-- Journaler -->
<g id="node13" class="node">
<title>Journaler</title>
<ellipse fill="#b2dfee" stroke="#b2dfee" cx="532.26" cy="-378" rx="57" ry="18"/>
<text text-anchor="middle" x="532.26" y="-373.32" font-family="Serif" font-size="14.00">Journaler</text>
</g>
<!-- dumpjournal&#45;&gt;Journaler -->
<g id="edge10" class="edge">
<title>dumpjournal&#45;&gt;Journaler</title>
<path fill="none" stroke="black" d="M522.47,-431.7C523.84,-424.32 525.48,-415.52 527.01,-407.25"/>
<polygon fill="black" stroke="black" points="530.42,-408.06 528.81,-397.59 523.54,-406.79 530.42,-408.06"/>
</g>
<!-- Journaler&#45;&gt;Filer -->
<g id="edge11" class="edge">
<title>Journaler&#45;&gt;Filer</title>
<path fill="none" stroke="black" d="M501.39,-362.5C477.07,-351.07 443.18,-335.15 417.94,-323.29"/>
<polygon fill="black" stroke="black" points="419.61,-320.21 409.07,-319.13 416.63,-326.55 419.61,-320.21"/>
</g>
<!-- SyntheticClient -->
<g id="node14" class="node">
<title>SyntheticClient</title>
<ellipse fill="#b2dfee" stroke="#b2dfee" cx="208.26" cy="-378" rx="82.77" ry="18"/>
<text text-anchor="middle" x="208.26" y="-373.32" font-family="Serif" font-size="14.00">SyntheticClient</text>
</g>
<!-- SyntheticClient&#45;&gt;objecter -->
<g id="edge13" class="edge">
<title>SyntheticClient&#45;&gt;objecter</title>
<path fill="none" stroke="black" d="M229.02,-360.15C260.27,-334.8 319.48,-286.75 354.75,-258.13"/>
<polygon fill="black" stroke="black" points="356.86,-260.93 362.42,-251.91 352.45,-255.49 356.86,-260.93"/>
</g>
<!-- SyntheticClient&#45;&gt;Filer -->
<g id="edge12" class="edge">
<title>SyntheticClient&#45;&gt;Filer</title>
<path fill="none" stroke="black" d="M246.66,-361.64C276.28,-349.79 317,-333.5 346.26,-321.8"/>
<polygon fill="black" stroke="black" points="347.48,-325.08 355.46,-318.12 344.88,-318.58 347.48,-325.08"/>
</g>
<!-- CrushWrapper -->
<g id="node20" class="node">
<title>CrushWrapper</title>
<ellipse fill="#b2dfee" stroke="#b2dfee" cx="407.26" cy="-90" rx="80.67" ry="18"/>
<text text-anchor="middle" x="407.26" y="-85.33" font-family="Serif" font-size="14.00">CrushWrapper</text>
</g>
<!-- OSDMap&#45;&gt;CrushWrapper -->
<g id="edge19" class="edge">
<title>OSDMap&#45;&gt;CrushWrapper</title>
<path fill="none" stroke="black" d="M359.19,-144.41C366.69,-136.08 375.94,-125.8 384.32,-116.49"/>
<polygon fill="black" stroke="black" points="386.9,-118.86 390.99,-109.08 381.7,-114.17 386.9,-118.86"/>
</g>
<!-- ceph&#45;osd -->
<g id="node16" class="node">
<title>ceph&#45;osd</title>
<ellipse fill="#b2dfee" stroke="#b2dfee" cx="52.26" cy="-378" rx="52.26" ry="18"/>
<text text-anchor="middle" x="52.26" y="-373.32" font-family="Serif" font-size="14.00">ceph&#45;osd</text>
</g>
<!-- PG -->
<g id="node17" class="node">
<title>PG</title>
<ellipse fill="#b2dfee" stroke="#b2dfee" cx="162.26" cy="-306" rx="27" ry="18"/>
<text text-anchor="middle" x="162.26" y="-301.32" font-family="Serif" font-size="14.00">PG</text>
</g>
<!-- ceph&#45;osd&#45;&gt;PG -->
<g id="edge16" class="edge">
<title>ceph&#45;osd&#45;&gt;PG</title>
<path fill="none" stroke="black" d="M76.4,-361.64C93.37,-350.84 116.13,-336.35 133.96,-325.01"/>
<polygon fill="black" stroke="black" points="135.45,-328.21 142.01,-319.89 131.69,-322.3 135.45,-328.21"/>
</g>
<!-- ObjectStore -->
<g id="node18" class="node">
<title>ObjectStore</title>
<ellipse fill="#b2dfee" stroke="#b2dfee" cx="87.26" cy="-162" rx="65.94" ry="18"/>
<text text-anchor="middle" x="87.26" y="-157.32" font-family="Serif" font-size="14.00">ObjectStore</text>
</g>
<!-- ceph&#45;osd&#45;&gt;ObjectStore -->
<g id="edge17" class="edge">
<title>ceph&#45;osd&#45;&gt;ObjectStore</title>
<path fill="none" stroke="black" d="M55.07,-359.85C61.07,-323.14 75.21,-236.66 82.59,-191.53"/>
<polygon fill="black" stroke="black" points="86.04,-192.16 84.2,-181.73 79.13,-191.03 86.04,-192.16"/>
</g>
<!-- PG&#45;&gt;OSDMap -->
<g id="edge23" class="edge">
<title>PG&#45;&gt;OSDMap</title>
<path fill="none" stroke="black" d="M187.4,-298.95C214.24,-291.5 256.86,-276.69 286.26,-252 306.19,-235.26 321.77,-209.94 331.74,-190.58"/>
<polygon fill="black" stroke="black" points="334.88,-192.13 336.15,-181.61 328.6,-189.04 334.88,-192.13"/>
</g>
<!-- PG&#45;&gt;ObjectStore -->
<g id="edge22" class="edge">
<title>PG&#45;&gt;ObjectStore</title>
<path fill="none" stroke="black" d="M143.84,-292.28C131.32,-282.66 115.44,-268.34 106.26,-252 95.9,-233.55 91.18,-210.06 89.04,-191.84"/>
<polygon fill="black" stroke="black" points="92.53,-191.59 88.09,-181.97 85.56,-192.26 92.53,-191.59"/>
</g>
<!-- PrimaryLogPG -->
<g id="node22" class="node">
<title>PrimaryLogPG</title>
<ellipse fill="#b2dfee" stroke="#b2dfee" cx="196.26" cy="-234" rx="80.67" ry="18"/>
<text text-anchor="middle" x="196.26" y="-229.32" font-family="Serif" font-size="14.00">PrimaryLogPG</text>
</g>
<!-- PG&#45;&gt;PrimaryLogPG -->
<g id="edge21" class="edge">
<title>PG&#45;&gt;PrimaryLogPG</title>
<path fill="none" stroke="black" d="M170.32,-288.41C174.12,-280.59 178.74,-271.06 183.04,-262.23"/>
<polygon fill="black" stroke="black" points="186.14,-263.84 187.36,-253.32 179.85,-260.78 186.14,-263.84"/>
</g>
<!-- BlueStore -->
<g id="node23" class="node">
<title>BlueStore</title>
<ellipse fill="#b2dfee" stroke="#b2dfee" cx="87.26" cy="-90" rx="57" ry="18"/>
<text text-anchor="middle" x="87.26" y="-85.33" font-family="Serif" font-size="14.00">BlueStore</text>
</g>
<!-- ObjectStore&#45;&gt;BlueStore -->
<g id="edge26" class="edge">
<title>ObjectStore&#45;&gt;BlueStore</title>
<path fill="none" stroke="black" d="M87.26,-143.7C87.26,-136.41 87.26,-127.73 87.26,-119.54"/>
<polygon fill="black" stroke="black" points="90.76,-119.62 87.26,-109.62 83.76,-119.62 90.76,-119.62"/>
</g>
<!-- crushtool -->
<g id="node19" class="node">
<title>crushtool</title>
<ellipse fill="#b2dfee" stroke="#b2dfee" cx="470.26" cy="-162" rx="55.94" ry="18"/>
<text text-anchor="middle" x="470.26" y="-157.32" font-family="Serif" font-size="14.00">crushtool</text>
</g>
<!-- crushtool&#45;&gt;CrushWrapper -->
<g id="edge18" class="edge">
<title>crushtool&#45;&gt;CrushWrapper</title>
<path fill="none" stroke="black" d="M455.33,-144.41C447.83,-136.08 438.58,-125.8 430.2,-116.49"/>
<polygon fill="black" stroke="black" points="432.82,-114.17 423.53,-109.08 427.62,-118.86 432.82,-114.17"/>
</g>
<!-- OSDMapTool -->
<g id="node21" class="node">
<title>OSDMapTool</title>
<ellipse fill="#b2dfee" stroke="#b2dfee" cx="523.26" cy="-234" rx="72.78" ry="18"/>
<text text-anchor="middle" x="523.26" y="-229.32" font-family="Serif" font-size="14.00">OSDMapTool</text>
</g>
<!-- OSDMapTool&#45;&gt;OSDMap -->
<g id="edge20" class="edge">
<title>OSDMapTool&#45;&gt;OSDMap</title>
<path fill="none" stroke="black" d="M485.74,-218.33C457.34,-207.22 418.26,-191.94 388.37,-180.25"/>
<polygon fill="black" stroke="black" points="389.81,-177.05 379.22,-176.67 387.26,-183.57 389.81,-177.05"/>
</g>
<!-- PrimaryLogPG&#45;&gt;OSDMap -->
<g id="edge25" class="edge">
<title>PrimaryLogPG&#45;&gt;OSDMap</title>
<path fill="none" stroke="black" d="M229.47,-217.29C251.65,-206.8 280.92,-192.96 304.36,-181.87"/>
<polygon fill="black" stroke="black" points="305.76,-185.08 313.3,-177.64 302.76,-178.75 305.76,-185.08"/>
</g>
<!-- PrimaryLogPG&#45;&gt;ObjectStore -->
<g id="edge24" class="edge">
<title>PrimaryLogPG&#45;&gt;ObjectStore</title>
<path fill="none" stroke="black" d="M170.7,-216.59C156.11,-207.22 137.62,-195.34 121.76,-185.16"/>
<polygon fill="black" stroke="black" points="123.86,-182.34 113.55,-179.89 120.08,-188.23 123.86,-182.34"/>
</g>
<!-- rocksdb -->
<g id="node24" class="node">
<title>rocksdb</title>
<ellipse fill="#b2dfee" stroke="#b2dfee" cx="87.26" cy="-18" rx="48.05" ry="18"/>
<text text-anchor="middle" x="87.26" y="-13.32" font-family="Serif" font-size="14.00">rocksdb</text>
</g>
<!-- BlueStore&#45;&gt;rocksdb -->
<g id="edge27" class="edge">
<title>BlueStore&#45;&gt;rocksdb</title>
<path fill="none" stroke="black" d="M87.26,-71.7C87.26,-64.41 87.26,-55.73 87.26,-47.54"/>
<polygon fill="black" stroke="black" points="90.76,-47.62 87.26,-37.62 83.76,-47.62 90.76,-47.62"/>
</g>
</g>
</svg>
