<?xml version="1.0" encoding="UTF-8" standalone="no"?>
<!DOCTYPE svg PUBLIC "-//W3C//DTD SVG 1.1//EN"
 "http://www.w3.org/Graphics/SVG/1.1/DTD/svg11.dtd">
<!-- Generated by graphviz version 2.40.1 (20161225.0304)
 -->
<!-- Title: example Pages: 1 -->
<svg width="144pt" height="188pt"
 viewBox="0.00 0.00 144.50 188.00" xmlns="http://www.w3.org/2000/svg" xmlns:xlink="http://www.w3.org/1999/xlink">
<g id="graph0" class="graph" transform="scale(1 1) rotate(0) translate(4 184)">
<title>example</title>
<polygon fill="#ffffff" stroke="transparent" points="-4,4 -4,-184 140.4971,-184 140.4971,4 -4,4"/>
<!-- foo -->
<g id="node1" class="node">
<title>foo</title>
<ellipse fill="none" stroke="#000000" cx="65" cy="-162" rx="27" ry="18"/>
<text text-anchor="middle" x="65" y="-158.3" font-family="Times,serif" font-size="14.00" fill="#000000">foo</text>
</g>
<!-- bar -->
<g id="node2" class="node">
<title>bar</title>
<ellipse fill="none" stroke="#000000" cx="65" cy="-90" rx="27" ry="18"/>
<text text-anchor="middle" x="65" y="-86.3" font-family="Times,serif" font-size="14.00" fill="#000000">bar</text>
</g>
<!-- foo&#45;&gt;bar -->
<g id="edge1" class="edge">
<title>foo&#45;&gt;bar</title>
<path fill="none" stroke="#000000" d="M65,-143.8314C65,-136.131 65,-126.9743 65,-118.4166"/>
<polygon fill="#000000" stroke="#000000" points="68.5001,-118.4132 65,-108.4133 61.5001,-118.4133 68.5001,-118.4132"/>
</g>
<!-- baz -->
<g id="node3" class="node">
<title>baz</title>
<ellipse fill="none" stroke="#000000" cx="27" cy="-18" rx="27" ry="18"/>
<text text-anchor="middle" x="27" y="-14.3" font-family="Times,serif" font-size="14.00" fill="#000000">baz</text>
</g>
<!-- bar&#45;&gt;baz -->
<g id="edge2" class="edge">
<title>bar&#45;&gt;baz</title>
<path fill="none" stroke="#000000" d="M55.9945,-72.937C51.5172,-64.4537 46.0048,-54.0092 40.993,-44.513"/>
<polygon fill="#000000" stroke="#000000" points="43.9678,-42.6509 36.2048,-35.4407 37.7771,-45.9182 43.9678,-42.6509"/>
</g>
<!-- thud -->
<g id="node4" class="node">
<title>thud</title>
<ellipse fill="none" stroke="#000000" cx="104" cy="-18" rx="32.4942" ry="18"/>
<text text-anchor="middle" x="104" y="-14.3" font-family="Times,serif" font-size="14.00" fill="#000000">thud</text>
</g>
<!-- bar&#45;&gt;thud -->
<g id="edge3" class="edge">
<title>bar&#45;&gt;thud</title>
<path fill="none" stroke="#000000" d="M74.2425,-72.937C78.8376,-64.4537 84.495,-54.0092 89.6388,-44.513"/>
<polygon fill="#000000" stroke="#000000" points="92.8676,-45.9006 94.553,-35.4407 86.7126,-42.5666 92.8676,-45.9006"/>
</g>
</g>
</svg>
