<?xml version="1.0" encoding="UTF-8" standalone="no"?>
<!DOCTYPE svg PUBLIC "-//W3C//DTD SVG 1.1//EN"
 "http://www.w3.org/Graphics/SVG/1.1/DTD/svg11.dtd">
<!-- Generated by graphviz version 2.49.0 (20210828.1703)
 -->
<!-- Title: lossy_client Pages: 1 -->
<svg width="745pt" height="650pt"
 viewBox="0.00 0.00 744.84 650.48" xmlns="http://www.w3.org/2000/svg" xmlns:xlink="http://www.w3.org/1999/xlink">
<g id="graph0" class="graph" transform="scale(1 1) rotate(0) translate(4 646.48)">
<title>lossy_client</title>
<polygon fill="white" stroke="transparent" points="-4,4 -4,-646.48 740.84,-646.48 740.84,4 -4,4"/>
<!-- start_connect -->
<g id="node1" class="node">
<title>start_connect</title>
<ellipse fill="none" stroke="black" cx="77.44" cy="-565.04" rx="73.39" ry="73.39"/>
<ellipse fill="none" stroke="black" cx="77.44" cy="-565.04" rx="77.39" ry="77.39"/>
<text text-anchor="middle" x="77.44" y="-561.34" font-family="Times,serif" font-size="14.00">start_connect</text>
</g>
<!-- banner_connecting -->
<g id="node3" class="node">
<title>banner_connecting</title>
<ellipse fill="none" stroke="black" cx="307.44" cy="-418.59" rx="98.58" ry="18"/>
<text text-anchor="middle" x="307.44" y="-414.89" font-family="Times,serif" font-size="14.00">banner_connecting</text>
</g>
<!-- start_connect&#45;&gt;banner_connecting -->
<g id="edge1" class="edge">
<title>start_connect&#45;&gt;banner_connecting</title>
<path fill="none" stroke="black" d="M142.74,-523.03C184.92,-496.54 238.15,-463.11 272.49,-441.54"/>
<polygon fill="black" stroke="black" points="274.61,-444.34 281.22,-436.06 270.89,-438.42 274.61,-444.34"/>
<text text-anchor="middle" x="293.94" y="-458.39" font-family="Times,serif" font-size="14.00">&lt;connected&gt;</text>
</g>
<!-- closed -->
<g id="node2" class="node">
<title>closed</title>
<ellipse fill="none" stroke="black" cx="368.44" cy="-44.3" rx="40.11" ry="40.11"/>
<ellipse fill="none" stroke="black" cx="368.44" cy="-44.3" rx="44.09" ry="44.09"/>
<text text-anchor="middle" x="368.44" y="-40.6" font-family="Times,serif" font-size="14.00">closed</text>
</g>
<!-- hello_connecting -->
<g id="node4" class="node">
<title>hello_connecting</title>
<ellipse fill="none" stroke="black" cx="648.44" cy="-331.59" rx="88.28" ry="18"/>
<text text-anchor="middle" x="648.44" y="-327.89" font-family="Times,serif" font-size="14.00">hello_connecting</text>
</g>
<!-- banner_connecting&#45;&gt;hello_connecting -->
<g id="edge2" class="edge">
<title>banner_connecting&#45;&gt;hello_connecting</title>
<path fill="none" stroke="black" d="M402.03,-413.22C450.7,-408.82 510.37,-400.05 561.44,-382.59 581.06,-375.89 601.23,-364.62 617.21,-354.47"/>
<polygon fill="black" stroke="black" points="619.15,-357.38 625.62,-348.99 615.33,-351.52 619.15,-357.38"/>
<text text-anchor="middle" x="654.94" y="-371.39" font-family="Times,serif" font-size="14.00">banner exchange</text>
</g>
<!-- auth_connecting -->
<g id="node5" class="node">
<title>auth_connecting</title>
<ellipse fill="none" stroke="black" cx="182.44" cy="-331.59" rx="87.18" ry="18"/>
<text text-anchor="middle" x="182.44" y="-327.89" font-family="Times,serif" font-size="14.00">auth_connecting</text>
</g>
<!-- banner_connecting&#45;&gt;auth_connecting -->
<g id="edge4" class="edge">
<title>banner_connecting&#45;&gt;auth_connecting</title>
<path fill="none" stroke="black" d="M283.05,-401C263.69,-387.84 236.44,-369.31 215.19,-354.86"/>
<polygon fill="black" stroke="black" points="217.02,-351.87 206.78,-349.14 213.08,-357.66 217.02,-351.87"/>
<text text-anchor="middle" x="316.94" y="-371.39" font-family="Times,serif" font-size="14.00">&lt;exchange done&gt;</text>
</g>
<!-- hello_connecting&#45;&gt;banner_connecting -->
<g id="edge3" class="edge">
<title>hello_connecting&#45;&gt;banner_connecting</title>
<path fill="none" stroke="black" d="M583.8,-343.96C526.67,-354.01 452.11,-367.16 450.44,-367.59 418.6,-375.92 383.72,-388.05 356.38,-398.28"/>
<polygon fill="black" stroke="black" points="354.79,-395.14 346.67,-401.95 357.26,-401.69 354.79,-395.14"/>
<text text-anchor="middle" x="503.94" y="-371.39" font-family="Times,serif" font-size="14.00">hello exchange</text>
</g>
<!-- auth_connecting&#45;&gt;auth_connecting -->
<g id="edge5" class="edge">
<title>auth_connecting&#45;&gt;auth_connecting</title>
<path fill="none" stroke="black" d="M268.21,-335.09C279.81,-334.5 287.54,-333.34 287.54,-331.59 287.54,-330.42 284.05,-329.51 278.24,-328.86"/>
<polygon fill="black" stroke="black" points="278.45,-325.37 268.21,-328.1 277.92,-332.35 278.45,-325.37"/>
<text text-anchor="middle" x="345.04" y="-327.89" font-family="Times,serif" font-size="14.00">auth reply more</text>
</g>
<!-- auth_connecting&#45;&gt;auth_connecting -->
<g id="edge6" class="edge">
<title>auth_connecting&#45;&gt;auth_connecting</title>
<path fill="none" stroke="black" d="M262.54,-338.76C326.79,-340.81 402.54,-338.42 402.54,-331.59 402.54,-325.12 334.57,-322.64 272.79,-324.14"/>
<polygon fill="black" stroke="black" points="272.44,-320.65 262.54,-324.43 272.64,-327.65 272.44,-320.65"/>
<text text-anchor="middle" x="463.54" y="-327.89" font-family="Times,serif" font-size="14.00">auth bad method</text>
</g>
<!-- auth_connecting_sign -->
<g id="node6" class="node">
<title>auth_connecting_sign</title>
<ellipse fill="none" stroke="black" cx="199.44" cy="-244.59" rx="110.48" ry="18"/>
<text text-anchor="middle" x="199.44" y="-240.89" font-family="Times,serif" font-size="14.00">auth_connecting_sign</text>
</g>
<!-- auth_connecting&#45;&gt;auth_connecting_sign -->
<g id="edge7" class="edge">
<title>auth_connecting&#45;&gt;auth_connecting_sign</title>
<path fill="none" stroke="black" d="M185.88,-313.39C188.21,-301.76 191.33,-286.14 194,-272.83"/>
<polygon fill="black" stroke="black" points="197.48,-273.26 196.01,-262.77 190.62,-271.89 197.48,-273.26"/>
<text text-anchor="middle" x="227.44" y="-284.39" font-family="Times,serif" font-size="14.00">auth done</text>
</g>
<!-- session_connecting -->
<g id="node7" class="node">
<title>session_connecting</title>
<ellipse fill="none" stroke="black" cx="194.44" cy="-157.59" rx="100.18" ry="18"/>
<text text-anchor="middle" x="194.44" y="-153.89" font-family="Times,serif" font-size="14.00">session_connecting</text>
</g>
<!-- auth_connecting_sign&#45;&gt;session_connecting -->
<g id="edge8" class="edge">
<title>auth_connecting_sign&#45;&gt;session_connecting</title>
<path fill="none" stroke="black" d="M198.43,-226.39C197.75,-214.76 196.83,-199.14 196.05,-185.83"/>
<polygon fill="black" stroke="black" points="199.54,-185.55 195.45,-175.77 192.55,-185.96 199.54,-185.55"/>
<text text-anchor="middle" x="249.44" y="-197.39" font-family="Times,serif" font-size="14.00">auth signature</text>
</g>
<!-- session_connecting&#45;&gt;closed -->
<g id="edge11" class="edge">
<title>session_connecting&#45;&gt;closed</title>
<path fill="none" stroke="black" d="M239.54,-141.45C253.14,-136.05 267.8,-129.35 280.44,-121.59 297.91,-110.88 315.33,-96.69 330.02,-83.46"/>
<polygon fill="black" stroke="black" points="332.43,-85.99 337.43,-76.65 327.7,-80.83 332.43,-85.99"/>
<text text-anchor="middle" x="380.94" y="-110.39" font-family="Times,serif" font-size="14.00">ident missing features</text>
</g>
<!-- wait -->
<g id="node8" class="node">
<title>wait</title>
<ellipse fill="none" stroke="black" cx="82.44" cy="-44.3" rx="30.59" ry="18"/>
<text text-anchor="middle" x="82.44" y="-40.6" font-family="Times,serif" font-size="14.00">wait</text>
</g>
<!-- session_connecting&#45;&gt;wait -->
<g id="edge9" class="edge">
<title>session_connecting&#45;&gt;wait</title>
<path fill="none" stroke="black" d="M172.46,-139.77C165.55,-134.2 158.01,-127.82 151.44,-121.59 133.69,-104.74 115.16,-84.05 101.78,-68.47"/>
<polygon fill="black" stroke="black" points="104.43,-66.19 95.28,-60.84 99.1,-70.72 104.43,-66.19"/>
<text text-anchor="middle" x="166.94" y="-110.39" font-family="Times,serif" font-size="14.00">wait</text>
</g>
<!-- ready -->
<g id="node9" class="node">
<title>ready</title>
<ellipse fill="none" stroke="black" cx="178.44" cy="-44.3" rx="37.09" ry="18"/>
<text text-anchor="middle" x="178.44" y="-40.6" font-family="Times,serif" font-size="14.00">ready</text>
</g>
<!-- session_connecting&#45;&gt;ready -->
<g id="edge12" class="edge">
<title>session_connecting&#45;&gt;ready</title>
<g id="a_edge12"><a xlink:title="set peer_name, peer_addr and connection features">
<path fill="none" stroke="black" d="M191.94,-139.2C189.38,-121.4 185.37,-93.46 182.38,-72.69"/>
<polygon fill="black" stroke="black" points="185.81,-71.96 180.93,-62.56 178.88,-72.96 185.81,-71.96"/>
</a>
</g>
<text text-anchor="middle" x="232.44" y="-110.39" font-family="Times,serif" font-size="14.00">server ident</text>
</g>
<!-- wait&#45;&gt;start_connect -->
<g id="edge10" class="edge">
<title>wait&#45;&gt;start_connect</title>
<path fill="none" stroke="black" d="M77.25,-62.08C71.03,-83.71 61.44,-122.58 61.44,-156.59 61.44,-419.59 61.44,-419.59 61.44,-419.59 61.44,-438.61 62.83,-458.94 64.79,-478.18"/>
<polygon fill="black" stroke="black" points="61.31,-478.55 65.86,-488.12 68.27,-477.8 61.31,-478.55"/>
<text text-anchor="middle" x="99.44" y="-284.39" font-family="Times,serif" font-size="14.00">&lt;backoff&gt;</text>
</g>
<!-- ready&#45;&gt;ready -->
<g id="edge13" class="edge">
<title>ready&#45;&gt;ready</title>
<path fill="none" stroke="black" d="M205.92,-56.56C220.38,-58.54 233.49,-54.46 233.49,-44.3 233.49,-36.6 225.96,-32.38 216.02,-31.66"/>
<polygon fill="black" stroke="black" points="215.78,-28.17 205.92,-32.03 216.04,-35.16 215.78,-28.17"/>
<text text-anchor="middle" x="269.99" y="-40.6" font-family="Times,serif" font-size="14.00">keep alive</text>
</g>
</g>
</svg>
