<?xml version="1.0" encoding="UTF-8" standalone="no"?>
<!DOCTYPE svg PUBLIC "-//W3C//DTD SVG 1.1//EN"
 "http://www.w3.org/Graphics/SVG/1.1/DTD/svg11.dtd">
<!-- Generated by graphviz version 2.40.1 (20161225.0304)
 -->
<!-- Title: object_store Pages: 1 -->
<svg width="864pt" height="341pt"
 viewBox="0.00 0.00 864.00 341.45" xmlns="http://www.w3.org/2000/svg" xmlns:xlink="http://www.w3.org/1999/xlink">
<g id="graph0" class="graph" transform="scale(.7173 .7173) rotate(0) translate(4 472)">
<title>object_store</title>
<polygon fill="#ffffff" stroke="transparent" points="-4,4 -4,-472 1200.4458,-472 1200.4458,4 -4,4"/>
<!-- testrados -->
<g id="node1" class="node">
<title>testrados</title>
<ellipse fill="#b2dfee" stroke="#b2dfee" cx="836" cy="-378" rx="46.2923" ry="18"/>
<text text-anchor="middle" x="836" y="-374.3" font-family="Serif" font-size="14.00" fill="#000000">testrados</text>
</g>
<!-- librados -->
<g id="node2" class="node">
<title>librados</title>
<ellipse fill="#b2dfee" stroke="#b2dfee" cx="836" cy="-306" rx="42.4939" ry="18"/>
<text text-anchor="middle" x="836" y="-302.3" font-family="Serif" font-size="14.00" fill="#000000">librados</text>
</g>
<!-- testrados&#45;&gt;librados -->
<g id="edge1" class="edge">
<title>testrados&#45;&gt;librados</title>
<path fill="none" stroke="#000000" d="M836,-359.8314C836,-352.131 836,-342.9743 836,-334.4166"/>
<polygon fill="#000000" stroke="#000000" points="839.5001,-334.4132 836,-324.4133 832.5001,-334.4133 839.5001,-334.4132"/>
</g>
<!-- objecter -->
<g id="node9" class="node">
<title>objecter</title>
<ellipse fill="#b2dfee" stroke="#b2dfee" cx="363" cy="-234" rx="42.4939" ry="18"/>
<text text-anchor="middle" x="363" y="-230.3" font-family="Serif" font-size="14.00" fill="#000000">objecter</text>
</g>
<!-- librados&#45;&gt;objecter -->
<g id="edge8" class="edge">
<title>librados&#45;&gt;objecter</title>
<path fill="none" stroke="#000000" d="M793.9621,-303.4793C717.6257,-298.2698 551.4886,-284.0165 415,-252 411.4424,-251.1655 407.7871,-250.1785 404.1426,-249.1033"/>
<polygon fill="#000000" stroke="#000000" points="405.185,-245.7621 394.5954,-246.0949 403.0812,-252.4385 405.185,-245.7621"/>
</g>
<!-- testradospp -->
<g id="node3" class="node">
<title>testradospp</title>
<ellipse fill="#b2dfee" stroke="#b2dfee" cx="956" cy="-378" rx="55.7903" ry="18"/>
<text text-anchor="middle" x="956" y="-374.3" font-family="Serif" font-size="14.00" fill="#000000">testradospp</text>
</g>
<!-- testradospp&#45;&gt;librados -->
<g id="edge2" class="edge">
<title>testradospp&#45;&gt;librados</title>
<path fill="none" stroke="#000000" d="M929.3681,-362.0209C911.6048,-351.3629 888.1201,-337.2721 869.1481,-325.8889"/>
<polygon fill="#000000" stroke="#000000" points="870.8901,-322.8524 860.5144,-320.7087 867.2886,-328.8549 870.8901,-322.8524"/>
</g>
<!-- rbd -->
<g id="node4" class="node">
<title>rbd</title>
<ellipse fill="#b2dfee" stroke="#b2dfee" cx="1057" cy="-378" rx="27" ry="18"/>
<text text-anchor="middle" x="1057" y="-374.3" font-family="Serif" font-size="14.00" fill="#000000">rbd</text>
</g>
<!-- rbd&#45;&gt;librados -->
<g id="edge3" class="edge">
<title>rbd&#45;&gt;librados</title>
<path fill="none" stroke="#000000" d="M1035.9672,-366.6937C1031.1252,-364.3136 1025.9439,-361.9393 1021,-360 975.109,-341.9983 920.7636,-326.8312 882.8957,-317.1985"/>
<polygon fill="#000000" stroke="#000000" points="883.7079,-313.7938 873.1563,-314.7506 882.0015,-320.5827 883.7079,-313.7938"/>
</g>
<!-- radostool -->
<g id="node5" class="node">
<title>radostool</title>
<ellipse fill="#b2dfee" stroke="#b2dfee" cx="1149" cy="-378" rx="47.3916" ry="18"/>
<text text-anchor="middle" x="1149" y="-374.3" font-family="Serif" font-size="14.00" fill="#000000">radostool</text>
</g>
<!-- radostool&#45;&gt;librados -->
<g id="edge4" class="edge">
<title>radostool&#45;&gt;librados</title>
<path fill="none" stroke="#000000" d="M1113.3144,-365.9194C1106.6015,-363.8209 1099.6138,-361.7527 1093,-360 1021.3156,-341.0032 936.9727,-324.3467 884.9963,-314.7256"/>
<polygon fill="#000000" stroke="#000000" points="885.514,-311.2622 875.0459,-312.8966 884.2484,-318.1468 885.514,-311.2622"/>
</g>
<!-- radosgw&#45;admin -->
<g id="node6" class="node">
<title>radosgw&#45;admin</title>
<ellipse fill="#b2dfee" stroke="#b2dfee" cx="635" cy="-450" rx="72.2875" ry="18"/>
<text text-anchor="middle" x="635" y="-446.3" font-family="Serif" font-size="14.00" fill="#000000">radosgw&#45;admin</text>
</g>
<!-- radosgw -->
<g id="node7" class="node">
<title>radosgw</title>
<ellipse fill="#b2dfee" stroke="#b2dfee" cx="624" cy="-378" rx="44.393" ry="18"/>
<text text-anchor="middle" x="624" y="-374.3" font-family="Serif" font-size="14.00" fill="#000000">radosgw</text>
</g>
<!-- radosgw&#45;admin&#45;&gt;radosgw -->
<g id="edge5" class="edge">
<title>radosgw&#45;admin&#45;&gt;radosgw</title>
<path fill="none" stroke="#000000" d="M632.2242,-431.8314C631.0478,-424.131 629.6489,-414.9743 628.3414,-406.4166"/>
<polygon fill="#000000" stroke="#000000" points="631.7833,-405.7699 626.8131,-396.4133 624.8636,-406.8272 631.7833,-405.7699"/>
</g>
<!-- radosgw&#45;&gt;librados -->
<g id="edge6" class="edge">
<title>radosgw&#45;&gt;librados</title>
<path fill="none" stroke="#000000" d="M658.0615,-366.432C694.748,-353.9724 753.2024,-334.1199 793.024,-320.5956"/>
<polygon fill="#000000" stroke="#000000" points="794.3788,-323.8319 802.722,-317.302 792.1276,-317.2038 794.3788,-323.8319"/>
</g>
<!-- radosacl -->
<g id="node8" class="node">
<title>radosacl</title>
<ellipse fill="#b2dfee" stroke="#b2dfee" cx="729" cy="-378" rx="42.7926" ry="18"/>
<text text-anchor="middle" x="729" y="-374.3" font-family="Serif" font-size="14.00" fill="#000000">radosacl</text>
</g>
<!-- radosacl&#45;&gt;librados -->
<g id="edge7" class="edge">
<title>radosacl&#45;&gt;librados</title>
<path fill="none" stroke="#000000" d="M751.9542,-362.5542C767.3279,-352.2093 787.7623,-338.459 804.6324,-327.1072"/>
<polygon fill="#000000" stroke="#000000" points="806.7412,-329.9068 813.0838,-321.4203 802.8332,-324.0992 806.7412,-329.9068"/>
</g>
<!-- OSDMap -->
<g id="node15" class="node">
<title>OSDMap</title>
<ellipse fill="#b2dfee" stroke="#b2dfee" cx="328" cy="-162" rx="46.2923" ry="18"/>
<text text-anchor="middle" x="328" y="-158.3" font-family="Serif" font-size="14.00" fill="#000000">OSDMap</text>
</g>
<!-- objecter&#45;&gt;OSDMap -->
<g id="edge15" class="edge">
<title>objecter&#45;&gt;OSDMap</title>
<path fill="none" stroke="#000000" d="M354.3483,-216.2022C350.3519,-207.981 345.5199,-198.041 341.091,-188.9301"/>
<polygon fill="#000000" stroke="#000000" points="344.1932,-187.306 336.6735,-179.8425 337.8977,-190.3664 344.1932,-187.306"/>
</g>
<!-- ObjectCacher -->
<g id="node10" class="node">
<title>ObjectCacher</title>
<ellipse fill="#b2dfee" stroke="#b2dfee" cx="363" cy="-378" rx="63.8893" ry="18"/>
<text text-anchor="middle" x="363" y="-374.3" font-family="Serif" font-size="14.00" fill="#000000">ObjectCacher</text>
</g>
<!-- Filer -->
<g id="node11" class="node">
<title>Filer</title>
<ellipse fill="#b2dfee" stroke="#b2dfee" cx="363" cy="-306" rx="28.6953" ry="18"/>
<text text-anchor="middle" x="363" y="-302.3" font-family="Serif" font-size="14.00" fill="#000000">Filer</text>
</g>
<!-- ObjectCacher&#45;&gt;Filer -->
<g id="edge9" class="edge">
<title>ObjectCacher&#45;&gt;Filer</title>
<path fill="none" stroke="#000000" d="M363,-359.8314C363,-352.131 363,-342.9743 363,-334.4166"/>
<polygon fill="#000000" stroke="#000000" points="366.5001,-334.4132 363,-324.4133 359.5001,-334.4133 366.5001,-334.4132"/>
</g>
<!-- Filer&#45;&gt;objecter -->
<g id="edge14" class="edge">
<title>Filer&#45;&gt;objecter</title>
<path fill="none" stroke="#000000" d="M363,-287.8314C363,-280.131 363,-270.9743 363,-262.4166"/>
<polygon fill="#000000" stroke="#000000" points="366.5001,-262.4132 363,-252.4133 359.5001,-262.4133 366.5001,-262.4132"/>
</g>
<!-- dumpjournal -->
<g id="node12" class="node">
<title>dumpjournal</title>
<ellipse fill="#b2dfee" stroke="#b2dfee" cx="482" cy="-450" rx="62.2891" ry="18"/>
<text text-anchor="middle" x="482" y="-446.3" font-family="Serif" font-size="14.00" fill="#000000">dumpjournal</text>
</g>
<!-- Journaler -->
<g id="node13" class="node">
<title>Journaler</title>
<ellipse fill="#b2dfee" stroke="#b2dfee" cx="493" cy="-378" rx="48.1917" ry="18"/>
<text text-anchor="middle" x="493" y="-374.3" font-family="Serif" font-size="14.00" fill="#000000">Journaler</text>
</g>
<!-- dumpjournal&#45;&gt;Journaler -->
<g id="edge10" class="edge">
<title>dumpjournal&#45;&gt;Journaler</title>
<path fill="none" stroke="#000000" d="M484.7758,-431.8314C485.9522,-424.131 487.3511,-414.9743 488.6586,-406.4166"/>
<polygon fill="#000000" stroke="#000000" points="492.1364,-406.8272 490.1869,-396.4133 485.2167,-405.7699 492.1364,-406.8272"/>
</g>
<!-- Journaler&#45;&gt;Filer -->
<g id="edge11" class="edge">
<title>Journaler&#45;&gt;Filer</title>
<path fill="none" stroke="#000000" d="M466.0639,-363.0816C444.9798,-351.4042 415.6457,-335.1576 393.6622,-322.9821"/>
<polygon fill="#000000" stroke="#000000" points="395.1799,-319.8218 384.7362,-318.0385 391.7884,-325.9453 395.1799,-319.8218"/>
</g>
<!-- SyntheticClient -->
<g id="node14" class="node">
<title>SyntheticClient</title>
<ellipse fill="#b2dfee" stroke="#b2dfee" cx="210" cy="-378" rx="70.6878" ry="18"/>
<text text-anchor="middle" x="210" y="-374.3" font-family="Serif" font-size="14.00" fill="#000000">SyntheticClient</text>
</g>
<!-- SyntheticClient&#45;&gt;objecter -->
<g id="edge13" class="edge">
<title>SyntheticClient&#45;&gt;objecter</title>
<path fill="none" stroke="#000000" d="M228.7608,-360.3428C256.2729,-334.4491 307.6049,-286.1365 338.2003,-257.3409"/>
<polygon fill="#000000" stroke="#000000" points="340.6216,-259.8684 345.5049,-250.466 335.8241,-254.771 340.6216,-259.8684"/>
</g>
<!-- SyntheticClient&#45;&gt;Filer -->
<g id="edge12" class="edge">
<title>SyntheticClient&#45;&gt;Filer</title>
<path fill="none" stroke="#000000" d="M243.9557,-362.0209C269.873,-349.8245 305.3429,-333.1328 330.8118,-321.1474"/>
<polygon fill="#000000" stroke="#000000" points="332.4847,-324.2284 340.0426,-316.8035 329.5041,-317.8946 332.4847,-324.2284"/>
</g>
<!-- CrushWrapper -->
<g id="node20" class="node">
<title>CrushWrapper</title>
<ellipse fill="#b2dfee" stroke="#b2dfee" cx="384" cy="-90" rx="67.6881" ry="18"/>
<text text-anchor="middle" x="384" y="-86.3" font-family="Serif" font-size="14.00" fill="#000000">CrushWrapper</text>
</g>
<!-- OSDMap&#45;&gt;CrushWrapper -->
<g id="edge19" class="edge">
<title>OSDMap&#45;&gt;CrushWrapper</title>
<path fill="none" stroke="#000000" d="M341.556,-144.5708C348.2657,-135.9441 356.4992,-125.3582 363.9229,-115.8134"/>
<polygon fill="#000000" stroke="#000000" points="366.8031,-117.8112 370.1798,-107.7689 361.2776,-113.5136 366.8031,-117.8112"/>
</g>
<!-- ceph&#45;osd -->
<g id="node16" class="node">
<title>ceph&#45;osd</title>
<ellipse fill="#b2dfee" stroke="#b2dfee" cx="69" cy="-378" rx="46.2923" ry="18"/>
<text text-anchor="middle" x="69" y="-374.3" font-family="Serif" font-size="14.00" fill="#000000">ceph&#45;osd</text>
</g>
<!-- PG -->
<g id="node17" class="node">
<title>PG</title>
<ellipse fill="#b2dfee" stroke="#b2dfee" cx="167" cy="-306" rx="27" ry="18"/>
<text text-anchor="middle" x="167" y="-302.3" font-family="Serif" font-size="14.00" fill="#000000">PG</text>
</g>
<!-- ceph&#45;osd&#45;&gt;PG -->
<g id="edge16" class="edge">
<title>ceph&#45;osd&#45;&gt;PG</title>
<path fill="none" stroke="#000000" d="M90.7494,-362.0209C105.4037,-351.2544 124.826,-336.985 140.4008,-325.5423"/>
<polygon fill="#000000" stroke="#000000" points="142.6163,-328.2576 148.6029,-319.5162 138.4718,-322.6164 142.6163,-328.2576"/>
</g>
<!-- ObjectStore -->
<g id="node18" class="node">
<title>ObjectStore</title>
<ellipse fill="#b2dfee" stroke="#b2dfee" cx="101" cy="-162" rx="56.59" ry="18"/>
<text text-anchor="middle" x="101" y="-158.3" font-family="Serif" font-size="14.00" fill="#000000">ObjectStore</text>
</g>
<!-- ceph&#45;osd&#45;&gt;ObjectStore -->
<g id="edge17" class="edge">
<title>ceph&#45;osd&#45;&gt;ObjectStore</title>
<path fill="none" stroke="#000000" d="M71.6733,-359.9555C77.2497,-322.3144 90.1575,-235.1867 96.8334,-190.1246"/>
<polygon fill="#000000" stroke="#000000" points="100.3085,-190.5501 98.3118,-180.1451 93.3841,-189.5242 100.3085,-190.5501"/>
</g>
<!-- PG&#45;&gt;OSDMap -->
<g id="edge23" class="edge">
<title>PG&#45;&gt;OSDMap</title>
<path fill="none" stroke="#000000" d="M191.4491,-298.1588C214.8048,-289.7067 249.9194,-274.383 274,-252 292.9532,-234.383 307.4955,-208.6168 316.6883,-189.1635"/>
<polygon fill="#000000" stroke="#000000" points="319.9405,-190.4665 320.8851,-179.9139 313.566,-187.5742 319.9405,-190.4665"/>
</g>
<!-- PG&#45;&gt;ObjectStore -->
<g id="edge22" class="edge">
<title>PG&#45;&gt;ObjectStore</title>
<path fill="none" stroke="#000000" d="M150.668,-291.5013C140.3299,-281.4246 127.5363,-267.1299 120,-252 110.3579,-232.6424 105.6002,-208.5799 103.2574,-190.2071"/>
<polygon fill="#000000" stroke="#000000" points="106.7203,-189.6784 102.1384,-180.1256 99.763,-190.4507 106.7203,-189.6784"/>
</g>
<!-- PrimaryLogPG -->
<g id="node22" class="node">
<title>PrimaryLogPG</title>
<ellipse fill="#b2dfee" stroke="#b2dfee" cx="197" cy="-234" rx="67.6881" ry="18"/>
<text text-anchor="middle" x="197" y="-230.3" font-family="Serif" font-size="14.00" fill="#000000">PrimaryLogPG</text>
</g>
<!-- PG&#45;&gt;PrimaryLogPG -->
<g id="edge21" class="edge">
<title>PG&#45;&gt;PrimaryLogPG</title>
<path fill="none" stroke="#000000" d="M174.2622,-288.5708C177.6496,-280.4409 181.7621,-270.571 185.5532,-261.4722"/>
<polygon fill="#000000" stroke="#000000" points="188.876,-262.5975 189.4914,-252.0206 182.4144,-259.9052 188.876,-262.5975"/>
</g>
<!-- FileStore -->
<g id="node23" class="node">
<title>FileStore</title>
<ellipse fill="#b2dfee" stroke="#b2dfee" cx="101" cy="-90" rx="45.4919" ry="18"/>
<text text-anchor="middle" x="101" y="-86.3" font-family="Serif" font-size="14.00" fill="#000000">FileStore</text>
</g>
<!-- ObjectStore&#45;&gt;FileStore -->
<g id="edge26" class="edge">
<title>ObjectStore&#45;&gt;FileStore</title>
<path fill="none" stroke="#000000" d="M101,-143.8314C101,-136.131 101,-126.9743 101,-118.4166"/>
<polygon fill="#000000" stroke="#000000" points="104.5001,-118.4132 101,-108.4133 97.5001,-118.4133 104.5001,-118.4132"/>
</g>
<!-- crushtool -->
<g id="node19" class="node">
<title>crushtool</title>
<ellipse fill="#b2dfee" stroke="#b2dfee" cx="440" cy="-162" rx="47.3916" ry="18"/>
<text text-anchor="middle" x="440" y="-158.3" font-family="Serif" font-size="14.00" fill="#000000">crushtool</text>
</g>
<!-- crushtool&#45;&gt;CrushWrapper -->
<g id="edge18" class="edge">
<title>crushtool&#45;&gt;CrushWrapper</title>
<path fill="none" stroke="#000000" d="M426.444,-144.5708C419.7343,-135.9441 411.5008,-125.3582 404.0771,-115.8134"/>
<polygon fill="#000000" stroke="#000000" points="406.7224,-113.5136 397.8202,-107.7689 401.1969,-117.8112 406.7224,-113.5136"/>
</g>
<!-- OSDMapTool -->
<g id="node21" class="node">
<title>OSDMapTool</title>
<ellipse fill="#b2dfee" stroke="#b2dfee" cx="486" cy="-234" rx="62.2891" ry="18"/>
<text text-anchor="middle" x="486" y="-230.3" font-family="Serif" font-size="14.00" fill="#000000">OSDMapTool</text>
</g>
<!-- OSDMapTool&#45;&gt;OSDMap -->
<g id="edge20" class="edge">
<title>OSDMapTool&#45;&gt;OSDMap</title>
<path fill="none" stroke="#000000" d="M452.4923,-218.7307C427.6437,-207.4073 393.6862,-191.933 367.513,-180.0059"/>
<polygon fill="#000000" stroke="#000000" points="368.8048,-176.7484 358.2537,-175.7865 365.9021,-183.1182 368.8048,-176.7484"/>
</g>
<!-- PrimaryLogPG&#45;&gt;OSDMap -->
<g id="edge25" class="edge">
<title>PrimaryLogPG&#45;&gt;OSDMap</title>
<path fill="none" stroke="#000000" d="M226.7259,-217.6621C246.1904,-206.9641 271.7347,-192.9244 292.2988,-181.622"/>
<polygon fill="#000000" stroke="#000000" points="293.9874,-184.6878 301.0651,-176.8039 290.6157,-178.5533 293.9874,-184.6878"/>
</g>
<!-- PrimaryLogPG&#45;&gt;ObjectStore -->
<g id="edge24" class="edge">
<title>PrimaryLogPG&#45;&gt;ObjectStore</title>
<path fill="none" stroke="#000000" d="M174.2493,-216.937C161.4846,-207.3634 145.3894,-195.292 131.5396,-184.9047"/>
<polygon fill="#000000" stroke="#000000" points="133.3562,-181.8922 123.2562,-178.6921 129.1562,-187.4922 133.3562,-181.8922"/>
</g>
<!-- xfs -->
<g id="node24" class="node">
<title>xfs</title>
<ellipse fill="#b2dfee" stroke="#b2dfee" cx="27" cy="-18" rx="27" ry="18"/>
<text text-anchor="middle" x="27" y="-14.3" font-family="Serif" font-size="14.00" fill="#000000">xfs</text>
</g>
<!-- FileStore&#45;&gt;xfs -->
<g id="edge27" class="edge">
<title>FileStore&#45;&gt;xfs</title>
<path fill="none" stroke="#000000" d="M83.8369,-73.3008C73.7073,-63.4449 60.7613,-50.8489 49.7842,-40.1684"/>
<polygon fill="#000000" stroke="#000000" points="52.166,-37.6025 42.5579,-33.1374 47.2845,-42.6196 52.166,-37.6025"/>
</g>
<!-- btrfs -->
<g id="node25" class="node">
<title>btrfs</title>
<ellipse fill="#b2dfee" stroke="#b2dfee" cx="101" cy="-18" rx="28.6953" ry="18"/>
<text text-anchor="middle" x="101" y="-14.3" font-family="Serif" font-size="14.00" fill="#000000">btrfs</text>
</g>
<!-- FileStore&#45;&gt;btrfs -->
<g id="edge28" class="edge">
<title>FileStore&#45;&gt;btrfs</title>
<path fill="none" stroke="#000000" d="M101,-71.8314C101,-64.131 101,-54.9743 101,-46.4166"/>
<polygon fill="#000000" stroke="#000000" points="104.5001,-46.4132 101,-36.4133 97.5001,-46.4133 104.5001,-46.4132"/>
</g>
<!-- ext4 -->
<g id="node26" class="node">
<title>ext4</title>
<ellipse fill="#b2dfee" stroke="#b2dfee" cx="175" cy="-18" rx="27.0966" ry="18"/>
<text text-anchor="middle" x="175" y="-14.3" font-family="Serif" font-size="14.00" fill="#000000">ext4</text>
</g>
<!-- FileStore&#45;&gt;ext4 -->
<g id="edge29" class="edge">
<title>FileStore&#45;&gt;ext4</title>
<path fill="none" stroke="#000000" d="M118.1631,-73.3008C128.2927,-63.4449 141.2387,-50.8489 152.2158,-40.1684"/>
<polygon fill="#000000" stroke="#000000" points="154.7155,-42.6196 159.4421,-33.1374 149.834,-37.6025 154.7155,-42.6196"/>
</g>
</g>
</svg>
