<?xml version="1.0" encoding="UTF-8" standalone="no"?>
<!DOCTYPE svg PUBLIC "-//W3C//DTD SVG 1.1//EN"
 "http://www.w3.org/Graphics/SVG/1.1/DTD/svg11.dtd">
<!-- Generated by graphviz version 10.0.1 (20240210.2158)
 -->
<!-- Title: G Pages: 1 -->
<svg width="485pt" height="199pt"
 viewBox="0.00 0.00 485.25 199.25" xmlns="http://www.w3.org/2000/svg" xmlns:xlink="http://www.w3.org/1999/xlink">
<g id="graph0" class="graph" transform="scale(1 1) rotate(0) translate(4 195.25)">
<title>G</title>
<polygon fill="white" stroke="none" points="-4,4 -4,-195.25 481.25,-195.25 481.25,4 -4,4"/>
<!-- mgr -->
<g id="node1" class="node">
<title>mgr</title>
<polygon fill="none" stroke="black" points="7,-0.5 7,-36.5 124.25,-36.5 124.25,-0.5 7,-0.5"/>
<text text-anchor="middle" x="65.62" y="-14.2" font-family="Times,serif" font-size="14.00">ceph manager</text>
</g>
<!-- dashboard -->
<g id="node2" class="node">
<title>dashboard</title>
<polygon fill="none" stroke="black" points="0,-122.75 0,-158.75 129.25,-158.75 129.25,-122.75 0,-122.75"/>
<text text-anchor="middle" x="64.62" y="-136.07" font-family="Times,serif" font-size="14.00">ceph dashboard</text>
</g>
<!-- dashboard&#45;&gt;mgr -->
<g id="edge3" class="edge">
<title>dashboard:dashboard&#45;&gt;mgr</title>
<path fill="none" stroke="lightgreen" d="M64.78,-122.33C64.94,-102.68 65.2,-71.27 65.39,-48.34"/>
<polygon fill="lightgreen" stroke="lightgreen" points="68.89,-48.45 65.47,-38.42 61.89,-48.39 68.89,-48.45"/>
<text text-anchor="middle" x="74.62" y="-58.95" font-family="Times,serif" font-size="14.00"> 3.</text>
</g>
<!-- agent -->
<g id="node3" class="node">
<title>agent</title>
<polygon fill="none" stroke="black" points="147.38,-122.75 147.38,-158.75 203.88,-158.75 203.88,-122.75 147.38,-122.75"/>
<text text-anchor="middle" x="175.62" y="-136.07" font-family="Times,serif" font-size="14.00">agent</text>
</g>
<!-- agent&#45;&gt;mgr -->
<g id="edge2" class="edge">
<title>agent&#45;&gt;mgr</title>
<path fill="none" stroke="orange" d="M163.6,-122.27C156.66,-112.55 147.55,-100.4 138.62,-90.25 124.53,-74.23 107.47,-57.56 93.38,-44.43"/>
<polygon fill="orange" stroke="orange" points="95.89,-41.98 86.16,-37.77 91.14,-47.12 95.89,-41.98"/>
<text text-anchor="middle" x="130.62" y="-58.95" font-family="Times,serif" font-size="14.00"> 2.</text>
</g>
<!-- redfish -->
<g id="node4" class="node">
<title>redfish</title>
<polygon fill="none" stroke="black" points="142.5,-0.5 142.5,-36.5 208.75,-36.5 208.75,-0.5 142.5,-0.5"/>
<text text-anchor="middle" x="175.62" y="-13.82" font-family="Times,serif" font-size="14.00">redfish</text>
</g>
<!-- agent&#45;&gt;redfish -->
<g id="edge1" class="edge">
<title>agent&#45;&gt;redfish</title>
<path fill="none" stroke="green" d="M175.62,-122.26C175.62,-102.83 175.62,-71.15 175.62,-48.09"/>
<polygon fill="green" stroke="green" points="179.13,-48.13 175.63,-38.13 172.13,-48.13 179.13,-48.13"/>
<text text-anchor="middle" x="184.62" y="-58.95" font-family="Times,serif" font-size="14.00"> 1.</text>
</g>
<!-- legend -->
<g id="node5" class="node">
<title>legend</title>
<polygon fill="lightgrey" stroke="none" points="230,-164 230,-187.25 469.25,-187.25 469.25,-164 230,-164"/>
<polygon fill="none" stroke="black" points="230,-164 230,-187.25 469.25,-187.25 469.25,-164 230,-164"/>
<text text-anchor="start" x="323.38" y="-170.95" font-family="Times,serif" font-size="14.00">Legend</text>
<polygon fill="none" stroke="black" points="230,-140.75 230,-164 469.25,-164 469.25,-140.75 230,-140.75"/>
<text text-anchor="start" x="233" y="-147.7" font-family="Times,serif" font-size="14.00">1. Collects data from redfish API</text>
<polygon fill="none" stroke="black" points="230,-117.5 230,-140.75 469.25,-140.75 469.25,-117.5 230,-117.5"/>
<text text-anchor="start" x="233" y="-124.45" font-family="Times,serif" font-size="14.00">2. Pushes data to ceph mgr</text>
<polygon fill="none" stroke="black" points="230,-94.25 230,-117.5 469.25,-117.5 469.25,-94.25 230,-94.25"/>
<text text-anchor="start" x="233" y="-101.2" font-family="Times,serif" font-size="14.00">3. Query ceph mgr</text>
</g>
</g>
</svg>
