<?xml version="1.0" encoding="UTF-8" standalone="no"?>
<!DOCTYPE svg PUBLIC "-//W3C//DTD SVG 1.1//EN"
 "http://www.w3.org/Graphics/SVG/1.1/DTD/svg11.dtd">
<!-- Generated by graphviz version 2.49.0 (20210828.1703)
 -->
<!-- Pages: 1 -->
<svg width="779pt" height="460pt"
 viewBox="0.00 0.00 778.87 459.73" xmlns="http://www.w3.org/2000/svg" xmlns:xlink="http://www.w3.org/1999/xlink">
<g id="graph0" class="graph" transform="scale(1 1) rotate(0) translate(4 455.73)">
<polygon fill="white" stroke="transparent" points="-4,4 -4,-455.73 774.87,-455.73 774.87,4 -4,4"/>
<g id="clust1" class="cluster">
<title>cluster_lab</title>
<g id="a_clust1"><a xlink:href="https://wiki.sepia.ceph.com/doku.php" xlink:title="Sepia Lab">
<polygon fill="none" stroke="black" points="8,-174.73 8,-373.73 752.02,-373.73 752.02,-174.73 8,-174.73"/>
<text text-anchor="middle" x="380.01" y="-358.53" font-family="Times,serif" font-size="14.00">Sepia Lab</text>
</a>
</g>
</g>
<g id="clust2" class="cluster">
<title>cluster_jenkins</title>
<g id="a_clust2"><a xlink:href="https://jenkins.ceph.com" xlink:title="jenkins">
<polygon fill="none" stroke="black" points="16,-220.73 16,-311.73 377.28,-311.73 377.28,-220.73 16,-220.73"/>
<text text-anchor="middle" x="196.64" y="-296.53" font-family="Times,serif" font-size="14.00">jenkins</text>
</a>
</g>
</g>
<!-- github -->
<g id="node1" class="node">
<title>github</title>
<g id="a_node1"><a xlink:href="https://github.com/ceph/ceph" xlink:title="&lt;git&gt; git_repo | &lt;webhooks&gt; webhooks | &lt;api&gt; api">
<polygon fill="none" stroke="black" points="640.08,-382.23 640.08,-451.23 727.08,-451.23 727.08,-382.23 640.08,-382.23"/>
<text text-anchor="middle" x="683.58" y="-436.03" font-family="Times,serif" font-size="14.00">git_repo</text>
<polyline fill="none" stroke="black" points="640.08,-428.23 727.08,-428.23 "/>
<text text-anchor="middle" x="683.58" y="-413.03" font-family="Times,serif" font-size="14.00">webhooks</text>
<polyline fill="none" stroke="black" points="640.08,-405.23 727.08,-405.23 "/>
<text text-anchor="middle" x="683.58" y="-390.03" font-family="Times,serif" font-size="14.00">api</text>
</a>
</g>
</g>
<!-- jenkins_controller -->
<g id="node5" class="node">
<title>jenkins_controller</title>
<ellipse fill="none" stroke="black" cx="79.9" cy="-260.73" rx="55.79" ry="18"/>
<text text-anchor="middle" x="79.9" y="-257.03" font-family="Times,serif" font-size="14.00">controller</text>
</g>
<!-- github&#45;&gt;jenkins_controller -->
<g id="edge1" class="edge">
<title>github:webhooks&#45;&gt;jenkins_controller</title>
<path fill="none" stroke="crimson" d="M638.58,-416.73C526.66,-416.73 495.82,-428 387.28,-400.73 283.05,-374.55 170.58,-313.82 115.41,-281.63"/>
<polygon fill="crimson" stroke="crimson" points="117.13,-278.58 106.74,-276.53 113.59,-284.61 117.13,-278.58"/>
<text text-anchor="middle" x="319.04" y="-400.53" font-family="Times,serif" font-size="14.00">notify</text>
</g>
<!-- apt_mirror -->
<g id="node2" class="node">
<title>apt_mirror</title>
<g id="a_node2"><a xlink:href="http://apt-mirror.front.sepia.ceph.com" xlink:title="apt_mirror">
<ellipse fill="none" stroke="black" cx="683.58" cy="-200.73" rx="60.39" ry="18"/>
<text text-anchor="middle" x="683.58" y="-197.03" font-family="Times,serif" font-size="14.00">apt_mirror</text>
</a>
</g>
</g>
<!-- shaman -->
<g id="node3" class="node">
<title>shaman</title>
<g id="a_node3"><a xlink:href="https://shaman.ceph.com" xlink:title="shaman">
<ellipse fill="none" stroke="black" cx="683.58" cy="-254.73" rx="46.59" ry="18"/>
<text text-anchor="middle" x="683.58" y="-251.03" font-family="Times,serif" font-size="14.00">shaman</text>
</a>
</g>
</g>
<!-- chacra -->
<g id="node4" class="node">
<title>chacra</title>
<g id="a_node4"><a xlink:href="https://chacra.ceph.com" xlink:title="chacra">
<ellipse fill="none" stroke="black" cx="683.58" cy="-316.73" rx="41.68" ry="18"/>
<ellipse fill="none" stroke="black" cx="683.58" cy="-316.73" rx="45.69" ry="22"/>
<ellipse fill="none" stroke="black" cx="683.58" cy="-316.73" rx="49.69" ry="26"/>
<text text-anchor="middle" x="683.58" y="-313.03" font-family="Times,serif" font-size="14.00">chacra</text>
</a>
</g>
</g>
<!-- jenkins_agents -->
<g id="node6" class="node">
<title>jenkins_agents</title>
<ellipse fill="none" stroke="black" cx="319.04" cy="-254.73" rx="42.45" ry="18"/>
<ellipse fill="none" stroke="black" cx="319.04" cy="-254.73" rx="46.47" ry="22"/>
<ellipse fill="none" stroke="black" cx="319.04" cy="-254.73" rx="50.49" ry="26"/>
<text text-anchor="middle" x="319.04" y="-251.03" font-family="Times,serif" font-size="14.00">agents</text>
</g>
<!-- jenkins_controller&#45;&gt;jenkins_agents -->
<g id="edge2" class="edge">
<title>jenkins_controller&#45;&gt;jenkins_agents</title>
<path fill="none" stroke="black" d="M135.9,-259.34C172.54,-258.41 220.69,-257.2 258.27,-256.25"/>
<polygon fill="black" stroke="black" points="258.67,-259.74 268.58,-255.98 258.49,-252.74 258.67,-259.74"/>
<text text-anchor="middle" x="202.29" y="-262.53" font-family="Times,serif" font-size="14.00">schedule jobs</text>
</g>
<!-- jenkins_agents&#45;&gt;github -->
<g id="edge3" class="edge">
<title>jenkins_agents&#45;&gt;github:git</title>
<path fill="none" stroke="black" d="M328.82,-280.63C338.81,-305.79 357.68,-342.87 387.28,-361.73 459.43,-407.71 500.43,-350.25 578.28,-385.73 607.56,-399.08 603.92,-431.76 628.57,-438.5"/>
<polygon fill="black" stroke="black" points="628.22,-441.99 638.58,-439.73 629.08,-435.04 628.22,-441.99"/>
<text text-anchor="middle" x="482.78" y="-389.53" font-family="Times,serif" font-size="14.00">git pull</text>
</g>
<!-- jenkins_agents&#45;&gt;github -->
<g id="edge10" class="edge">
<title>jenkins_agents&#45;&gt;github:api</title>
<path fill="none" stroke="crimson" d="M337.45,-279.05C349.61,-294.02 367.22,-312.13 387.28,-321.73 464.31,-358.61 507.93,-294.33 578.28,-342.73 592.69,-352.65 583.23,-366.09 596.28,-377.73 608.46,-388.61 615.5,-392.37 628.49,-393.4"/>
<polygon fill="crimson" stroke="crimson" points="628.47,-396.9 638.58,-393.73 628.7,-389.91 628.47,-396.9"/>
<text text-anchor="middle" x="482.78" y="-346.53" font-family="Times,serif" font-size="14.00">update</text>
</g>
<!-- jenkins_agents&#45;&gt;apt_mirror -->
<g id="edge9" class="edge">
<title>jenkins_agents&#45;&gt;apt_mirror</title>
<path fill="none" stroke="black" d="M362.48,-241.65C370.65,-239.44 379.19,-237.35 387.28,-235.73 464.46,-220.36 554.42,-210.88 614.58,-205.73"/>
<polygon fill="black" stroke="black" points="615.04,-209.21 624.72,-204.88 614.46,-202.23 615.04,-209.21"/>
<text text-anchor="middle" x="482.78" y="-239.53" font-family="Times,serif" font-size="14.00">pull build dependencies</text>
</g>
<!-- jenkins_agents&#45;&gt;shaman -->
<g id="edge4" class="edge">
<title>jenkins_agents&#45;&gt;shaman</title>
<path fill="none" stroke="black" d="M369.31,-254.73C436.38,-254.73 556.13,-254.73 626.54,-254.73"/>
<polygon fill="black" stroke="black" points="626.56,-258.23 636.56,-254.73 626.56,-251.23 626.56,-258.23"/>
<text text-anchor="middle" x="482.78" y="-258.53" font-family="Times,serif" font-size="14.00">query for chacra repo URL</text>
</g>
<!-- jenkins_agents&#45;&gt;chacra -->
<g id="edge5" class="edge">
<title>jenkins_agents&#45;&gt;chacra</title>
<path fill="none" stroke="black" d="M362.88,-267.74C370.94,-269.93 379.33,-272.04 387.28,-273.73 468.95,-291.14 564.83,-303.67 624.66,-310.57"/>
<polygon fill="black" stroke="black" points="624.34,-314.06 634.67,-311.71 625.13,-307.1 624.34,-314.06"/>
<text text-anchor="middle" x="482.78" y="-307.53" font-family="Times,serif" font-size="14.00">pull build dependencies</text>
</g>
<!-- package_repos -->
<g id="node7" class="node">
<title>package_repos</title>
<ellipse fill="none" stroke="black" cx="683.58" cy="-138.73" rx="79.11" ry="18"/>
<ellipse fill="none" stroke="black" cx="683.58" cy="-138.73" rx="83.1" ry="22"/>
<ellipse fill="none" stroke="black" cx="683.58" cy="-138.73" rx="87.09" ry="26"/>
<text text-anchor="middle" x="683.58" y="-135.03" font-family="Times,serif" font-size="14.00">package_repos</text>
</g>
<!-- jenkins_agents&#45;&gt;package_repos -->
<g id="edge6" class="edge">
<title>jenkins_agents&#45;&gt;package_repos</title>
<path fill="none" stroke="black" d="M329.7,-228.99C340.04,-205.41 358.91,-171.82 387.28,-155.73 451.07,-119.56 535.58,-118.46 597.84,-124.55"/>
<polygon fill="black" stroke="black" points="597.71,-128.06 608.02,-125.63 598.45,-121.09 597.71,-128.06"/>
<text text-anchor="middle" x="482.78" y="-159.53" font-family="Times,serif" font-size="14.00">pull build dependencies</text>
</g>
<!-- pypi -->
<g id="node8" class="node">
<title>pypi</title>
<ellipse fill="none" stroke="black" cx="683.58" cy="-76.73" rx="30.59" ry="18"/>
<text text-anchor="middle" x="683.58" y="-73.03" font-family="Times,serif" font-size="14.00">pypi</text>
</g>
<!-- jenkins_agents&#45;&gt;pypi -->
<g id="edge7" class="edge">
<title>jenkins_agents&#45;&gt;pypi</title>
<path fill="none" stroke="black" d="M323.55,-228.62C329.74,-193.83 346.1,-133.23 387.28,-103.73 464.63,-48.34 584.2,-58.85 644.71,-68.98"/>
<polygon fill="black" stroke="black" points="644.15,-72.44 654.6,-70.73 645.36,-65.54 644.15,-72.44"/>
<text text-anchor="middle" x="482.78" y="-107.53" font-family="Times,serif" font-size="14.00">pull Python packages</text>
</g>
<!-- npm -->
<g id="node9" class="node">
<title>npm</title>
<ellipse fill="none" stroke="black" cx="683.58" cy="-22.73" rx="31.4" ry="18"/>
<text text-anchor="middle" x="683.58" y="-19.03" font-family="Times,serif" font-size="14.00">npm</text>
</g>
<!-- jenkins_agents&#45;&gt;npm -->
<g id="edge8" class="edge">
<title>jenkins_agents&#45;&gt;npm</title>
<path fill="none" stroke="black" d="M319.64,-228.4C320.54,-182.37 329.73,-87.92 387.28,-42.73 462.35,16.21 583.95,0.14 645.03,-13.11"/>
<polygon fill="black" stroke="black" points="644.48,-16.57 655.01,-15.37 646.02,-9.75 644.48,-16.57"/>
<text text-anchor="middle" x="482.78" y="-46.53" font-family="Times,serif" font-size="14.00">pull JavaScript packages</text>
</g>
</g>
</svg>
