<?xml version="1.0" encoding="UTF-8" standalone="no"?>
<!DOCTYPE svg PUBLIC "-//W3C//DTD SVG 1.1//EN"
 "http://www.w3.org/Graphics/SVG/1.1/DTD/svg11.dtd">
<!-- Generated by graphviz version 2.42.3 (20191010.1750)
 -->
<!-- Title: G Pages: 1 -->
<svg width="563pt" height="299pt"
 viewBox="0.00 0.00 563.00 299.00" xmlns="http://www.w3.org/2000/svg" xmlns:xlink="http://www.w3.org/1999/xlink">
<g id="graph0" class="graph" transform="scale(1 1) rotate(0) translate(4 295)">
<title>G</title>
<polygon fill="white" stroke="transparent" points="-4,4 -4,-295 559,-295 559,4 -4,4"/>
<g id="clust1" class="cluster">
<title>cluster_1</title>
<polygon fill="none" stroke="black" points="8,-64 8,-283 547,-283 547,-64 8,-64"/>
<text text-anchor="middle" x="277.5" y="-267.8" font-family="Times,serif" font-size="14.00">ceph&#45;mgr</text>
</g>
<!-- volumes -->
<g id="node1" class="node">
<title>volumes</title>
<ellipse fill="none" stroke="black" cx="468" cy="-234" rx="71.49" ry="18"/>
<text text-anchor="middle" x="468" y="-230.3" font-family="Times,serif" font-size="14.00">mgr/volumes</text>
</g>
<!-- orchestrator -->
<g id="node5" class="node">
<title>orchestrator</title>
<ellipse fill="none" stroke="black" cx="297" cy="-162" rx="115.88" ry="18"/>
<text text-anchor="middle" x="297" y="-158.3" font-family="Times,serif" font-size="14.00">Orchestrator Interface</text>
</g>
<!-- volumes&#45;&gt;orchestrator -->
<g id="edge1" class="edge">
<title>volumes&#45;&gt;orchestrator</title>
<path fill="none" stroke="black" d="M432.15,-218.33C407.01,-208.03 373.1,-194.15 345.54,-182.87"/>
<polygon fill="black" stroke="black" points="346.66,-179.55 336.08,-179 344.01,-186.02 346.66,-179.55"/>
</g>
<!-- rook -->
<g id="node2" class="node">
<title>rook</title>
<ellipse fill="none" stroke="black" cx="224" cy="-90" rx="53.09" ry="18"/>
<text text-anchor="middle" x="224" y="-86.3" font-family="Times,serif" font-size="14.00">mgr/rook</text>
</g>
<!-- rook_io -->
<g id="node7" class="node">
<title>rook_io</title>
<ellipse fill="none" stroke="black" cx="224" cy="-18" rx="33.6" ry="18"/>
<text text-anchor="middle" x="224" y="-14.3" font-family="Times,serif" font-size="14.00">Rook</text>
</g>
<!-- rook&#45;&gt;rook_io -->
<g id="edge5" class="edge">
<title>rook&#45;&gt;rook_io</title>
<path fill="none" stroke="black" d="M224,-71.7C224,-63.98 224,-54.71 224,-46.11"/>
<polygon fill="black" stroke="black" points="227.5,-46.1 224,-36.1 220.5,-46.1 227.5,-46.1"/>
</g>
<!-- dashboard -->
<g id="node3" class="node">
<title>dashboard</title>
<ellipse fill="none" stroke="black" cx="297" cy="-234" rx="81.49" ry="18"/>
<text text-anchor="middle" x="297" y="-230.3" font-family="Times,serif" font-size="14.00">mgr/dashboard</text>
</g>
<!-- dashboard&#45;&gt;orchestrator -->
<g id="edge2" class="edge">
<title>dashboard&#45;&gt;orchestrator</title>
<path fill="none" stroke="black" d="M297,-215.7C297,-207.98 297,-198.71 297,-190.11"/>
<polygon fill="black" stroke="black" points="300.5,-190.1 297,-180.1 293.5,-190.1 300.5,-190.1"/>
</g>
<!-- orchestrator_cli -->
<g id="node4" class="node">
<title>orchestrator_cli</title>
<ellipse fill="none" stroke="black" cx="107" cy="-234" rx="90.98" ry="18"/>
<text text-anchor="middle" x="107" y="-230.3" font-family="Times,serif" font-size="14.00">mgr/orchestrator</text>
</g>
<!-- orchestrator_cli&#45;&gt;orchestrator -->
<g id="edge3" class="edge">
<title>orchestrator_cli&#45;&gt;orchestrator</title>
<path fill="none" stroke="black" d="M148.23,-217.81C176.49,-207.4 214.23,-193.5 244.62,-182.3"/>
<polygon fill="black" stroke="black" points="246.03,-185.51 254.21,-178.77 243.61,-178.94 246.03,-185.51"/>
</g>
<!-- orchestrator&#45;&gt;rook -->
<g id="edge4" class="edge">
<title>orchestrator&#45;&gt;rook</title>
<path fill="none" stroke="black" d="M279.33,-144.05C270.05,-135.16 258.53,-124.11 248.41,-114.41"/>
<polygon fill="black" stroke="black" points="250.65,-111.7 241.01,-107.31 245.8,-116.75 250.65,-111.7"/>
</g>
<!-- cephadm -->
<g id="node6" class="node">
<title>cephadm</title>
<ellipse fill="none" stroke="black" cx="370" cy="-90" rx="74.99" ry="18"/>
<text text-anchor="middle" x="370" y="-86.3" font-family="Times,serif" font-size="14.00">mgr/cephadm</text>
</g>
<!-- orchestrator&#45;&gt;cephadm -->
<g id="edge6" class="edge">
<title>orchestrator&#45;&gt;cephadm</title>
<path fill="none" stroke="black" d="M314.67,-144.05C323.82,-135.28 335.14,-124.43 345.15,-114.83"/>
<polygon fill="black" stroke="black" points="347.7,-117.24 352.49,-107.79 342.85,-112.18 347.7,-117.24"/>
</g>
</g>
</svg>
