<?xml version="1.0" encoding="UTF-8" standalone="no"?>
<!DOCTYPE svg PUBLIC "-//W3C//DTD SVG 1.1//EN"
 "http://www.w3.org/Graphics/SVG/1.1/DTD/svg11.dtd">
<!-- Generated by graphviz version 2.42.1 (20190717.1914)
 -->
<!-- Title: G Pages: 1 -->
<svg width="504pt" height="150pt"
 viewBox="0.00 0.00 504.00 149.54" xmlns="http://www.w3.org/2000/svg" xmlns:xlink="http://www.w3.org/1999/xlink">
<g id="graph0" class="graph" transform="scale(7.51 7.51) rotate(0) translate(4 1119)">
<title>G</title>
<polygon fill="white" stroke="transparent" points="-4,4 -4,-1119 3781,-1119 3781,4 -4,4"/>
<g id="clust1" class="cluster">
<title>cluster0</title>
<polygon fill="none" stroke="blue" points="8,-8 8,-1107 3769,-1107 3769,-8 8,-8"/>
<text text-anchor="middle" x="1888.5" y="-1091.8" font-family="Times,serif" font-size="14.00">PeeringMachine</text>
</g>
<g id="clust2" class="cluster">
<title>cluster1</title>
<polygon fill="none" stroke="blue" points="16,-16 16,-1076 3128,-1076 3128,-16 16,-16"/>
<text text-anchor="middle" x="1572" y="-1060.8" font-family="Times,serif" font-size="14.00">Started</text>
</g>
<g id="clust3" class="cluster">
<title>cluster2</title>
<polygon fill="none" stroke="blue" points="1772,-24 1772,-945 3120,-945 3120,-24 1772,-24"/>
<text text-anchor="middle" x="2446" y="-929.8" font-family="Times,serif" font-size="14.00">Primary</text>
</g>
<g id="clust4" class="cluster">
<title>cluster3</title>
<polygon fill="none" stroke="blue" points="1780,-467 1780,-914 2090,-914 2090,-467 1780,-467"/>
<text text-anchor="middle" x="1935" y="-898.8" font-family="Times,serif" font-size="14.00">Peering</text>
</g>
<g id="clust5" class="cluster">
<title>cluster4</title>
<polygon fill="none" stroke="blue" points="2098,-32 2098,-783 2912,-783 2912,-32 2098,-32"/>
<text text-anchor="middle" x="2505" y="-767.8" font-family="Times,serif" font-size="14.00">Active</text>
</g>
<g id="clust6" class="cluster">
<title>cluster5</title>
<polygon fill="none" stroke="blue" points="417,-554 417,-914 1764,-914 1764,-554 417,-554"/>
<text text-anchor="middle" x="1090.5" y="-898.8" font-family="Times,serif" font-size="14.00">ReplicaActive</text>
</g>
<g id="clust7" class="cluster">
<title>cluster6</title>
<polygon fill="none" stroke="blue" points="24,-467 24,-652 409,-652 409,-467 24,-467"/>
<text text-anchor="middle" x="216.5" y="-636.8" font-family="Times,serif" font-size="14.00">ToDelete</text>
</g>
<!-- Crashed -->
<g id="node1" class="node">
<title>Crashed</title>
<ellipse fill="none" stroke="black" cx="3371" cy="-493" rx="49.29" ry="18"/>
<text text-anchor="middle" x="3371" y="-489.3" font-family="Times,serif" font-size="14.00">Crashed</text>
</g>
<!-- Initial -->
<g id="node2" class="node">
<title>Initial</title>
<polygon fill="none" stroke="black" points="3247,-1022 3192.54,-1004 3247,-986 3301.46,-1004 3247,-1022"/>
<polyline fill="none" stroke="black" points="3203.93,-1007.77 3203.93,-1000.23 "/>
<polyline fill="none" stroke="black" points="3235.61,-989.77 3258.39,-989.77 "/>
<polyline fill="none" stroke="black" points="3290.07,-1000.23 3290.07,-1007.77 "/>
<polyline fill="none" stroke="black" points="3258.39,-1018.23 3235.61,-1018.23 "/>
<text text-anchor="middle" x="3247" y="-1000.3" font-family="Times,serif" font-size="14.00">Initial</text>
</g>
<!-- Initial&#45;&gt;Crashed -->
<g id="edge12" class="edge">
<title>Initial&#45;&gt;Crashed</title>
<path fill="none" stroke="black" d="M3289.45,-999.93C3372.84,-991.36 3550,-959.45 3550,-843 3550,-843 3550,-843 3550,-579 3550,-524.66 3481.84,-505.01 3429.64,-497.94"/>
<polygon fill="black" stroke="black" points="3429.79,-494.43 3419.44,-496.69 3428.94,-501.38 3429.79,-494.43"/>
<text text-anchor="middle" x="3655.5" y="-707.3" font-family="Times,serif" font-size="14.00">boost::statechart::event_base</text>
</g>
<!-- Reset -->
<g id="node3" class="node">
<title>Reset</title>
<ellipse fill="none" stroke="black" cx="3173" cy="-580" rx="37.09" ry="18"/>
<text text-anchor="middle" x="3173" y="-576.3" font-family="Times,serif" font-size="14.00">Reset</text>
</g>
<!-- Initial&#45;&gt;Reset -->
<g id="edge27" class="edge">
<title>Initial&#45;&gt;Reset</title>
<path fill="none" stroke="black" d="M3258.13,-989.41C3286.11,-953.51 3353.93,-854.54 3307,-791 3299.82,-781.27 3289.29,-791.8 3281,-783 3242.41,-742.05 3278.43,-709.13 3251,-660 3238.32,-637.29 3217.34,-616.58 3200.33,-602.06"/>
<polygon fill="black" stroke="black" points="3202.29,-599.14 3192.36,-595.45 3197.82,-604.53 3202.29,-599.14"/>
<text text-anchor="middle" x="3345.5" y="-794.8" font-family="Times,serif" font-size="14.00">Initialize</text>
</g>
<!-- GetInfo -->
<g id="node6" class="node">
<title>GetInfo</title>
<polygon fill="none" stroke="black" points="2018,-860 1953.82,-842 2018,-824 2082.18,-842 2018,-860"/>
<polyline fill="none" stroke="black" points="1965.37,-845.24 1965.37,-838.76 "/>
<polyline fill="none" stroke="black" points="2006.45,-827.24 2029.55,-827.24 "/>
<polyline fill="none" stroke="black" points="2070.63,-838.76 2070.63,-845.24 "/>
<polyline fill="none" stroke="black" points="2029.55,-856.76 2006.45,-856.76 "/>
<text text-anchor="middle" x="2018" y="-838.3" font-family="Times,serif" font-size="14.00">GetInfo</text>
</g>
<!-- Initial&#45;&gt;GetInfo -->
<g id="edge16" class="edge">
<title>Initial&#45;&gt;GetInfo</title>
<path fill="none" stroke="black" d="M3228.26,-992.03C3206.12,-979.75 3167.78,-960.58 3132,-953 3104.94,-947.26 2204.3,-957.72 2096.1,-946.81"/>
<polygon fill="black" stroke="black" points="2096.46,-943.32 2086,-945 2095.23,-950.21 2096.46,-943.32"/>
<text text-anchor="middle" x="3219.5" y="-956.8" font-family="Times,serif" font-size="14.00">MNotifyRec</text>
</g>
<!-- Stray -->
<g id="node27" class="node">
<title>Stray</title>
<ellipse fill="none" stroke="black" cx="373" cy="-842" rx="36.29" ry="18"/>
<text text-anchor="middle" x="373" y="-838.3" font-family="Times,serif" font-size="14.00">Stray</text>
</g>
<!-- Initial&#45;&gt;Stray -->
<g id="edge19" class="edge">
<title>Initial&#45;&gt;Stray</title>
<path fill="none" stroke="black" d="M3212.89,-997.06C3190.07,-993.31 3159.32,-988.68 3132,-986 2831.31,-956.54 2755.03,-960.93 2453,-953 2438.84,-952.63 424.69,-953 413,-945 388.67,-928.33 379.14,-894.44 375.4,-870.3"/>
<polygon fill="black" stroke="black" points="378.86,-869.77 374.1,-860.31 371.92,-870.68 378.86,-869.77"/>
<text text-anchor="middle" x="2942.5" y="-956.8" font-family="Times,serif" font-size="14.00">MLogRec</text>
</g>
<!-- Initial&#45;&gt;Stray -->
<g id="edge45" class="edge">
<title>Initial&#45;&gt;Stray</title>
<path fill="none" stroke="black" d="M3213.41,-996.92C3190.55,-993.06 3159.55,-988.36 3132,-986 2798.9,-957.5 2714.13,-979.2 2380,-968 2225.28,-962.81 2186.77,-956.72 2032,-953 2020.76,-952.73 422.27,-951.36 413,-945 388.67,-928.32 379.14,-894.43 375.41,-870.29"/>
<polygon fill="black" stroke="black" points="378.87,-869.77 374.1,-860.3 371.93,-870.67 378.87,-869.77"/>
<text text-anchor="middle" x="2414.5" y="-956.8" font-family="Times,serif" font-size="14.00">MInfoRec</text>
</g>
<!-- Reset&#45;&gt;Crashed -->
<g id="edge13" class="edge">
<title>Reset&#45;&gt;Crashed</title>
<path fill="none" stroke="black" d="M3159.79,-563.1C3152.62,-552.47 3146.75,-538.7 3155,-529 3174.76,-505.78 3254.65,-497.92 3311.51,-495.28"/>
<polygon fill="black" stroke="black" points="3311.99,-498.77 3321.84,-494.85 3311.7,-491.77 3311.99,-498.77"/>
<text text-anchor="middle" x="3260.5" y="-532.8" font-family="Times,serif" font-size="14.00">boost::statechart::event_base</text>
</g>
<!-- Start -->
<g id="node4" class="node">
<title>Start</title>
<polygon fill="none" stroke="black" points="2018,-1022 1969.07,-1004 2018,-986 2066.93,-1004 2018,-1022"/>
<polyline fill="none" stroke="black" points="1980.33,-1008.14 1980.33,-999.86 "/>
<polyline fill="none" stroke="black" points="2006.74,-990.14 2029.26,-990.14 "/>
<polyline fill="none" stroke="black" points="2055.67,-999.86 2055.67,-1008.14 "/>
<polyline fill="none" stroke="black" points="2029.26,-1017.86 2006.74,-1017.86 "/>
<text text-anchor="middle" x="2018" y="-1000.3" font-family="Times,serif" font-size="14.00">Start</text>
</g>
<!-- Reset&#45;&gt;Start -->
<g id="edge34" class="edge">
<title>Reset&#45;&gt;Start</title>
<path fill="none" stroke="black" d="M3168.15,-597.87C3163.65,-613.8 3156.93,-638.42 3152,-660 3138.53,-718.97 3168.83,-756.92 3135.07,-795.33"/>
<polygon fill="black" stroke="black" points="3132.52,-792.94 3128,-802.52 3137.51,-797.85 3132.52,-792.94"/>
<text text-anchor="middle" x="3165.5" y="-794.8" font-family="Times,serif" font-size="14.00">ActMap</text>
</g>
<!-- Start&#45;&gt;Crashed -->
<g id="edge14" class="edge">
<title>Start&#45;&gt;Crashed</title>
<path fill="none" stroke="black" d="M3128,-882.12C3177.01,-846.88 3222.6,-808.8 3245,-783 3323.06,-693.1 3332.62,-658.29 3366,-544 3368.09,-536.83 3369.35,-528.86 3370.09,-521.43"/>
<polygon fill="black" stroke="black" points="3373.58,-521.65 3370.83,-511.42 3366.6,-521.14 3373.58,-521.65"/>
<text text-anchor="middle" x="3416.5" y="-707.3" font-family="Times,serif" font-size="14.00">boost::statechart::event_base</text>
</g>
<!-- Start&#45;&gt;Reset -->
<g id="edge59" class="edge">
<title>Start&#45;&gt;Reset</title>
<path fill="none" stroke="black" d="M3128,-976.32C3180.85,-974.23 3214.07,-971.52 3218,-968 3240.82,-947.52 3249.26,-722.53 3241,-693 3231.69,-659.74 3209.5,-626.53 3192.99,-605.01"/>
<polygon fill="black" stroke="black" points="3195.69,-602.79 3186.75,-597.09 3190.19,-607.12 3195.69,-602.79"/>
<text text-anchor="middle" x="3272.5" y="-794.8" font-family="Times,serif" font-size="14.00">AdvMap</text>
</g>
<!-- Start&#45;&gt;GetInfo -->
<g id="edge11" class="edge">
<title>Start&#45;&gt;GetInfo</title>
<path fill="none" stroke="black" d="M1983.69,-998.55C1964.76,-994.15 1942.76,-985.4 1931,-968 1928.15,-963.78 1926.22,-959.49 1925.09,-955.15"/>
<polygon fill="black" stroke="black" points="1928.53,-954.5 1923.84,-945 1921.59,-955.35 1928.53,-954.5"/>
<text text-anchor="middle" x="1979.5" y="-956.8" font-family="Times,serif" font-size="14.00">MakePrimary</text>
</g>
<!-- Start&#45;&gt;Stray -->
<g id="edge65" class="edge">
<title>Start&#45;&gt;Stray</title>
<path fill="none" stroke="black" d="M1979.21,-1000.21C1854.82,-991.41 1454.68,-964.13 1123,-953 1113.14,-952.67 421.12,-950.6 413,-945 388.73,-928.25 379.18,-894.37 375.43,-870.26"/>
<polygon fill="black" stroke="black" points="378.89,-869.74 374.12,-860.28 371.95,-870.65 378.89,-869.74"/>
<text text-anchor="middle" x="1482.5" y="-956.8" font-family="Times,serif" font-size="14.00">MakeStray</text>
</g>
<!-- WaitActingChange -->
<g id="node5" class="node">
<title>WaitActingChange</title>
<ellipse fill="none" stroke="black" cx="3016" cy="-711" rx="96.38" ry="18"/>
<text text-anchor="middle" x="3016" y="-707.3" font-family="Times,serif" font-size="14.00">WaitActingChange</text>
</g>
<!-- WaitActingChange&#45;&gt;Reset -->
<g id="edge62" class="edge">
<title>WaitActingChange&#45;&gt;Reset</title>
<path fill="none" stroke="black" d="M3032,-693.2C3041.79,-683.21 3054.75,-670.48 3067,-660 3092.09,-638.52 3122.47,-616.23 3144.26,-600.82"/>
<polygon fill="black" stroke="black" points="3146.28,-603.68 3152.45,-595.07 3142.25,-597.95 3146.28,-603.68"/>
<text text-anchor="middle" x="3096.5" y="-663.8" font-family="Times,serif" font-size="14.00">AdvMap</text>
</g>
<!-- GetInfo&#45;&gt;Reset -->
<g id="edge60" class="edge">
<title>GetInfo&#45;&gt;Reset</title>
<path fill="none" stroke="black" d="M2090,-823.73C2167.41,-820.34 3180.78,-827.57 3202,-806 3206.68,-801.25 3205.74,-796.52 3202,-791 3196.63,-783.07 3187.54,-790.81 3182,-783 3144.8,-730.6 3156.2,-649.85 3165.72,-608.09"/>
<polygon fill="black" stroke="black" points="3169.18,-608.65 3168.13,-598.11 3162.38,-607.01 3169.18,-608.65"/>
<text text-anchor="middle" x="3211.5" y="-707.3" font-family="Times,serif" font-size="14.00">AdvMap</text>
</g>
<!-- GetInfo&#45;&gt;WaitActingChange -->
<g id="edge1" class="edge">
<title>GetInfo&#45;&gt;WaitActingChange</title>
<path fill="none" stroke="black" d="M2048.24,-832.31C2059.95,-829.25 2073.51,-826.06 2086,-824 2263.76,-794.72 2310.07,-800.03 2490,-791 2513.64,-789.81 2893.52,-790.4 2916,-783 2944.84,-773.5 2972.59,-752.55 2991.5,-735.85"/>
<polygon fill="black" stroke="black" points="2994,-738.32 2999.05,-729 2989.29,-733.14 2994,-738.32"/>
<text text-anchor="middle" x="2559" y="-794.8" font-family="Times,serif" font-size="14.00">NeedActingChange</text>
</g>
<!-- GetLog -->
<g id="node7" class="node">
<title>GetLog</title>
<ellipse fill="none" stroke="black" cx="1914" cy="-711" rx="44.39" ry="18"/>
<text text-anchor="middle" x="1914" y="-707.3" font-family="Times,serif" font-size="14.00">GetLog</text>
</g>
<!-- GetInfo&#45;&gt;GetLog -->
<g id="edge58" class="edge">
<title>GetInfo&#45;&gt;GetLog</title>
<path fill="none" stroke="black" d="M1970.71,-837.19C1928.45,-832.69 1871.09,-823.48 1857,-806 1838.47,-783 1863.17,-753.46 1885.61,-733.69"/>
<polygon fill="black" stroke="black" points="1887.99,-736.25 1893.38,-727.13 1883.48,-730.91 1887.99,-736.25"/>
<text text-anchor="middle" x="1884" y="-794.8" font-family="Times,serif" font-size="14.00">GotInfo</text>
</g>
<!-- Down -->
<g id="node10" class="node">
<title>Down</title>
<ellipse fill="none" stroke="black" cx="2020" cy="-711" rx="37.09" ry="18"/>
<text text-anchor="middle" x="2020" y="-707.3" font-family="Times,serif" font-size="14.00">Down</text>
</g>
<!-- GetInfo&#45;&gt;Down -->
<g id="edge47" class="edge">
<title>GetInfo&#45;&gt;Down</title>
<path fill="none" stroke="black" d="M2018.27,-823.87C2018.6,-802.28 2019.18,-764.91 2019.58,-739.35"/>
<polygon fill="black" stroke="black" points="2023.08,-739.25 2019.73,-729.2 2016.08,-739.15 2023.08,-739.25"/>
<text text-anchor="middle" x="2045" y="-794.8" font-family="Times,serif" font-size="14.00">IsDown</text>
</g>
<!-- Activating -->
<g id="node22" class="node">
<title>Activating</title>
<polygon fill="none" stroke="black" points="2222,-729 2140.39,-711 2222,-693 2303.61,-711 2222,-729"/>
<polyline fill="none" stroke="black" points="2152.11,-713.58 2152.11,-708.42 "/>
<polyline fill="none" stroke="black" points="2210.28,-695.58 2233.72,-695.58 "/>
<polyline fill="none" stroke="black" points="2291.89,-708.42 2291.89,-713.58 "/>
<polyline fill="none" stroke="black" points="2233.72,-726.42 2210.28,-726.42 "/>
<text text-anchor="middle" x="2222" y="-707.3" font-family="Times,serif" font-size="14.00">Activating</text>
</g>
<!-- GetInfo&#45;&gt;Activating -->
<g id="edge56" class="edge">
<title>GetInfo&#45;&gt;Activating</title>
<path fill="none" stroke="black" d="M2090,-797.23C2094.59,-794.34 2099.21,-791.42 2103.85,-788.48"/>
<polygon fill="black" stroke="black" points="2105.92,-791.31 2112.48,-783 2102.17,-785.4 2105.92,-791.31"/>
<text text-anchor="middle" x="2125.5" y="-794.8" font-family="Times,serif" font-size="14.00">Activate</text>
</g>
<!-- GetLog&#45;&gt;Reset -->
<g id="edge61" class="edge">
<title>GetLog&#45;&gt;Reset</title>
<path fill="none" stroke="black" d="M1946.99,-699.01C1955.68,-696.57 1965.11,-694.32 1974,-693 2181.09,-662.21 2710.2,-713.49 2916,-675 2927.21,-672.9 3066.25,-621.05 3135,-595.27"/>
<polygon fill="black" stroke="black" points="3136.48,-598.46 3144.62,-591.67 3134.02,-591.9 3136.48,-598.46"/>
<text text-anchor="middle" x="2988.5" y="-663.8" font-family="Times,serif" font-size="14.00">AdvMap</text>
</g>
<!-- GetMissing -->
<g id="node8" class="node">
<title>GetMissing</title>
<ellipse fill="none" stroke="black" cx="2018" cy="-580" rx="63.89" ry="18"/>
<text text-anchor="middle" x="2018" y="-576.3" font-family="Times,serif" font-size="14.00">GetMissing</text>
</g>
<!-- GetLog&#45;&gt;GetMissing -->
<g id="edge15" class="edge">
<title>GetLog&#45;&gt;GetMissing</title>
<path fill="none" stroke="black" d="M1948.42,-699.5C1968.88,-692.59 1992.14,-683.31 1999,-675 2014.27,-656.49 2018.37,-629.04 2019.03,-608.57"/>
<polygon fill="black" stroke="black" points="2022.54,-608.33 2019.11,-598.31 2015.54,-608.28 2022.54,-608.33"/>
<text text-anchor="middle" x="2033" y="-663.8" font-family="Times,serif" font-size="14.00">GotLog</text>
</g>
<!-- Incomplete -->
<g id="node11" class="node">
<title>Incomplete</title>
<ellipse fill="none" stroke="black" cx="1874" cy="-580" rx="62.29" ry="18"/>
<text text-anchor="middle" x="1874" y="-576.3" font-family="Times,serif" font-size="14.00">Incomplete</text>
</g>
<!-- GetLog&#45;&gt;Incomplete -->
<g id="edge54" class="edge">
<title>GetLog&#45;&gt;Incomplete</title>
<path fill="none" stroke="black" d="M1908.69,-692.87C1901.96,-671.18 1890.3,-633.58 1882.38,-608.01"/>
<polygon fill="black" stroke="black" points="1885.64,-606.72 1879.33,-598.2 1878.95,-608.79 1885.64,-606.72"/>
<text text-anchor="middle" x="1948.5" y="-663.8" font-family="Times,serif" font-size="14.00">IsIncomplete</text>
</g>
<!-- WaitUpThru -->
<g id="node9" class="node">
<title>WaitUpThru</title>
<ellipse fill="none" stroke="black" cx="1989" cy="-493" rx="66.89" ry="18"/>
<text text-anchor="middle" x="1989" y="-489.3" font-family="Times,serif" font-size="14.00">WaitUpThru</text>
</g>
<!-- GetMissing&#45;&gt;WaitUpThru -->
<g id="edge36" class="edge">
<title>GetMissing&#45;&gt;WaitUpThru</title>
<path fill="none" stroke="black" d="M2008.76,-561.87C2006,-556.29 2003.14,-549.98 2001,-544 1998.42,-536.8 1996.23,-528.82 1994.45,-521.39"/>
<polygon fill="black" stroke="black" points="1997.81,-520.39 1992.21,-511.39 1990.98,-521.92 1997.81,-520.39"/>
<text text-anchor="middle" x="2047.5" y="-532.8" font-family="Times,serif" font-size="14.00">NeedUpThru</text>
</g>
<!-- Down&#45;&gt;GetInfo -->
<g id="edge17" class="edge">
<title>Down&#45;&gt;GetInfo</title>
<path fill="none" stroke="black" d="M2012.24,-728.72C2003.62,-745.3 1988.1,-770.04 1967,-783 1958,-788.53 1896.29,-770.82 1921,-806 1931.02,-820.27 1947.45,-828.75 1963.97,-833.77"/>
<polygon fill="black" stroke="black" points="1963.1,-837.16 1973.66,-836.35 1964.9,-830.4 1963.1,-837.16"/>
<text text-anchor="middle" x="1963.5" y="-794.8" font-family="Times,serif" font-size="14.00">MNotifyRec</text>
</g>
<!-- Incomplete&#45;&gt;Reset -->
<g id="edge63" class="edge">
<title>Incomplete&#45;&gt;Reset</title>
<path fill="none" stroke="black" d="M1885.31,-597.87C1897.58,-615.4 1918.94,-641.06 1945,-652 1989.99,-670.88 2869.09,-658.49 2916,-652 2995.01,-641.06 3083.97,-612.28 3133.77,-594.6"/>
<polygon fill="black" stroke="black" points="3135.26,-597.78 3143.49,-591.11 3132.89,-591.19 3135.26,-597.78"/>
<text text-anchor="middle" x="2377" y="-663.8" font-family="Times,serif" font-size="14.00">AdvMap</text>
</g>
<!-- Incomplete&#45;&gt;GetLog -->
<g id="edge18" class="edge">
<title>Incomplete&#45;&gt;GetLog</title>
<path fill="none" stroke="black" d="M1849.16,-596.69C1822.69,-615.4 1787.12,-647.58 1807,-675 1819.37,-692.06 1840.29,-700.95 1860.37,-705.54"/>
<polygon fill="black" stroke="black" points="1859.94,-709.02 1870.43,-707.51 1861.29,-702.15 1859.94,-709.02"/>
<text text-anchor="middle" x="1849.5" y="-663.8" font-family="Times,serif" font-size="14.00">MNotifyRec</text>
</g>
<!-- Clean -->
<g id="node12" class="node">
<title>Clean</title>
<ellipse fill="none" stroke="black" cx="2825" cy="-711" rx="37.09" ry="18"/>
<text text-anchor="middle" x="2825" y="-707.3" font-family="Times,serif" font-size="14.00">Clean</text>
</g>
<!-- WaitLocalRecoveryReserved -->
<g id="node21" class="node">
<title>WaitLocalRecoveryReserved</title>
<ellipse fill="none" stroke="black" cx="2688" cy="-580" rx="141.88" ry="18"/>
<text text-anchor="middle" x="2688" y="-576.3" font-family="Times,serif" font-size="14.00">WaitLocalRecoveryReserved</text>
</g>
<!-- Clean&#45;&gt;WaitLocalRecoveryReserved -->
<g id="edge6" class="edge">
<title>Clean&#45;&gt;WaitLocalRecoveryReserved</title>
<path fill="none" stroke="black" d="M2808.75,-694.7C2785.16,-672.49 2741.24,-631.13 2713.37,-604.89"/>
<polygon fill="black" stroke="black" points="2715.65,-602.23 2705.97,-597.92 2710.85,-607.32 2715.65,-602.23"/>
<text text-anchor="middle" x="2827" y="-663.8" font-family="Times,serif" font-size="14.00">DoRecovery</text>
</g>
<!-- Recovered -->
<g id="node13" class="node">
<title>Recovered</title>
<ellipse fill="none" stroke="black" cx="2844" cy="-58" rx="59.59" ry="18"/>
<text text-anchor="middle" x="2844" y="-54.3" font-family="Times,serif" font-size="14.00">Recovered</text>
</g>
<!-- Recovered&#45;&gt;Clean -->
<g id="edge10" class="edge">
<title>Recovered&#45;&gt;Clean</title>
<path fill="none" stroke="black" d="M2864.3,-75.25C2881.37,-90.87 2903,-116.16 2903,-144 2903,-276.5 2903,-276.5 2903,-276.5 2903,-287.6 2879.43,-665.32 2874,-675 2870.31,-681.58 2864.8,-687.23 2858.79,-691.96"/>
<polygon fill="black" stroke="black" points="2856.6,-689.22 2850.42,-697.82 2860.62,-694.95 2856.6,-689.22"/>
<text text-anchor="middle" x="2928.5" y="-358.8" font-family="Times,serif" font-size="14.00">GoClean</text>
</g>
<!-- Recovered&#45;&gt;WaitLocalRecoveryReserved -->
<g id="edge7" class="edge">
<title>Recovered&#45;&gt;WaitLocalRecoveryReserved</title>
<path fill="none" stroke="black" d="M2853.52,-75.79C2871.71,-110.26 2907.1,-190.74 2878,-250 2861.66,-283.28 2828.34,-267.72 2812,-301 2804.95,-315.36 2809.22,-321.24 2812,-337 2819.42,-379.1 2825.47,-391.3 2853,-424 2861.36,-433.93 2870.31,-430.33 2876,-442 2878.92,-447.99 2879.18,-451.14 2876,-457 2848.52,-507.59 2789.99,-540.46 2745.5,-559.19"/>
<polygon fill="black" stroke="black" points="2744.16,-555.95 2736.23,-562.97 2746.81,-562.43 2744.16,-555.95"/>
<text text-anchor="middle" x="2855" y="-315.3" font-family="Times,serif" font-size="14.00">DoRecovery</text>
</g>
<!-- Backfilling -->
<g id="node14" class="node">
<title>Backfilling</title>
<ellipse fill="none" stroke="black" cx="2235" cy="-145" rx="59.59" ry="18"/>
<text text-anchor="middle" x="2235" y="-141.3" font-family="Times,serif" font-size="14.00">Backfilling</text>
</g>
<!-- Backfilling&#45;&gt;Recovered -->
<g id="edge41" class="edge">
<title>Backfilling&#45;&gt;Recovered</title>
<path fill="none" stroke="black" d="M2278.99,-132.61C2288.81,-130.43 2299.21,-128.39 2309,-127 2447.83,-107.23 2485.15,-128.61 2624,-109 2682.23,-100.78 2747.83,-85 2792.13,-73.36"/>
<polygon fill="black" stroke="black" points="2793.03,-76.74 2801.8,-70.79 2791.24,-69.97 2793.03,-76.74"/>
<text text-anchor="middle" x="2738.5" y="-97.8" font-family="Times,serif" font-size="14.00">Backfilled</text>
</g>
<!-- WaitLocalBackfillReserved -->
<g id="node16" class="node">
<title>WaitLocalBackfillReserved</title>
<ellipse fill="none" stroke="black" cx="2240" cy="-319" rx="133.78" ry="18"/>
<text text-anchor="middle" x="2240" y="-315.3" font-family="Times,serif" font-size="14.00">WaitLocalBackfillReserved</text>
</g>
<!-- Backfilling&#45;&gt;WaitLocalBackfillReserved -->
<g id="edge67" class="edge">
<title>Backfilling&#45;&gt;WaitLocalBackfillReserved</title>
<path fill="none" stroke="black" d="M2240.92,-163.08C2243.43,-173.67 2244.32,-186.95 2237,-196 2213,-225.69 2177,-184.31 2153,-214 2142.94,-226.44 2145.99,-235.62 2153,-250 2162.37,-269.22 2180.1,-284.6 2197.11,-295.84"/>
<polygon fill="black" stroke="black" points="2195.57,-299 2205.9,-301.34 2199.28,-293.07 2195.57,-299"/>
<text text-anchor="middle" x="2254" y="-228.3" font-family="Times,serif" font-size="14.00">RemoteReservationRevoked</text>
</g>
<!-- NotBackfilling -->
<g id="node17" class="node">
<title>NotBackfilling</title>
<ellipse fill="none" stroke="black" cx="2328" cy="-58" rx="77.19" ry="18"/>
<text text-anchor="middle" x="2328" y="-54.3" font-family="Times,serif" font-size="14.00">NotBackfilling</text>
</g>
<!-- Backfilling&#45;&gt;NotBackfilling -->
<g id="edge28" class="edge">
<title>Backfilling&#45;&gt;NotBackfilling</title>
<path fill="none" stroke="black" d="M2280.25,-133.1C2316.35,-124.18 2361.32,-112.5 2364,-109 2370.58,-100.39 2366.32,-90.77 2358.76,-82.27"/>
<polygon fill="black" stroke="black" points="2361.06,-79.63 2351.46,-75.16 2356.18,-84.65 2361.06,-79.63"/>
<text text-anchor="middle" x="2493.5" y="-97.8" font-family="Times,serif" font-size="14.00">RemoteReservationRevokedTooFull</text>
</g>
<!-- Backfilling&#45;&gt;NotBackfilling -->
<g id="edge29" class="edge">
<title>Backfilling&#45;&gt;NotBackfilling</title>
<path fill="none" stroke="black" d="M2182.55,-136.27C2148.51,-129.02 2113.62,-115.95 2132,-94 2146.45,-76.75 2196.89,-67.99 2242.99,-63.55"/>
<polygon fill="black" stroke="black" points="2243.4,-67.03 2253.05,-62.64 2242.77,-60.06 2243.4,-67.03"/>
<text text-anchor="middle" x="2189.5" y="-97.8" font-family="Times,serif" font-size="14.00">UnfoundBackfill</text>
</g>
<!-- Backfilling&#45;&gt;NotBackfilling -->
<g id="edge42" class="edge">
<title>Backfilling&#45;&gt;NotBackfilling</title>
<path fill="none" stroke="black" d="M2242.93,-126.74C2248.34,-116.34 2256.27,-103.34 2266,-94 2271.64,-88.58 2278.29,-83.71 2285.09,-79.43"/>
<polygon fill="black" stroke="black" points="2286.88,-82.44 2293.73,-74.35 2283.33,-76.4 2286.88,-82.44"/>
<text text-anchor="middle" x="2313" y="-97.8" font-family="Times,serif" font-size="14.00">DeferBackfill</text>
</g>
<!-- WaitRemoteBackfillReserved -->
<g id="node15" class="node">
<title>WaitRemoteBackfillReserved</title>
<ellipse fill="none" stroke="black" cx="2509" cy="-232" rx="144.87" ry="18"/>
<text text-anchor="middle" x="2509" y="-228.3" font-family="Times,serif" font-size="14.00">WaitRemoteBackfillReserved</text>
</g>
<!-- WaitRemoteBackfillReserved&#45;&gt;Backfilling -->
<g id="edge40" class="edge">
<title>WaitRemoteBackfillReserved&#45;&gt;Backfilling</title>
<path fill="none" stroke="black" d="M2402.63,-219.74C2343.23,-212.73 2278.82,-203.62 2267,-196 2258.13,-190.28 2251.23,-181.13 2246.15,-172.22"/>
<polygon fill="black" stroke="black" points="2249.19,-170.47 2241.51,-163.16 2242.96,-173.66 2249.19,-170.47"/>
<text text-anchor="middle" x="2340.5" y="-184.8" font-family="Times,serif" font-size="14.00">AllBackfillsReserved</text>
</g>
<!-- WaitRemoteBackfillReserved&#45;&gt;NotBackfilling -->
<g id="edge52" class="edge">
<title>WaitRemoteBackfillReserved&#45;&gt;NotBackfilling</title>
<path fill="none" stroke="black" d="M2481.12,-214.14C2462.6,-203.5 2437.46,-190.09 2414,-181 2384.45,-169.54 2364.38,-188.08 2345,-163 2335.22,-150.34 2334.06,-138.67 2345,-127 2387.49,-81.68 2581.51,-154.32 2624,-109 2628.56,-104.14 2628.43,-98.98 2624,-94 2610.08,-78.34 2495.25,-68.48 2412.8,-63.36"/>
<polygon fill="black" stroke="black" points="2412.85,-59.85 2402.66,-62.74 2412.43,-66.84 2412.85,-59.85"/>
<text text-anchor="middle" x="2472.5" y="-141.3" font-family="Times,serif" font-size="14.00">RemoteReservationRejectedTooFull</text>
</g>
<!-- WaitRemoteBackfillReserved&#45;&gt;NotBackfilling -->
<g id="edge68" class="edge">
<title>WaitRemoteBackfillReserved&#45;&gt;NotBackfilling</title>
<path fill="none" stroke="black" d="M2533.68,-214.02C2552.42,-200.78 2578.53,-181.59 2600,-163 2617.11,-148.19 2615.9,-137.4 2636,-127 2679.44,-104.52 2774.1,-130.02 2741,-94 2719.44,-70.53 2529.94,-62.78 2415.26,-60.24"/>
<polygon fill="black" stroke="black" points="2415.16,-56.73 2405.09,-60.02 2415.01,-63.73 2415.16,-56.73"/>
<text text-anchor="middle" x="2737" y="-141.3" font-family="Times,serif" font-size="14.00">RemoteReservationRevoked</text>
</g>
<!-- WaitLocalBackfillReserved&#45;&gt;WaitRemoteBackfillReserved -->
<g id="edge55" class="edge">
<title>WaitLocalBackfillReserved&#45;&gt;WaitRemoteBackfillReserved</title>
<path fill="none" stroke="black" d="M2281.33,-301.8C2308.35,-291.5 2344.51,-278.21 2377,-268 2396.25,-261.95 2417.29,-256.05 2436.81,-250.88"/>
<polygon fill="black" stroke="black" points="2437.77,-254.24 2446.55,-248.32 2435.99,-247.47 2437.77,-254.24"/>
<text text-anchor="middle" x="2456" y="-271.8" font-family="Times,serif" font-size="14.00">LocalBackfillReserved</text>
</g>
<!-- NotBackfilling&#45;&gt;WaitLocalBackfillReserved -->
<g id="edge31" class="edge">
<title>NotBackfilling&#45;&gt;WaitLocalBackfillReserved</title>
<path fill="none" stroke="black" d="M2252.33,-61.95C2200.72,-65.73 2138.79,-74.35 2122,-94 2066.29,-159.21 2097.24,-225.63 2161,-283 2167.25,-288.63 2174.55,-293.47 2182.15,-297.59"/>
<polygon fill="black" stroke="black" points="2180.64,-300.75 2191.15,-302.12 2183.79,-294.5 2180.64,-300.75"/>
<text text-anchor="middle" x="2154" y="-184.8" font-family="Times,serif" font-size="14.00">RequestBackfill</text>
</g>
<!-- NotRecovering -->
<g id="node18" class="node">
<title>NotRecovering</title>
<ellipse fill="none" stroke="black" cx="2676" cy="-319" rx="79.89" ry="18"/>
<text text-anchor="middle" x="2676" y="-315.3" font-family="Times,serif" font-size="14.00">NotRecovering</text>
</g>
<!-- NotRecovering&#45;&gt;WaitLocalRecoveryReserved -->
<g id="edge8" class="edge">
<title>NotRecovering&#45;&gt;WaitLocalRecoveryReserved</title>
<path fill="none" stroke="black" d="M2748.46,-326.64C2765.72,-331.83 2782.24,-340.55 2793,-355 2796.98,-360.35 2796.5,-364.33 2793,-370 2774.19,-400.43 2667.81,-411.57 2649,-442 2627.32,-477.08 2650.43,-524.58 2669.18,-553.45"/>
<polygon fill="black" stroke="black" points="2666.3,-555.44 2674.8,-561.77 2672.11,-551.52 2666.3,-555.44"/>
<text text-anchor="middle" x="2692" y="-445.8" font-family="Times,serif" font-size="14.00">DoRecovery</text>
</g>
<!-- Recovering -->
<g id="node19" class="node">
<title>Recovering</title>
<ellipse fill="none" stroke="black" cx="2518" cy="-406" rx="63.09" ry="18"/>
<text text-anchor="middle" x="2518" y="-402.3" font-family="Times,serif" font-size="14.00">Recovering</text>
</g>
<!-- Recovering&#45;&gt;Recovered -->
<g id="edge23" class="edge">
<title>Recovering&#45;&gt;Recovered</title>
<path fill="none" stroke="black" d="M2518.34,-387.87C2519.19,-377.76 2521.42,-365.02 2527,-355 2544.45,-323.65 2557.84,-321.9 2587,-301 2624.68,-273.99 2639.41,-275.7 2678,-250 2699.61,-235.61 2701.5,-226.95 2724,-214 2742.67,-203.25 2749.06,-204.15 2769,-196 2804.22,-181.6 2826.91,-194.67 2848,-163 2863.05,-140.41 2859.06,-108.52 2853.19,-86.03"/>
<polygon fill="black" stroke="black" points="2856.47,-84.76 2850.33,-76.12 2849.74,-86.7 2856.47,-84.76"/>
<text text-anchor="middle" x="2801" y="-228.3" font-family="Times,serif" font-size="14.00">AllReplicasRecovered</text>
</g>
<!-- Recovering&#45;&gt;WaitLocalBackfillReserved -->
<g id="edge33" class="edge">
<title>Recovering&#45;&gt;WaitLocalBackfillReserved</title>
<path fill="none" stroke="black" d="M2470.46,-394.1C2448.75,-388.29 2423.02,-380.21 2401,-370 2389.93,-364.86 2389.18,-359.9 2378,-355 2361.02,-347.56 2342.14,-341.47 2323.93,-336.58"/>
<polygon fill="black" stroke="black" points="2324.75,-333.18 2314.2,-334.06 2323,-339.96 2324.75,-333.18"/>
<text text-anchor="middle" x="2457" y="-358.8" font-family="Times,serif" font-size="14.00">RequestBackfill</text>
</g>
<!-- Recovering&#45;&gt;NotRecovering -->
<g id="edge21" class="edge">
<title>Recovering&#45;&gt;NotRecovering</title>
<path fill="none" stroke="black" d="M2522.58,-387.83C2526.34,-376.91 2532.76,-363.32 2543,-355 2557.77,-343 2576.23,-335.09 2594.65,-329.87"/>
<polygon fill="black" stroke="black" points="2595.75,-333.2 2604.55,-327.31 2594,-326.42 2595.75,-333.2"/>
<text text-anchor="middle" x="2596" y="-358.8" font-family="Times,serif" font-size="14.00">DeferRecovery</text>
</g>
<!-- Recovering&#45;&gt;NotRecovering -->
<g id="edge24" class="edge">
<title>Recovering&#45;&gt;NotRecovering</title>
<path fill="none" stroke="black" d="M2577.06,-399.56C2601.39,-394.85 2628.58,-386.12 2649,-370 2656.65,-363.96 2662.42,-355.13 2666.62,-346.57"/>
<polygon fill="black" stroke="black" points="2669.92,-347.74 2670.71,-337.18 2663.5,-344.95 2669.92,-347.74"/>
<text text-anchor="middle" x="2725" y="-358.8" font-family="Times,serif" font-size="14.00">UnfoundRecovery</text>
</g>
<!-- WaitRemoteRecoveryReserved -->
<g id="node20" class="node">
<title>WaitRemoteRecoveryReserved</title>
<ellipse fill="none" stroke="black" cx="2474" cy="-493" rx="153.27" ry="18"/>
<text text-anchor="middle" x="2474" y="-489.3" font-family="Times,serif" font-size="14.00">WaitRemoteRecoveryReserved</text>
</g>
<!-- WaitRemoteRecoveryReserved&#45;&gt;Recovering -->
<g id="edge26" class="edge">
<title>WaitRemoteRecoveryReserved&#45;&gt;Recovering</title>
<path fill="none" stroke="black" d="M2472.26,-474.94C2471.96,-464.85 2472.91,-452.11 2478,-442 2480.22,-437.59 2483.25,-433.5 2486.66,-429.79"/>
<polygon fill="black" stroke="black" points="2489.26,-432.15 2494.06,-422.7 2484.42,-427.09 2489.26,-432.15"/>
<text text-anchor="middle" x="2552" y="-445.8" font-family="Times,serif" font-size="14.00">AllRemotesReserved</text>
</g>
<!-- WaitLocalRecoveryReserved&#45;&gt;NotRecovering -->
<g id="edge57" class="edge">
<title>WaitLocalRecoveryReserved&#45;&gt;NotRecovering</title>
<path fill="none" stroke="black" d="M2696.38,-562C2709.27,-535.97 2734.91,-484.78 2758,-442 2778.31,-404.39 2824.76,-389.11 2799,-355 2792.09,-345.85 2770.75,-338.39 2747.74,-332.74"/>
<polygon fill="black" stroke="black" points="2748.34,-329.29 2737.81,-330.43 2746.76,-336.11 2748.34,-329.29"/>
<text text-anchor="middle" x="2817" y="-445.8" font-family="Times,serif" font-size="14.00">RecoveryTooFull</text>
</g>
<!-- WaitLocalRecoveryReserved&#45;&gt;WaitRemoteRecoveryReserved -->
<g id="edge38" class="edge">
<title>WaitLocalRecoveryReserved&#45;&gt;WaitRemoteRecoveryReserved</title>
<path fill="none" stroke="black" d="M2560.3,-572.15C2520.86,-567.18 2484.46,-558.65 2472,-544 2466.7,-537.77 2465.57,-529.35 2466.26,-521.2"/>
<polygon fill="black" stroke="black" points="2469.73,-521.64 2467.93,-511.2 2462.83,-520.49 2469.73,-521.64"/>
<text text-anchor="middle" x="2557.5" y="-532.8" font-family="Times,serif" font-size="14.00">LocalRecoveryReserved</text>
</g>
<!-- Activating&#45;&gt;Recovered -->
<g id="edge22" class="edge">
<title>Activating&#45;&gt;Recovered</title>
<path fill="none" stroke="black" d="M2225.22,-693.47C2232.45,-654.16 2248.67,-552.01 2240,-467 2234.87,-416.7 2186.26,-392.67 2220,-355 2244.31,-327.85 2347.33,-344.44 2383,-337 2390.97,-335.34 2656.98,-255.48 2663,-250 2675.82,-238.33 2665.46,-225.97 2678,-214 2709.13,-184.3 2727.92,-193.78 2769,-181 2799.26,-171.59 2817.91,-187.51 2838,-163 2847.27,-151.69 2847.22,-113.17 2845.93,-86.33"/>
<polygon fill="black" stroke="black" points="2849.41,-85.78 2845.35,-76 2842.42,-86.18 2849.41,-85.78"/>
<text text-anchor="middle" x="2297" y="-358.8" font-family="Times,serif" font-size="14.00">AllReplicasRecovered</text>
</g>
<!-- Activating&#45;&gt;WaitLocalBackfillReserved -->
<g id="edge32" class="edge">
<title>Activating&#45;&gt;WaitLocalBackfillReserved</title>
<path fill="none" stroke="black" d="M2202.64,-697.07C2174.08,-676.27 2124,-632.47 2124,-581 2124,-581 2124,-581 2124,-405 2124,-374.16 2151.01,-353.29 2178.97,-339.95"/>
<polygon fill="black" stroke="black" points="2180.75,-342.99 2188.45,-335.71 2177.89,-336.6 2180.75,-342.99"/>
<text text-anchor="middle" x="2180" y="-489.3" font-family="Times,serif" font-size="14.00">RequestBackfill</text>
</g>
<!-- Activating&#45;&gt;WaitLocalRecoveryReserved -->
<g id="edge9" class="edge">
<title>Activating&#45;&gt;WaitLocalRecoveryReserved</title>
<path fill="none" stroke="black" d="M2286.67,-707.18C2369.79,-702.89 2509.1,-693.21 2557,-675 2598.32,-659.29 2638.51,-627.2 2663.24,-604.91"/>
<polygon fill="black" stroke="black" points="2665.71,-607.39 2670.71,-598.05 2660.97,-602.24 2665.71,-607.39"/>
<text text-anchor="middle" x="2627" y="-663.8" font-family="Times,serif" font-size="14.00">DoRecovery</text>
</g>
<!-- RepRecovering -->
<g id="node23" class="node">
<title>RepRecovering</title>
<ellipse fill="none" stroke="black" cx="775" cy="-842" rx="81.49" ry="18"/>
<text text-anchor="middle" x="775" y="-838.3" font-family="Times,serif" font-size="14.00">RepRecovering</text>
</g>
<!-- RepNotRecovering -->
<g id="node26" class="node">
<title>RepNotRecovering</title>
<polygon fill="none" stroke="black" points="775,-729 636.41,-711 775,-693 913.59,-711 775,-729"/>
<polyline fill="none" stroke="black" points="648.31,-712.55 648.31,-709.45 "/>
<polyline fill="none" stroke="black" points="763.1,-694.55 786.9,-694.55 "/>
<polyline fill="none" stroke="black" points="901.69,-709.45 901.69,-712.55 "/>
<polyline fill="none" stroke="black" points="786.9,-727.45 763.1,-727.45 "/>
<text text-anchor="middle" x="775" y="-707.3" font-family="Times,serif" font-size="14.00">RepNotRecovering</text>
</g>
<!-- RepRecovering&#45;&gt;RepNotRecovering -->
<g id="edge2" class="edge">
<title>RepRecovering&#45;&gt;RepNotRecovering</title>
<path fill="none" stroke="black" d="M717.95,-829C708.63,-827.21 699.06,-825.47 690,-824 658.39,-818.86 568.19,-830.02 547,-806 542.59,-801 542.54,-795.96 547,-791 558.21,-778.54 605.85,-787.48 622,-783 665.6,-770.91 712.31,-747.55 742.49,-730.93"/>
<polygon fill="black" stroke="black" points="744.28,-733.94 751.3,-726.01 740.86,-727.83 744.28,-733.94"/>
<text text-anchor="middle" x="650" y="-794.8" font-family="Times,serif" font-size="14.00">RemoteReservationCanceled</text>
</g>
<!-- RepRecovering&#45;&gt;RepNotRecovering -->
<g id="edge48" class="edge">
<title>RepRecovering&#45;&gt;RepNotRecovering</title>
<path fill="none" stroke="black" d="M775,-823.87C775,-802.28 775,-764.91 775,-739.35"/>
<polygon fill="black" stroke="black" points="778.5,-739.2 775,-729.2 771.5,-739.2 778.5,-739.2"/>
<text text-anchor="middle" x="826.5" y="-794.8" font-family="Times,serif" font-size="14.00">RecoveryDone</text>
</g>
<!-- RepRecovering&#45;&gt;RepNotRecovering -->
<g id="edge50" class="edge">
<title>RepRecovering&#45;&gt;RepNotRecovering</title>
<path fill="none" stroke="black" d="M842,-831.76C856.45,-826.54 870.05,-818.45 879,-806 901.52,-774.66 856.24,-746.08 818.52,-728.87"/>
<polygon fill="black" stroke="black" points="819.7,-725.56 809.13,-724.74 816.88,-731.97 819.7,-725.56"/>
<text text-anchor="middle" x="1011.5" y="-794.8" font-family="Times,serif" font-size="14.00">RemoteReservationRejectedTooFull</text>
</g>
<!-- RepWaitBackfillReserved -->
<g id="node24" class="node">
<title>RepWaitBackfillReserved</title>
<ellipse fill="none" stroke="black" cx="649" cy="-580" rx="127.28" ry="18"/>
<text text-anchor="middle" x="649" y="-576.3" font-family="Times,serif" font-size="14.00">RepWaitBackfillReserved</text>
</g>
<!-- RepWaitBackfillReserved&#45;&gt;RepRecovering -->
<g id="edge64" class="edge">
<title>RepWaitBackfillReserved&#45;&gt;RepRecovering</title>
<path fill="none" stroke="black" d="M567.38,-593.84C527.07,-604.57 481.51,-624.2 455,-660 422.46,-703.95 418.64,-739.67 452,-783 484.74,-825.52 637,-815.55 690,-824 695.9,-824.94 702.02,-826 708.14,-827.11"/>
<polygon fill="black" stroke="black" points="707.94,-830.64 718.42,-829.04 709.23,-823.76 707.94,-830.64"/>
<text text-anchor="middle" x="539.5" y="-707.3" font-family="Times,serif" font-size="14.00">RemoteBackfillReserved</text>
</g>
<!-- RepWaitBackfillReserved&#45;&gt;RepNotRecovering -->
<g id="edge5" class="edge">
<title>RepWaitBackfillReserved&#45;&gt;RepNotRecovering</title>
<path fill="none" stroke="black" d="M758.61,-589.17C806.45,-598.84 858.31,-618.91 888,-660 902.44,-679.99 881.13,-692.11 853.27,-699.39"/>
<polygon fill="black" stroke="black" points="852.11,-696.07 843.18,-701.77 853.72,-702.88 852.11,-696.07"/>
<text text-anchor="middle" x="995" y="-663.8" font-family="Times,serif" font-size="14.00">RemoteReservationCanceled</text>
</g>
<!-- RepWaitBackfillReserved&#45;&gt;RepNotRecovering -->
<g id="edge53" class="edge">
<title>RepWaitBackfillReserved&#45;&gt;RepNotRecovering</title>
<path fill="none" stroke="black" d="M569.54,-594.08C504.99,-608.01 430.23,-633.81 467,-675 467.48,-675.53 603.34,-690.81 694.43,-701.01"/>
<polygon fill="black" stroke="black" points="694.15,-704.5 704.48,-702.13 694.93,-697.54 694.15,-704.5"/>
<text text-anchor="middle" x="594.5" y="-663.8" font-family="Times,serif" font-size="14.00">RemoteReservationRejectedTooFull</text>
</g>
<!-- RepWaitRecoveryReserved -->
<g id="node25" class="node">
<title>RepWaitRecoveryReserved</title>
<ellipse fill="none" stroke="black" cx="1316" cy="-580" rx="135.68" ry="18"/>
<text text-anchor="middle" x="1316" y="-576.3" font-family="Times,serif" font-size="14.00">RepWaitRecoveryReserved</text>
</g>
<!-- RepWaitRecoveryReserved&#45;&gt;RepRecovering -->
<g id="edge37" class="edge">
<title>RepWaitRecoveryReserved&#45;&gt;RepRecovering</title>
<path fill="none" stroke="black" d="M1377.2,-596.2C1418.87,-608.63 1473.73,-629.23 1515,-660 1559.79,-693.4 1578.99,-742.03 1541,-783 1495.99,-831.55 1059.93,-839.68 866.55,-840.88"/>
<polygon fill="black" stroke="black" points="866.39,-837.38 856.41,-840.94 866.43,-844.38 866.39,-837.38"/>
<text text-anchor="middle" x="1655" y="-707.3" font-family="Times,serif" font-size="14.00">RemoteRecoveryReserved</text>
</g>
<!-- RepWaitRecoveryReserved&#45;&gt;RepNotRecovering -->
<g id="edge4" class="edge">
<title>RepWaitRecoveryReserved&#45;&gt;RepNotRecovering</title>
<path fill="none" stroke="black" d="M1317.53,-598.32C1318.38,-619.9 1316.1,-656.23 1294,-675 1265.35,-699.34 1054.42,-706.82 910.44,-709.08"/>
<polygon fill="black" stroke="black" points="910.13,-705.58 900.19,-709.23 910.24,-712.58 910.13,-705.58"/>
<text text-anchor="middle" x="1408" y="-663.8" font-family="Times,serif" font-size="14.00">RemoteReservationCanceled</text>
</g>
<!-- RepNotRecovering&#45;&gt;RepWaitBackfillReserved -->
<g id="edge39" class="edge">
<title>RepNotRecovering&#45;&gt;RepWaitBackfillReserved</title>
<path fill="none" stroke="black" d="M760.05,-694.7C738.45,-672.58 698.31,-631.48 672.66,-605.23"/>
<polygon fill="black" stroke="black" points="675.02,-602.63 665.52,-597.92 670.01,-607.52 675.02,-602.63"/>
<text text-anchor="middle" x="808" y="-663.8" font-family="Times,serif" font-size="14.00">RequestBackfillPrio</text>
</g>
<!-- RepNotRecovering&#45;&gt;RepWaitRecoveryReserved -->
<g id="edge25" class="edge">
<title>RepNotRecovering&#45;&gt;RepWaitRecoveryReserved</title>
<path fill="none" stroke="black" d="M882.18,-706.86C946.77,-702.92 1030.15,-694.19 1102,-675 1117.96,-670.74 1120.88,-666.65 1136,-660 1181.31,-640.06 1233.05,-617.36 1269.4,-601.42"/>
<polygon fill="black" stroke="black" points="1271.01,-604.54 1278.76,-597.32 1268.2,-598.13 1271.01,-604.54"/>
<text text-anchor="middle" x="1213" y="-663.8" font-family="Times,serif" font-size="14.00">RequestRecoveryPrio</text>
</g>
<!-- RepNotRecovering&#45;&gt;RepNotRecovering -->
<g id="edge3" class="edge">
<title>RepNotRecovering&#45;&gt;RepNotRecovering</title>
<path fill="none" stroke="black" d="M894.63,-713.48C916.47,-713.17 931.79,-712.34 931.79,-711 931.79,-709.88 921.09,-709.12 904.82,-708.72"/>
<polygon fill="black" stroke="black" points="904.7,-705.21 894.63,-708.52 904.56,-712.21 904.7,-705.21"/>
<text text-anchor="middle" x="1034.79" y="-707.3" font-family="Times,serif" font-size="14.00">RemoteReservationCanceled</text>
</g>
<!-- RepNotRecovering&#45;&gt;RepNotRecovering -->
<g id="edge49" class="edge">
<title>RepNotRecovering&#45;&gt;RepNotRecovering</title>
<path fill="none" stroke="black" d="M879.88,-715.42C989.32,-717.36 1137.79,-715.89 1137.79,-711 1137.79,-706.26 998.18,-704.73 889.92,-706.41"/>
<polygon fill="black" stroke="black" points="889.82,-702.91 879.88,-706.58 889.94,-709.91 889.82,-702.91"/>
<text text-anchor="middle" x="1189.29" y="-707.3" font-family="Times,serif" font-size="14.00">RecoveryDone</text>
</g>
<!-- RepNotRecovering&#45;&gt;RepNotRecovering -->
<g id="edge51" class="edge">
<title>RepNotRecovering&#45;&gt;RepNotRecovering</title>
<path fill="none" stroke="black" d="M869.47,-716.75C1009.01,-720.89 1240.79,-718.98 1240.79,-711 1240.79,-703.22 1020.19,-701.2 879.85,-704.96"/>
<polygon fill="black" stroke="black" points="879.36,-701.47 869.47,-705.25 879.56,-708.47 879.36,-701.47"/>
<text text-anchor="middle" x="1368.29" y="-707.3" font-family="Times,serif" font-size="14.00">RemoteReservationRejectedTooFull</text>
</g>
<!-- WaitDeleteReserved -->
<g id="node28" class="node">
<title>WaitDeleteReserved</title>
<polygon fill="none" stroke="black" points="180,-598 32.03,-580 180,-562 327.97,-580 180,-598"/>
<polyline fill="none" stroke="black" points="43.94,-581.45 43.94,-578.55 "/>
<polyline fill="none" stroke="black" points="168.09,-563.45 191.91,-563.45 "/>
<polyline fill="none" stroke="black" points="316.06,-578.55 316.06,-581.45 "/>
<polyline fill="none" stroke="black" points="191.91,-596.55 168.09,-596.55 "/>
<text text-anchor="middle" x="180" y="-576.3" font-family="Times,serif" font-size="14.00">WaitDeleteReserved</text>
</g>
<!-- RepNotRecovering&#45;&gt;WaitDeleteReserved -->
<g id="edge43" class="edge">
<title>RepNotRecovering&#45;&gt;WaitDeleteReserved</title>
<path fill="none" stroke="black" d="M417,-685.38C403.16,-682.96 388.03,-679.61 371,-675 352.94,-670.11 334.56,-663.48 316.69,-655.99"/>
<polygon fill="black" stroke="black" points="317.96,-652.73 307.39,-652 315.2,-659.16 317.96,-652.73"/>
<text text-anchor="middle" x="413" y="-663.8" font-family="Times,serif" font-size="14.00">DeleteStart</text>
</g>
<!-- Stray&#45;&gt;RepNotRecovering -->
<g id="edge20" class="edge">
<title>Stray&#45;&gt;RepNotRecovering</title>
<path fill="none" stroke="black" d="M339.81,-834.54C306.71,-826.73 263.51,-811.98 284,-791 289.34,-785.53 343.36,-783.89 406.75,-783.59"/>
<polygon fill="black" stroke="black" points="407.02,-787.09 417,-783.55 406.99,-780.09 407.02,-787.09"/>
<text text-anchor="middle" x="317.5" y="-794.8" font-family="Times,serif" font-size="14.00">MLogRec</text>
</g>
<!-- Stray&#45;&gt;RepNotRecovering -->
<g id="edge46" class="edge">
<title>Stray&#45;&gt;RepNotRecovering</title>
<path fill="none" stroke="black" d="M393.88,-826.91C398.12,-824.23 402.88,-821.34 408.02,-818.37"/>
<polygon fill="black" stroke="black" points="409.99,-821.27 417,-813.32 406.57,-815.16 409.99,-821.27"/>
<text text-anchor="middle" x="504.5" y="-794.8" font-family="Times,serif" font-size="14.00">MInfoRec</text>
</g>
<!-- Stray&#45;&gt;WaitDeleteReserved -->
<g id="edge44" class="edge">
<title>Stray&#45;&gt;WaitDeleteReserved</title>
<path fill="none" stroke="black" d="M338.6,-836.06C317.65,-831.45 291.62,-822.66 274,-806 233.53,-767.74 209.84,-709.38 196.36,-661.69"/>
<polygon fill="black" stroke="black" points="199.72,-660.72 193.71,-652 192.97,-662.56 199.72,-660.72"/>
<text text-anchor="middle" x="295" y="-707.3" font-family="Times,serif" font-size="14.00">DeleteStart</text>
</g>
<!-- WaitDeleteReserved&#45;&gt;WaitDeleteReserved -->
<g id="edge35" class="edge">
<title>WaitDeleteReserved&#45;&gt;WaitDeleteReserved</title>
<path fill="none" stroke="black" d="M265.4,-587.64C307.99,-588.7 345.98,-586.15 345.98,-580 345.98,-574.35 313.97,-571.74 275.77,-572.17"/>
<polygon fill="black" stroke="black" points="275.34,-568.68 265.4,-572.36 275.46,-575.68 275.34,-568.68"/>
<text text-anchor="middle" x="373.48" y="-576.3" font-family="Times,serif" font-size="14.00">ActMap</text>
</g>
<!-- Deleting -->
<g id="node29" class="node">
<title>Deleting</title>
<ellipse fill="none" stroke="black" cx="142" cy="-493" rx="50.09" ry="18"/>
<text text-anchor="middle" x="142" y="-489.3" font-family="Times,serif" font-size="14.00">Deleting</text>
</g>
<!-- WaitDeleteReserved&#45;&gt;Deleting -->
<g id="edge66" class="edge">
<title>WaitDeleteReserved&#45;&gt;Deleting</title>
<path fill="none" stroke="black" d="M103.9,-571.21C87.97,-565.91 73,-557.43 63,-544 50.83,-527.65 69.6,-515.31 91.89,-506.98"/>
<polygon fill="black" stroke="black" points="93.26,-510.21 101.58,-503.66 90.99,-503.59 93.26,-510.21"/>
<text text-anchor="middle" x="120" y="-532.8" font-family="Times,serif" font-size="14.00">DeleteReserved</text>
</g>
<!-- Deleting&#45;&gt;WaitDeleteReserved -->
<g id="edge30" class="edge">
<title>Deleting&#45;&gt;WaitDeleteReserved</title>
<path fill="none" stroke="black" d="M165.31,-509.28C171.59,-514.69 177.59,-521.36 181,-529 184.16,-536.09 184.99,-544.32 184.74,-552.03"/>
<polygon fill="black" stroke="black" points="181.24,-551.8 183.83,-562.08 188.22,-552.43 181.24,-551.8"/>
<text text-anchor="middle" x="250" y="-532.8" font-family="Times,serif" font-size="14.00">DeleteInterrupted</text>
</g>
</g>
</svg>
