<?xml version="1.0" encoding="UTF-8" standalone="no"?>
<!DOCTYPE svg PUBLIC "-//W3C//DTD SVG 1.1//EN"
 "http://www.w3.org/Graphics/SVG/1.1/DTD/svg11.dtd">
<!-- Generated by graphviz version 2.49.0 (20210828.1703)
 -->
<!-- Title: osd Pages: 1 -->
<svg width="495pt" height="749pt"
 viewBox="0.00 0.00 495.15 748.76" xmlns="http://www.w3.org/2000/svg" xmlns:xlink="http://www.w3.org/1999/xlink">
<g id="graph0" class="graph" transform="scale(1 1) rotate(0) translate(4 744.76)">
<title>osd</title>
<polygon fill="white" stroke="transparent" points="-4,4 -4,-744.76 491.15,-744.76 491.15,4 -4,4"/>
<!-- start -->
<g id="node1" class="node">
<title>start</title>
<ellipse fill="none" stroke="black" cx="196.15" cy="-703.61" rx="33.28" ry="33.28"/>
<ellipse fill="none" stroke="black" cx="196.15" cy="-703.61" rx="37.29" ry="37.29"/>
<text text-anchor="middle" x="196.15" y="-699.91" font-family="Times,serif" font-size="14.00">start</text>
</g>
<!-- preboot -->
<g id="node3" class="node">
<title>preboot</title>
<ellipse fill="none" stroke="black" cx="196.15" cy="-582.67" rx="46.59" ry="46.59"/>
<text text-anchor="middle" x="196.15" y="-578.97" font-family="Times,serif" font-size="14.00">preboot</text>
</g>
<!-- start&#45;&gt;preboot -->
<g id="edge1" class="edge">
<title>start&#45;&gt;preboot</title>
<path fill="none" stroke="black" d="M196.15,-666.28C196.15,-657.94 196.15,-648.88 196.15,-639.92"/>
<polygon fill="black" stroke="black" points="199.65,-639.89 196.15,-629.89 192.65,-639.89 199.65,-639.89"/>
</g>
<!-- end -->
<g id="node2" class="node">
<title>end</title>
<ellipse fill="none" stroke="black" cx="78.15" cy="-31.95" rx="27.9" ry="27.9"/>
<ellipse fill="none" stroke="black" cx="78.15" cy="-31.95" rx="31.9" ry="31.9"/>
<text text-anchor="middle" x="78.15" y="-28.25" font-family="Times,serif" font-size="14.00">end</text>
</g>
<!-- booting -->
<g id="node5" class="node">
<title>booting</title>
<ellipse fill="none" stroke="black" cx="46.15" cy="-438.73" rx="46.29" ry="46.29"/>
<text text-anchor="middle" x="46.15" y="-435.03" font-family="Times,serif" font-size="14.00">booting</text>
</g>
<!-- preboot&#45;&gt;booting -->
<g id="edge4" class="edge">
<title>preboot&#45;&gt;booting</title>
<path fill="none" stroke="black" d="M150.17,-572.34C119.27,-563.6 80.28,-547.3 58.15,-517.87 53.16,-511.25 49.86,-503.39 47.72,-495.26"/>
<polygon fill="black" stroke="black" points="51.11,-494.36 45.67,-485.27 44.26,-495.77 51.11,-494.36"/>
<text text-anchor="middle" x="120.15" y="-506.67" font-family="Times,serif" font-size="14.00">send(MOSDBoot)</text>
</g>
<!-- waiting_for_healthy -->
<g id="node4" class="node">
<title>waiting_for_healthy</title>
<ellipse fill="none" stroke="black" cx="364.15" cy="-164.39" rx="49.49" ry="49.49"/>
<text text-anchor="middle" x="364.15" y="-175.69" font-family="Times,serif" font-size="14.00">waiting</text>
<text text-anchor="middle" x="364.15" y="-160.69" font-family="Times,serif" font-size="14.00">for</text>
<text text-anchor="middle" x="364.15" y="-145.69" font-family="Times,serif" font-size="14.00">healthy</text>
</g>
<!-- waiting_for_healthy&#45;&gt;preboot -->
<g id="edge3" class="edge">
<title>waiting_for_healthy&#45;&gt;preboot</title>
<path fill="none" stroke="black" d="M377.12,-212.44C392.48,-278.49 410.03,-400.09 359.15,-484.87 335.28,-524.64 288.3,-549.95 250.89,-564.68"/>
<polygon fill="black" stroke="black" points="249.23,-561.57 241.11,-568.38 251.7,-568.11 249.23,-561.57"/>
<text text-anchor="middle" x="439.65" y="-363.38" font-family="Times,serif" font-size="14.00">i am healthy!</text>
</g>
<!-- waiting_for_healthy&#45;&gt;waiting_for_healthy -->
<g id="edge2" class="edge">
<title>waiting_for_healthy&#45;&gt;waiting_for_healthy</title>
<path fill="none" stroke="black" d="M411.77,-178.02C423.18,-176.96 431.64,-172.41 431.64,-164.39 431.64,-159 427.82,-155.18 421.86,-152.93"/>
<polygon fill="black" stroke="black" points="422.28,-149.45 411.77,-150.76 420.81,-156.29 422.28,-149.45"/>
<text text-anchor="middle" x="445.14" y="-160.69" font-family="Times,serif" font-size="14.00">tick</text>
</g>
<!-- active -->
<g id="node6" class="node">
<title>active</title>
<ellipse fill="none" stroke="black" cx="191.15" cy="-303.24" rx="38.19" ry="38.19"/>
<text text-anchor="middle" x="191.15" y="-299.54" font-family="Times,serif" font-size="14.00">active</text>
</g>
<!-- booting&#45;&gt;active -->
<g id="edge5" class="edge">
<title>booting&#45;&gt;active</title>
<path fill="none" stroke="black" d="M35.17,-393.62C34.56,-381.7 36.34,-369.4 43.15,-359.58 65.39,-327.51 108.63,-313.99 142.65,-308.31"/>
<polygon fill="black" stroke="black" points="143.5,-311.72 152.88,-306.79 142.47,-304.8 143.5,-311.72"/>
<text text-anchor="middle" x="112.65" y="-363.38" font-family="Times,serif" font-size="14.00">recv(osdmap&lt;up&gt;)</text>
</g>
<!-- active&#45;&gt;end -->
<g id="edge8" class="edge">
<title>active&#45;&gt;end</title>
<path fill="none" stroke="black" d="M156.04,-287.44C127.35,-273.23 88.77,-248.75 71.15,-213.89 48.69,-169.46 56.69,-110.77 66.06,-72.45"/>
<polygon fill="black" stroke="black" points="69.47,-73.25 68.59,-62.69 62.7,-71.5 69.47,-73.25"/>
<text text-anchor="middle" x="113.65" y="-160.69" font-family="Times,serif" font-size="14.00">kill(SIGINT)</text>
</g>
<!-- active&#45;&gt;preboot -->
<g id="edge7" class="edge">
<title>active&#45;&gt;preboot</title>
<path fill="none" stroke="black" d="M191.82,-341.66C192.67,-388.97 194.15,-470.83 195.14,-525.62"/>
<polygon fill="black" stroke="black" points="191.64,-525.92 195.32,-535.86 198.64,-525.8 191.64,-525.92"/>
<text text-anchor="middle" x="275.15" y="-435.03" font-family="Times,serif" font-size="14.00">recv(osdmap&lt;down&gt;)</text>
</g>
<!-- active&#45;&gt;waiting_for_healthy -->
<g id="edge9" class="edge">
<title>active&#45;&gt;waiting_for_healthy</title>
<path fill="none" stroke="black" d="M215.29,-273.18C227.16,-259.8 242.12,-244.21 257.15,-231.89 274.08,-218.01 294.13,-204.81 312.28,-193.89"/>
<polygon fill="black" stroke="black" points="314.19,-196.83 321.01,-188.72 310.62,-190.81 314.19,-196.83"/>
<text text-anchor="middle" x="313.65" y="-235.69" font-family="Times,serif" font-size="14.00">i am unhealthy!</text>
</g>
<!-- prestop -->
<g id="node7" class="node">
<title>prestop</title>
<ellipse fill="none" stroke="black" cx="211.15" cy="-164.39" rx="46.29" ry="46.29"/>
<text text-anchor="middle" x="211.15" y="-160.69" font-family="Times,serif" font-size="14.00">prestop</text>
</g>
<!-- active&#45;&gt;prestop -->
<g id="edge6" class="edge">
<title>active&#45;&gt;prestop</title>
<path fill="none" stroke="black" d="M189.85,-264.85C189.97,-254.16 190.58,-242.52 192.15,-231.89 192.79,-227.49 193.65,-222.98 194.64,-218.48"/>
<polygon fill="black" stroke="black" points="198.07,-219.21 197,-208.67 191.26,-217.57 198.07,-219.21"/>
<text text-anchor="middle" x="213.15" y="-235.69" font-family="Times,serif" font-size="14.00">stop()</text>
</g>
<!-- prestop&#45;&gt;end -->
<g id="edge10" class="edge">
<title>prestop&#45;&gt;end</title>
<path fill="none" stroke="black" d="M178.61,-131.48C157.1,-110.39 129.12,-82.94 108.15,-62.37"/>
<polygon fill="black" stroke="black" points="110.36,-59.64 100.77,-55.13 105.45,-64.63 110.36,-59.64"/>
<text text-anchor="middle" x="221.15" y="-85.7" font-family="Times,serif" font-size="14.00">recv(osdmap&lt;down&gt;)</text>
</g>
</g>
</svg>
