<?xml version="1.0" encoding="UTF-8" standalone="no"?>
<!DOCTYPE svg PUBLIC "-//W3C//DTD SVG 1.1//EN"
 "http://www.w3.org/Graphics/SVG/1.1/DTD/svg11.dtd">
<!-- Generated by graphviz version 2.42.1 (20190717.1914)
 -->
<!-- Title: object_store Pages: 1 -->
<svg width="864pt" height="314pt"
 viewBox="0.00 0.00 864.00 314.41" xmlns="http://www.w3.org/2000/svg" xmlns:xlink="http://www.w3.org/1999/xlink">
<g id="graph0" class="graph" transform="scale(1.51 1.51) rotate(0) translate(4 472)">
<title>object_store</title>
<polygon fill="white" stroke="transparent" points="-4,4 -4,-472 1304.04,-472 1304.04,4 -4,4"/>
<!-- testrados -->
<g id="node1" class="node">
<title>testrados</title>
<ellipse fill="#b2dfee" stroke="#b2dfee" cx="939.6" cy="-378" rx="46.29" ry="18"/>
<text text-anchor="middle" x="939.6" y="-374.3" font-family="Serif" font-size="14.00">testrados</text>
</g>
<!-- librados -->
<g id="node2" class="node">
<title>librados</title>
<ellipse fill="#b2dfee" stroke="#b2dfee" cx="939.6" cy="-306" rx="42.49" ry="18"/>
<text text-anchor="middle" x="939.6" y="-302.3" font-family="Serif" font-size="14.00">librados</text>
</g>
<!-- testrados&#45;&gt;librados -->
<g id="edge1" class="edge">
<title>testrados&#45;&gt;librados</title>
<path fill="none" stroke="black" d="M939.6,-359.7C939.6,-351.98 939.6,-342.71 939.6,-334.11"/>
<polygon fill="black" stroke="black" points="943.1,-334.1 939.6,-324.1 936.1,-334.1 943.1,-334.1"/>
</g>
<!-- objecter -->
<g id="node9" class="node">
<title>objecter</title>
<ellipse fill="#b2dfee" stroke="#b2dfee" cx="466.6" cy="-234" rx="42.49" ry="18"/>
<text text-anchor="middle" x="466.6" y="-230.3" font-family="Serif" font-size="14.00">objecter</text>
</g>
<!-- librados&#45;&gt;objecter -->
<g id="edge8" class="edge">
<title>librados&#45;&gt;objecter</title>
<path fill="none" stroke="black" d="M897.91,-302.4C821.8,-297.06 655.53,-282.71 518.6,-252 514.95,-251.18 511.2,-250.22 507.46,-249.16"/>
<polygon fill="black" stroke="black" points="508.26,-245.75 497.68,-246.23 506.25,-252.45 508.26,-245.75"/>
</g>
<!-- testradospp -->
<g id="node3" class="node">
<title>testradospp</title>
<ellipse fill="#b2dfee" stroke="#b2dfee" cx="1059.6" cy="-378" rx="55.79" ry="18"/>
<text text-anchor="middle" x="1059.6" y="-374.3" font-family="Serif" font-size="14.00">testradospp</text>
</g>
<!-- testradospp&#45;&gt;librados -->
<g id="edge2" class="edge">
<title>testradospp&#45;&gt;librados</title>
<path fill="none" stroke="black" d="M1033.85,-361.98C1015.9,-351.51 991.79,-337.45 972.45,-326.16"/>
<polygon fill="black" stroke="black" points="974.07,-323.05 963.66,-321.04 970.54,-329.1 974.07,-323.05"/>
</g>
<!-- rbd -->
<g id="node4" class="node">
<title>rbd</title>
<ellipse fill="#b2dfee" stroke="#b2dfee" cx="1160.6" cy="-378" rx="27" ry="18"/>
<text text-anchor="middle" x="1160.6" y="-374.3" font-family="Serif" font-size="14.00">rbd</text>
</g>
<!-- rbd&#45;&gt;librados -->
<g id="edge3" class="edge">
<title>rbd&#45;&gt;librados</title>
<path fill="none" stroke="black" d="M1139.52,-366.35C1134.68,-364.1 1129.51,-361.85 1124.6,-360 1078.1,-342.49 1023.2,-327.44 985.34,-317.9"/>
<polygon fill="black" stroke="black" points="986.17,-314.5 975.62,-315.48 984.48,-321.29 986.17,-314.5"/>
</g>
<!-- radostool -->
<g id="node5" class="node">
<title>radostool</title>
<ellipse fill="#b2dfee" stroke="#b2dfee" cx="1252.6" cy="-378" rx="47.39" ry="18"/>
<text text-anchor="middle" x="1252.6" y="-374.3" font-family="Serif" font-size="14.00">radostool</text>
</g>
<!-- radostool&#45;&gt;librados -->
<g id="edge4" class="edge">
<title>radostool&#45;&gt;librados</title>
<path fill="none" stroke="black" d="M1217.49,-365.81C1210.59,-363.76 1203.39,-361.73 1196.6,-360 1124.58,-341.68 1039.99,-325.19 988.09,-315.63"/>
<polygon fill="black" stroke="black" points="988.63,-312.17 978.16,-313.82 987.37,-319.06 988.63,-312.17"/>
</g>
<!-- radosgw&#45;admin -->
<g id="node6" class="node">
<title>radosgw&#45;admin</title>
<ellipse fill="#b2dfee" stroke="#b2dfee" cx="738.6" cy="-450" rx="72.29" ry="18"/>
<text text-anchor="middle" x="738.6" y="-446.3" font-family="Serif" font-size="14.00">radosgw&#45;admin</text>
</g>
<!-- radosgw -->
<g id="node7" class="node">
<title>radosgw</title>
<ellipse fill="#b2dfee" stroke="#b2dfee" cx="727.6" cy="-378" rx="44.39" ry="18"/>
<text text-anchor="middle" x="727.6" y="-374.3" font-family="Serif" font-size="14.00">radosgw</text>
</g>
<!-- radosgw&#45;admin&#45;&gt;radosgw -->
<g id="edge5" class="edge">
<title>radosgw&#45;admin&#45;&gt;radosgw</title>
<path fill="none" stroke="black" d="M735.88,-431.7C734.67,-423.98 733.21,-414.71 731.86,-406.11"/>
<polygon fill="black" stroke="black" points="735.3,-405.44 730.29,-396.1 728.38,-406.53 735.3,-405.44"/>
</g>
<!-- radosgw&#45;&gt;librados -->
<g id="edge6" class="edge">
<title>radosgw&#45;&gt;librados</title>
<path fill="none" stroke="black" d="M760.72,-366.06C797.62,-353.88 857.36,-334.15 897.54,-320.89"/>
<polygon fill="black" stroke="black" points="898.65,-324.2 907.05,-317.75 896.46,-317.56 898.65,-324.2"/>
</g>
<!-- radosacl -->
<g id="node8" class="node">
<title>radosacl</title>
<ellipse fill="#b2dfee" stroke="#b2dfee" cx="832.6" cy="-378" rx="42.79" ry="18"/>
<text text-anchor="middle" x="832.6" y="-374.3" font-family="Serif" font-size="14.00">radosacl</text>
</g>
<!-- radosacl&#45;&gt;librados -->
<g id="edge7" class="edge">
<title>radosacl&#45;&gt;librados</title>
<path fill="none" stroke="black" d="M854.77,-362.5C870.41,-352.27 891.56,-338.43 908.83,-327.13"/>
<polygon fill="black" stroke="black" points="911,-329.89 917.46,-321.49 907.17,-324.03 911,-329.89"/>
</g>
<!-- OSDMap -->
<g id="node15" class="node">
<title>OSDMap</title>
<ellipse fill="#b2dfee" stroke="#b2dfee" cx="431.6" cy="-162" rx="46.29" ry="18"/>
<text text-anchor="middle" x="431.6" y="-158.3" font-family="Serif" font-size="14.00">OSDMap</text>
</g>
<!-- objecter&#45;&gt;OSDMap -->
<g id="edge15" class="edge">
<title>objecter&#45;&gt;OSDMap</title>
<path fill="none" stroke="black" d="M458.12,-216.05C454.04,-207.89 449.05,-197.91 444.51,-188.82"/>
<polygon fill="black" stroke="black" points="447.59,-187.17 439.99,-179.79 441.33,-190.3 447.59,-187.17"/>
</g>
<!-- ObjectCacher -->
<g id="node10" class="node">
<title>ObjectCacher</title>
<ellipse fill="#b2dfee" stroke="#b2dfee" cx="466.6" cy="-378" rx="63.89" ry="18"/>
<text text-anchor="middle" x="466.6" y="-374.3" font-family="Serif" font-size="14.00">ObjectCacher</text>
</g>
<!-- Filer -->
<g id="node11" class="node">
<title>Filer</title>
<ellipse fill="#b2dfee" stroke="#b2dfee" cx="466.6" cy="-306" rx="28.7" ry="18"/>
<text text-anchor="middle" x="466.6" y="-302.3" font-family="Serif" font-size="14.00">Filer</text>
</g>
<!-- ObjectCacher&#45;&gt;Filer -->
<g id="edge9" class="edge">
<title>ObjectCacher&#45;&gt;Filer</title>
<path fill="none" stroke="black" d="M466.6,-359.7C466.6,-351.98 466.6,-342.71 466.6,-334.11"/>
<polygon fill="black" stroke="black" points="470.1,-334.1 466.6,-324.1 463.1,-334.1 470.1,-334.1"/>
</g>
<!-- Filer&#45;&gt;objecter -->
<g id="edge14" class="edge">
<title>Filer&#45;&gt;objecter</title>
<path fill="none" stroke="black" d="M466.6,-287.7C466.6,-279.98 466.6,-270.71 466.6,-262.11"/>
<polygon fill="black" stroke="black" points="470.1,-262.1 466.6,-252.1 463.1,-262.1 470.1,-262.1"/>
</g>
<!-- dumpjournal -->
<g id="node12" class="node">
<title>dumpjournal</title>
<ellipse fill="#b2dfee" stroke="#b2dfee" cx="585.6" cy="-450" rx="62.29" ry="18"/>
<text text-anchor="middle" x="585.6" y="-446.3" font-family="Serif" font-size="14.00">dumpjournal</text>
</g>
<!-- Journaler -->
<g id="node13" class="node">
<title>Journaler</title>
<ellipse fill="#b2dfee" stroke="#b2dfee" cx="596.6" cy="-378" rx="48.19" ry="18"/>
<text text-anchor="middle" x="596.6" y="-374.3" font-family="Serif" font-size="14.00">Journaler</text>
</g>
<!-- dumpjournal&#45;&gt;Journaler -->
<g id="edge10" class="edge">
<title>dumpjournal&#45;&gt;Journaler</title>
<path fill="none" stroke="black" d="M588.32,-431.7C589.53,-423.98 590.99,-414.71 592.34,-406.11"/>
<polygon fill="black" stroke="black" points="595.81,-406.53 593.91,-396.1 588.9,-405.44 595.81,-406.53"/>
</g>
<!-- Journaler&#45;&gt;Filer -->
<g id="edge11" class="edge">
<title>Journaler&#45;&gt;Filer</title>
<path fill="none" stroke="black" d="M570.29,-362.83C549,-351.37 518.99,-335.21 496.74,-323.23"/>
<polygon fill="black" stroke="black" points="498.18,-320.03 487.72,-318.37 494.86,-326.2 498.18,-320.03"/>
</g>
<!-- SyntheticClient -->
<g id="node14" class="node">
<title>SyntheticClient</title>
<ellipse fill="#b2dfee" stroke="#b2dfee" cx="313.6" cy="-378" rx="70.69" ry="18"/>
<text text-anchor="middle" x="313.6" y="-374.3" font-family="Serif" font-size="14.00">SyntheticClient</text>
</g>
<!-- SyntheticClient&#45;&gt;objecter -->
<g id="edge13" class="edge">
<title>SyntheticClient&#45;&gt;objecter</title>
<path fill="none" stroke="black" d="M331.45,-360.43C358.92,-334.94 411.6,-286.04 442.45,-257.41"/>
<polygon fill="black" stroke="black" points="444.85,-259.96 449.79,-250.6 440.08,-254.83 444.85,-259.96"/>
</g>
<!-- SyntheticClient&#45;&gt;Filer -->
<g id="edge12" class="edge">
<title>SyntheticClient&#45;&gt;Filer</title>
<path fill="none" stroke="black" d="M346.42,-361.98C372.58,-350.01 408.99,-333.36 434.86,-321.52"/>
<polygon fill="black" stroke="black" points="436.58,-324.58 444.22,-317.24 433.67,-318.22 436.58,-324.58"/>
</g>
<!-- CrushWrapper -->
<g id="node20" class="node">
<title>CrushWrapper</title>
<ellipse fill="#b2dfee" stroke="#b2dfee" cx="487.6" cy="-90" rx="67.69" ry="18"/>
<text text-anchor="middle" x="487.6" y="-86.3" font-family="Serif" font-size="14.00">CrushWrapper</text>
</g>
<!-- OSDMap&#45;&gt;CrushWrapper -->
<g id="edge19" class="edge">
<title>OSDMap&#45;&gt;CrushWrapper</title>
<path fill="none" stroke="black" d="M444.87,-144.41C451.67,-135.91 460.1,-125.37 467.67,-115.91"/>
<polygon fill="black" stroke="black" points="470.52,-117.95 474.03,-107.96 465.05,-113.58 470.52,-117.95"/>
</g>
<!-- ceph&#45;osd -->
<g id="node16" class="node">
<title>ceph&#45;osd</title>
<ellipse fill="#b2dfee" stroke="#b2dfee" cx="172.6" cy="-378" rx="46.29" ry="18"/>
<text text-anchor="middle" x="172.6" y="-374.3" font-family="Serif" font-size="14.00">ceph&#45;osd</text>
</g>
<!-- PG -->
<g id="node17" class="node">
<title>PG</title>
<ellipse fill="#b2dfee" stroke="#b2dfee" cx="270.6" cy="-306" rx="27" ry="18"/>
<text text-anchor="middle" x="270.6" y="-302.3" font-family="Serif" font-size="14.00">PG</text>
</g>
<!-- ceph&#45;osd&#45;&gt;PG -->
<g id="edge16" class="edge">
<title>ceph&#45;osd&#45;&gt;PG</title>
<path fill="none" stroke="black" d="M193.86,-361.81C208.68,-351.23 228.55,-337.04 244.35,-325.75"/>
<polygon fill="black" stroke="black" points="246.56,-328.47 252.66,-319.81 242.49,-322.78 246.56,-328.47"/>
</g>
<!-- ObjectStore -->
<g id="node18" class="node">
<title>ObjectStore</title>
<ellipse fill="#b2dfee" stroke="#b2dfee" cx="204.6" cy="-162" rx="56.59" ry="18"/>
<text text-anchor="middle" x="204.6" y="-158.3" font-family="Serif" font-size="14.00">ObjectStore</text>
</g>
<!-- ceph&#45;osd&#45;&gt;ObjectStore -->
<g id="edge17" class="edge">
<title>ceph&#45;osd&#45;&gt;ObjectStore</title>
<path fill="none" stroke="black" d="M175.16,-359.85C180.7,-322.83 193.8,-235.18 200.5,-190.39"/>
<polygon fill="black" stroke="black" points="204,-190.64 202.02,-180.23 197.08,-189.6 204,-190.64"/>
</g>
<!-- PG&#45;&gt;OSDMap -->
<g id="edge23" class="edge">
<title>PG&#45;&gt;OSDMap</title>
<path fill="none" stroke="black" d="M294.58,-297.54C317.92,-289.34 353.32,-274.29 377.6,-252 396.73,-234.43 411.4,-208.54 420.59,-189.21"/>
<polygon fill="black" stroke="black" points="423.8,-190.59 424.77,-180.04 417.44,-187.69 423.8,-190.59"/>
</g>
<!-- PG&#45;&gt;ObjectStore -->
<g id="edge22" class="edge">
<title>PG&#45;&gt;ObjectStore</title>
<path fill="none" stroke="black" d="M254.72,-291.25C244.31,-281.37 231.25,-267.15 223.6,-252 213.83,-232.67 209.07,-208.52 206.76,-190.25"/>
<polygon fill="black" stroke="black" points="210.24,-189.82 205.67,-180.26 203.28,-190.58 210.24,-189.82"/>
</g>
<!-- PrimaryLogPG -->
<g id="node22" class="node">
<title>PrimaryLogPG</title>
<ellipse fill="#b2dfee" stroke="#b2dfee" cx="300.6" cy="-234" rx="67.69" ry="18"/>
<text text-anchor="middle" x="300.6" y="-230.3" font-family="Serif" font-size="14.00">PrimaryLogPG</text>
</g>
<!-- PG&#45;&gt;PrimaryLogPG -->
<g id="edge21" class="edge">
<title>PG&#45;&gt;PrimaryLogPG</title>
<path fill="none" stroke="black" d="M277.71,-288.41C281.17,-280.34 285.41,-270.43 289.3,-261.35"/>
<polygon fill="black" stroke="black" points="292.61,-262.53 293.33,-251.96 286.17,-259.77 292.61,-262.53"/>
</g>
<!-- FileStore -->
<g id="node23" class="node">
<title>FileStore</title>
<ellipse fill="#b2dfee" stroke="#b2dfee" cx="125.6" cy="-90" rx="45.49" ry="18"/>
<text text-anchor="middle" x="125.6" y="-86.3" font-family="Serif" font-size="14.00">FileStore</text>
</g>
<!-- ObjectStore&#45;&gt;FileStore -->
<g id="edge26" class="edge">
<title>ObjectStore&#45;&gt;FileStore</title>
<path fill="none" stroke="black" d="M186.27,-144.76C175.76,-135.45 162.4,-123.61 150.89,-113.41"/>
<polygon fill="black" stroke="black" points="153.08,-110.68 143.28,-106.67 148.44,-115.92 153.08,-110.68"/>
</g>
<!-- BlueStore -->
<g id="node24" class="node">
<title>BlueStore</title>
<ellipse fill="#b2dfee" stroke="#b2dfee" cx="249.6" cy="-90" rx="48.99" ry="18"/>
<text text-anchor="middle" x="249.6" y="-86.3" font-family="Serif" font-size="14.00">BlueStore</text>
</g>
<!-- ObjectStore&#45;&gt;BlueStore -->
<g id="edge27" class="edge">
<title>ObjectStore&#45;&gt;BlueStore</title>
<path fill="none" stroke="black" d="M215.49,-144.05C220.85,-135.71 227.42,-125.49 233.36,-116.25"/>
<polygon fill="black" stroke="black" points="236.34,-118.09 238.8,-107.79 230.45,-114.31 236.34,-118.09"/>
</g>
<!-- crushtool -->
<g id="node19" class="node">
<title>crushtool</title>
<ellipse fill="#b2dfee" stroke="#b2dfee" cx="543.6" cy="-162" rx="47.39" ry="18"/>
<text text-anchor="middle" x="543.6" y="-158.3" font-family="Serif" font-size="14.00">crushtool</text>
</g>
<!-- crushtool&#45;&gt;CrushWrapper -->
<g id="edge18" class="edge">
<title>crushtool&#45;&gt;CrushWrapper</title>
<path fill="none" stroke="black" d="M530.33,-144.41C523.52,-135.91 515.1,-125.37 507.53,-115.91"/>
<polygon fill="black" stroke="black" points="510.14,-113.58 501.16,-107.96 504.68,-117.95 510.14,-113.58"/>
</g>
<!-- OSDMapTool -->
<g id="node21" class="node">
<title>OSDMapTool</title>
<ellipse fill="#b2dfee" stroke="#b2dfee" cx="589.6" cy="-234" rx="62.29" ry="18"/>
<text text-anchor="middle" x="589.6" y="-230.3" font-family="Serif" font-size="14.00">OSDMapTool</text>
</g>
<!-- OSDMapTool&#45;&gt;OSDMap -->
<g id="edge20" class="edge">
<title>OSDMapTool&#45;&gt;OSDMap</title>
<path fill="none" stroke="black" d="M556.86,-218.5C531.66,-207.33 496.77,-191.87 470.21,-180.11"/>
<polygon fill="black" stroke="black" points="471.4,-176.8 460.83,-175.95 468.56,-183.2 471.4,-176.8"/>
</g>
<!-- PrimaryLogPG&#45;&gt;OSDMap -->
<g id="edge25" class="edge">
<title>PrimaryLogPG&#45;&gt;OSDMap</title>
<path fill="none" stroke="black" d="M329.35,-217.64C349.16,-207.05 375.61,-192.92 396.64,-181.68"/>
<polygon fill="black" stroke="black" points="398.41,-184.7 405.58,-176.9 395.11,-178.53 398.41,-184.7"/>
</g>
<!-- PrimaryLogPG&#45;&gt;ObjectStore -->
<g id="edge24" class="edge">
<title>PrimaryLogPG&#45;&gt;ObjectStore</title>
<path fill="none" stroke="black" d="M278.33,-216.76C265.3,-207.27 248.69,-195.15 234.53,-184.82"/>
<polygon fill="black" stroke="black" points="236.22,-181.73 226.08,-178.67 232.1,-187.39 236.22,-181.73"/>
</g>
<!-- xfs -->
<g id="node26" class="node">
<title>xfs</title>
<ellipse fill="#b2dfee" stroke="#b2dfee" cx="174.6" cy="-18" rx="27" ry="18"/>
<text text-anchor="middle" x="174.6" y="-14.3" font-family="Serif" font-size="14.00">xfs</text>
</g>
<!-- FileStore&#45;&gt;xfs -->
<g id="edge29" class="edge">
<title>FileStore&#45;&gt;xfs</title>
<path fill="none" stroke="black" d="M137.21,-72.41C143.36,-63.62 151.03,-52.66 157.82,-42.96"/>
<polygon fill="black" stroke="black" points="160.87,-44.71 163.74,-34.51 155.14,-40.7 160.87,-44.71"/>
</g>
<!-- btrfs -->
<g id="node27" class="node">
<title>btrfs</title>
<ellipse fill="#b2dfee" stroke="#b2dfee" cx="28.6" cy="-18" rx="28.7" ry="18"/>
<text text-anchor="middle" x="28.6" y="-14.3" font-family="Serif" font-size="14.00">btrfs</text>
</g>
<!-- FileStore&#45;&gt;btrfs -->
<g id="edge30" class="edge">
<title>FileStore&#45;&gt;btrfs</title>
<path fill="none" stroke="black" d="M104.55,-73.81C89.98,-63.29 70.47,-49.22 54.88,-37.96"/>
<polygon fill="black" stroke="black" points="56.83,-35.06 46.67,-32.04 52.73,-40.73 56.83,-35.06"/>
</g>
<!-- ext4 -->
<g id="node28" class="node">
<title>ext4</title>
<ellipse fill="#b2dfee" stroke="#b2dfee" cx="102.6" cy="-18" rx="27.1" ry="18"/>
<text text-anchor="middle" x="102.6" y="-14.3" font-family="Serif" font-size="14.00">ext4</text>
</g>
<!-- FileStore&#45;&gt;ext4 -->
<g id="edge31" class="edge">
<title>FileStore&#45;&gt;ext4</title>
<path fill="none" stroke="black" d="M120.03,-72.05C117.4,-64.06 114.21,-54.33 111.27,-45.4"/>
<polygon fill="black" stroke="black" points="114.56,-44.2 108.11,-35.79 107.91,-46.38 114.56,-44.2"/>
</g>
<!-- rocksdb -->
<g id="node25" class="node">
<title>rocksdb</title>
<ellipse fill="#b2dfee" stroke="#b2dfee" cx="261.6" cy="-18" rx="41.69" ry="18"/>
<text text-anchor="middle" x="261.6" y="-14.3" font-family="Serif" font-size="14.00">rocksdb</text>
</g>
<!-- BlueStore&#45;&gt;rocksdb -->
<g id="edge28" class="edge">
<title>BlueStore&#45;&gt;rocksdb</title>
<path fill="none" stroke="black" d="M252.56,-71.7C253.89,-63.98 255.48,-54.71 256.95,-46.11"/>
<polygon fill="black" stroke="black" points="260.43,-46.55 258.67,-36.1 253.53,-45.37 260.43,-46.55"/>
</g>
</g>
</svg>
