<?xml version="1.0" encoding="UTF-8" standalone="no"?>
<!DOCTYPE svg PUBLIC "-//W3C//DTD SVG 1.1//EN"
 "http://www.w3.org/Graphics/SVG/1.1/DTD/svg11.dtd">
<!-- Generated by graphviz version 2.40.1 (20161225.0304)
 -->
<!-- Title: object_store Pages: 1 -->
<svg width="864pt" height="314pt"
 viewBox="0.00 0.00 864.00 314.41" xmlns="http://www.w3.org/2000/svg" xmlns:xlink="http://www.w3.org/1999/xlink">
<g id="graph0" class="graph" transform="scale(.6605 .6605) rotate(0) translate(4 472)">
<title>object_store</title>
<polygon fill="#ffffff" stroke="transparent" points="-4,4 -4,-472 1304.0433,-472 1304.0433,4 -4,4"/>
<!-- testrados -->
<g id="node1" class="node">
<title>testrados</title>
<ellipse fill="#b2dfee" stroke="#b2dfee" cx="939.5975" cy="-378" rx="46.2923" ry="18"/>
<text text-anchor="middle" x="939.5975" y="-374.3" font-family="Serif" font-size="14.00" fill="#000000">testrados</text>
</g>
<!-- librados -->
<g id="node2" class="node">
<title>librados</title>
<ellipse fill="#b2dfee" stroke="#b2dfee" cx="939.5975" cy="-306" rx="42.4939" ry="18"/>
<text text-anchor="middle" x="939.5975" y="-302.3" font-family="Serif" font-size="14.00" fill="#000000">librados</text>
</g>
<!-- testrados&#45;&gt;librados -->
<g id="edge1" class="edge">
<title>testrados&#45;&gt;librados</title>
<path fill="none" stroke="#000000" d="M939.5975,-359.8314C939.5975,-352.131 939.5975,-342.9743 939.5975,-334.4166"/>
<polygon fill="#000000" stroke="#000000" points="943.0976,-334.4132 939.5975,-324.4133 936.0976,-334.4133 943.0976,-334.4132"/>
</g>
<!-- objecter -->
<g id="node9" class="node">
<title>objecter</title>
<ellipse fill="#b2dfee" stroke="#b2dfee" cx="466.5975" cy="-234" rx="42.4939" ry="18"/>
<text text-anchor="middle" x="466.5975" y="-230.3" font-family="Serif" font-size="14.00" fill="#000000">objecter</text>
</g>
<!-- librados&#45;&gt;objecter -->
<g id="edge8" class="edge">
<title>librados&#45;&gt;objecter</title>
<path fill="none" stroke="#000000" d="M897.5596,-303.4793C821.2231,-298.2698 655.0861,-284.0165 518.5975,-252 515.0399,-251.1655 511.3845,-250.1785 507.74,-249.1033"/>
<polygon fill="#000000" stroke="#000000" points="508.7825,-245.7621 498.1929,-246.0949 506.6787,-252.4385 508.7825,-245.7621"/>
</g>
<!-- testradospp -->
<g id="node3" class="node">
<title>testradospp</title>
<ellipse fill="#b2dfee" stroke="#b2dfee" cx="1059.5975" cy="-378" rx="55.7903" ry="18"/>
<text text-anchor="middle" x="1059.5975" y="-374.3" font-family="Serif" font-size="14.00" fill="#000000">testradospp</text>
</g>
<!-- testradospp&#45;&gt;librados -->
<g id="edge2" class="edge">
<title>testradospp&#45;&gt;librados</title>
<path fill="none" stroke="#000000" d="M1032.9656,-362.0209C1015.2022,-351.3629 991.7175,-337.2721 972.7456,-325.8889"/>
<polygon fill="#000000" stroke="#000000" points="974.4876,-322.8524 964.1119,-320.7087 970.8861,-328.8549 974.4876,-322.8524"/>
</g>
<!-- rbd -->
<g id="node4" class="node">
<title>rbd</title>
<ellipse fill="#b2dfee" stroke="#b2dfee" cx="1160.5975" cy="-378" rx="27" ry="18"/>
<text text-anchor="middle" x="1160.5975" y="-374.3" font-family="Serif" font-size="14.00" fill="#000000">rbd</text>
</g>
<!-- rbd&#45;&gt;librados -->
<g id="edge3" class="edge">
<title>rbd&#45;&gt;librados</title>
<path fill="none" stroke="#000000" d="M1139.5647,-366.6937C1134.7227,-364.3136 1129.5414,-361.9393 1124.5975,-360 1078.7064,-341.9983 1024.3611,-326.8312 986.4931,-317.1985"/>
<polygon fill="#000000" stroke="#000000" points="987.3054,-313.7938 976.7538,-314.7506 985.599,-320.5827 987.3054,-313.7938"/>
</g>
<!-- radostool -->
<g id="node5" class="node">
<title>radostool</title>
<ellipse fill="#b2dfee" stroke="#b2dfee" cx="1252.5975" cy="-378" rx="47.3916" ry="18"/>
<text text-anchor="middle" x="1252.5975" y="-374.3" font-family="Serif" font-size="14.00" fill="#000000">radostool</text>
</g>
<!-- radostool&#45;&gt;librados -->
<g id="edge4" class="edge">
<title>radostool&#45;&gt;librados</title>
<path fill="none" stroke="#000000" d="M1216.9119,-365.9194C1210.199,-363.8209 1203.2113,-361.7527 1196.5975,-360 1124.9131,-341.0032 1040.5702,-324.3467 988.5938,-314.7256"/>
<polygon fill="#000000" stroke="#000000" points="989.1114,-311.2622 978.6434,-312.8966 987.8459,-318.1468 989.1114,-311.2622"/>
</g>
<!-- radosgw&#45;admin -->
<g id="node6" class="node">
<title>radosgw&#45;admin</title>
<ellipse fill="#b2dfee" stroke="#b2dfee" cx="738.5975" cy="-450" rx="72.2875" ry="18"/>
<text text-anchor="middle" x="738.5975" y="-446.3" font-family="Serif" font-size="14.00" fill="#000000">radosgw&#45;admin</text>
</g>
<!-- radosgw -->
<g id="node7" class="node">
<title>radosgw</title>
<ellipse fill="#b2dfee" stroke="#b2dfee" cx="727.5975" cy="-378" rx="44.393" ry="18"/>
<text text-anchor="middle" x="727.5975" y="-374.3" font-family="Serif" font-size="14.00" fill="#000000">radosgw</text>
</g>
<!-- radosgw&#45;admin&#45;&gt;radosgw -->
<g id="edge5" class="edge">
<title>radosgw&#45;admin&#45;&gt;radosgw</title>
<path fill="none" stroke="#000000" d="M735.8217,-431.8314C734.6452,-424.131 733.2463,-414.9743 731.9389,-406.4166"/>
<polygon fill="#000000" stroke="#000000" points="735.3808,-405.7699 730.4106,-396.4133 728.4611,-406.8272 735.3808,-405.7699"/>
</g>
<!-- radosgw&#45;&gt;librados -->
<g id="edge6" class="edge">
<title>radosgw&#45;&gt;librados</title>
<path fill="none" stroke="#000000" d="M761.6589,-366.432C798.3455,-353.9724 856.7999,-334.1199 896.6214,-320.5956"/>
<polygon fill="#000000" stroke="#000000" points="897.9762,-323.8319 906.3195,-317.302 895.7251,-317.2038 897.9762,-323.8319"/>
</g>
<!-- radosacl -->
<g id="node8" class="node">
<title>radosacl</title>
<ellipse fill="#b2dfee" stroke="#b2dfee" cx="832.5975" cy="-378" rx="42.7926" ry="18"/>
<text text-anchor="middle" x="832.5975" y="-374.3" font-family="Serif" font-size="14.00" fill="#000000">radosacl</text>
</g>
<!-- radosacl&#45;&gt;librados -->
<g id="edge7" class="edge">
<title>radosacl&#45;&gt;librados</title>
<path fill="none" stroke="#000000" d="M855.5516,-362.5542C870.9253,-352.2093 891.3598,-338.459 908.2299,-327.1072"/>
<polygon fill="#000000" stroke="#000000" points="910.3386,-329.9068 916.6812,-321.4203 906.4307,-324.0992 910.3386,-329.9068"/>
</g>
<!-- OSDMap -->
<g id="node15" class="node">
<title>OSDMap</title>
<ellipse fill="#b2dfee" stroke="#b2dfee" cx="431.5975" cy="-162" rx="46.2923" ry="18"/>
<text text-anchor="middle" x="431.5975" y="-158.3" font-family="Serif" font-size="14.00" fill="#000000">OSDMap</text>
</g>
<!-- objecter&#45;&gt;OSDMap -->
<g id="edge15" class="edge">
<title>objecter&#45;&gt;OSDMap</title>
<path fill="none" stroke="#000000" d="M457.9458,-216.2022C453.9493,-207.981 449.1174,-198.041 444.6885,-188.9301"/>
<polygon fill="#000000" stroke="#000000" points="447.7907,-187.306 440.2709,-179.8425 441.4951,-190.3664 447.7907,-187.306"/>
</g>
<!-- ObjectCacher -->
<g id="node10" class="node">
<title>ObjectCacher</title>
<ellipse fill="#b2dfee" stroke="#b2dfee" cx="466.5975" cy="-378" rx="63.8893" ry="18"/>
<text text-anchor="middle" x="466.5975" y="-374.3" font-family="Serif" font-size="14.00" fill="#000000">ObjectCacher</text>
</g>
<!-- Filer -->
<g id="node11" class="node">
<title>Filer</title>
<ellipse fill="#b2dfee" stroke="#b2dfee" cx="466.5975" cy="-306" rx="28.6953" ry="18"/>
<text text-anchor="middle" x="466.5975" y="-302.3" font-family="Serif" font-size="14.00" fill="#000000">Filer</text>
</g>
<!-- ObjectCacher&#45;&gt;Filer -->
<g id="edge9" class="edge">
<title>ObjectCacher&#45;&gt;Filer</title>
<path fill="none" stroke="#000000" d="M466.5975,-359.8314C466.5975,-352.131 466.5975,-342.9743 466.5975,-334.4166"/>
<polygon fill="#000000" stroke="#000000" points="470.0976,-334.4132 466.5975,-324.4133 463.0976,-334.4133 470.0976,-334.4132"/>
</g>
<!-- Filer&#45;&gt;objecter -->
<g id="edge14" class="edge">
<title>Filer&#45;&gt;objecter</title>
<path fill="none" stroke="#000000" d="M466.5975,-287.8314C466.5975,-280.131 466.5975,-270.9743 466.5975,-262.4166"/>
<polygon fill="#000000" stroke="#000000" points="470.0976,-262.4132 466.5975,-252.4133 463.0976,-262.4133 470.0976,-262.4132"/>
</g>
<!-- dumpjournal -->
<g id="node12" class="node">
<title>dumpjournal</title>
<ellipse fill="#b2dfee" stroke="#b2dfee" cx="585.5975" cy="-450" rx="62.2891" ry="18"/>
<text text-anchor="middle" x="585.5975" y="-446.3" font-family="Serif" font-size="14.00" fill="#000000">dumpjournal</text>
</g>
<!-- Journaler -->
<g id="node13" class="node">
<title>Journaler</title>
<ellipse fill="#b2dfee" stroke="#b2dfee" cx="596.5975" cy="-378" rx="48.1917" ry="18"/>
<text text-anchor="middle" x="596.5975" y="-374.3" font-family="Serif" font-size="14.00" fill="#000000">Journaler</text>
</g>
<!-- dumpjournal&#45;&gt;Journaler -->
<g id="edge10" class="edge">
<title>dumpjournal&#45;&gt;Journaler</title>
<path fill="none" stroke="#000000" d="M588.3732,-431.8314C589.5497,-424.131 590.9486,-414.9743 592.256,-406.4166"/>
<polygon fill="#000000" stroke="#000000" points="595.7338,-406.8272 593.7843,-396.4133 588.8141,-405.7699 595.7338,-406.8272"/>
</g>
<!-- Journaler&#45;&gt;Filer -->
<g id="edge11" class="edge">
<title>Journaler&#45;&gt;Filer</title>
<path fill="none" stroke="#000000" d="M569.6614,-363.0816C548.5773,-351.4042 519.2432,-335.1576 497.2597,-322.9821"/>
<polygon fill="#000000" stroke="#000000" points="498.7774,-319.8218 488.3337,-318.0385 495.3858,-325.9453 498.7774,-319.8218"/>
</g>
<!-- SyntheticClient -->
<g id="node14" class="node">
<title>SyntheticClient</title>
<ellipse fill="#b2dfee" stroke="#b2dfee" cx="313.5975" cy="-378" rx="70.6878" ry="18"/>
<text text-anchor="middle" x="313.5975" y="-374.3" font-family="Serif" font-size="14.00" fill="#000000">SyntheticClient</text>
</g>
<!-- SyntheticClient&#45;&gt;objecter -->
<g id="edge13" class="edge">
<title>SyntheticClient&#45;&gt;objecter</title>
<path fill="none" stroke="#000000" d="M332.3583,-360.3428C359.8703,-334.4491 411.2024,-286.1365 441.7978,-257.3409"/>
<polygon fill="#000000" stroke="#000000" points="444.2191,-259.8684 449.1023,-250.466 439.4215,-254.771 444.2191,-259.8684"/>
</g>
<!-- SyntheticClient&#45;&gt;Filer -->
<g id="edge12" class="edge">
<title>SyntheticClient&#45;&gt;Filer</title>
<path fill="none" stroke="#000000" d="M347.5531,-362.0209C373.4704,-349.8245 408.9403,-333.1328 434.4093,-321.1474"/>
<polygon fill="#000000" stroke="#000000" points="436.0822,-324.2284 443.6401,-316.8035 433.1016,-317.8946 436.0822,-324.2284"/>
</g>
<!-- CrushWrapper -->
<g id="node20" class="node">
<title>CrushWrapper</title>
<ellipse fill="#b2dfee" stroke="#b2dfee" cx="487.5975" cy="-90" rx="67.6881" ry="18"/>
<text text-anchor="middle" x="487.5975" y="-86.3" font-family="Serif" font-size="14.00" fill="#000000">CrushWrapper</text>
</g>
<!-- OSDMap&#45;&gt;CrushWrapper -->
<g id="edge19" class="edge">
<title>OSDMap&#45;&gt;CrushWrapper</title>
<path fill="none" stroke="#000000" d="M445.1535,-144.5708C451.8632,-135.9441 460.0966,-125.3582 467.5204,-115.8134"/>
<polygon fill="#000000" stroke="#000000" points="470.4005,-117.8112 473.7772,-107.7689 464.875,-113.5136 470.4005,-117.8112"/>
</g>
<!-- ceph&#45;osd -->
<g id="node16" class="node">
<title>ceph&#45;osd</title>
<ellipse fill="#b2dfee" stroke="#b2dfee" cx="172.5975" cy="-378" rx="46.2923" ry="18"/>
<text text-anchor="middle" x="172.5975" y="-374.3" font-family="Serif" font-size="14.00" fill="#000000">ceph&#45;osd</text>
</g>
<!-- PG -->
<g id="node17" class="node">
<title>PG</title>
<ellipse fill="#b2dfee" stroke="#b2dfee" cx="270.5975" cy="-306" rx="27" ry="18"/>
<text text-anchor="middle" x="270.5975" y="-302.3" font-family="Serif" font-size="14.00" fill="#000000">PG</text>
</g>
<!-- ceph&#45;osd&#45;&gt;PG -->
<g id="edge16" class="edge">
<title>ceph&#45;osd&#45;&gt;PG</title>
<path fill="none" stroke="#000000" d="M194.3468,-362.0209C209.0011,-351.2544 228.4234,-336.985 243.9982,-325.5423"/>
<polygon fill="#000000" stroke="#000000" points="246.2138,-328.2576 252.2004,-319.5162 242.0692,-322.6164 246.2138,-328.2576"/>
</g>
<!-- ObjectStore -->
<g id="node18" class="node">
<title>ObjectStore</title>
<ellipse fill="#b2dfee" stroke="#b2dfee" cx="204.5975" cy="-162" rx="56.59" ry="18"/>
<text text-anchor="middle" x="204.5975" y="-158.3" font-family="Serif" font-size="14.00" fill="#000000">ObjectStore</text>
</g>
<!-- ceph&#45;osd&#45;&gt;ObjectStore -->
<g id="edge17" class="edge">
<title>ceph&#45;osd&#45;&gt;ObjectStore</title>
<path fill="none" stroke="#000000" d="M175.2707,-359.9555C180.8472,-322.3144 193.755,-235.1867 200.4309,-190.1246"/>
<polygon fill="#000000" stroke="#000000" points="203.9059,-190.5501 201.9093,-180.1451 196.9815,-189.5242 203.9059,-190.5501"/>
</g>
<!-- PG&#45;&gt;OSDMap -->
<g id="edge23" class="edge">
<title>PG&#45;&gt;OSDMap</title>
<path fill="none" stroke="#000000" d="M295.0466,-298.1588C318.4023,-289.7067 353.5169,-274.383 377.5975,-252 396.5506,-234.383 411.0929,-208.6168 420.2858,-189.1635"/>
<polygon fill="#000000" stroke="#000000" points="423.538,-190.4665 424.4826,-179.9139 417.1634,-187.5742 423.538,-190.4665"/>
</g>
<!-- PG&#45;&gt;ObjectStore -->
<g id="edge22" class="edge">
<title>PG&#45;&gt;ObjectStore</title>
<path fill="none" stroke="#000000" d="M254.2655,-291.5013C243.9274,-281.4246 231.1337,-267.1299 223.5975,-252 213.9554,-232.6424 209.1977,-208.5799 206.8549,-190.2071"/>
<polygon fill="#000000" stroke="#000000" points="210.3178,-189.6784 205.7359,-180.1256 203.3605,-190.4507 210.3178,-189.6784"/>
</g>
<!-- PrimaryLogPG -->
<g id="node22" class="node">
<title>PrimaryLogPG</title>
<ellipse fill="#b2dfee" stroke="#b2dfee" cx="300.5975" cy="-234" rx="67.6881" ry="18"/>
<text text-anchor="middle" x="300.5975" y="-230.3" font-family="Serif" font-size="14.00" fill="#000000">PrimaryLogPG</text>
</g>
<!-- PG&#45;&gt;PrimaryLogPG -->
<g id="edge21" class="edge">
<title>PG&#45;&gt;PrimaryLogPG</title>
<path fill="none" stroke="#000000" d="M277.8596,-288.5708C281.2471,-280.4409 285.3595,-270.571 289.1507,-261.4722"/>
<polygon fill="#000000" stroke="#000000" points="292.4734,-262.5975 293.0889,-252.0206 286.0119,-259.9052 292.4734,-262.5975"/>
</g>
<!-- FileStore -->
<g id="node23" class="node">
<title>FileStore</title>
<ellipse fill="#b2dfee" stroke="#b2dfee" cx="125.5975" cy="-90" rx="45.4919" ry="18"/>
<text text-anchor="middle" x="125.5975" y="-86.3" font-family="Serif" font-size="14.00" fill="#000000">FileStore</text>
</g>
<!-- ObjectStore&#45;&gt;FileStore -->
<g id="edge26" class="edge">
<title>ObjectStore&#45;&gt;FileStore</title>
<path fill="none" stroke="#000000" d="M185.8756,-144.937C175.5694,-135.5441 162.6251,-123.7467 151.3761,-113.4944"/>
<polygon fill="#000000" stroke="#000000" points="153.661,-110.8414 143.9124,-106.6921 148.9458,-116.015 153.661,-110.8414"/>
</g>
<!-- BlueStore -->
<g id="node24" class="node">
<title>BlueStore</title>
<ellipse fill="#b2dfee" stroke="#b2dfee" cx="249.5975" cy="-90" rx="48.9926" ry="18"/>
<text text-anchor="middle" x="249.5975" y="-86.3" font-family="Serif" font-size="14.00" fill="#000000">BlueStore</text>
</g>
<!-- ObjectStore&#45;&gt;BlueStore -->
<g id="edge27" class="edge">
<title>ObjectStore&#45;&gt;BlueStore</title>
<path fill="none" stroke="#000000" d="M215.7211,-144.2022C221.007,-135.7448 227.4297,-125.4685 233.2556,-116.147"/>
<polygon fill="#000000" stroke="#000000" points="236.2698,-117.928 238.6018,-107.593 230.3338,-114.218 236.2698,-117.928"/>
</g>
<!-- crushtool -->
<g id="node19" class="node">
<title>crushtool</title>
<ellipse fill="#b2dfee" stroke="#b2dfee" cx="543.5975" cy="-162" rx="47.3916" ry="18"/>
<text text-anchor="middle" x="543.5975" y="-158.3" font-family="Serif" font-size="14.00" fill="#000000">crushtool</text>
</g>
<!-- crushtool&#45;&gt;CrushWrapper -->
<g id="edge18" class="edge">
<title>crushtool&#45;&gt;CrushWrapper</title>
<path fill="none" stroke="#000000" d="M530.0414,-144.5708C523.3318,-135.9441 515.0983,-125.3582 507.6745,-115.8134"/>
<polygon fill="#000000" stroke="#000000" points="510.3199,-113.5136 501.4177,-107.7689 504.7944,-117.8112 510.3199,-113.5136"/>
</g>
<!-- OSDMapTool -->
<g id="node21" class="node">
<title>OSDMapTool</title>
<ellipse fill="#b2dfee" stroke="#b2dfee" cx="589.5975" cy="-234" rx="62.2891" ry="18"/>
<text text-anchor="middle" x="589.5975" y="-230.3" font-family="Serif" font-size="14.00" fill="#000000">OSDMapTool</text>
</g>
<!-- OSDMapTool&#45;&gt;OSDMap -->
<g id="edge20" class="edge">
<title>OSDMapTool&#45;&gt;OSDMap</title>
<path fill="none" stroke="#000000" d="M556.0897,-218.7307C531.2412,-207.4073 497.2837,-191.933 471.1104,-180.0059"/>
<polygon fill="#000000" stroke="#000000" points="472.4023,-176.7484 461.8512,-175.7865 469.4995,-183.1182 472.4023,-176.7484"/>
</g>
<!-- PrimaryLogPG&#45;&gt;OSDMap -->
<g id="edge25" class="edge">
<title>PrimaryLogPG&#45;&gt;OSDMap</title>
<path fill="none" stroke="#000000" d="M330.3234,-217.6621C349.7878,-206.9641 375.3322,-192.9244 395.8963,-181.622"/>
<polygon fill="#000000" stroke="#000000" points="397.5848,-184.6878 404.6626,-176.8039 394.2132,-178.5533 397.5848,-184.6878"/>
</g>
<!-- PrimaryLogPG&#45;&gt;ObjectStore -->
<g id="edge24" class="edge">
<title>PrimaryLogPG&#45;&gt;ObjectStore</title>
<path fill="none" stroke="#000000" d="M277.8468,-216.937C265.082,-207.3634 248.9868,-195.292 235.1371,-184.9047"/>
<polygon fill="#000000" stroke="#000000" points="236.9537,-181.8922 226.8536,-178.6921 232.7537,-187.4922 236.9537,-181.8922"/>
</g>
<!-- xfs -->
<g id="node26" class="node">
<title>xfs</title>
<ellipse fill="#b2dfee" stroke="#b2dfee" cx="174.5975" cy="-18" rx="27" ry="18"/>
<text text-anchor="middle" x="174.5975" y="-14.3" font-family="Serif" font-size="14.00" fill="#000000">xfs</text>
</g>
<!-- FileStore&#45;&gt;xfs -->
<g id="edge29" class="edge">
<title>FileStore&#45;&gt;xfs</title>
<path fill="none" stroke="#000000" d="M137.459,-72.5708C143.4441,-63.7763 150.815,-52.9457 157.4082,-43.2577"/>
<polygon fill="#000000" stroke="#000000" points="160.4498,-45.0093 163.1826,-34.7729 154.6628,-41.0709 160.4498,-45.0093"/>
</g>
<!-- btrfs -->
<g id="node27" class="node">
<title>btrfs</title>
<ellipse fill="#b2dfee" stroke="#b2dfee" cx="28.5975" cy="-18" rx="28.6953" ry="18"/>
<text text-anchor="middle" x="28.5975" y="-14.3" font-family="Serif" font-size="14.00" fill="#000000">btrfs</text>
</g>
<!-- FileStore&#45;&gt;btrfs -->
<g id="edge30" class="edge">
<title>FileStore&#45;&gt;btrfs</title>
<path fill="none" stroke="#000000" d="M104.07,-74.0209C89.6594,-63.3243 70.5906,-49.1702 55.226,-37.7655"/>
<polygon fill="#000000" stroke="#000000" points="57.2402,-34.9018 47.1244,-31.7519 53.068,-40.5226 57.2402,-34.9018"/>
</g>
<!-- ext4 -->
<g id="node28" class="node">
<title>ext4</title>
<ellipse fill="#b2dfee" stroke="#b2dfee" cx="102.5975" cy="-18" rx="27.0966" ry="18"/>
<text text-anchor="middle" x="102.5975" y="-14.3" font-family="Serif" font-size="14.00" fill="#000000">ext4</text>
</g>
<!-- FileStore&#45;&gt;ext4 -->
<g id="edge31" class="edge">
<title>FileStore&#45;&gt;ext4</title>
<path fill="none" stroke="#000000" d="M119.7936,-71.8314C117.241,-63.8406 114.1875,-54.2819 111.3667,-45.4514"/>
<polygon fill="#000000" stroke="#000000" points="114.6969,-44.3741 108.3198,-35.9134 108.0288,-46.5043 114.6969,-44.3741"/>
</g>
<!-- rocksdb -->
<g id="node25" class="node">
<title>rocksdb</title>
<ellipse fill="#b2dfee" stroke="#b2dfee" cx="261.5975" cy="-18" rx="41.6928" ry="18"/>
<text text-anchor="middle" x="261.5975" y="-14.3" font-family="Serif" font-size="14.00" fill="#000000">rocksdb</text>
</g>
<!-- BlueStore&#45;&gt;rocksdb -->
<g id="edge28" class="edge">
<title>BlueStore&#45;&gt;rocksdb</title>
<path fill="none" stroke="#000000" d="M252.6256,-71.8314C253.909,-64.131 255.4351,-54.9743 256.8614,-46.4166"/>
<polygon fill="#000000" stroke="#000000" points="260.3369,-46.8526 258.5286,-36.4133 253.4321,-45.7018 260.3369,-46.8526"/>
</g>
</g>
</svg>
